/* XPM */
static char * dirt_xpm[] = {
"32 32 32 1",
" 	c #733C0C",
".	c #763F0C",
"+	c #70390B",
"@	c #6E370B",
"#	c #743D0C",
"$	c #713A0B",
"%	c #6F380B",
"&	c #723B0B",
"*	c #79420C",
"=	c #7D460D",
"-	c #78410C",
";	c #753E0C",
">	c #7C450C",
",	c #7B440C",
"'	c #77400C",
")	c #7E470D",
"!	c #7A430C",
"~	c #7E470C",
"{	c #7F480D",
"]	c #824B0D",
"^	c #80490D",
"/	c #733C0B",
"(	c #814A0D",
"_	c #7C450D",
":	c #7A430D",
"<	c #79420D",
"[	c #7D460C",
"}	c #743D0B",
"|	c #7B440D",
"1	c #753E0B",
"2	c #834C0D",
"3	c #844D0E",
" .+@@.#$@%&*&@@& @@@=@@@@&@+-%+%",
";.+++>@#;..%&@;;+&%*#@,-.'%.-@'+",
" +++@*)&!&)&'&~++'#{-,;$]@%$*^!$",
"@$-*@/$*%~!,;#=!!!%.#$'#-,..;-@#",
"@$-''-$'+$>$@=#'@##%@@% #$+%$(^&",
"@  '-;!~#&'+$_*:;#$&$'*$@ ++*.*.",
"@@,-#$.#;.%(!';@#;@!+;>;#<[+.^@.",
"&@#@@+&@'<-;.%++;//,%-%.#%.!;=^+",
"#@%}#:&;@&)&[/++_,//,#;+++;&$_@&",
".'+'$$@-![^{># .; #- ;-%}*% $=;#",
"-@@% ,.,*$$&&;+!;'-#$$..})@.$:~@",
".}..$;'@*{@--+$/; $;+@@%&:!#!-)#",
"+-+ }+$+#!{;*$%}!#$@#%#|>'@$!@+;",
"@'@&&#&! '-#;;=,_;_@ &!%-$@@+=!@",
"@'$+@&$*%!+;+>; ,;-*&@;-*.'.!#%@",
"&-/@&&@*.@!-&%+%+$&+@$;+@{;-%%%@",
".@'*%@,!1>!,@@%/-$$$!)#%=;@!'$-%",
";#.@+@!)-)$),#%&_!$..,&''-.%+[{@",
"+.@%@@#<#@]{>#-${=%.~-;'([&+&=@$",
"@@$+@ % &*,($@)!'. =;%<@%',@+,{!",
"@$,%+ %##%(''*!%#|&${,@%+@%|#[*@",
"@@- /$),.--*;&{;;#(% }@%.{!&#=*@",
"@@@/$+'$%,{;'+{(! ...;&@(-!@,@##",
"@@=%%[;*%@;;&.+&.;-**@$)2 $!)+##",
"@;.;|.@$);;~@^#;.@##,,*..^-!,;_%",
"@@_;;!&=;!#;{',*.=,&3);+&.''-=&-",
"@@%%%#}@@#+& ;.@&~,/>@.&+;  +-.+",
"@%%';@;@@$$$+ ,!!=@@^{#,#'='@*!@",
"@!@+,[@+.'%-}.&&$*;  @%@|.*))$=*",
"@-##'&@>';,$*$; % ;++% '>..!@+!*",
"@@#@#% +(#@_@+;*#+$&&!1=!$@{ %++",
"@@@@+#@@$@@;),@@@%%=;;;,!>,,@&%+"};
