/* XPM */
static char * grass_xpm[] = {
"32 32 83 1",
" 	c #02B602",
".	c #02B702",
"+	c #02B302",
"@	c #02A902",
"#	c #02B802",
"$	c #01B601",
"%	c #01B201",
"&	c #01B801",
"*	c #01B701",
"=	c #01B301",
"-	c #01A501",
";	c #01A101",
">	c #02B002",
",	c #01A301",
"'	c #01AC01",
")	c #02AE02",
"!	c #02B502",
"~	c #02A502",
"{	c #009D00",
"]	c #01A801",
"^	c #01B501",
"/	c #01AD01",
"(	c #01B101",
"_	c #01A701",
":	c #01B001",
"<	c #00A200",
"[	c #01A001",
"}	c #009700",
"|	c #019901",
"1	c #01A401",
"2	c #02B102",
"3	c #01A201",
"4	c #02B202",
"5	c #01A901",
"6	c #00A100",
"7	c #019E01",
"8	c #01AE01",
"9	c #02AF02",
"0	c #02A802",
"a	c #019D01",
"b	c #02AB02",
"c	c #02AD02",
"d	c #009E00",
"e	c #02A702",
"f	c #009F00",
"g	c #01B401",
"h	c #02AA02",
"i	c #02AC02",
"j	c #00AB00",
"k	c #00B600",
"l	c #00B800",
"m	c #00B500",
"n	c #00B400",
"o	c #00B300",
"p	c #00B200",
"q	c #00A900",
"r	c #00AD00",
"s	c #00AE00",
"t	c #00AC00",
"u	c #00B100",
"v	c #00A600",
"w	c #00A700",
"x	c #00A800",
"y	c #01AA01",
"z	c #00A000",
"A	c #009A00",
"B	c #00B700",
"C	c #02B402",
"D	c #00AA00",
"E	c #00AF00",
"F	c #01A601",
"G	c #00B000",
"H	c #00A300",
"I	c #00A400",
"J	c #009800",
"K	c #00A500",
"L	c #01AF01",
"M	c #009900",
"N	c #009C00",
"O	c #009B00",
"P	c #009500",
"Q	c #01AB01",
"R	c #019F01",
" .+. @@ #$%&*=-;>,'.#.)@.#+!# @@",
"~ &${]^/$(_:-<;[}|!!!.1>2!34 @@!",
"~ %($^/5,_%{'6)7;; /8 9~0aa9~0@b",
" c-/$3d8{/5]$$*$   ,2 2+3@@1>b;e",
".15'%1%fg*^*&*$*$*552; #  hh!3!i",
"#2[:jjkklmnlmomnp$d=5%.  . .# . ",
" @[5qkrmkrkksnqpmg^<$^92@c2 .+hc",
"# $*kktnsruvm<wtrx^$$y;~;+)_>zA2",
"#^g^sqqkjpvkBqmsjx::_/(];]aC_2!#",
".%8yDkku6kkllBBkruy5;/$53!/ 4.##",
"48(-mlk<mBBllkrrmzv<zuB.  !.c2.#",
".$%8BllonpEBuv<Ekttqqrm*C4+95>F.",
".***lBBuGuum<Hxkrq<6vjsi$*/,/H5$",
"/'^&BGtkuHkwwmjmndnwqIm5$$<'5]F(",
"-C%guuxkqqoJKEdu<vtszGq(*$$*${8_",
"!>(guouBkkufn<GBo{qpKwwtmokmlm6r",
"#. 'mvkBGxIqurBk<stDHKrptksjku<k",
"##.$qplkw{<kuKkGr{IIdrrKKG6qukkB",
"&*LL^BBGMrkkdKkKKwvDDEGHrzDnwukv",
"&mfjGukKDEBBjjm{o{wqxqkGIuodDrKr",
"$6mkxoqwttuujDqvnG6r6wpHqpHsf6ww",
"$GBlkIqmsrDuKI<DrkmoxKu6plmEsqzA",
"(6klBtGKwrrtANE6mBo<xr{6HmEkkqqn",
"]xupokKumvoNOxn6ukqK6mzOuDsklBBB",
"{EIDkqKGrrsOOnqqkuwxvnqtK<rsuokG",
"]wfuBmzukksr6G6kk<jkm<GMOKKswxpv",
"$qKqkDqkBso6Emklmfjkm6Hf{{xqxDBn",
"&kx{kkkkDvmkw{ukwvmu6mkszxpqdrkI",
"&m{wptqtzmlpA<kBnxqrDkk{ptoqqkl$",
" rM66}MDDBBjDkkEq6EK<kkE6kmKtkn'",
"!p6{P{v6uku6mk6HJu6<EtrE<ks/Q-1<",
"8pKdukBkBlksGufmmlkkqqpdnG<$_R_$"};
