/* XPM */
static char * span_xpm[] = {
"1 640 362 2",
"  	c #5CCFFB",
". 	c #5CCFFA",
"+ 	c #5CD0FA",
"@ 	c #5DCFFA",
"# 	c #5ECFF9",
"$ 	c #5ECFFA",
"% 	c #5ECEF9",
"& 	c #5FCFFA",
"* 	c #5FCEF9",
"= 	c #60CEF9",
"- 	c #5FCEF8",
"; 	c #60CFF8",
"> 	c #60CEF8",
", 	c #61CEF9",
"' 	c #62CEF8",
") 	c #63CEF7",
"! 	c #63CEF8",
"~ 	c #63CDF7",
"{ 	c #64CEF7",
"] 	c #64CDF7",
"^ 	c #65CDF6",
"/ 	c #65CEF7",
"( 	c #66CDF7",
"_ 	c #66CDF6",
": 	c #67CDF6",
"< 	c #67CDF5",
"[ 	c #68CCF5",
"} 	c #69CCF5",
"| 	c #69CDF5",
"1 	c #69CCF4",
"2 	c #6ACCF5",
"3 	c #6BCCF4",
"4 	c #6ACCF4",
"5 	c #6BCBF4",
"6 	c #6CCBF4",
"7 	c #6CCBF3",
"8 	c #6DCBF3",
"9 	c #6ECBF3",
"0 	c #6ECBF2",
"a 	c #6FCBF3",
"b 	c #6FCAF2",
"c 	c #70CBF2",
"d 	c #71CBF2",
"e 	c #70CBF1",
"f 	c #71CAF2",
"g 	c #72CAF1",
"h 	c #72CBF1",
"i 	c #73CAF1",
"j 	c #73CAF0",
"k 	c #74CAF1",
"l 	c #74CAF0",
"m 	c #74C9F0",
"n 	c #75C9F0",
"o 	c #75CAF0",
"p 	c #76C9EF",
"q 	c #75C9EF",
"r 	c #76C9F0",
"s 	c #77C9EF",
"t 	c #78C8EE",
"u 	c #77C8EF",
"v 	c #78C8EF",
"w 	c #79C8EE",
"x 	c #7AC8EE",
"y 	c #7AC7ED",
"z 	c #7AC8ED",
"A 	c #7BC8ED",
"B 	c #7CC8EC",
"C 	c #7CC7ED",
"D 	c #7DC8EC",
"E 	c #7DC7EC",
"F 	c #7EC7EC",
"G 	c #7FC7EC",
"H 	c #7FC7EB",
"I 	c #7FC6EB",
"J 	c #80C7EC",
"K 	c #80C7EB",
"L 	c #81C6EB",
"M 	c #81C7EA",
"N 	c #82C7EB",
"O 	c #82C6EB",
"P 	c #82C6EA",
"Q 	c #83C5EA",
"R 	c #83C6E9",
"S 	c #84C6EA",
"T 	c #84C5E9",
"U 	c #84C6E9",
"V 	c #85C6E9",
"W 	c #85C5E9",
"X 	c #86C5E9",
"Y 	c #86C5E8",
"Z 	c #87C5E8",
"` 	c #88C5E8",
" .	c #88C5E7",
"..	c #89C4E7",
"+.	c #89C5E7",
"@.	c #89C4E8",
"#.	c #8AC5E7",
"$.	c #8AC4E7",
"%.	c #8BC4E6",
"&.	c #8BC4E7",
"*.	c #8CC4E7",
"=.	c #8CC4E6",
"-.	c #8CC3E6",
";.	c #8DC3E5",
">.	c #8DC4E5",
",.	c #8DC4E6",
"'.	c #8EC3E6",
").	c #8EC3E5",
"!.	c #8FC3E5",
"~.	c #90C2E5",
"{.	c #90C2E4",
"].	c #90C3E4",
"^.	c #91C3E4",
"/.	c #91C2E4",
"(.	c #92C2E4",
"_.	c #92C2E3",
":.	c #93C2E3",
"<.	c #94C1E3",
"[.	c #94C2E2",
"}.	c #94C2E3",
"|.	c #95C1E3",
"1.	c #95C2E2",
"2.	c #95C1E2",
"3.	c #96C1E2",
"4.	c #96C2E1",
"5.	c #96C1E1",
"6.	c #97C2E1",
"7.	c #97C1E1",
"8.	c #98C1E2",
"9.	c #98C1E1",
"0.	c #99C0E0",
"a.	c #99C1E1",
"b.	c #9AC0E0",
"c.	c #9AC1E0",
"d.	c #9BC0E0",
"e.	c #9BC0DF",
"f.	c #9CC0E0",
"g.	c #9CC0DF",
"h.	c #9CBFDF",
"i.	c #9DC0DF",
"j.	c #9DBFDF",
"k.	c #9EBFDF",
"l.	c #9EBFDE",
"m.	c #9EC0DE",
"n.	c #9FBFDE",
"o.	c #9FC0DE",
"p.	c #A1BFDE",
"q.	c #A0BFDE",
"r.	c #A0BFDD",
"s.	c #A1BEDD",
"t.	c #A1BFDD",
"u.	c #A2BFDD",
"v.	c #A2BEDD",
"w.	c #A2BFDC",
"x.	c #A3BEDD",
"y.	c #A3BFDD",
"z.	c #A2BEDC",
"A.	c #A3BEDC",
"B.	c #A4BEDD",
"C.	c #A4BEDC",
"D.	c #A4BDDC",
"E.	c #A5BEDC",
"F.	c #A5BDDC",
"G.	c #A5BEDB",
"H.	c #A6BEDB",
"I.	c #A6BDDB",
"J.	c #A7BDDB",
"K.	c #A7BEDB",
"L.	c #A7BDDA",
"M.	c #A8BDDB",
"N.	c #A8BDDA",
"O.	c #A9BCDA",
"P.	c #A9BDDB",
"Q.	c #A9BDDA",
"R.	c #A9BDD9",
"S.	c #AABDD9",
"T.	c #AABCD9",
"U.	c #ABBCD9",
"V.	c #ACBCD9",
"W.	c #ACBCD8",
"X.	c #ACBBD8",
"Y.	c #ADBCD8",
"Z.	c #ADBBD8",
"`.	c #AEBCD8",
" +	c #AEBBD8",
".+	c #AEBBD7",
"++	c #AEBCD7",
"@+	c #AFBBD7",
"#+	c #AFBBD8",
"$+	c #B0BBD7",
"%+	c #B1BAD7",
"&+	c #B1BBD6",
"*+	c #B1BBD7",
"=+	c #B2BBD6",
"-+	c #B1BAD6",
";+	c #B2BAD6",
">+	c #B2BAD7",
",+	c #B3BAD6",
"'+	c #B4BAD5",
")+	c #B3BAD5",
"!+	c #B4BAD6",
"~+	c #B5BAD5",
"{+	c #B6BAD5",
"]+	c #B5B9D4",
"^+	c #B6B9D5",
"/+	c #B6BAD4",
"(+	c #B7B9D5",
"_+	c #B7B9D4",
":+	c #B8B9D4",
"<+	c #B8B9D3",
"[+	c #B9B8D3",
"}+	c #B9B9D3",
"|+	c #BAB9D2",
"1+	c #BAB8D2",
"2+	c #BAB9D3",
"3+	c #BBB9D3",
"4+	c #BBB8D3",
"5+	c #BCB9D2",
"6+	c #BCB8D2",
"7+	c #BBB8D2",
"8+	c #BCB8D1",
"9+	c #BDB8D1",
"0+	c #BDB8D2",
"a+	c #BEB8D2",
"b+	c #BEB8D1",
"c+	c #BEB7D1",
"d+	c #BFB7D1",
"e+	c #BFB8D1",
"f+	c #BFB8D0",
"g+	c #BFB7D0",
"h+	c #C0B7D0",
"i+	c #C1B7D0",
"j+	c #C1B6CF",
"k+	c #C1B6D0",
"l+	c #C1B7CF",
"m+	c #C2B7D0",
"n+	c #C2B7CF",
"o+	c #C3B7CF",
"p+	c #C3B6CF",
"q+	c #C4B6CE",
"r+	c #C3B6CE",
"s+	c #C4B6CF",
"t+	c #C5B6CE",
"u+	c #C6B5CE",
"v+	c #C6B6CE",
"w+	c #C5B5CD",
"x+	c #C6B6CD",
"y+	c #C6B5CD",
"z+	c #C7B5CD",
"A+	c #C8B5CD",
"B+	c #C8B5CC",
"C+	c #C9B6CC",
"D+	c #C9B5CD",
"E+	c #C9B5CC",
"F+	c #C9B4CC",
"G+	c #CAB5CC",
"H+	c #CAB4CC",
"I+	c #CBB4CC",
"J+	c #CBB5CC",
"K+	c #CBB5CB",
"L+	c #CCB4CB",
"M+	c #CDB4CB",
"N+	c #CDB3CB",
"O+	c #CDB4CA",
"P+	c #CEB4CB",
"Q+	c #CEB3CA",
"R+	c #CFB3CA",
"S+	c #CEB4C9",
"T+	c #D0B3CA",
"U+	c #D0B3C9",
"V+	c #D0B4CA",
"W+	c #D1B3CA",
"X+	c #D1B3C9",
"Y+	c #D1B2C9",
"Z+	c #D2B3C9",
"`+	c #D2B2C9",
" @	c #D2B3C8",
".@	c #D3B3C9",
"+@	c #D3B2C9",
"@@	c #D3B2C8",
"#@	c #D3B3C8",
"$@	c #D4B2C8",
"%@	c #D4B2C7",
"&@	c #D5B2C7",
"*@	c #D5B2C8",
"=@	c #D6B2C7",
"-@	c #D6B1C7",
";@	c #D6B2C6",
">@	c #D7B2C7",
",@	c #D7B1C7",
"'@	c #D8B2C7",
")@	c #D8B2C6",
"!@	c #D8B1C6",
"~@	c #D8B1C5",
"{@	c #D9B1C5",
"]@	c #D9B1C6",
"^@	c #DAB1C6",
"/@	c #DAB1C5",
"(@	c #DAB0C5",
"_@	c #DBB0C5",
":@	c #DBB1C5",
"<@	c #DBB1C4",
"[@	c #DCB0C4",
"}@	c #DCB0C5",
"|@	c #DDB0C4",
"1@	c #DEB0C4",
"2@	c #DDB0C3",
"3@	c #DEB0C3",
"4@	c #DFAFC3",
"5@	c #DFB0C3",
"6@	c #E0AFC3",
"7@	c #E0B0C3",
"8@	c #E1AFC3",
"9@	c #E1AFC2",
"0@	c #E1AEC2",
"a@	c #E2AFC2",
"b@	c #E2AEC2",
"c@	c #E3AFC2",
"d@	c #E3AEC2",
"e@	c #E3AEC1",
"f@	c #E3AFC1",
"g@	c #E4AFC1",
"h@	c #E4AEC1",
"i@	c #E4AEC0",
"j@	c #E5AEC1",
"k@	c #E5AEC0",
"l@	c #E6ADC1",
"m@	c #E6AEC0",
"n@	c #E6ADC0",
"o@	c #E6AEBF",
"p@	c #E7AEC0",
"q@	c #E8ADBF",
"r@	c #E8ADC0",
"s@	c #E8AEC0",
"t@	c #E9AEBF",
"u@	c #E9ADBF",
"v@	c #EAADBF",
"w@	c #E9ADBE",
"x@	c #EAADBE",
"y@	c #EBADBE",
"z@	c #EBADBF",
"A@	c #ECADBF",
"B@	c #EBACBE",
"C@	c #ECADBE",
"D@	c #ECACBE",
"E@	c #ECADBD",
"F@	c #ECACBD",
"G@	c #EDACBE",
"H@	c #EDACBD",
"I@	c #EEACBD",
"J@	c #EFACBD",
"K@	c #EFABBC",
"L@	c #EFACBC",
"M@	c #F0ACBC",
"N@	c #F0ACBB",
"O@	c #F0ABBC",
"P@	c #F1ABBC",
"Q@	c #F1ABBB",
"R@	c #F2ABBB",
"S@	c #F2ABBC",
"T@	c #F3ABBB",
"U@	c #F4ABBB",
"  ",
". ",
"+ ",
". ",
". ",
"@ ",
"@ ",
"@ ",
"# ",
"# ",
"$ ",
"$ ",
"% ",
"# ",
"& ",
"* ",
"= ",
"* ",
"- ",
"= ",
"; ",
"> ",
", ",
", ",
"' ",
"' ",
"' ",
"' ",
"' ",
"' ",
") ",
"! ",
"~ ",
"! ",
"{ ",
") ",
"] ",
"^ ",
"/ ",
"{ ",
"( ",
"^ ",
"( ",
"_ ",
"_ ",
"_ ",
": ",
": ",
"< ",
": ",
"< ",
"[ ",
"[ ",
"[ ",
"} ",
"[ ",
"| ",
"} ",
"1 ",
"1 ",
"2 ",
"2 ",
"3 ",
"4 ",
"3 ",
"3 ",
"3 ",
"5 ",
"5 ",
"6 ",
"7 ",
"7 ",
"8 ",
"8 ",
"8 ",
"9 ",
"9 ",
"0 ",
"9 ",
"a ",
"a ",
"a ",
"b ",
"b ",
"c ",
"c ",
"d ",
"e ",
"e ",
"f ",
"d ",
"g ",
"h ",
"g ",
"g ",
"i ",
"i ",
"j ",
"j ",
"j ",
"k ",
"l ",
"l ",
"m ",
"l ",
"n ",
"n ",
"n ",
"o ",
"p ",
"q ",
"r ",
"p ",
"s ",
"s ",
"s ",
"s ",
"t ",
"u ",
"v ",
"v ",
"w ",
"t ",
"w ",
"w ",
"w ",
"x ",
"x ",
"x ",
"x ",
"y ",
"z ",
"A ",
"A ",
"A ",
"A ",
"B ",
"C ",
"B ",
"C ",
"D ",
"D ",
"E ",
"F ",
"E ",
"F ",
"F ",
"F ",
"G ",
"G ",
"H ",
"I ",
"J ",
"K ",
"K ",
"L ",
"L ",
"M ",
"N ",
"O ",
"N ",
"P ",
"P ",
"P ",
"P ",
"P ",
"Q ",
"Q ",
"R ",
"S ",
"S ",
"T ",
"U ",
"T ",
"V ",
"W ",
"X ",
"Y ",
"Y ",
"X ",
"X ",
"Y ",
"Z ",
"Z ",
"` ",
"Z ",
" .",
" .",
"..",
"+.",
"..",
"@.",
"@.",
"..",
"..",
"#.",
"$.",
"%.",
"&.",
"&.",
"%.",
"*.",
"=.",
"=.",
"=.",
"-.",
";.",
">.",
",.",
"'.",
").",
").",
"'.",
").",
").",
"!.",
"!.",
"!.",
"!.",
"~.",
"{.",
"{.",
"].",
"].",
"^.",
"/.",
"(.",
"(.",
"(.",
"(.",
"_.",
"_.",
":.",
":.",
":.",
":.",
"<.",
"[.",
"}.",
"|.",
"1.",
"1.",
"2.",
"2.",
"2.",
"2.",
"3.",
"4.",
"5.",
"6.",
"7.",
"7.",
"8.",
"8.",
"9.",
"9.",
"9.",
"9.",
"0.",
"a.",
"b.",
"b.",
"c.",
"c.",
"d.",
"d.",
"e.",
"d.",
"e.",
"d.",
"f.",
"g.",
"h.",
"g.",
"i.",
"j.",
"j.",
"k.",
"l.",
"m.",
"k.",
"n.",
"o.",
"n.",
"n.",
"n.",
"n.",
"n.",
"p.",
"q.",
"r.",
"s.",
"t.",
"t.",
"u.",
"v.",
"w.",
"v.",
"x.",
"y.",
"z.",
"A.",
"B.",
"C.",
"D.",
"C.",
"E.",
"D.",
"F.",
"F.",
"G.",
"H.",
"H.",
"H.",
"I.",
"J.",
"K.",
"L.",
"L.",
"K.",
"M.",
"L.",
"N.",
"O.",
"P.",
"Q.",
"Q.",
"O.",
"R.",
"R.",
"S.",
"S.",
"T.",
"U.",
"U.",
"U.",
"U.",
"V.",
"W.",
"X.",
"W.",
"Y.",
"Z.",
"Z.",
"`.",
"`.",
" +",
"`.",
".+",
"++",
"@+",
"@+",
"@+",
"#+",
"$+",
"$+",
"%+",
"$+",
"&+",
"*+",
"&+",
"=+",
"-+",
";+",
">+",
",+",
"=+",
";+",
",+",
"'+",
"'+",
")+",
"'+",
"!+",
"~+",
"'+",
"'+",
"~+",
"{+",
"]+",
"^+",
"/+",
"{+",
"(+",
"_+",
"_+",
"_+",
"_+",
":+",
":+",
"<+",
"<+",
"[+",
"}+",
"}+",
"}+",
"|+",
"|+",
"1+",
"2+",
"3+",
"4+",
"5+",
"6+",
"7+",
"6+",
"6+",
"6+",
"8+",
"9+",
"0+",
"0+",
"a+",
"b+",
"b+",
"b+",
"c+",
"d+",
"e+",
"f+",
"g+",
"h+",
"h+",
"h+",
"h+",
"i+",
"h+",
"j+",
"k+",
"l+",
"i+",
"m+",
"n+",
"o+",
"p+",
"o+",
"p+",
"q+",
"r+",
"s+",
"q+",
"t+",
"q+",
"t+",
"t+",
"u+",
"v+",
"w+",
"u+",
"u+",
"x+",
"y+",
"z+",
"A+",
"z+",
"A+",
"B+",
"C+",
"B+",
"D+",
"E+",
"F+",
"E+",
"G+",
"H+",
"G+",
"I+",
"I+",
"J+",
"I+",
"K+",
"J+",
"L+",
"L+",
"M+",
"M+",
"N+",
"L+",
"O+",
"P+",
"O+",
"P+",
"P+",
"Q+",
"R+",
"S+",
"R+",
"T+",
"U+",
"T+",
"V+",
"V+",
"W+",
"X+",
"Y+",
"X+",
"Z+",
"`+",
"`+",
" @",
".@",
"+@",
"@@",
"#@",
"$@",
"#@",
"$@",
"$@",
"%@",
"%@",
"&@",
"*@",
"&@",
"=@",
"=@",
"-@",
";@",
">@",
"-@",
"=@",
">@",
",@",
"'@",
")@",
"!@",
")@",
"~@",
"!@",
"{@",
"]@",
"^@",
"/@",
"(@",
"^@",
"_@",
":@",
":@",
"<@",
":@",
"[@",
"}@",
"[@",
"|@",
"|@",
"|@",
"|@",
"1@",
"2@",
"1@",
"3@",
"1@",
"4@",
"5@",
"4@",
"4@",
"5@",
"4@",
"6@",
"6@",
"7@",
"6@",
"8@",
"9@",
"0@",
"9@",
"a@",
"b@",
"b@",
"c@",
"d@",
"e@",
"d@",
"f@",
"g@",
"g@",
"h@",
"i@",
"j@",
"j@",
"k@",
"k@",
"l@",
"m@",
"m@",
"m@",
"n@",
"o@",
"p@",
"p@",
"q@",
"r@",
"s@",
"q@",
"t@",
"u@",
"q@",
"u@",
"v@",
"w@",
"v@",
"x@",
"v@",
"y@",
"z@",
"A@",
"B@",
"C@",
"D@",
"E@",
"F@",
"F@",
"G@",
"H@",
"I@",
"H@",
"H@",
"I@",
"I@",
"I@",
"J@",
"K@",
"L@",
"M@",
"L@",
"M@",
"N@",
"O@",
"P@",
"Q@",
"Q@",
"R@",
"S@",
"R@",
"R@",
"R@",
"R@",
"T@",
"T@",
"T@",
"U@"};
