<?xml version="1.0" encoding="utf-8"?>
<!-- Generator: Adobe Illustrator 16.0.0, SVG Export Plug-In . SVG Version: 6.00 Build 0)  -->
<!DOCTYPE svg PUBLIC "-//W3C//DTD SVG 1.1//EN" "http://www.w3.org/Graphics/SVG/1.1/DTD/svg11.dtd">
<svg version="1.1" id="Layer_1" xmlns="http://www.w3.org/2000/svg" xmlns:xlink="http://www.w3.org/1999/xlink" x="0px" y="0px"
	 width="114.25px" height="30.75px" viewBox="0 0 114.25 30.75" enable-background="new 0 0 114.25 30.75" xml:space="preserve">
<g>
	<g>
		<g>
			<path d="M82.112,4.068v11.581c0,0.657-0.078,1.257-0.231,1.798s-0.398,1.009-0.734,1.404c-0.337,0.395-0.779,0.698-1.327,0.91
				c-0.549,0.212-1.218,0.317-2.007,0.317c-0.746,0-1.382-0.105-1.908-0.317s-0.958-0.508-1.294-0.889
				c-0.337-0.38-0.582-0.83-0.735-1.349c-0.153-0.52-0.229-1.086-0.229-1.701v-0.943h0.438v0.943
				c-0.001,1.288,0.313,2.249,0.942,2.885c0.629,0.636,1.558,0.954,2.786,0.954c0.628,0,1.181-0.073,1.655-0.22
				c0.476-0.146,0.878-0.388,1.207-0.724s0.577-0.782,0.745-1.338s0.254-1.242,0.254-2.062V4.068H82.112z"/>
			<path d="M99.33,4.069L99.329,19.73h-0.438l0.001-15.113h-0.044L92.2,19.729h-0.482L85.073,4.617h-0.044l-0.001,15.113H84.59
				l0.001-15.661h0.724l6.623,15.091h0.044l6.625-15.09H99.33z"/>
			<path d="M112.183,19.293v0.438l-10.484-0.001l0.001-15.661l10.396,0v0.438l-9.958,0v6.844l9.365,0v0.438l-9.365,0l-0.001,7.501
				L112.183,19.293z"/>
		</g>
	</g>
	<g>
		<g>
			<path d="M39.289,4.81c-0.03-0.534,0.136-0.986,0.5-1.356c0.364-0.372,0.813-0.558,1.347-0.558c0.504,0,0.938,0.183,1.301,0.546
				c0.364,0.363,0.546,0.797,0.546,1.302c0,0.52-0.182,0.956-0.546,1.312c-0.362,0.356-0.804,0.534-1.323,0.534
				c-0.505,0-0.929-0.171-1.269-0.512C39.503,5.737,39.318,5.314,39.289,4.81z"/>
		</g>
	</g>
	<path d="M1.957,7.136c0-0.286,0.03-0.546,0.09-0.786c0.39-1.54,1.429-2.311,3.118-2.311h6.862v3.388H6.065
		c-0.33,0-0.563,0.145-0.698,0.429c-0.03,0.151-0.046,0.263-0.046,0.339v1.042c0,0.104,0.008,0.178,0.022,0.226
		c0.06,0.392,0.338,0.618,0.833,0.676c0.045,0.017,0.119,0.025,0.226,0.025h2.452c1.755,0,2.791,0.815,3.104,2.443
		c0.046,0.239,0.068,0.457,0.068,0.651v3.161c0,1.048-0.299,1.862-0.9,2.445c-0.604,0.583-1.424,0.874-2.464,0.874H1.957v-3.385
		h5.896l0.203-0.068c0.391-0.135,0.585-0.419,0.585-0.852V14.31c0-0.447-0.238-0.7-0.717-0.761H5.12
		c-1.152,0-2.034-0.461-2.646-1.392c-0.346-0.522-0.518-1.082-0.518-1.682V7.136z"/>
	<path d="M27.824,16.935v-8.97h2.981v8.118c0.059,0.436,0.381,0.651,0.964,0.651h1.841c0.583,0,0.903-0.216,0.964-0.651
		c0.015-0.043,0.021-0.102,0.021-0.174V7.965h2.985v8.97c0,0.149-0.017,0.329-0.047,0.54c-0.225,1.511-1.143,2.264-2.758,2.264
		h-4.148c-1.615,0-2.534-0.753-2.759-2.264C27.839,17.264,27.824,17.084,27.824,16.935z"/>
	<rect x="39.643" y="7.965" width="2.982" height="11.773"/>
	<path d="M44.689,10.971c0-2.004,1.009-3.006,3.026-3.006h2.021v3.006h-1.303c-0.51,0.074-0.763,0.282-0.763,0.625v8.143h-2.982
		V10.971z"/>
	<path d="M50.857,10.971c0-2.004,1.008-3.006,3.025-3.006h2.02v3.006h-1.3c-0.511,0.074-0.763,0.282-0.763,0.625v8.143h-2.982
		V10.971z"/>
	<path d="M57.026,10.723c0-0.193,0.021-0.396,0.064-0.604c0.314-1.438,1.264-2.154,2.854-2.154h4.057
		c1.643,0,2.572,0.779,2.781,2.344c0.014,0.104,0.021,0.268,0.021,0.488v2.345l-6.75,2.594l-0.002,0.195
		c0,0.534,0.195,0.804,0.584,0.804h6.146v3.004h-6.549c-0.777,0-1.369-0.111-1.771-0.335c-0.957-0.524-1.436-1.429-1.436-2.715
		V10.723z M63.776,11.688v-0.113c-0.059-0.238-0.244-0.39-0.555-0.447c-0.045-0.018-0.096-0.024-0.152-0.024h-2.062
		c-0.43,0-0.723,0.15-0.889,0.449c-0.043,0.074-0.066,0.18-0.066,0.314v1.212L63.776,11.688z"/>
	<path d="M68.712,19.738V4.041h2.98v15.697H68.712z"/>
	<path d="M19.593,20.416c-0.034-0.114-0.062-0.209-0.092-0.308h0.463l0.28,0.447c0.446-0.956,0.271-1.432,0.021-2.065
		c-0.046-0.117-0.091-0.233-0.133-0.353c-0.121-0.345-0.29-0.678-0.454-0.96h-1.05c-0.423-0.071-0.634-0.295-0.634-0.672v-1.564
		v-0.122v-2.674c0.059-0.306,0.24-0.492,0.547-0.567c0.029-0.012,0.065-0.021,0.109-0.021h2.274c0.335,0,0.576,0.167,0.722,0.5
		c0.072,0.129,0.108,0.254,0.108,0.368V15.5c0.079,0.021,0.158,0.041,0.224,0.063c2.596,0.859,2.649,2.413,2.712,4.211
		c0.009,0.251,0.018,0.516,0.034,0.797c0.024,0.461,0.069,0.869,0.129,1.271c0.084-0.188,0.179-0.384,0.295-0.605
		c0.271-0.516,0.992-1.808,1.07-2.183l-0.708,0.174c0-0.261,0.061-0.627,0.181-1.1l0.215-1.064c0.027-0.375,0.041-0.739,0.041-1.087
		c-0.004-0.201-0.008-0.386-0.01-0.553c-0.003-0.167-0.004-0.387-0.004-0.654c0-0.592,0.045-1.129,0.132-1.607
		c-0.139,0.182-0.341,0.52-0.604,1.016c-0.262,0.497-0.484,0.843-0.665,1.038c-0.064-0.146-0.098-0.315-0.098-0.511
		c0-0.16,0.017-0.361,0.05-0.607c0.031-0.248,0.048-0.398,0.048-0.457c0.185-0.34,0.345-0.721,0.479-1.141
		c0.133-0.418,0.236-0.863,0.308-1.326c0.073-0.463-1.224-2.6-1.253-2.718c-0.027-0.12-0.062-0.29-0.106-0.511
		c-0.045-0.223-0.09-0.433-0.135-0.636c-0.084,0.102-0.238,0.923-0.274,1.157c-0.033,0.235-0.067,0.434-0.103,0.592
		c-0.035,0.16-0.107,0.271-0.219,0.327c-0.056-0.146-0.137-0.372-0.242-0.673c-0.106-0.306-0.202-0.549-0.284-0.729
		c-0.084-0.181-0.189-0.349-0.313-0.501c-0.125-0.151-0.261-0.252-0.409-0.303c-0.19-0.059-0.406-0.111-0.648-0.158
		c-0.243-0.047-0.439-0.098-0.591-0.152c-0.15-0.054-0.297-0.127-0.439-0.223c0,0.116,0.014,0.239,0.042,0.369
		c0.026,0.131,0.06,0.252,0.098,0.365c0.037,0.111,0.074,0.238,0.113,0.38c0.04,0.142,0.06,0.267,0.06,0.374
		c0,0.103-0.02,0.199-0.056,0.295c-0.467-0.428-0.686-1.342-0.841-1.436c-0.052,0.059-0.086,0.163-0.104,0.315
		c-0.019,0.151-0.034,0.255-0.049,0.309c-0.015,0.056-0.053,0.086-0.118,0.094c-0.056-0.102-0.134-0.274-0.236-0.517
		c-0.101-0.242-0.194-0.428-0.28-0.555c-0.085-0.126-0.193-0.215-0.322-0.266c-0.07,0.174-0.138,0.438-0.205,0.787
		c-0.067,0.352-0.13,0.622-0.188,0.811c-0.059,0.188-0.153,0.344-0.288,0.469c-0.227-0.668-1.652-0.58-1.814-0.803l0.399,0.689
		c-0.029-0.054,0.065,0.194-0.229,0.625c-0.957,0.436-1.461,1.288-1.461,2.604v0.089c-0.033,0.119-0.062,0.236-0.079,0.32L15,8.542
		c-0.999,1.625-0.833,3.628-0.833,4.511c0,0.414,0.049,0.824,0.146,1.229c0.047,0.115,0.229,0.515,0.548,1.196
		c0.088,0.186,0.151,0.335,0.226,0.502v0.652c-0.018-0.021-0.033-0.036-0.052-0.058c-0.198-0.24-0.379-0.472-0.541-0.695
		c-0.162-0.227-0.326-0.454-0.492-0.686c0.005,0.659,0.098,1.261,0.277,1.81c0.181,0.546,0.416,1.03,0.705,1.45
		c0.288,0.423,0.646,0.848,1.071,1.281c0.425,0.436,0.754,0.771,0.985,1.001c-0.065-0.173-0.098-0.357-0.098-0.555
		c0-0.054,0.013-0.147,0.021-0.223c0.265,0.092,0.541,0.149,0.835,0.149h0.948c0.021,0.027,0.036,0.049,0.056,0.079
		c0.292,0.438,0.501,0.738,0.629,0.901c0.127,0.166,0.261,0.243,0.398,0.243C19.772,21.053,19.695,20.744,19.593,20.416z"/>
	<path d="M27.896,20.158c0,0,0.351,3.32-0.803,4.059c0.246-0.992-0.27-2.092-0.27-2.092c-0.104,1.406-0.798,1.952-1.544,2.128
		c-0.003-0.004-0.009-0.005-0.013-0.005c-0.003,0.001-0.003,0.001-0.003,0.001c-0.336-0.179-0.544-0.361-0.803-0.909
		c-0.012-0.027-0.024-0.073-0.037-0.104c-0.097-0.234-0.196-0.559-0.268-0.975c-0.104-0.603-0.152-1.146-0.18-1.649
		c-0.128-2.264,0.169-3.536-2.221-4.333c-0.004-0.001-0.008-0.003-0.012-0.004c-0.429-0.146-1.396-0.258-2.019-0.373
		c0,0,0.435,0.545,0.806,1.275c0.113,0.224,0.222,0.464,0.309,0.712c0.288,0.813,0.768,1.557,0.048,3.052
		c-0.028,0.058-0.046,0.109-0.077,0.17c-0.03,0.062-0.054,0.113-0.086,0.174c-1.644,2.967-1.303,5.363,0.098,6.872
		c0.038,0.041,0.071,0.085,0.11,0.125c0.678,0.679,1.579,1.163,2.613,1.42c0.323,0.078,0.666,0.116,1.017,0.116
		c0.053,0,0.104-0.001,0.157-0.003C27.938,29.711,31.705,26.35,27.896,20.158z"/>
</g>
</svg>
