<?xml version="1.0" encoding="utf-8"?>
<!-- Generator: Adobe Illustrator 16.0.0, SVG Export Plug-In . SVG Version: 6.00 Build 0)  -->
<!DOCTYPE svg PUBLIC "-//W3C//DTD SVG 1.1//EN" "http://www.w3.org/Graphics/SVG/1.1/DTD/svg11.dtd">
<svg version="1.1" id="Layer_1" xmlns="http://www.w3.org/2000/svg" xmlns:xlink="http://www.w3.org/1999/xlink" x="0px" y="0px"
	 width="114.48px" height="30.75px" viewBox="0 0 114.48 30.75" enable-background="new 0 0 114.48 30.75" xml:space="preserve">
<g>
	<g>
		<g>
			<path d="M82.283,3.336v11.581c0,0.657-0.078,1.256-0.232,1.797c-0.152,0.541-0.398,1.01-0.734,1.404s-0.779,0.699-1.326,0.91
				c-0.549,0.213-1.219,0.318-2.008,0.318c-0.746,0-1.381-0.105-1.908-0.318c-0.525-0.211-0.957-0.508-1.293-0.889
				c-0.338-0.379-0.582-0.83-0.736-1.348c-0.152-0.52-0.229-1.086-0.229-1.702v-0.942h0.438v0.942c0,1.288,0.314,2.249,0.943,2.885
				s1.557,0.955,2.785,0.955c0.629,0,1.182-0.074,1.656-0.221c0.475-0.145,0.877-0.387,1.207-0.723
				c0.328-0.336,0.576-0.783,0.744-1.338c0.168-0.557,0.254-1.243,0.254-2.062V3.336H82.283z"/>
			<path d="M99.5,3.337v15.661h-0.439l0.002-15.112h-0.045l-6.646,15.112h-0.482L85.244,3.885h-0.045v15.113H84.76l0.002-15.662
				h0.723l6.623,15.091h0.045l6.625-15.09H99.5z"/>
			<path d="M112.354,18.561V19l-10.484-0.002V3.338l10.396,0v0.438l-9.957,0v6.844l9.365,0v0.438l-9.365,0l-0.002,7.502H112.354z"/>
		</g>
	</g>
	<g>
		<g>
			<path fill="#FF8C00" d="M39.459,4.078c-0.03-0.534,0.136-0.986,0.5-1.356c0.364-0.372,0.813-0.558,1.347-0.558
				c0.504,0,0.938,0.183,1.301,0.546c0.364,0.363,0.546,0.797,0.546,1.302c0,0.52-0.182,0.956-0.546,1.312
				c-0.362,0.356-0.804,0.534-1.323,0.534c-0.505,0-0.929-0.171-1.269-0.512C39.673,5.005,39.489,4.583,39.459,4.078z"/>
		</g>
	</g>
	<path d="M2.127,6.404c0-0.286,0.03-0.546,0.09-0.786c0.39-1.54,1.429-2.311,3.118-2.311h6.862v3.388H6.236
		c-0.33,0-0.563,0.145-0.698,0.429c-0.03,0.151-0.046,0.263-0.046,0.339v1.042c0,0.104,0.008,0.178,0.022,0.226
		c0.06,0.392,0.338,0.618,0.833,0.676c0.045,0.017,0.119,0.025,0.226,0.025h2.452c1.755,0,2.791,0.815,3.104,2.443
		c0.046,0.239,0.068,0.457,0.068,0.651v3.161c0,1.047-0.299,1.862-0.9,2.446c-0.604,0.582-1.424,0.873-2.464,0.873H2.127v-3.384
		h5.896l0.203-0.068c0.391-0.135,0.585-0.419,0.585-0.852v-1.124c0-0.447-0.238-0.7-0.717-0.761H5.291
		c-1.152,0-2.034-0.461-2.646-1.392c-0.346-0.522-0.518-1.082-0.518-1.682V6.404z"/>
	<path d="M27.995,16.203v-8.97h2.981v8.118c0.059,0.436,0.381,0.651,0.964,0.651h1.841c0.583,0,0.903-0.215,0.964-0.651
		c0.015-0.043,0.021-0.102,0.021-0.174V7.233h2.985v8.97c0,0.148-0.017,0.328-0.047,0.539c-0.225,1.512-1.143,2.264-2.758,2.264
		h-4.148c-1.615,0-2.534-0.752-2.759-2.264C28.009,16.531,27.995,16.352,27.995,16.203z"/>
	<rect x="39.813" y="7.233" width="2.982" height="11.773"/>
	<path d="M44.86,10.239c0-2.004,1.009-3.006,3.026-3.006h2.021v3.006h-1.303c-0.51,0.074-0.763,0.282-0.763,0.625v8.142H44.86
		V10.239z"/>
	<path d="M51.028,10.239c0-2.004,1.008-3.006,3.025-3.006h2.02v3.006h-1.3c-0.511,0.074-0.763,0.282-0.763,0.625v8.142h-2.982
		V10.239z"/>
	<path d="M57.197,9.991c0-0.193,0.021-0.396,0.064-0.604c0.314-1.438,1.264-2.154,2.854-2.154h4.057
		c1.643,0,2.572,0.779,2.781,2.344c0.014,0.104,0.021,0.268,0.021,0.488v2.345l-6.75,2.594l-0.002,0.195
		c0,0.534,0.195,0.803,0.584,0.803h6.146v3.004h-6.549c-0.777,0-1.369-0.111-1.771-0.334c-0.958-0.525-1.436-1.43-1.436-2.715V9.991
		z M63.947,10.957v-0.113c-0.059-0.238-0.244-0.39-0.555-0.447c-0.045-0.018-0.096-0.024-0.152-0.024h-2.062
		c-0.43,0-0.723,0.15-0.889,0.449c-0.043,0.074-0.066,0.18-0.066,0.314v1.212L63.947,10.957z"/>
	<path d="M68.883,19.006V3.309h2.98v15.697H68.883z"/>
	<path d="M19.763,19.684c-0.034-0.113-0.062-0.209-0.092-0.307h0.463l0.28,0.447c0.446-0.957,0.271-1.432,0.021-2.066
		c-0.046-0.117-0.091-0.232-0.133-0.352c-0.121-0.346-0.29-0.678-0.454-0.961h-1.05c-0.423-0.07-0.634-0.295-0.634-0.671v-1.564
		v-0.122v-2.674c0.059-0.306,0.24-0.492,0.547-0.567c0.029-0.012,0.065-0.021,0.109-0.021h2.274c0.335,0,0.576,0.167,0.722,0.5
		c0.072,0.129,0.108,0.254,0.108,0.368v3.074c0.079,0.021,0.158,0.041,0.224,0.063c2.596,0.859,2.649,2.413,2.712,4.211
		c0.009,0.25,0.018,0.516,0.034,0.797c0.024,0.461,0.069,0.869,0.129,1.27c0.084-0.188,0.179-0.383,0.295-0.605
		c0.271-0.516,0.992-1.807,1.07-2.182l-0.708,0.174c0-0.262,0.061-0.627,0.181-1.1l0.215-1.064c0.027-0.375,0.041-0.74,0.041-1.087
		c-0.004-0.201-0.008-0.386-0.01-0.553c-0.003-0.167-0.004-0.387-0.004-0.654c0-0.592,0.045-1.129,0.132-1.607
		c-0.139,0.182-0.341,0.52-0.604,1.016c-0.262,0.497-0.484,0.843-0.665,1.038c-0.064-0.146-0.098-0.315-0.098-0.511
		c0-0.16,0.017-0.361,0.05-0.607c0.031-0.248,0.048-0.398,0.048-0.457c0.185-0.34,0.345-0.721,0.479-1.141
		c0.133-0.418,0.236-0.863,0.308-1.326c0.073-0.463-1.224-2.6-1.253-2.718c-0.027-0.12-0.062-0.29-0.106-0.511
		c-0.045-0.223-0.09-0.433-0.135-0.636c-0.084,0.102-0.238,0.923-0.274,1.157c-0.033,0.235-0.067,0.434-0.103,0.592
		c-0.035,0.16-0.107,0.271-0.219,0.327c-0.056-0.146-0.137-0.372-0.242-0.673c-0.106-0.306-0.202-0.549-0.284-0.729
		c-0.084-0.181-0.189-0.349-0.313-0.501c-0.125-0.151-0.261-0.252-0.409-0.303c-0.19-0.059-0.406-0.111-0.648-0.158
		c-0.243-0.047-0.439-0.098-0.591-0.152c-0.15-0.054-0.297-0.127-0.439-0.223c0,0.116,0.014,0.239,0.042,0.369
		c0.026,0.131,0.06,0.252,0.098,0.365c0.037,0.111,0.074,0.238,0.113,0.38c0.04,0.142,0.06,0.267,0.06,0.374
		c0,0.103-0.02,0.199-0.056,0.295c-0.467-0.428-0.686-1.342-0.841-1.436c-0.052,0.059-0.086,0.163-0.104,0.315
		C20.03,6.729,20.014,6.833,20,6.886c-0.015,0.056-0.053,0.086-0.118,0.094c-0.056-0.102-0.134-0.274-0.236-0.517
		c-0.101-0.242-0.194-0.428-0.28-0.555c-0.085-0.126-0.193-0.215-0.322-0.266c-0.07,0.174-0.138,0.438-0.205,0.787
		c-0.067,0.352-0.13,0.622-0.188,0.811c-0.059,0.188-0.153,0.344-0.288,0.469c-0.227-0.668-1.652-0.58-1.814-0.803l0.399,0.689
		c-0.029-0.054,0.065,0.194-0.229,0.625c-0.957,0.436-1.461,1.288-1.461,2.604v0.089c-0.033,0.119-0.062,0.236-0.079,0.32
		L15.17,7.81c-0.999,1.625-0.833,3.628-0.833,4.511c0,0.414,0.049,0.824,0.146,1.229c0.047,0.115,0.229,0.515,0.548,1.196
		c0.088,0.186,0.151,0.335,0.226,0.502v0.652c-0.018-0.021-0.033-0.036-0.052-0.058c-0.198-0.24-0.379-0.472-0.541-0.695
		c-0.162-0.227-0.326-0.454-0.492-0.686c0.005,0.659,0.098,1.261,0.277,1.809c0.181,0.547,0.416,1.031,0.705,1.451
		c0.288,0.422,0.646,0.848,1.071,1.281c0.425,0.436,0.754,0.77,0.985,1c-0.065-0.172-0.098-0.357-0.098-0.555
		c0-0.053,0.013-0.146,0.021-0.223c0.265,0.092,0.541,0.15,0.835,0.15h0.948c0.021,0.027,0.036,0.049,0.056,0.078
		c0.292,0.439,0.501,0.738,0.629,0.902C19.728,20.523,19.862,20.6,20,20.6C19.943,20.32,19.866,20.012,19.763,19.684z"/>
	<path d="M28.066,19.426c0,0,0.351,3.32-0.803,4.059c0.246-0.992-0.27-2.092-0.27-2.092c-0.104,1.406-0.798,1.953-1.544,2.129
		c-0.003-0.004-0.009-0.006-0.013-0.006c-0.003,0.002-0.003,0.002-0.003,0.002c-0.336-0.18-0.544-0.361-0.803-0.91
		c-0.012-0.027-0.024-0.072-0.037-0.104c-0.097-0.234-0.196-0.559-0.268-0.975c-0.104-0.602-0.152-1.145-0.18-1.648
		c-0.128-2.264,0.169-3.537-2.221-4.333c-0.004-0.001-0.008-0.003-0.012-0.004c-0.429-0.146-1.396-0.258-2.019-0.373
		c0,0,0.435,0.545,0.806,1.275c0.113,0.225,0.222,0.465,0.309,0.713c0.288,0.812,0.768,1.557,0.048,3.051
		c-0.028,0.059-0.046,0.109-0.077,0.17c-0.03,0.062-0.054,0.113-0.086,0.174c-1.644,2.967-1.303,5.363,0.098,6.873
		c0.038,0.041,0.071,0.084,0.11,0.125c0.678,0.678,1.579,1.162,2.613,1.42c0.323,0.078,0.666,0.115,1.017,0.115
		c0.053,0,0.104,0,0.157-0.002C28.108,28.979,31.875,25.617,28.066,19.426z"/>
</g>
</svg>
