<?xml version="1.0" encoding="utf-8"?>
<!-- Generator: Adobe Illustrator 16.0.0, SVG Export Plug-In . SVG Version: 6.00 Build 0)  -->
<!DOCTYPE svg PUBLIC "-//W3C//DTD SVG 1.1//EN" "http://www.w3.org/Graphics/SVG/1.1/DTD/svg11.dtd">
<svg version="1.1" id="Layer_1" xmlns="http://www.w3.org/2000/svg" xmlns:xlink="http://www.w3.org/1999/xlink" x="0px" y="0px"
	 width="114.25px" height="30.75px" viewBox="0 0 114.25 30.75" enable-background="new 0 0 114.25 30.75" xml:space="preserve">
<g>
	<g>
		<g>
			<path d="M82.112,4.068v11.581c0,0.657-0.078,1.257-0.231,1.798s-0.398,1.009-0.734,1.404c-0.337,0.395-0.779,0.698-1.327,0.91
				c-0.549,0.212-1.218,0.317-2.007,0.317c-0.746,0-1.382-0.105-1.908-0.317s-0.958-0.508-1.294-0.889
				c-0.337-0.38-0.582-0.83-0.735-1.349c-0.153-0.52-0.229-1.086-0.229-1.701v-0.943h0.438v0.943
				c-0.001,1.288,0.313,2.249,0.942,2.885c0.629,0.636,1.558,0.954,2.786,0.954c0.628,0,1.181-0.073,1.655-0.22
				c0.476-0.146,0.878-0.388,1.207-0.724s0.577-0.782,0.745-1.338s0.254-1.242,0.254-2.062V4.068H82.112 M82.612,3.568h-0.5h-0.438
				h-0.5v0.5V15.32c0,0.762-0.078,1.406-0.232,1.917c-0.144,0.476-0.354,0.857-0.624,1.133c-0.273,0.279-0.6,0.474-0.996,0.595
				c-0.426,0.132-0.933,0.198-1.509,0.198c-1.084,0-1.901-0.271-2.431-0.806c-0.53-0.537-0.799-1.39-0.798-2.533v-0.943v-0.5h-0.5
				h-0.438h-0.5v0.5v0.943c0,0.661,0.084,1.28,0.25,1.842c0.174,0.588,0.457,1.105,0.841,1.539c0.385,0.436,0.884,0.78,1.481,1.021
				c0.583,0.234,1.287,0.354,2.095,0.354c0.848,0,1.584-0.118,2.187-0.351c0.624-0.241,1.138-0.596,1.527-1.053
				c0.383-0.45,0.663-0.985,0.836-1.592c0.166-0.587,0.25-1.237,0.25-1.935V4.068V3.568L82.612,3.568z"/>
		</g>
		<g>
			<path d="M85.314,4.068l6.623,15.091h0.044l6.625-15.09h0.724L99.329,19.73h-0.438l0.001-15.113h-0.044L92.2,19.729h-0.482
				L85.073,4.617h-0.044l-0.001,15.113H84.59l0.001-15.661H85.314 M85.641,3.568h-0.326h-0.724h-0.5v0.5L84.09,19.729v0.5h0.5h0.438
				h0.5v-0.5l0.001-12.833l5.73,13.035l0.132,0.299h0.326H92.2h0.326l0.132-0.299l5.733-13.034L98.391,19.73v0.5h0.5h0.438h0.5v-0.5
				L99.83,4.069v-0.5h-0.5h-0.724H98.28l-0.132,0.299L91.96,17.965L85.772,3.867L85.641,3.568L85.641,3.568z"/>
		</g>
		<g>
			<path d="M101.699,4.07l10.396,0v0.438l-9.958,0v6.844l9.365,0v0.438l-9.365,0l-0.001,7.501l10.046,0.001v0.438l-10.484-0.001
				L101.699,4.07 M101.199,3.57v0.5l-0.001,15.661v0.5h0.5l10.484,0.001h0.5v-0.5v-0.438v-0.5h-0.5l-9.546-0.001l0.001-6.501
				l8.865,0h0.5v-0.5v-0.438v-0.5h-0.5l-8.865,0V5.008l9.458,0h0.5v-0.5V4.07v-0.5h-0.5l-10.396,0H101.199L101.199,3.57z"/>
		</g>
	</g>
</g>
<g>
	<g>
		<g>
			<path d="M41.136,2.896c0.504,0,0.938,0.183,1.301,0.546c0.364,0.363,0.546,0.797,0.546,1.302c0,0.52-0.182,0.956-0.546,1.312
				c-0.362,0.356-0.804,0.534-1.323,0.534c-0.505,0-0.929-0.171-1.269-0.512c-0.342-0.341-0.526-0.764-0.556-1.269
				c-0.03-0.534,0.136-0.986,0.5-1.356C40.153,3.081,40.603,2.896,41.136,2.896 M41.136,2.396c-0.671,0-1.244,0.238-1.704,0.708
				c-0.464,0.471-0.681,1.055-0.642,1.734c0.036,0.63,0.272,1.167,0.701,1.594c0.436,0.436,0.981,0.658,1.622,0.658
				c0.653,0,1.217-0.228,1.674-0.678c0.461-0.451,0.695-1.013,0.695-1.669c0-0.64-0.233-1.197-0.692-1.656
				C42.332,2.628,41.775,2.396,41.136,2.396L41.136,2.396z"/>
		</g>
	</g>
</g>
<g>
	<path d="M12.027,4.039v3.388H6.065c-0.33,0-0.563,0.145-0.698,0.429c-0.03,0.151-0.046,0.263-0.046,0.339v1.042
		c0,0.104,0.008,0.178,0.022,0.226c0.06,0.392,0.338,0.618,0.833,0.676c0.045,0.017,0.119,0.025,0.226,0.025h2.452
		c1.755,0,2.791,0.815,3.104,2.443c0.046,0.239,0.068,0.457,0.068,0.651v3.161c0,1.048-0.299,1.862-0.9,2.445
		c-0.604,0.583-1.424,0.874-2.464,0.874H1.957v-3.385h5.896l0.203-0.068c0.391-0.135,0.585-0.419,0.585-0.852V14.31
		c0-0.447-0.238-0.7-0.717-0.761H5.12c-1.152,0-2.034-0.461-2.646-1.392c-0.346-0.522-0.518-1.082-0.518-1.682v-3.34
		c0-0.286,0.03-0.546,0.09-0.786c0.39-1.54,1.429-2.311,3.118-2.311H12.027 M12.527,3.539h-0.5H5.165
		c-1.912,0-3.158,0.93-3.603,2.688C1.491,6.513,1.457,6.81,1.457,7.136v3.34c0,0.697,0.202,1.355,0.601,1.958
		c0.704,1.072,1.734,1.616,3.062,1.616h2.77c0.251,0.038,0.251,0.123,0.251,0.261v1.124c0,0.248-0.084,0.322-0.248,0.379
		l-0.122,0.041H1.957h-0.5v0.5v3.385v0.5h0.5h6.706c1.169,0,2.114-0.341,2.812-1.015c0.698-0.677,1.053-1.621,1.053-2.805v-3.161
		c0-0.228-0.026-0.478-0.077-0.746c-0.359-1.864-1.603-2.849-3.596-2.849H6.402c-0.035,0-0.063,0-0.085-0.004L6.262,9.638
		L6.234,9.641C5.87,9.599,5.851,9.471,5.838,9.387L5.833,9.351L5.822,9.315c-0.001-0.008-0.001-0.04-0.001-0.079V8.194
		c0-0.012,0.002-0.056,0.022-0.171C5.886,7.958,5.94,7.927,6.065,7.927h5.962h0.5v-0.5V4.039V3.539L12.527,3.539z"/>
</g>
<g>
	<path d="M37.581,7.965v8.97c0,0.149-0.017,0.329-0.047,0.54c-0.225,1.511-1.143,2.264-2.758,2.264h-4.148
		c-1.615,0-2.534-0.753-2.759-2.264c-0.03-0.211-0.045-0.391-0.045-0.54v-8.97h2.981v8.118c0.059,0.436,0.381,0.651,0.964,0.651
		h1.841c0.583,0,0.903-0.216,0.964-0.651c0.015-0.043,0.021-0.102,0.021-0.174V7.965H37.581 M38.081,7.465h-0.5h-2.985h-0.5v0.5
		v7.944l-0.016,0.045l-0.001,0.06c-0.013,0.093-0.03,0.22-0.469,0.22H31.77c-0.392,0-0.448-0.104-0.464-0.188V7.965v-0.5h-0.5
		h-2.981h-0.5v0.5v8.97c0,0.175,0.017,0.38,0.05,0.611c0.263,1.762,1.388,2.692,3.254,2.692h4.148c1.866,0,2.991-0.931,3.252-2.69
		c0.036-0.246,0.053-0.445,0.053-0.613v-8.97V7.465L38.081,7.465z"/>
</g>
<g>
	<path d="M42.625,7.965v11.773h-2.982V7.965H42.625 M43.125,7.465h-0.5h-2.982h-0.5v0.5v11.773v0.5h0.5h2.982h0.5v-0.5V7.965V7.465
		L43.125,7.465z"/>
</g>
<g>
	<path d="M49.737,7.965v3.006h-1.303c-0.51,0.074-0.763,0.282-0.763,0.625v8.143h-2.982v-8.768c0-2.004,1.009-3.006,3.026-3.006
		H49.737 M50.237,7.465h-0.5h-2.021c-2.307,0-3.526,1.212-3.526,3.506v8.768v0.5h0.5h2.982h0.5v-0.5v-8.143
		c0-0.02,0.057-0.084,0.301-0.125h1.265h0.5v-0.5V7.965V7.465L50.237,7.465z"/>
</g>
<g>
	<path d="M55.902,7.965v3.006h-1.3c-0.511,0.074-0.763,0.282-0.763,0.625v8.143h-2.982v-8.768c0-2.004,1.008-3.006,3.025-3.006
		H55.902 M56.402,7.465h-0.5h-2.02c-2.307,0-3.525,1.212-3.525,3.506v8.768v0.5h0.5h2.982h0.5v-0.5v-8.143
		c0-0.02,0.057-0.084,0.301-0.125h1.262h0.5v-0.5V7.965V7.465L56.402,7.465z"/>
</g>
<g>
	<path d="M64.001,7.965c1.643,0,2.572,0.779,2.781,2.344c0.014,0.104,0.021,0.268,0.021,0.488v2.345l-6.75,2.594l-0.002,0.195
		c0,0.534,0.195,0.804,0.584,0.804h6.146v3.004h-6.549c-0.777,0-1.369-0.111-1.771-0.335c-0.957-0.524-1.436-1.429-1.436-2.715
		v-5.966c0-0.193,0.021-0.396,0.064-0.604c0.314-1.438,1.264-2.154,2.854-2.154H64.001 M60.052,13.079l3.725-1.391v-0.113
		c-0.059-0.238-0.244-0.39-0.555-0.447c-0.045-0.018-0.096-0.024-0.152-0.024h-2.062c-0.43,0-0.723,0.15-0.889,0.449
		c-0.043,0.074-0.066,0.18-0.066,0.314V13.079 M64.001,7.465h-4.057c-1.821,0-2.978,0.881-3.342,2.547
		c-0.051,0.246-0.076,0.483-0.076,0.71v5.966c0,1.476,0.57,2.537,1.695,3.153c0.479,0.267,1.138,0.396,2.012,0.396h6.549h0.5v-0.5
		v-3.004v-0.5h-0.5h-6.146c-0.001,0-0.002,0-0.003,0c-0.025,0-0.058-0.04-0.073-0.158l6.424-2.468l0.32-0.123v-0.344v-2.345
		c0-0.237-0.009-0.423-0.025-0.553C67.035,8.425,65.902,7.465,64.001,7.465L64.001,7.465z M60.552,12.359v-0.492
		c0-0.057,0.008-0.081,0.008-0.082c0.03-0.052,0.103-0.182,0.447-0.182h1.567L60.552,12.359L60.552,12.359z"/>
</g>
<g>
	<path d="M71.692,4.041v15.697h-2.98V4.041H71.692 M72.192,3.541h-0.5h-2.98h-0.5v0.5v15.697v0.5h0.5h2.98h0.5v-0.5V4.041V3.541
		L72.192,3.541z"/>
</g>
<g>
	<path d="M18.872,6.375c0.129,0.051,0.237,0.14,0.322,0.266c0.086,0.127,0.18,0.312,0.28,0.555c0.103,0.242,0.181,0.415,0.236,0.517
		c0.065-0.008,0.104-0.038,0.118-0.094c0.015-0.054,0.03-0.157,0.049-0.309c0.019-0.152,0.053-0.257,0.104-0.315
		c0.155,0.094,0.374,1.008,0.841,1.436c0.036-0.096,0.056-0.192,0.056-0.295c0-0.107-0.02-0.232-0.06-0.374
		c-0.039-0.142-0.076-0.269-0.113-0.38c-0.038-0.113-0.071-0.234-0.098-0.365c-0.028-0.13-0.042-0.253-0.042-0.369
		c0.143,0.096,0.289,0.169,0.439,0.223c0.151,0.055,0.348,0.105,0.591,0.152c0.242,0.047,0.458,0.1,0.648,0.158
		c0.148,0.051,0.284,0.151,0.409,0.303c0.124,0.152,0.229,0.32,0.313,0.501c0.082,0.181,0.178,0.424,0.284,0.729
		c0.105,0.301,0.187,0.527,0.242,0.673c0.111-0.057,0.184-0.167,0.219-0.327c0.035-0.158,0.069-0.356,0.103-0.592
		c0.036-0.234,0.19-1.056,0.274-1.157c0.045,0.203,0.09,0.413,0.135,0.636c0.044,0.221,0.079,0.391,0.106,0.511
		c0.029,0.118,1.326,2.255,1.253,2.718c-0.071,0.463-0.175,0.908-0.308,1.326c-0.135,0.42-0.295,0.801-0.479,1.141
		c0,0.059-0.017,0.209-0.048,0.457c-0.033,0.246-0.05,0.447-0.05,0.607c0,0.195,0.033,0.364,0.098,0.511
		c0.181-0.195,0.403-0.541,0.665-1.038c0.264-0.496,0.466-0.834,0.604-1.016c-0.087,0.479-0.132,1.016-0.132,1.607
		c0,0.268,0.001,0.487,0.004,0.654c0.002,0.167,0.006,0.352,0.01,0.553c0,0.348-0.014,0.712-0.041,1.087l-0.215,1.064
		c-0.12,0.473-0.181,0.839-0.181,1.1l0.708-0.174c-0.078,0.375-0.799,1.667-1.07,2.183c-0.116,0.222-0.211,0.418-0.295,0.605
		c-0.06-0.401-0.104-0.81-0.129-1.271c-0.017-0.281-0.025-0.546-0.034-0.797c-0.062-1.798-0.116-3.352-2.712-4.211
		c-0.065-0.022-0.145-0.043-0.224-0.063v-3.074c0-0.114-0.036-0.239-0.108-0.368c-0.146-0.333-0.387-0.5-0.722-0.5h-2.274
		c-0.044,0-0.08,0.009-0.109,0.021c-0.307,0.075-0.488,0.262-0.547,0.567v2.674v0.122v1.564c0,0.377,0.211,0.601,0.634,0.672h1.05
		c0.164,0.282,0.333,0.615,0.454,0.96c0.042,0.119,0.087,0.235,0.133,0.353c0.249,0.634,0.425,1.109-0.021,2.065l-0.28-0.447h-0.463
		c0.029,0.099,0.058,0.193,0.092,0.308c0.103,0.328,0.18,0.637,0.236,0.916c-0.138,0-0.271-0.077-0.398-0.243
		c-0.128-0.163-0.337-0.463-0.629-0.901c-0.02-0.03-0.035-0.052-0.056-0.079h-0.948c-0.294,0-0.57-0.058-0.835-0.149
		c-0.008,0.075-0.021,0.169-0.021,0.223c0,0.197,0.032,0.382,0.098,0.555c-0.231-0.23-0.561-0.565-0.985-1.001
		c-0.426-0.434-0.783-0.858-1.071-1.281c-0.289-0.42-0.524-0.904-0.705-1.45c-0.18-0.549-0.272-1.15-0.277-1.81
		c0.166,0.231,0.33,0.459,0.492,0.686c0.162,0.224,0.343,0.455,0.541,0.695c0.019,0.021,0.034,0.036,0.052,0.058V15.98
		c-0.074-0.167-0.138-0.316-0.226-0.502c-0.318-0.682-0.501-1.081-0.548-1.196c-0.097-0.405-0.146-0.815-0.146-1.229
		c0-0.883-0.166-2.886,0.833-4.511l0.007,3.425c0.017-0.084,0.046-0.201,0.079-0.32v-0.089c0-1.316,0.504-2.169,1.461-2.604
		c0.269-0.392,0.214-0.632,0.225-0.632c0,0,0.001,0.001,0.002,0.003l0.003,0.004c-0.001-0.002-0.002-0.003-0.003-0.004l-0.396-0.685
		c0.162,0.223,1.588,0.135,1.814,0.803c0.135-0.125,0.229-0.281,0.288-0.469c0.058-0.188,0.12-0.459,0.188-0.811
		C18.734,6.812,18.802,6.549,18.872,6.375 M20.066,5.708v0.752l-0.183-0.11l-0.167,0.188c-0.036-0.066-0.072-0.125-0.108-0.179
		c-0.142-0.21-0.328-0.362-0.553-0.451l-0.461-0.182l-0.187,0.459c-0.082,0.203-0.155,0.482-0.232,0.88
		c-0.041,0.218-0.081,0.402-0.118,0.551c-0.335-0.174-0.734-0.247-1.046-0.304c-0.127-0.023-0.3-0.054-0.35-0.076
		c0,0,0.062,0.027,0.119,0.105l-0.837,0.545l0.312,0.54c-0.014,0.047-0.035,0.095-0.059,0.138c-0.265,0.135-0.497,0.299-0.697,0.49
		L15.5,8.541L15.496,6.78l-0.922,1.5c-0.965,1.568-0.93,3.44-0.911,4.446c0.002,0.121,0.004,0.23,0.004,0.326
		c0,0.308,0.025,0.616,0.074,0.922l-0.252-0.352l0.012,1.575c0.005,0.705,0.106,1.365,0.302,1.961
		c0.196,0.591,0.454,1.121,0.769,1.578c0.301,0.441,0.67,0.883,1.127,1.349c0.426,0.437,0.757,0.773,0.989,1.005l1.64,1.633
		l-0.806-2.129c0.092,0.009,0.184,0.014,0.276,0.014h0.684c0.254,0.378,0.436,0.636,0.556,0.789
		c0.274,0.358,0.582,0.435,0.792,0.435h0.611l-0.072-0.359l0.329-0.705c0.543-1.164,0.284-1.823,0.034-2.46
		c-0.044-0.111-0.087-0.223-0.127-0.336c-0.115-0.329-0.281-0.681-0.493-1.045l-0.145-0.249h-0.288h-1.005
		c-0.179-0.036-0.179-0.083-0.179-0.172v-1.564v-0.122V12.2c0.021-0.076,0.057-0.11,0.166-0.136l0.024-0.006h2.24
		c0.1,0,0.183,0.015,0.264,0.2c0.055,0.103,0.066,0.147,0.066,0.168V15.5v0.387l0.375,0.097c0.065,0.017,0.132,0.034,0.187,0.052
		c2.27,0.752,2.312,1.946,2.374,3.755c0.011,0.288,0.02,0.542,0.035,0.81c0.023,0.439,0.065,0.858,0.134,1.314l0.251,1.693
		l0.699-1.562c0.08-0.179,0.171-0.366,0.281-0.577l0.177-0.331c0.571-1.062,0.874-1.661,0.94-1.982l0.162-0.776l-0.769,0.188
		c0.021-0.095,0.045-0.199,0.074-0.316l0.221-1.089l0.006-0.03l0.003-0.032c0.027-0.385,0.042-0.763,0.042-1.123l-0.002-0.108
		l-0.008-0.451c-0.003-0.167-0.004-0.384-0.004-0.648c0-0.555,0.042-1.066,0.124-1.518l0.371-2.044l-1.234,1.617
		c0.02-0.057,0.039-0.114,0.057-0.171c0.142-0.445,0.251-0.917,0.326-1.403c0.062-0.395-0.192-1.01-1.093-2.63
		c-0.081-0.146-0.146-0.26-0.178-0.323c-0.023-0.107-0.055-0.259-0.093-0.45c-0.046-0.227-0.091-0.44-0.137-0.646l-0.221-1
		l-0.653,0.789c-0.108,0.132-0.203,0.464-0.274,0.801c-0.002-0.005-0.005-0.01-0.007-0.015c-0.103-0.221-0.23-0.425-0.381-0.61
		c-0.187-0.226-0.399-0.38-0.635-0.46c-0.223-0.068-0.458-0.126-0.716-0.176c-0.215-0.042-0.389-0.086-0.516-0.132
		c-0.117-0.042-0.225-0.097-0.331-0.167L20.066,5.708L20.066,5.708z"/>
</g>
<g>
	<path d="M20.775,16.578c0.329,0.055,0.641,0.113,0.822,0.176c1.759,0.586,1.784,1.312,1.845,3.065
		c0.009,0.258,0.019,0.531,0.035,0.82c0.033,0.621,0.093,1.164,0.186,1.706c0.069,0.401,0.172,0.774,0.306,1.102
		c0.011,0.033,0.022,0.065,0.04,0.106c0.293,0.62,0.572,0.884,0.941,1.094l0.125,0.167l0.133-0.031l0.013,0.007l0.1-0.033
		l0.073-0.018c0.407-0.096,0.86-0.296,1.228-0.701c-0.004,0.02-0.009,0.039-0.014,0.059l-0.302,1.218l1.057-0.677
		c0.681-0.436,0.953-1.437,1.047-2.396c0.935,2.276,0.606,3.837,0.086,4.805c-0.714,1.327-2.202,2.218-3.794,2.27
		c-0.047,0.002-0.092,0.003-0.139,0.003c-0.316,0-0.618-0.034-0.896-0.102c-0.951-0.236-1.774-0.682-2.376-1.284l-0.038-0.043
		l-0.063-0.072c-1.397-1.506-1.407-3.798-0.022-6.297c0.025-0.048,0.046-0.091,0.067-0.136l0.021-0.044
		c0.023-0.045,0.041-0.086,0.059-0.127l0.024-0.056c0.723-1.499,0.369-2.408,0.085-3.14c-0.038-0.099-0.076-0.196-0.111-0.294
		c-0.086-0.245-0.195-0.498-0.335-0.773C20.911,16.82,20.843,16.696,20.775,16.578 M19.726,15.902c0,0,0.435,0.545,0.806,1.275
		c0.113,0.224,0.222,0.464,0.309,0.712c0.288,0.813,0.768,1.557,0.048,3.052c-0.028,0.058-0.046,0.109-0.077,0.17
		c-0.03,0.062-0.054,0.113-0.086,0.174c-1.644,2.967-1.303,5.363,0.098,6.872c0.038,0.041,0.071,0.085,0.11,0.125
		c0.678,0.679,1.579,1.163,2.613,1.42c0.323,0.078,0.666,0.116,1.017,0.116c0.053,0,0.104-0.001,0.157-0.003
		c3.218-0.104,6.985-3.466,3.176-9.657c0,0,0.351,3.32-0.803,4.059c0.246-0.992-0.27-2.092-0.27-2.092
		c-0.104,1.406-0.798,1.952-1.544,2.128c-0.003-0.004-0.009-0.005-0.013-0.005c-0.003,0.001-0.003,0.001-0.003,0.001
		c-0.336-0.179-0.544-0.361-0.803-0.909c-0.012-0.027-0.024-0.073-0.037-0.104c-0.097-0.234-0.196-0.559-0.268-0.975
		c-0.104-0.603-0.152-1.146-0.18-1.649c-0.128-2.264,0.169-3.536-2.221-4.333c-0.004-0.001-0.008-0.003-0.012-0.004
		C21.315,16.129,20.348,16.018,19.726,15.902L19.726,15.902z"/>
</g>
</svg>
