/* XPM */
static char * head_16x16_xpm[] = {
"16 16 21 1",
" 	c None",
".	c #977957",
"+	c #DEA8A3",
"@	c #D4C79F",
"#	c #D69E98",
"$	c #FFFCEE",
"%	c #ECE4BB",
"&	c #EEE7C9",
"*	c #F9F3D7",
"=	c #F3EDD4",
"-	c #FBF5D8",
";	c #F8FFFA",
">	c #AA1E1D",
",	c #F9C2C7",
"'	c #FFFFFF",
")	c #F30102",
"!	c #FFA39D",
"~	c #FBFFEC",
"{	c #F9090F",
"]	c #FFFBE7",
"^	c #FFFDF1",
"                ",
"  .    ..    .  ",
" .+.  .@@.  .+. ",
" .#$...%$@..$#. ",
" .+.&.@$$$$@.+. ",
" ..&$.@*.@.$@.. ",
" .&@&.@.*@.&.$. ",
" .@&..@.&@..$.. ",
" .&.=-..&.@$.$. ",
" ..;>,'..>,'$.. ",
" .@'>)!~@>{!'&. ",
"  .@]^$$$$^]&.  ",
"   .@.&@@&.&.   ",
"   ..@....&..   ",
"  &@..@''@..@&  ",
"                "};
