/* XPM */
static char * head_32x32_xpm[] = {
"32 32 229 2",
"  	c None",
". 	c #9E8D70",
"+ 	c #D4C79F",
"@ 	c #8F765A",
"# 	c #A18565",
"$ 	c #FFFCEE",
"% 	c #DCD0BB",
"& 	c #CFC197",
"* 	c #F6F2DA",
"= 	c #CDBDA7",
"- 	c #8D6C48",
"; 	c #EFE8CF",
"> 	c #977957",
", 	c #CD877F",
"' 	c #A38868",
") 	c #D8CCA4",
"! 	c #ECE4CB",
"~ 	c #FFFFFF",
"{ 	c #CDBDA5",
"] 	c #8C6C48",
"^ 	c #A68C6D",
"/ 	c #D69E98",
"( 	c #C0AD87",
"_ 	c #D3C69B",
": 	c #EEE7CE",
"< 	c #FFFFF5",
"[ 	c #FFFFFC",
"} 	c #D0C1AA",
"| 	c #8C6B47",
"1 	c #A99072",
"2 	c #E7DECC",
"3 	c #FFFFF4",
"4 	c #FFFFF7",
"5 	c #DED3B1",
"6 	c #ECE5CB",
"7 	c #FFFFFB",
"8 	c #D5C7B1",
"9 	c #EBE2D1",
"0 	c #FFFFF3",
"a 	c #C5B299",
"b 	c #C0AD93",
"c 	c #EBE3D1",
"d 	c #AA9172",
"e 	c #8F6E4B",
"f 	c #EFE8D6",
"g 	c #FFFFF2",
"h 	c #F8F4E1",
"i 	c #CAB9A1",
"j 	c #CEBFA7",
"k 	c #DACDB8",
"l 	c #A78D6E",
"m 	c #F2EBDB",
"n 	c #FFFFF1",
"o 	c #E8E1C5",
"p 	c #EBE3C9",
"q 	c #D2C3AC",
"r 	c #AE9679",
"s 	c #F5F0E0",
"t 	c #8E6D49",
"u 	c #A28767",
"v 	c #DBD1AD",
"w 	c #ECE5CC",
"x 	c #FFFFF6",
"y 	c #D9CDA8",
"z 	c #DCD1AE",
"A 	c #F8F3E3",
"B 	c #FFFDEF",
"C 	c #F1EBD4",
"D 	c #E4DBBC",
"E 	c #E8E0C4",
"F 	c #90704D",
"G 	c #E6DEC1",
"H 	c #E6DEBE",
"I 	c #CFBFA9",
"J 	c #F5EFDF",
"K 	c #91724F",
"L 	c #FAF6E8",
"M 	c #D6CAA3",
"N 	c #CEBF9E",
"O 	c #F2ECD6",
"P 	c #E9E0C5",
"Q 	c #E5DBBD",
"R 	c #FDFAEB",
"S 	c #947553",
"T 	c #D8CCA7",
"U 	c #DCD0AD",
"V 	c #F7F2DE",
"W 	c #AF977C",
"X 	c #F5F0DB",
"Y 	c #E8E0C2",
"Z 	c #947552",
"` 	c #D8CBA5",
" .	c #DCD1AB",
"..	c #EAE2CF",
"+.	c #B29B7E",
"@.	c #90704F",
"#.	c #C6B68F",
"$.	c #E9E1CD",
"%.	c #D2C4A7",
"&.	c #D9CCB6",
"*.	c #927554",
"=.	c #DBD0A9",
"-.	c #F7F2E2",
";.	c #AD9577",
">.	c #E1D5BA",
",.	c #F8F2D3",
"'.	c #B9A487",
").	c #BBA882",
"!.	c #F2ECD5",
"~.	c #CABAA3",
"{.	c #B19A7C",
"].	c #F8F1D3",
"^.	c #DDD0B5",
"/.	c #AF9779",
"(.	c #DED4AF",
"_.	c #A18562",
":.	c #957755",
"<.	c #E3D8BC",
"[.	c #48454C",
"}.	c #CAB9A2",
"|.	c #5C524F",
"1.	c #DBCFA8",
"2.	c #D2C49C",
"3.	c #D7CAA7",
"4.	c #A28764",
"5.	c #E6DBBF",
"6.	c #FFA39D",
"7.	c #E4DBC5",
"8.	c #DED2BB",
"9.	c #DFD6AC",
"0.	c #DED3BA",
"a.	c #D6C8B3",
"b.	c #836C54",
"c.	c #E7E1D9",
"d.	c #A98E71",
"e.	c #F9F5E6",
"f.	c #DACEA6",
"g.	c #9D805D",
"h.	c #967856",
"i.	c #EAE1C5",
"j.	c #FEFAE9",
"k.	c #F30102",
"l.	c #AA1E1D",
"m.	c #C0AC90",
"n.	c #917150",
"o.	c #E3D9C2",
"p.	c #F0EACE",
"q.	c #D7CAAF",
"r.	c #574F4E",
"s.	c #A58B6B",
"t.	c #FCF9EA",
"u.	c #D3C69E",
"v.	c #9D815F",
"w.	c #EDE4C8",
"x.	c #FEFAEA",
"y.	c #FFFCEF",
"z.	c #EE6365",
"A.	c #FBF6DE",
"B.	c #C1AD91",
"C.	c #B7A17C",
"D.	c #B9A47F",
"E.	c #90714F",
"F.	c #BDA98F",
"G.	c #A78E6D",
"H.	c #FEFBED",
"I.	c #CEBF99",
"J.	c #F7F3E0",
"K.	c #FFFDF0",
"L.	c #FBF6DF",
"M.	c #C5B296",
"N.	c #BAA680",
"O.	c #BFAC86",
"P.	c #EBE2C6",
"Q.	c #A18664",
"R.	c #CDBE98",
"S.	c #FBF6E0",
"T.	c #CBBA9E",
"U.	c #C1AE94",
"V.	c #9A7D5C",
"W.	c #C9B990",
"X.	c #F8F4E2",
"Y.	c #FCF7E1",
"Z.	c #C6B396",
"`.	c #B6A085",
" +	c #C7B68D",
".+	c #FFFEF1",
"++	c #B49D81",
"@+	c #86643E",
"#+	c #E0D5C1",
"$+	c #876540",
"%+	c #B0997C",
"&+	c #F9F5E3",
"*+	c #C4B389",
"=+	c #FFFFEF",
"-+	c #DDD3AA",
";+	c #D4C4A5",
">+	c #FFFFF8",
",+	c #D8C9AA",
"'+	c #DDD2A9",
")+	c #FFFFF0",
"!+	c #C6B58F",
"~+	c #DED4AB",
"{+	c #A18661",
"]+	c #D1C1A3",
"^+	c #FFFCE1",
"/+	c #FFFFE4",
"(+	c #C6B495",
"_+	c #85623F",
":+	c #C3B090",
"<+	c #FFFFE5",
"[+	c #FFFBE0",
"}+	c #D5C5A8",
"|+	c #9E835E",
"1+	c #C8B891",
"2+	c #C4B38C",
"3+	c #AE9672",
"4+	c #927352",
"5+	c #8D6D4A",
"6+	c #CAB899",
"7+	c #CDBC9E",
"8+	c #8D6C49",
"9+	c #937452",
"0+	c #AB936F",
"a+	c #C2B089",
"b+	c #D0C299",
"c+	c #D8CCA3",
"d+	c #E8DFBE",
"e+	c #EAE1C0",
"f+	c #B09874",
"                                                                ",
"        . .                 + + +                 @ #           ",
"      . $ % . .           & * = -             @ @ ; ; >         ",
"      . , $ ; % .         & * = -           ' % ; $ , >         ",
"    . . , , $ ; % .     ) & ! ~ { ]       ^ % ; $ $ , > >       ",
"    . / , , $ ; @ @ @ ( _ : < $ [ } |   1 % ; $ $ , , / >       ",
"    . / / , @ @ 2 3 4 5 6 3 $ $ $ 7 8 @ @ @ ; $ , , , / >       ",
"    . / / , @ 9 0 $ 4 5 6 % $ $ $ $ $ a b c | d , , / / >       ",
"    . / @ e f g $ ; 4 5 h $ $ $ $ $ $ i j $ k > l , / / >       ",
"    . / @ m n $ ; % $ o p $ $ $ $ $ $ q r $ $ % s t u / >       ",
"    . > @ m n ; % ; $ v w x y z x $ $ $ $ $ $ $ % f e > >       ",
"    @ A B $ ; % ; $ $ 5 C D E $ $ $ $ $ $ $ $ $ $ % m F >       ",
"    @ A B ; % ; $ $ $ 5 C D E $ G H $ I r $ $ $ ; ; ; J K       ",
"  @ @ L M % ; ; $ $ $ N O D w P Q $ $ I r $ $ $ $ ; ; R S >     ",
"  @ ; 0 T % U + V $ W ( X D w P Y $ $ q r $ $ $ $ $ ; y ; Z     ",
"  @ ; ` % %  ...$ +.@.#.$.%.; P Y $ $ &.> > +.$ $ $ ; T ; *.    ",
"  @ ; ` ; =.-.;.> >.,.'.@.).!.P Y $ ~.{.].^.> /.$ $ ; ; ` ; *.  ",
"  @ ; ` ; (._.:.<.[.[.[.[.).!.P Y $ }.+.[.[.|.> ;.-.1.; ; 2.*.  ",
"  @ ; =.; 3.4.5.[.~ ~ 6.~ [.7.8.9.0.a.b.~ 6.~ c.> d.e.f.; ; *.  ",
"  @ ; =.g.h.i.j.[.~ k.l.k.m.n.o.p.q.a.+.k.l.k.~ r.> s.t.=.; *.  ",
"  @ @ u.v.w.x.y.$ ~ z.k.z.A.B.C.9.D.E.F.z.k.z.~ j.i.h.G.H.2.*.  ",
"    @ u.v.I.J.K.$ $ ~ ~ ~ K.L.M.N.O.F.$ ~ ~ ~ $ y.x.P.Q.H.2.*.  ",
"      @ @ R.J.K.$ $ $ $ $ $ K.S.T.> U.$ $ $ $ $ K.J.R.V.$ + *.  ",
"      @ @ W.X.K.$ $ $ $ $ $ $ K.Y.Z.`.$ $ $ $ $ K.J.I.*.*.*.*.  ",
"        @ @  +h .+++@+% $ $ n.$ $ $ n.$ $ #+$+%+K.&+W.*.  >     ",
"            *.*+=+-+*.;+>+$ $ n.$ n.$ $ 4 ,+*.'+)+ +*.          ",
"              *.!+-+~+{+]+^+/+(+_+:+<+[+}+|+-+'+1+*.            ",
"              ~+*.2+~+~+3+4+5+6+~ 7+8+9+0+~+-+!+*.~+            ",
"            L.~+M.*.a+~+) b+#+~ ~ ~ #+b+c+~+2+*.M.~+L.          ",
"          $ L.~+M.M.*.( ) b+d+#+~ #+e+b+c+a+*.M.M.~+L.$         ",
"                          f+f+% % % f+3+                        ",
"                                                                "};
