/* XPM */
static char * head_8x8_xpm[] = {
"8 8 9 1",
" 	c None",
".	c #D69E98",
"+	c #A3926F",
"@	c #FFFCEE",
"#	c #AA1E1D",
"$	c #FFFFFF",
"%	c #F91413",
"&	c #F9F3D7",
"*	c #E8E1BE",
".+@@@@+.",
"++@+@@++",
"+@+@+@+@",
"@#$+@+$+",
"@%#@+%#@",
"@@@@@@@@",
"+&@++@&+",
"*+@$$@+*"};
