/* XPM */
static char * head_48x48_xpm[] = {
"48 48 832 2",
"  	c None",
". 	c #5B473A",
"+ 	c #916156",
"@ 	c #80695C",
"# 	c #EAE5D7",
"$ 	c #634F42",
"% 	c #B9736C",
"& 	c #9A6B60",
"* 	c #825D52",
"= 	c #C1716A",
"- 	c #D9B6AA",
"; 	c #7E6E62",
"> 	c #FFFCEE",
", 	c #5A473A",
"' 	c #726155",
") 	c #D8BDB1",
"! 	c #C37069",
"~ 	c #A27268",
"{ 	c #916157",
"] 	c #E4BDB1",
"^ 	c #FBF4EB",
"/ 	c #857669",
"( 	c #DAD3C5",
"_ 	c #D8D1C3",
": 	c #726154",
"< 	c #FBF6EC",
"[ 	c #E7C4B8",
"} 	c #C47F78",
"| 	c #9A756C",
"1 	c #8A5E54",
"2 	c #ECCFC3",
"3 	c #FFFFF9",
"4 	c #E8E3D5",
"5 	c #CAC1B3",
"6 	c #88796B",
"7 	c #D0C8BA",
"8 	c #645144",
"9 	c #E4DED0",
"0 	c #FFFFF7",
"a 	c #F1DBCE",
"b 	c #CA7F79",
"c 	c #B68982",
"d 	c #85665B",
"e 	c #BC7A73",
"f 	c #EACBBF",
"g 	c #B6AC9E",
"h 	c #5C483B",
"i 	c #78675A",
"j 	c #DFD9CB",
"k 	c #FFFFF5",
"l 	c #EFD7CA",
"m 	c #CA8079",
"n 	c #B2857E",
"o 	c #A47C73",
"p 	c #CB827C",
"q 	c #604C3F",
"r 	c #4F3C2F",
"s 	c #C0B6A9",
"t 	c #716053",
"u 	c #625042",
"v 	c #736154",
"w 	c #E1DBCE",
"x 	c #98736A",
"y 	c #C3BCB2",
"z 	c #726153",
"A 	c #635042",
"B 	c #857568",
"C 	c #574336",
"D 	c #766153",
"E 	c #CEB6A5",
"F 	c #D2C8B9",
"G 	c #B9AFA2",
"H 	c #A19588",
"I 	c #9F9386",
"J 	c #B3A99B",
"K 	c #A99E90",
"L 	c #A09386",
"M 	c #604D40",
"N 	c #9B8E81",
"O 	c #7C5E53",
"P 	c #C1918A",
"Q 	c #B4998D",
"R 	c #97897C",
"S 	c #DCD5C7",
"T 	c #F8F4E6",
"U 	c #A5998B",
"V 	c #837466",
"W 	c #756052",
"X 	c #CCB2A1",
"Y 	c #B6A292",
"Z 	c #645244",
"` 	c #8B7C6E",
" .	c #B0837B",
"..	c #D8A29C",
"+.	c #9D665D",
"@.	c #635044",
"#.	c #F2EEE0",
"$.	c #7C6C5E",
"%.	c #645042",
"&.	c #AF9583",
"*.	c #B6A494",
"=.	c #BFB5A7",
"-.	c #77675A",
";.	c #837366",
">.	c #CDC5B8",
",.	c #CA817A",
"'.	c #B28780",
").	c #BE8E86",
"!.	c #AA7A73",
"~.	c #5C473A",
"{.	c #DCD7CC",
"].	c #C5BCAE",
"^.	c #685346",
"/.	c #927A6B",
"(.	c #917867",
"_.	c #C8BFB1",
":.	c #574437",
"<.	c #5F4B3E",
"[.	c #C87B74",
"}.	c #B7837B",
"|.	c #7F5E53",
"1.	c #635043",
"2.	c #DFDBD2",
"3.	c #FFFCED",
"4.	c #E2DBCE",
"5.	c #6E5D50",
"6.	c #756053",
"7.	c #D2B7A6",
"8.	c #967F6F",
"9.	c #FDF9EB",
"0.	c #E5D8C9",
"a.	c #D1C5B5",
"b.	c #FEFBED",
"c.	c #ECE2D3",
"d.	c #D9C8B8",
"e.	c #F5ECDD",
"f.	c #96897D",
"g.	c #C3AEA2",
"h.	c #CB827B",
"i.	c #855D52",
"j.	c #E4E1D7",
"k.	c #B1A799",
"l.	c #655143",
"m.	c #957E6F",
"n.	c #AF9584",
"o.	c #A18B7B",
"p.	c #C6AD9C",
"q.	c #927867",
"r.	c #FCF9EB",
"s.	c #EBE0D1",
"t.	c #FBF6E8",
"u.	c #ECE1D2",
"v.	c #CDB7A7",
"w.	c #EDE1D2",
"x.	c #D5CDBF",
"y.	c #746356",
"z.	c #5E4A3D",
"A.	c #866056",
"B.	c #675447",
"C.	c #E7E4D7",
"D.	c #C2BAAC",
"E.	c #836D5E",
"F.	c #CBB19F",
"G.	c #876D5C",
"H.	c #A48D7C",
"I.	c #E8DCCD",
"J.	c #B39A89",
"K.	c #B9A797",
"L.	c #EFE5D6",
"M.	c #B69D8C",
"N.	c #EEE6D7",
"O.	c #C7AD9C",
"P.	c #EAE0D1",
"Q.	c #DED9CD",
"R.	c #5D493C",
"S.	c #D4CDBF",
"T.	c #C3BAAC",
"U.	c #7E695A",
"V.	c #C3A998",
"W.	c #8C7261",
"X.	c #C7B8A8",
"Y.	c #FBF7E9",
"Z.	c #C2A796",
"`.	c #917968",
" +	c #EFE6D7",
".+	c #B9A08F",
"++	c #AD9989",
"@+	c #F2ECDD",
"#+	c #DAC9B9",
"$+	c #F2E9DA",
"%+	c #E8E4D6",
"&+	c #5C4A3D",
"*+	c #5E4B3E",
"=+	c #D9D2C4",
"-+	c #8D7260",
";+	c #FAF4E6",
">+	c #B49A89",
",+	c #927968",
"'+	c #C8AF9E",
")+	c #F1ECDE",
"!+	c #5A483B",
"~+	c #584437",
"{+	c #6C584A",
"]+	c #E8E2D4",
"^+	c #8C715F",
"/+	c #ECE3D4",
"(+	c #8D7463",
"_+	c #AE9A89",
":+	c #BFA796",
"<+	c #A99484",
"[+	c #F5EFE1",
"}+	c #E1DBCD",
"|+	c #F4F0E2",
"1+	c #FAF5E7",
"2+	c #F4ECDD",
"3+	c #F7F1E3",
"4+	c #F3EEE0",
"5+	c #5B473B",
"6+	c #594539",
"7+	c #5B4638",
"8+	c #BCA393",
"9+	c #F3EADB",
"0+	c #F8F2E4",
"a+	c #F4EDDE",
"b+	c #917765",
"c+	c #E8E0D1",
"d+	c #C2A998",
"e+	c #9A8272",
"f+	c #F6EFE1",
"g+	c #907766",
"h+	c #FEFAEC",
"i+	c #CEC5B7",
"j+	c #C1A998",
"k+	c #CBB4A4",
"l+	c #F8F3E4",
"m+	c #5A4639",
"n+	c #5E4A3C",
"o+	c #8D7362",
"p+	c #BEA492",
"q+	c #F0E7D8",
"r+	c #C6AE9D",
"s+	c #C4AB9A",
"t+	c #E8DDCE",
"u+	c #7F6A5B",
"v+	c #C4AA99",
"w+	c #8D7261",
"x+	c #9D8372",
"y+	c #998170",
"z+	c #C5AC9B",
"A+	c #957B6A",
"B+	c #F6F0E2",
"C+	c #EDE9DB",
"D+	c #645346",
"E+	c #D0C5B6",
"F+	c #E9E0D1",
"G+	c #947B6A",
"H+	c #CCB3A1",
"I+	c #F2EBDD",
"J+	c #544033",
"K+	c #594538",
"L+	c #917766",
"M+	c #947A69",
"N+	c #BDA392",
"O+	c #F1E9DA",
"P+	c #C8B0A0",
"Q+	c #E4D7C8",
"R+	c #7A6556",
"S+	c #BAA090",
"T+	c #896F5E",
"U+	c #6D5B4E",
"V+	c #876F5E",
"W+	c #DDD2C3",
"X+	c #E1D8C9",
"Y+	c #9E8473",
"Z+	c #BBA393",
"`+	c #5A463A",
" @	c #8B7161",
".@	c #C1A796",
"+@	c #F6F0E1",
"@@	c #E5D8C8",
"#@	c #FAF6E7",
"$@	c #CFC4B6",
"%@	c #584538",
"&@	c #644E40",
"*@	c #A28776",
"=@	c #FAF6E8",
"-@	c #F6F1E3",
";@	c #6C5B4E",
">@	c #B69E8D",
",@	c #A58B7A",
"'@	c #D9CEBF",
")@	c #FDFAEC",
"!@	c #DED4C6",
"~@	c #CCB4A3",
"{@	c #F9F4E5",
"]@	c #544034",
"^@	c #BEA594",
"/@	c #FEFBEC",
"(@	c #B79E8D",
"_@	c #CCBFAF",
":@	c #8F7564",
"<@	c #A58C7B",
"[@	c #D1B8A7",
"}@	c #A79080",
"|@	c #A18675",
"1@	c #C1A897",
"2@	c #99806F",
"3@	c #987E6C",
"4@	c #FBF8EA",
"5@	c #6F5D50",
"6@	c #534033",
"7@	c #B29A8A",
"8@	c #907665",
"9@	c #D7CCBD",
"0@	c #E3DBCC",
"a@	c #BCA292",
"b@	c #8E7464",
"c@	c #BFA695",
"d@	c #CAB1A0",
"e@	c #967E6D",
"f@	c #EBDFD0",
"g@	c #AA9484",
"h@	c #8E7463",
"i@	c #A68C7B",
"j@	c #C8B09F",
"k@	c #CAB09F",
"l@	c #A89081",
"m@	c #4D3A2D",
"n@	c #665143",
"o@	c #997E6D",
"p@	c #937968",
"q@	c #9A8271",
"r@	c #6B5A4D",
"s@	c #B09888",
"t@	c #C7AE9D",
"u@	c #A18776",
"v@	c #D5C9BA",
"w@	c #E2D9CA",
"x@	c #9C8271",
"y@	c #554134",
"z@	c #997F6E",
"A@	c #FCF8E9",
"B@	c #9C8272",
"C@	c #E1D4C5",
"D@	c #C4B4A4",
"E@	c #937A69",
"F@	c #AC9282",
"G@	c #C3AA99",
"H@	c #A68F7F",
"I@	c #9A7F6E",
"J@	c #675346",
"K@	c #4F3C30",
"L@	c #B1998A",
"M@	c #C7AF9E",
"N@	c #A38A79",
"O@	c #D3C7B8",
"P@	c #DACFC0",
"Q@	c #DCCBBB",
"R@	c #E6DFD0",
"S@	c #CBB3A2",
"T@	c #9A806F",
"U@	c #F8F3E5",
"V@	c #C5AE9E",
"W@	c #EEE5D6",
"X@	c #BDAC9C",
"Y@	c #AA9180",
"Z@	c #BDAA9C",
"`@	c #50413D",
" #	c #51423E",
".#	c #53423E",
"+#	c #97847B",
"@#	c #AC9484",
"##	c #4B372B",
"$#	c #675244",
"%#	c #977C6B",
"&#	c #C5AD9C",
"*#	c #987E6D",
"=#	c #AE9685",
"-#	c #C4AB9B",
";#	c #A18E84",
">#	c #503F3C",
",#	c #776155",
"'#	c #9E8C80",
")#	c #FCF8EA",
"!#	c #D4C8B9",
"~#	c #DBC9B9",
"{#	c #E4DBCC",
"]#	c #C2AA98",
"^#	c #634E41",
"/#	c #8B7262",
"(#	c #C2A897",
"_#	c #BCA291",
":#	c #BDAD9D",
"<#	c #AC9382",
"[#	c #CABAAC",
"}#	c #4E1A19",
"|#	c #870024",
"1#	c #82001C",
"2#	c #630017",
"3#	c #332F2B",
"4#	c #96837A",
"5#	c #A58D7D",
"6#	c #5B4639",
"7#	c #9B806F",
"8#	c #A18979",
"9#	c #B79F8E",
"0#	c #F8F2E3",
"a#	c #8D7C75",
"b#	c #36322E",
"c#	c #600017",
"d#	c #830820",
"e#	c #8F5051",
"f#	c #7A6557",
"g#	c #B5A99B",
"h#	c #D8CDBE",
"i#	c #A68D7C",
"j#	c #C6AF9E",
"k#	c #9C8270",
"l#	c #5C483C",
"m#	c #876E5E",
"n#	c #BBA190",
"o#	c #AE9584",
"p#	c #8F7665",
"q#	c #AF9685",
"r#	c #E2D4C7",
"s#	c #ECEBE8",
"t#	c #D99FA1",
"u#	c #DA383D",
"v#	c #ED9298",
"w#	c #F6D1D6",
"x#	c #A23D3A",
"y#	c #292A2A",
"z#	c #89756E",
"A#	c #4A362A",
"B#	c #6A5546",
"C#	c #C9B09F",
"D#	c #7E6D68",
"E#	c #282929",
"F#	c #993A38",
"G#	c #F5CCD0",
"H#	c #EE9CA2",
"I#	c #D43D40",
"J#	c #CD9392",
"K#	c #B4A59A",
"L#	c #8D7363",
"M#	c #C8BAAA",
"N#	c #9F8675",
"O#	c #C6AC9B",
"P#	c #8A7262",
"Q#	c #624E40",
"R#	c #A08674",
"S#	c #886F5E",
"T#	c #A08776",
"U#	c #A88E7D",
"V#	c #E2D5CA",
"W#	c #FFFAFB",
"X#	c #ED7C7C",
"Y#	c #AD0E0D",
"Z#	c #902F2D",
"`#	c #9F3E3D",
" $	c #A41212",
".$	c #880606",
"+$	c #6F716D",
"@$	c #A1897A",
"#$	c #4A372A",
"$$	c #6A5446",
"%$	c #967C6B",
"&$	c #F5EEE0",
"*$	c #6F7773",
"=$	c #810606",
"-$	c #A51010",
";$	c #A03C3B",
">$	c #913130",
",$	c #AA0E0C",
"'$	c #EA7272",
")$	c #F6EFEE",
"!$	c #BEAEA2",
"~$	c #C7B8A9",
"{$	c #826A5A",
"]$	c #634E40",
"^$	c #B29887",
"/$	c #DECFC0",
"($	c #FBF8EF",
"_$	c #FFFAFC",
":$	c #DD5454",
"<$	c #B50000",
"[$	c #900000",
"}$	c #4F0000",
"|$	c #7B0000",
"1$	c #C50000",
"2$	c #AE3030",
"3$	c #E9DED5",
"4$	c #9B8172",
"5$	c #4B382C",
"6$	c #6A5547",
"7$	c #967C6A",
"8$	c #B59D8C",
"9$	c #F5F0E9",
"0$	c #B23A39",
"a$	c #C30000",
"b$	c #810000",
"c$	c #4E0000",
"d$	c #8B0000",
"e$	c #D94949",
"f$	c #FFF8F9",
"g$	c #FAF8F0",
"h$	c #BEAE9F",
"i$	c #B5A190",
"j$	c #9B8676",
"k$	c #614C3E",
"l$	c #9E8471",
"m$	c #907565",
"n$	c #B19786",
"o$	c #E6D9CB",
"p$	c #CBBDAF",
"q$	c #E1DAD5",
"r$	c #FCDBDC",
"s$	c #D74040",
"t$	c #B00000",
"u$	c #9D0000",
"v$	c #A70000",
"w$	c #CA090A",
"x$	c #F5A9A9",
"y$	c #FFFFFF",
"z$	c #F9F3E3",
"A$	c #987D6F",
"B$	c #4C382C",
"C$	c #806758",
"D$	c #F3EDE9",
"E$	c #F7B0B0",
"F$	c #CC0F0F",
"G$	c #AF0000",
"H$	c #D53939",
"I$	c #FAD7D8",
"J$	c #E5E0DB",
"K$	c #C6B8AA",
"L$	c #E6DBCC",
"M$	c #988071",
"N$	c #644E3F",
"O$	c #A68B7A",
"P$	c #A38C7D",
"Q$	c #6B5647",
"R$	c #AB9080",
"S$	c #F4EDDD",
"T$	c #EEE7D4",
"U$	c #D0C4B1",
"V$	c #DFE1DB",
"W$	c #FFE4E7",
"X$	c #EB6A6C",
"Y$	c #E22D2D",
"Z$	c #DE4E4D",
"`$	c #EDA4A5",
" %	c #FFFDF3",
".%	c #FCF8E2",
"+%	c #F8F3E1",
"@%	c #9E8677",
"#%	c #4E3B2E",
"$%	c #9A806E",
"%%	c #C1B6A8",
"&%	c #FCFAEF",
"*%	c #FFFFFE",
"=%	c #EEA8A9",
"-%	c #DE5150",
";%	c #E12C2C",
">%	c #EB6668",
",%	c #FFDFE3",
"'%	c #E5E9E4",
")%	c #C9BCAA",
"!%	c #E4D9C7",
"~%	c #EDE3D4",
"{%	c #BDA494",
"]%	c #8C7566",
"^%	c #6F594B",
"/%	c #7E685A",
"(%	c #8D7462",
"_%	c #C8AE9D",
":%	c #9B8170",
"<%	c #AD9282",
"[%	c #EDE3D3",
"}%	c #FAF6E5",
"|%	c #F5F0D9",
"1%	c #D4C9B5",
"2%	c #C0B8AE",
"3%	c #B89287",
"4%	c #C9746B",
"5%	c #F9CAC1",
"6%	c #FFF5ED",
"7%	c #FEFCF0",
"8%	c #F9F5DF",
"9%	c #F8F4D9",
"0%	c #EADECE",
"a%	c #9E8778",
"b%	c #523F33",
"c%	c #715A4C",
"d%	c #EEE9DB",
"e%	c #FFF6EE",
"f%	c #FACCC3",
"g%	c #CC776F",
"h%	c #B79085",
"i%	c #CEC2AF",
"j%	c #F7F3DC",
"k%	c #F7F1E1",
"l%	c #F9F4E6",
"m%	c #E1CFC0",
"n%	c #B19B8B",
"o%	c #6D5A4B",
"p%	c #644F41",
"q%	c #6B5547",
"r%	c #A78D7C",
"s%	c #967B6A",
"t%	c #9E8574",
"u%	c #B9A392",
"v%	c #F5EDDF",
"w%	c #FEFBEA",
"x%	c #F7F3DD",
"y%	c #E7DFC9",
"z%	c #EAE4CD",
"A%	c #EEE2CF",
"B%	c #FDFAE9",
"C%	c #F7F2D8",
"D%	c #FEFBE8",
"E%	c #E8DBCB",
"F%	c #F1EDDF",
"G%	c #F4F1DF",
"H%	c #FEFBEB",
"I%	c #EFE2CF",
"J%	c #E9E4CD",
"K%	c #E9E1CA",
"L%	c #F4EFD9",
"M%	c #FEFBE9",
"N%	c #BDA595",
"O%	c #987D6C",
"P%	c #695345",
"Q%	c #876D5D",
"R%	c #C2A997",
"S%	c #A48A79",
"T%	c #AF9A8A",
"U%	c #FFFDF0",
"V%	c #F8F4E1",
"W%	c #FBF6E2",
"X%	c #FBF7E2",
"Y%	c #FDFAE7",
"Z%	c #FDF9E7",
"`%	c #EBDFCF",
" &	c #AEA294",
".&	c #EFE7D6",
"+&	c #FCF9E4",
"@&	c #FBF6E1",
"#&	c #FFFDED",
"$&	c #FFFCE8",
"%&	c #E2D7C8",
"&&	c #C1AC9C",
"*&	c #5F4A3D",
"=&	c #755E4F",
"-&	c #513D32",
";&	c #AD9382",
">&	c #977E6D",
",&	c #BAA899",
"'&	c #FFFEEA",
")&	c #FFFCE5",
"!&	c #FEFAE7",
"~&	c #FBF7E4",
"{&	c #FEFBE7",
"]&	c #FFFCEC",
"^&	c #FDFAE5",
"/&	c #FFFBE3",
"(&	c #CBBDAE",
"_&	c #564236",
":&	c #725B4C",
"<&	c #947A68",
"[&	c #BCAB9C",
"}&	c #F8F4E3",
"|&	c #FFFCE6",
"1&	c #FEFAE8",
"2&	c #FAF6E0",
"3&	c #E7DBC3",
"4&	c #DDCCBC",
"5&	c #F9F4EA",
"6&	c #FFFDF5",
"7&	c #FCF8EE",
"8&	c #DFD0C0",
"9&	c #E2D4BC",
"0&	c #FCF9E3",
"a&	c #F8F3DC",
"b&	c #FFFEE7",
"c&	c #CEC1B2",
"d&	c #705A4B",
"e&	c #A89282",
"f&	c #E4DCCD",
"g&	c #F9F5E3",
"h&	c #FFFDE6",
"i&	c #FCF9E7",
"j&	c #ECE2D2",
"k&	c #B99B8B",
"l&	c #C8B7AE",
"m&	c #D9CEC7",
"n&	c #FBF8F7",
"o&	c #FDFBFA",
"p&	c #DCD1CA",
"q&	c #CABAB0",
"r&	c #B99D8E",
"s&	c #FFFCEA",
"t&	c #EEE4D4",
"u&	c #FDFAEA",
"v&	c #F8F3DB",
"w&	c #FEFAE1",
"x&	c #FBF7E5",
"y&	c #F4EFE0",
"z&	c #A69181",
"A&	c #7F6858",
"B&	c #A38C7B",
"C&	c #E4DBCD",
"D&	c #FAF6E6",
"E&	c #FFFDE8",
"F&	c #E7DDCF",
"G&	c #B59D8B",
"H&	c #DACEB6",
"I&	c #FDF9E6",
"J&	c #EFE6D5",
"K&	c #D0C2AF",
"L&	c #B9A18D",
"M&	c #D9C9BF",
"N&	c #DCCCC3",
"O&	c #BAA18E",
"P&	c #CDBEAB",
"Q&	c #ECE3D2",
"R&	c #FDF9EA",
"S&	c #FBF6E3",
"T&	c #DED4BD",
"U&	c #B79F8D",
"V&	c #DACBBD",
"W&	c #FBF7E6",
"X&	c #9B8374",
"Y&	c #866D5D",
"Z&	c #A18A79",
"`&	c #E5DCCE",
" *	c #ECE5D6",
".*	c #8C705F",
"+*	c #D1C5AE",
"@*	c #FFFDEA",
"#*	c #FFFDEE",
"$*	c #F4ECD8",
"%*	c #C3AC99",
"&*	c #C1A794",
"**	c #F0E7D3",
"=*	c #FFFDEC",
"-*	c #FFFEEB",
";*	c #D7CCB4",
">*	c #9B8373",
",*	c #E0D7C8",
"'*	c #998172",
")*	c #7A6353",
"!*	c #907969",
"~*	c #E7DFD0",
"{*	c #B19D8D",
"]*	c #A0897A",
"^*	c #CEC0A9",
"/*	c #E3D9C2",
"(*	c #DACFB7",
"_*	c #DFD7BD",
":*	c #D0BEA9",
"<*	c #CFBDA8",
"[*	c #DED5BB",
"}*	c #DBD0B8",
"|*	c #E3DAC1",
"1*	c #D2C6AE",
"2*	c #A18A7A",
"3*	c #A79282",
"4*	c #ECE5D7",
"5*	c #EBE4D6",
"6*	c #937D6D",
"7*	c #7D6556",
"8*	c #614D40",
"9*	c #746052",
"0*	c #A08978",
"a*	c #EEE7D8",
"b*	c #B6A394",
"c*	c #937766",
"d*	c #9D8578",
"e*	c #9B8478",
"f*	c #AE9485",
"g*	c #B09686",
"h*	c #9C8579",
"i*	c #907464",
"j*	c #9E8675",
"k*	c #F3EDDF",
"l*	c #EEE7D9",
"m*	c #A58F7F",
"n*	c #7B6557",
"o*	c #624F42",
"p*	c #D2C6B6",
"q*	c #A08878",
"r*	c #E9E1D2",
"s*	c #F1EBDC",
"t*	c #D3C2B2",
"u*	c #F2E8E2",
"v*	c #CABEB7",
"w*	c #C6B8B1",
"x*	c #F6EEE9",
"y*	c #F1ECDD",
"z*	c #B7A595",
"A*	c #D2CABD",
"B*	c #655245",
"C*	c #ABA092",
"D*	c #DCCBBA",
"E*	c #E2D6CD",
"F*	c #FDFAF9",
"G*	c #E6DAD2",
"H*	c #CEB7A5",
"I*	c #F4EFE1",
"J*	c #A28B7B",
"K*	c #CABCAD",
"L*	c #A79B8D",
"M*	c #87786B",
"N*	c #EFEADC",
"O*	c #F6F2E4",
"P*	c #E5DDCE",
"Q*	c #E0D2C2",
"R*	c #C6AE9C",
"S*	c #C5AD9B",
"T*	c #D5C2B1",
"U*	c #F7F2E4",
"V*	c #987F6E",
"W*	c #D5CABB",
"X*	c #7C6C5F",
"Y*	c #F7F3E5",
"Z*	c #DFD6C8",
"`*	c #FFFBED",
" =	c #F9F5E7",
".=	c #907666",
"+=	c #D2C6B7",
"@=	c #8E8072",
"                                                .                                               ",
"                  . .                         . .                             .                 ",
"                  . .                       . . .                           . . .               ",
"                . . + @ .                   . # .                           $ % & .             ",
"                . * = - ; .               . . > , ,                       ' ) ! ~ .             ",
"                . { ] ^ / .               . ( > _ , ,                   . : < [ } | .           ",
"                . 1 2 3 4 5 6 .         . . > > > 7 ,                 . 8 9 0 a b c .           ",
"              . d e f 0 > > g .         h 5 > > > > , ,             , i j > k l m n .           ",
"              . o p f 0 > 7 q . .       r > > > > > s , , , t u . . v w > > k l m n .           ",
"              . x p f y z h A B . C D E F > > > > > > G H I J K L M N > > > k l m n .           ",
"            . O P p Q h q R S T U V W X Y > > > > > > > > > > > > Z ` > > > k l m n .           ",
"            .  ...+.h @.( > > > #.$.%.&.*.> > > > > > > > > > > > =.-.;.>.> k l ,.'..           ",
"            . ).!.~.$ {.> > > > ].^./.(.> > > > > > > > > > > > > > _.:.<.>.k l [.}..           ",
"            . |.h 1.2.3.> > > 4.5.6.7.8.> 9.0.a.b.> > > > > > c.d.e.> >.q h f.g.h.i..           ",
"            . . 1.j.3.> > > > k.l.m.n.o.> 9.p.q.r.> > s.t.> u.d.v.w.> > x.y.z.h A.. .           ",
"            . B.C.3.> > > > > D.E.F.G.H.b.I.J.K.b.> L.M.N.> O.P.> > > > > > Q.R.h .             ",
"            . S.> > > > > > > T.U.V.W.X.Y.Z.`.> >  +.+++@+> #+$+> > > > > > 3.%+&+h             ",
"          :.*+=+> > > > > > > T.U.V.-+> ;+>+,+> > '+,+Y.> > > > > > > > > > > > )+!+.           ",
"        ~+{+]+> > > > > > > > T.U.V.^+> /+(+_+> > :+<+[+> }+|+> > > > > > > 1+2+3+4+5+.         ",
"      6+7+8+9+> 0+a+t.> > > > T.U.V.b+c+d+e+> > f+g+h+> > *+i+> > > > > > > u.j+k+l+)+m+        ",
"    . n+o+p+q+> r+s+t+> > > > D.u+v+w+x+d+y+> h+z+A+B+> C+D+E+Y.> > > > > > > F+G+H+I+J+.       ",
"    K+L+M+N+O+t.P+Q+> > > > > D.R+S+T+x+d+y+> h+r+A+B+> U+R.V+W+> > > > > > > > X+Y+Z+> `+      ",
"  . ~. @.@+@> s+@@> > > > 9.#@$@6+%@&@*@d+y+=@h+r+A+-@T ;@>@,@'@)@> > > > > > > !@x+~@{@]@.     ",
"  . (.L+^@a+/@(@Q+> > > 9._@:@<@[@}@7+|@1@:@2@> r+3@4@5@6@7@,@8@9@b.> > > > > > > 0@x+a@r..     ",
"  . b@c@d@-@e@(@f@> > > g@h@i@j@k@l@m@n@o@p@q@> r+3@b.r@s@t@'+u@(.v@> > > > > > > > w@x@b.y@.   ",
"  . b@z+z@A@B@C@h+> D@E@F@p.G@s+s+r+H@~.I@p@q@> r+3@J@K@L@t@s+M@N@g+O@> > > P@,@Q@> R@z@S@h+.   ",
"  . g+T@U@V@T@W@> X@8@Y@t@Z@`@ #.#+#@###$#%#2@> &#*#m+=#-#s+s+;#>#,#q.'#> > )#!#,@~#> {#x@]#.   ",
"  . p@^#/#(#T@_#@+:#<#z+[#}#|#1#2#3#4#5#6#7#M+8#s+*#K+9# +0#a#b#c#d#e#3@f#g#> )#h#i#j#> k#z+.   ",
"  . 3@l#m#(#T@n#o#p#q#r#s#t#u#v#w#x#y#z#A#B#I@M+C#*#K+>@+@D#E#F#G#H#I#J#K#L#M#> X+N#O#P#Q#R#.   ",
"  . n@%@S#(#T@n#T#U#s+V#W#X#Y#Z#`# $.$+$@$#$$$I@x+%$K+>@&$*$=$-$;$>$,$'$)$!$M+~$> P@*@L+{$]$.   ",
"    K+:.S#(#T@n#N#^$/$($_$:$<$[$}$|$1$2$3$4$5$6$7$A+6@8$9$0$a$b$c$d$<$e$f$g$h$*#i$j$k$l$m$C .   ",
"      :.S#(#T@n#N#n$o$p$q$r$s$t$u$v$w$x$y$z$A$B$$$3@C$'+D$E$F$v$u$G$H$I$J$K$L$M$N$O$P$Q$L+K+.   ",
"      :.S#(#T@n#N#R$S$T$U$V$W$X$Y$Z$`$y$ %.%+%@%#%6$$%%%&%*%=%-%;%>%,%'%)%!%~%{%]%^%/%h q.K+    ",
"      :.(%_%:%n#N#<%[%}%|%1%2%3%4%5%6%7%8%9%> 0%a%b%c%d%>  %e%f%g%h%2%i%j%k%l%m%n%o%y@p%q.K+    ",
"        q%r%s%_#t%u%v%> w%x%y%z%A%> > B%C%D%> > E%a%~.F%G%H%> > I%J%K%L%M%> > s.N%p@]@p%O%K+    ",
"          P%Q%R%S%T%X+> U%V%W%X%Y%> > > Z%> > > > `% &b..&3.> > M%+&@&B%#&$&> %&&&    *&=&m+    ",
"          -&m#;&x+>&,&> '&)&> > > > 3.!&!&9.> > > > > > > ~&{&]&> > > > ^&/&> (&>&    m+_&.     ",
"            :&L#<&p@[&> }&|&1&> > > > 2&3&4&5&6&6&6&6&7&8&9&0&3.> > > H%a&b&> c&p@      .       ",
"              d&:@M+e&f&> g&h&i&U@j&1&b.8&k&l&m&n&o&p&q&r&#+/@s&t&v%u&v&w&x&y&z&p@              ",
"                A&    B&C&> D&E&F&G&H&I&> J&K&L&M&N&O&P&Q&R&S&T&U&V&M%h&W&U@X&M+                ",
"                Y&      Z&`&> >  *z&.*+*@*#*#&$*%*&***=*#*-*;*8@>*,*> > U@'*M+                  ",
"                        )*!*~*> > T {*]*^*/*(*_*:*<*[*}*|*1*2*3*4*> > 5*6*7*                    ",
"                      8*. 9*0*a*> > > > b*c*d*e*f*g*h*d*i*j*k*> > > l*m*n*. q                   ",
"                  . . o*T.> p*q*r*s*> > > t*u*y$v*w*y$x*j#-@> > y*c+0*z*> A*B*. .               ",
"                  . <.C*4@> > X+E@q*l*k*> > D*E*F*o&G*H*t.> I*l*J*E@K*> > r.L*. .               ",
"                    . . M*N*O*> > P*p@G+-@> > Q*R*S*T*h+> U*V*p@W*> > T N*N . .                 ",
"                          . X*Y*Y*Y*Z*8@,+`* = = = = = =b.>&.=+=Y*Y*Y*@=. .                     ",
"                              . . . . . m+  p@p@p@p@p@p@  :.. . . . . .                         "};
