/* XPM */
static char * idle0v_xpm[] = {
"64 48 3 1",
" 	c None",
".	c #000000",
"+	c #FF00FF",
"................................................................",
".++++++++++++++++++++++++++++++++++++++++++++++++++++++++++++++.",
".++++++++++++++++++++++++++++++++++++++++++++++++++++++++++++++.",
".++++++++++++++++++++++++++++++++++++++++++++++++++++++++++++++.",
".++++++++++++......................................++++++++++++.",
".++++++++++++.                                    .++++++++++++.",
".++++++++++++..                                  ..++++++++++++.",
".+++++++++++++...                              ...+++++++++++++.",
".+++...+++++++++..                            ..+++++++++...+++.",
".+++. ..+++++++++..                          ..+++++++++.. .+++.",
".+++.  ...++++++++...                      ...++++++++...  .+++.",
".+++.    ..+++++++++..                    ..+++++++++..    .+++.",
".+++.     ..+++++++++..                  ..+++++++++..     .+++.",
".+++.      ...++++++++...              ...++++++++...      .+++.",
".+++.        ..+++++++++..            ..+++++++++..        .+++.",
".+++.         ..+++++++++..          ..+++++++++..         .+++.",
".+++.          ...++++++++...      ...++++++++...          .+++.",
".+++.            ..+++++++++..    ..+++++++++..            .+++.",
".+++.             ..+++++++++..  ..+++++++++..             .+++.",
".+++.              ...++++++++....++++++++...              .+++.",
".+++.                ..++++++++++++++++++..                .+++.",
".+++.                 ..++++++++++++++++..                 .+++.",
".+++.                  ...++++++++++++...                  .+++.",
".+++.                    .++++++++++++.                    .+++.",
".+++.                    .++++++++++++.                    .+++.",
".+++.                  ...++++++++++++...                  .+++.",
".+++.                 ..++++++++++++++++..                 .+++.",
".+++.                ..++++++++++++++++++..                .+++.",
".+++.              ...++++++++....++++++++...              .+++.",
".+++.             ..+++++++++..  ..+++++++++..             .+++.",
".+++.            ..+++++++++..    ..+++++++++..            .+++.",
".+++.          ...++++++++...      ...++++++++...          .+++.",
".+++.         ..+++++++++..          ..+++++++++..         .+++.",
".+++.        ..+++++++++..            ..+++++++++..        .+++.",
".+++.      ...++++++++...              ...++++++++...      .+++.",
".+++.     ..+++++++++..                  ..+++++++++..     .+++.",
".+++.    ..+++++++++..                    ..+++++++++..    .+++.",
".+++.  ...++++++++...                      ...++++++++...  .+++.",
".+++. ..+++++++++..                          ..+++++++++.. .+++.",
".+++...+++++++++..                            ..+++++++++...+++.",
".+++++++++++++...                              ...+++++++++++++.",
".++++++++++++..                                  ..++++++++++++.",
".++++++++++++.                                    .++++++++++++.",
".++++++++++++......................................++++++++++++.",
".++++++++++++++++++++++++++++++++++++++++++++++++++++++++++++++.",
".++++++++++++++++++++++++++++++++++++++++++++++++++++++++++++++.",
".++++++++++++++++++++++++++++++++++++++++++++++++++++++++++++++.",
"................................................................"};
