/* XPM */
static char * L:\home\stephanie\squirreljme\runt\mids\lcdui_demo\list_xpm[] = {
"16 16 2 1",
" 	c #FFFFFF",
".	c #000000",
"                ",
"                ",
" .. ..........  ",
" .. ..........  ",
"                ",
" .. ....        ",
" .. ....        ",
"                ",
" .. ......      ",
" .. ......      ",
"                ",
" .. ..          ",
" .. ..          ",
"                ",
"                ",
"                "};
