/* XPM */
static char * L:\home\stephanie\squirreljme\runt\mids\lcdui_demo\event_xpm[] = {
"16 16 5 1",
" 	c #FFFFFF",
".	c #000000",
"+	c #FF0000",
"@	c #00FF00",
"#	c #0000FF",
"                ",
"   .....        ",
"   .+++.        ",
"   .+++.        ",
"   .....        ",
"     .          ",
"     .          ",
"  ........      ",
"  .      .      ",
"  .      .      ",
"  .      .      ",
" ....   ...     ",
" .@@.  .###.    ",
" .@@.  .###.    ",
" ....   ...     ",
"                "};
