/* XPM */
static char * L:\home\stephanie\squirreljme\runt\mids\lcdui_demo\image_xpm[] = {
"16 16 7 1",
" 	c #FFFFFF",
".	c #000000",
"+	c #2ED2D5",
"@	c #FFE142",
"#	c #6FB642",
"$	c #5F2616",
"%	c #00BB00",
"                ",
"                ",
" .............. ",
" .++++++++@++@. ",
" .+++++++++@@+. ",
" .+++###+++@@+. ",
" .++#####+@++@. ",
" .+++###++++++. ",
" .++++$+++++++. ",
" .++++$+++++++. ",
" .++++$+++++++. ",
" .%%%%%%%%%%%%. ",
" .%%%%%%%%%%%%. ",
" .............. ",
"                ",
"                "};
