/* XPM */
static char * L:\home\stephanie\squirreljme\runt\mids\lcdui_demo\mystify_xpm[] = {
"16 16 4 1",
" 	c #FFFFFF",
".	c #00C0C4",
"+	c #00C484",
"@	c #00C400",
"         .      ",
"        . .     ",
"       .   .    ",
"    ++.++++ ..  ",
"   + .     + ...",
"  +.. @@@@@+   .",
"  .  @    + @ . ",
" .  @     + @.  ",
".+ @      + .   ",
"+.@      +  .   ",
"+@.     +  .@   ",
" +@.    +  .@   ",
"  +@... +  .@   ",
"   +@  .   .@   ",
"    +@+@.@.@@   ",
"     ++  .      "};
