/* XPM */
static char * squirrel_hq_xpm[] = {
"64 48 10 1",
" 	c None",
".	c #000000",
"+	c #C1C1C1",
"@	c #DDDDDD",
"#	c #646464",
"$	c #FF00FF",
"%	c #ABABAB",
"&	c #DBDBDB",
"*	c #B3B3B3",
"=	c #404040",
"                                                                ",
"                                                                ",
"                                                                ",
"    ........................................................    ",
"   .++++++++++++++++++++++++++++++++++++++++++++++++++++++++.   ",
"  .+........................................................+.  ",
"  .+.@@@@@@@@@@@@@@@@@@@@@@@@@@@@@@@@@@@@@@@@@@@@@@@@@@@@@@.+.  ",
"  .+.@@@@@@@@@@@@@@@@@@@@@@@@@@@@@@###@###@@@####@@@@@@@@@@.+.  ",
"  .+.@@@@@@@@@@@@@@@@@@@@@@@@@@@@@@#...#...@#....@@@@@@@@@@.+.  ",
"  .+.@@@@@@@@@@@@@@@@@@@@@@@@@@@@@@#.$.#.$.#.$$$$.@@@@@@@@@.+.  ",
"  .+.@@@@@@@@@@@@@@@@@@@@@@@@@@@@@@#.$.#.$.#.$..$.@@@@@@@@@.+.  ",
"  .+.@@@@@@@@@@@@@@@@@@@@@@@@@@@@@@#.$...$.#.$..$.@@@@@@@@@.+.  ",
"  .+.@@@@@@@@@@@@@@@@@@@@@@@@@@@@@@#.$$$$$.#.$..$.@@@@@@@@@.+.  ",
"  .+.@@@@@@@@@@@@@@@@@@@@@@@@@@@@@@#.$...$.#.$..$.@@@@@@@@@.+.  ",
"  .+.@@@@@@@@@@@@@@@@@@@@@@@@@@@@@@#.$.#.$.#.$$.$.@@@@@@@@@.+.  ",
"  .+.@@@@@@@@@@@@@@@@@@@@@@@@@@@@@@#.$.#.$.@..$$$$.@@@@@@@@.+.  ",
"  .+.@@@@@@@@@@@@@@@@@@@@@@@@@@@@@@@...@...@@...$$.@@@@@@@@.+.  ",
"  .+.@@@@@@@@@@@@@@@@@@@@@@@@@@@@@@@@@@@@@@@@@@@...@@@@@@@@.+.  ",
"  .+.@@@@@@@@@@@@@@@@@@@@@@@@@@@@@@@@@@@@@@@@@@@@@@@@@@@@@@.+.  ",
"  .+........................................................+.  ",
"  ..++++++++++++++++++++++++++++++++++++++++++++++++++++++++..  ",
"  .%........................................................%.  ",
"  .%%%%%%%%%%%%%%%%%%%%%%%%%%%%%%%%%%%%%%%%%%%%%%%%%%%%%%%%%%.  ",
"  .$%%%%%%%%%%%%%%%%%%%%%%%%%%%%%%%%%%%%%%%%%%%%%%%%%%%%%%%%$.  ",
"  .$$$$$$$$$$$$$$$$$$$$$$$$$$$$$$$$$$$$$$$$$$$$$$$$$$$$$$$$$$.  ",
"  .$$$$$$$$$$$$$$$$$$$$$$$$$$$$$$$$$$$$$$$$$$$$$$$$$$$$$$$$$$.  ",
"  .%$$$$$$$$$$$$$$$$$$$$$$$$$$$$$$$$$$$$$$$$$$$$$$$$$$$$$$$$%.  ",
"  .%%%%%%%%%%%%%%%%%%%%%%%%%%%%%%%%%%%%%%%%%%%%%%%%%%%%%%%%%%.  ",
"  .$%%%%%%%%%%%%%%%%%%%%%%%%%%%%%%%%%%%%%%%%%%%%%%%%%%%%%%%%$.  ",
"  .$$$$$$$$$$$$$$$$$$$$$$$$$$$$$$$$$$$$$$$$$$$$$$$$$$$$$$$$$$.  ",
"  .$$$$$$$$$$$$$$$$$$$$$$$$$$$$$$$$$$$$$$$$$$$$$$$$$$$$$$$$$$.  ",
"  .%$$$$$$$$$$$$$$$$$$$$$$$$$$$$$$$$$$$$$$$$$$$$$$$$$$$$$$$$%.  ",
"  .%%%%%%%%%%%%%%%%%%%%%%.............%%%%%%%%%%%%%%%%%%%%%%%.  ",
"  .%%%%%%%%%%%%%%%%%%%%%%.&&&&&.&&&&&.%%%%%%%%%%%%%%%%%%%%%%%.  ",
"  .%%%%%%%%%%%%%%%%%%%%%%.&&..&.&..&&.%%%%%%%%%%%%%%%%%%%%%%%.  ",
"  .%%%%%%%%%%%%%%%%%%%%%%.&&&&&.&&&&&.%%%%%%%%%%%%%%%%%%%%%%%.  ",
"  .%%%%%%%%%%%%%%%%%%%%.................%%%%%%%%%%%%%%%%%%%%%.  ",
"  .%%%%%%%%%%%%%%%%%%%.&&&&&&&&&&&&&&&&&.%%%%%%%%%%%%%%%%%%%%.  ",
"  .%%%%%%%%%%%%%%%%%%%.*****************.%%%%%%%%%%%%%%%%%%%%.  ",
"  .%%%%%%%%%%%%%%%%%%%.*****************.%%%%%%%%%%%%%%%%%%%%.  ",
"  .%%%%%%%%%%%%%%%%%%%.*****************.%%%%%%%%%%%%%%%%%%%%.  ",
"   ..........................................................   ",
"   .===.   .===.        .&&&&&&&&&&&&&.         .===.   .===.   ",
"   .===.   .===.        .*************.         .===.   .===.   ",
"   .===.   .===.        ...............         .===.   .===.   ",
"   .===.   .===.        .&&&&&&&&&&&&&.         .===.   .===.   ",
"   .===.   .===.        .*************.         .===.   .===.   ",
"  ....... .......       ...............        ....... .......  "};
