<?xml version="1.0" encoding="UTF-8" standalone="no"?>
<svg
   xmlns:dc="http://purl.org/dc/elements/1.1/"
   xmlns:cc="http://creativecommons.org/ns#"
   xmlns:rdf="http://www.w3.org/1999/02/22-rdf-syntax-ns#"
   xmlns:svg="http://www.w3.org/2000/svg"
   xmlns="http://www.w3.org/2000/svg"
   style="enable-background:new"
   version="1.1"
   id="svg3223"
   height="464.41077"
   width="401.66507">
  <defs
     id="defs3225" />
  <metadata
     id="metadata3228">
    <rdf:RDF>
      <cc:Work
         rdf:about="">
        <dc:format>image/svg+xml</dc:format>
        <dc:type
           rdf:resource="http://purl.org/dc/dcmitype/StillImage" />
        <dc:title></dc:title>
      </cc:Work>
    </rdf:RDF>
  </metadata>
  <g
     transform="translate(-308.76824,-0.09110256)"
     style="opacity:1"
     id="layer27">
    <path
       id="path4201"
       d="m 434.43908,424.2022 185.37955,-68.86873 -6.13215,85.85007 c -12.19129,-0.0444 -15.74876,13.50138 -37.26459,1.4151 -5.28694,2.79105 -11.70833,3.31321 -20.75496,-1.41511 24.0645,24.59192 -70.46793,28.39919 -96.69926,5.66045 2.15282,18.48367 -25.18477,-6.17745 -24.52859,-22.64178 z"
       style="fill:#cacede;fill-opacity:1;stroke:none" />
    <path
       id="path4209"
       d="m 555.90278,441.36042 c 5.12832,2.60141 11.02137,3.14324 15.68415,1.70992 1.70411,-1.97046 -3.68933,-6.42895 -6.95763,-11.14399 4.51875,3.68059 8.82272,8.0055 13.62044,10.84918 l -17.62992,5.8963 c -0.41025,-2.08851 -2.84511,-4.7844 -4.71704,-7.31141 z"
       style="fill:#030633;fill-opacity:1;stroke:#030633;stroke-width:1px;stroke-linecap:round;stroke-linejoin:round;stroke-opacity:1" />
    <path
       id="path4211"
       d="m 434.55701,425.26353 c 0.11462,17.37457 16.6925,27.61475 23.34933,28.30222"
       style="fill:none;stroke:#030633;stroke-width:2;stroke-linecap:round;stroke-linejoin:round;stroke-miterlimit:4;stroke-dasharray:none;stroke-opacity:1" />
    <path
       id="path4213"
       d="m 457.72945,453.56575 c 0.41756,-2.91532 0.93037,-5.72588 -0.17689,-10.31851 1.61643,2.90182 3.48961,5.36047 4.94993,5.92072 -1.54403,2.80159 -4.40373,6.18494 -4.77304,4.39779 z"
       style="fill:#030633;fill-opacity:1;stroke:#030633;stroke-width:1px;stroke-linecap:round;stroke-linejoin:round;stroke-opacity:1" />
  </g>
  <g
     transform="translate(-308.76824,-0.09110256)"
     id="layer26">
    <path
       id="path4203"
       d="m 613.82587,441.34908 c -11.7493,4.90045 -23.98955,9.81064 -38.81909,0.54201 -0.48008,5.80826 -7.6101,4.13533 -12.736,4.71704 -19.15877,28.28836 -84.42264,13.51644 -100.47288,3.30192"
       style="fill:none;stroke:#030633;stroke-width:3;stroke-linecap:round;stroke-linejoin:round;stroke-miterlimit:4;stroke-dasharray:none;stroke-opacity:1" />
    <path
       id="path4207"
       d="m 602.71558,444.6271 c 4.16793,-3.32375 7.13084,-5.09818 8.96402,-5.4201 l 0.20846,2.96021 z"
       style="fill:#030633;fill-opacity:1;stroke:#030633;stroke-width:1px;stroke-linecap:round;stroke-linejoin:round;stroke-opacity:1" />
  </g>
  <g
     transform="translate(-308.76824,-0.09110256)"
     style="display:inline"
     id="layer3">
    <path
       id="path3790"
       d="M 324.51151,155.40676 C 320.14842,112.09659 318.28584,50.813148 358.85669,2.5580544 381.18078,12.158689 401.98586,21.825295 404.56609,89.999384 355.85171,108.89173 340.18444,128.22764 324.51151,155.40676 Z"
       style="fill:#ffd0cd;fill-opacity:1;stroke:none" />
    <path
       id="path3818"
       d="m 333.60288,137.72909 c -2.07215,-13.63985 0.98507,-25.81416 17.67767,-34.09265 0.25432,-13.581284 7.54638,-20.62753 17.17259,-25.506348 4.17889,-15.272088 6.23727,-31.685995 27.27412,-37.880721 6.47904,17.236921 10.56732,34.106031 8.33376,50.002551 -33.6134,8.109646 -50.20019,29.191948 -70.45814,47.477168 z"
       style="fill:#eaaaa0;fill-opacity:1;stroke:none" />
    <path
       id="path3798"
       d="M 324.51151,154.39661 C 320.46213,105.655 319.34724,48.812968 358.35162,3.3788034"
       style="fill:none;stroke:#030633;stroke-width:6;stroke-linecap:round;stroke-linejoin:round;stroke-miterlimit:4;stroke-dasharray:none;stroke-opacity:1" />
    <path
       id="path3790-3"
       d="m 324.51195,155.407 c -4.36309,-43.31017 -5.97313,-105.288103 34.59772,-153.543197 22.32409,9.600635 42.87663,19.961721 45.45686,88.135817 -48.71438,18.89235 -64.38165,38.22826 -80.05458,65.40738 z"
       style="fill:none;stroke:none" />
  </g>
  <g
     transform="translate(-308.76824,-0.09110256)"
     style="display:inline"
     id="layer6">
    <path
       id="path3082"
       d="m 358.03594,2.1792637 c 31.4093,5.2863442 49.4334,12.1330433 82.39057,73.4254623 -9.27514,-19.056256 10.17367,-3.491435 15.15228,6.565992 l -5.3033,2.525381 -44.95178,5.303301 c -6.82605,-9.309756 -5.25226,-9.753019 0,-6.313453 C 400.7305,70.85237 398.39456,63.212471 403.80848,66.765892 394.94656,15.563514 373.48035,9.907021 358.03594,2.1792637 Z"
       style="fill:#fefffc;fill-opacity:1;stroke:#030633;stroke-width:2;stroke-linecap:butt;stroke-linejoin:round;stroke-miterlimit:4;stroke-dasharray:none;stroke-opacity:1" />
    <path
       id="path3852"
       d="m 358.15488,2.0938078 c 25.30228,2.2499034 52.30716,13.0641902 82.27163,73.2583802 -7.56862,-20.154773 11.74071,-0.554278 15.40482,7.071068"
       style="fill:none;stroke:#030633;stroke-width:4;stroke-linecap:round;stroke-linejoin:round;stroke-miterlimit:4;stroke-dasharray:none;stroke-opacity:1" />
  </g>
  <g
     transform="translate(-308.76824,-0.09110256)"
     id="layer8">
    <path
       id="path3868"
       d="M 569.28571,80.857159 C 615.9237,41.040035 673.31748,24.739429 693.92857,27.642873 l -81.78572,86.428567 c -37.02043,5.55535 -40.06936,-30.356423 -42.85714,-33.214281 z"
       style="fill:#fefffc;fill-opacity:1;stroke:none" />
    <path
       id="path3866"
       d="M 694.79264,28.18942 C 693.09717,27.037961 644.98943,18.810809 569.64285,80.500016"
       style="fill:none;stroke:#030633;stroke-width:6;stroke-linecap:round;stroke-linejoin:round;stroke-miterlimit:4;stroke-dasharray:none;stroke-opacity:1" />
  </g>
  <g
     transform="translate(-308.76824,-0.09110256)"
     style="display:inline"
     id="layer7">
    <path
       id="path3855"
       d="M 612.14285,114.07144 C 615.24798,57.939468 654.61555,41.69617 695,26.571445 732.93114,101.91839 674.28157,239.48867 665.47485,229.75669 646.35835,188.42846 629.40781,151.6966 612.14285,114.07144 Z"
       style="fill:#ffd0cd;fill-opacity:1;stroke:none" />
    <path
       id="path3857"
       d="m 613.57142,114.78573 c -0.47619,-16.904762 4.04762,-30.952381 12.14287,-45 44.58999,21.032315 37.55579,74.79893 30.35713,79.64286 6.8985,8.35213 10.97364,17.51093 4.64286,29.64285 28.95866,11.33668 19.50283,34.94798 6.42857,51.07143 z"
       style="fill:#eaaaa0;fill-opacity:1;stroke:none" />
    <path
       id="path3859"
       d="M 613.21428,113.35716 C 609.53982,94.194669 633.15973,53.387482 634.28571,61.571445 648.38154,42.791057 677.10084,30.303273 694.06249,28.089302"
       style="fill:none;stroke:#030633;stroke-width:2;stroke-linecap:round;stroke-linejoin:round;stroke-miterlimit:4;stroke-dasharray:none;stroke-opacity:1" />
  </g>
  <g
     transform="translate(-308.76824,-0.09110256)"
     id="layer9">
    <path
       id="path3871"
       d="m 695,27.642873 c 17.5381,19.994407 13.36514,60.656953 9.64286,98.214287 -2.9008,20.28144 -2.5546,40.06334 -17.14287,62.14286 -1.9387,29.73227 -18.86086,38.69132 -21.42857,40.71428"
       style="fill:none;stroke:#030633;stroke-width:5;stroke-linecap:round;stroke-linejoin:round;stroke-miterlimit:4;stroke-dasharray:none;stroke-opacity:1" />
  </g>
  <g
     transform="translate(-308.76824,-0.09110256)"
     id="layer10">
    <path
       id="path3880"
       d="m 705.71428,102.64287 c -2.37049,11.50379 -7.51846,23.12707 -11.78571,31.78572 4.92008,-7.51957 10.5075,-15.3728 11.78571,-21.07143 z"
       style="fill:#030633;fill-opacity:1;stroke:#030633;stroke-width:3;stroke-linecap:round;stroke-linejoin:round;stroke-miterlimit:4;stroke-dasharray:none;stroke-opacity:1" />
    <path
       id="path3882"
       d="m 671.42857,208.35716 c 4.58271,-5.84592 8.95821,-11.66481 16.38709,-22.98341 l -1.02995,7.62626 c -6.87297,7.03565 -10.18742,10.87637 -15.35714,15.35715 z"
       style="fill:#030633;fill-opacity:1;stroke:#030633;stroke-width:2.5;stroke-linecap:round;stroke-linejoin:round;stroke-miterlimit:4;stroke-dasharray:none;stroke-opacity:1" />
  </g>
  <g
     transform="translate(-308.76824,-0.09110256)"
     id="layer20">
    <path
       id="path3992"
       d="m 644.60094,169.07981 c 7.89949,11.37785 14.28374,23.05874 15.96244,35.68075 l 9.85916,69.01409 c -3.50736,23.81108 -4.69713,49.01271 -12.20658,70.42253 -7.22219,9.3359 -9.08056,22.02418 -13.14554,33.33334 1.89436,12.17443 15.41563,11.7404 26.65154,13.72405 -4.7493,11.30889 -15.43961,15.59659 -24.7736,21.48721 -6.13058,9.605 -17.30927,10.79649 -28.6385,11.73709 1.10564,11.31625 -5.1345,13.59153 -9.38967,18.30986 -1.37399,-27.23 0.48201,-53.28691 7.51173,-77.46479 l 5.16432,-92.95774 z"
       style="fill:#fefffc;fill-opacity:1;stroke:none" />
  </g>
  <g
     transform="translate(-308.76824,-0.09110256)"
     id="layer60">
    <path
       id="path4157"
       d="m 629.71154,339.65525 c -4.53483,20.1711 -16.89253,61.70724 2.43131,72.69642 4.96619,0.14279 14.17261,-3.3489 14.83104,0.48626 -2.63167,7.55991 -14.06627,10.42491 -26.25824,12.88599 0.2574,13.71546 -0.51333,13.31496 -12.52129,17.26237 3.36498,-25.78501 -10.78078,-43.60652 6.68613,-76.10028 4.51161,-13.55975 9.02457,-26.61968 14.83105,-27.23076 z"
       style="fill:#cacede;fill-opacity:1;stroke:#cacede;stroke-width:1px;stroke-linecap:round;stroke-linejoin:round;stroke-opacity:1" />
  </g>
  <g
     transform="translate(-308.76824,-0.09110256)"
     id="layer21">
    <path
       id="path3997"
       d="m 609.50613,442.16322 c 7.03731,-2.36357 11.24986,-7.30716 9.79326,-17.42869 9.47667,-3.36537 21.15552,1.44878 27.8859,-12.11709 8.45699,-7.10611 22.13918,-4.56568 25.23011,-21.57837 -12.06147,-0.20241 -25.694,-1.5716 -29.04782,-15.27085 14.81946,-33.69102 34.66529,-61.69822 21.93215,-148.37501"
       style="fill:none;stroke:#030633;stroke-width:5;stroke-linecap:round;stroke-linejoin:round;stroke-miterlimit:4;stroke-dasharray:none;stroke-opacity:1" />
    <path
       id="path4001"
       d="m 632.79048,412.40961 c 13.39943,-4.62598 26.83708,-9.19464 36.55703,-19.33985 -1.79757,4.40894 1.53966,7.67681 -10.61333,14.38696 -4.90512,5.49909 -17.2674,3.27738 -25.9437,4.95289 z"
       style="fill:#030633;fill-opacity:1;stroke:#030633;stroke-width:1px;stroke-linecap:round;stroke-linejoin:round;stroke-opacity:1" />
    <path
       id="path4003"
       d="m 631.90075,386.67368 c 8.47082,-14.28988 16.47495,-29.7465 24.51555,-45.11194 l -10.00635,28.18454 c -4.03799,3.24724 -9.4226,10.53433 -14.5092,16.9274 z"
       style="fill:#030633;fill-opacity:1;stroke:#030633;stroke-width:1px;stroke-linecap:round;stroke-linejoin:round;stroke-opacity:1" />
    <path
       id="path4005"
       d="m 665.45596,242.95006 c 2.50437,22.94763 -6.3737,41.31417 -11.91052,59.19882 4.90137,-12.22946 6.56606,-10.24461 15.09452,-44.81185 z"
       style="fill:#030633;fill-opacity:1;stroke:#030633;stroke-width:1px;stroke-linecap:round;stroke-linejoin:round;stroke-opacity:1" />
    <path
       id="path4011"
       d="m 643.52174,165.70858 c 8.40181,9.33381 20.92225,29.76972 23.11348,63.09037 l -3.17031,-0.0417 c -1.80062,-20.57921 -10.18744,-42.02029 -19.94317,-63.04869 z"
       style="fill:#030633;fill-opacity:1;stroke:#030633;stroke-width:1px;stroke-linecap:round;stroke-linejoin:round;stroke-opacity:1" />
  </g>
  <g
     transform="translate(-308.76824,-0.09110256)"
     id="layer16">
    <path
       id="path3946"
       d="m 432.85714,423.00001 c -19.98739,-6.01541 -37.49207,-24.44443 -55.71429,-39.28571 -12.76509,-10.11976 -35.47325,-36.28649 -24.28571,-62.14285 -17.38121,14.52413 -8.93895,-18.74516 1.96429,-28.21429 -28.15929,-4.86188 -16.02412,-8.20912 -0.89286,-13.39285 -23.46907,-9.78679 -6.2171,-32.28769 -11.07143,-50.53572 L 400,150.85716 l 174.28571,9.28571 49.28571,145.71429 c 19.04505,13.05383 5.28139,33.82735 -7.14285,54.28571 -27.55218,41.18177 -70.78622,50.17825 -91.42857,55.71429 -78.35416,25.39557 -63.49555,8.27318 -92.14286,7.14285 z"
       style="fill:#fefffc;fill-opacity:1;stroke:none" />
  </g>
  <g
     transform="translate(-308.76824,-0.09110256)"
     id="layer15">
    <path
       id="path8564"
       d="m 418.9695,387.79432 c 14.55915,-16.72921 16.68425,2.56241 57.76519,0 -1.67787,29.29855 -19.14574,20.94403 -32.66484,22.00579 -14.51124,-7.33526 -20.51628,-14.67053 -25.10035,-22.00579 z"
       style="fill:#fefffc;fill-opacity:1;fill-rule:evenodd;stroke:none;stroke-width:1px;stroke-linecap:butt;stroke-linejoin:miter;stroke-opacity:1" />
  </g>
  <g
     transform="translate(-308.76824,-0.09110256)"
     id="layer25">
    <path
       id="path3964-7"
       d="m 492.07143,276.95401 c 1.8726,-22.70465 10.06754,-48.92464 45,-64.28571 62.16843,31.96899 14.70978,79.42936 -45,64.28571 z"
       style="display:inline;fill:#fefffc;fill-opacity:1;stroke:none;stroke-width:3;stroke-linecap:butt;stroke-linejoin:miter;stroke-miterlimit:4;stroke-dasharray:none;stroke-opacity:1" />
    <path
       id="path3950-7"
       d="m 360.64306,241.2396 c 22.27569,-44.98959 48.67283,-6.78139 53.5898,33.74971 -20.88693,21.82189 -55.5549,-0.34363 -53.5898,-33.74971 z"
       style="display:inline;fill:#fefffc;fill-opacity:1;stroke:none;stroke-width:3;stroke-linecap:round;stroke-linejoin:round;stroke-miterlimit:4;stroke-dasharray:none;stroke-opacity:1" />
  </g>
  <g
     transform="translate(-308.76824,-0.09110256)"
     style="display:inline"
     id="layer4">
    <g
       transform="translate(1.2508045,-8.4000637)"
       id="g3975">
      <g
         id="g4204"
         transform="translate(-0.66395003,7.9674003)">
        <path
           transform="matrix(0.89391902,0,0,0.77658395,40.906465,56.523396)"
           d="m 372.14866,234.22492 a 23.571428,49.464287 0 0 1 23.49454,-48.36756 23.571428,49.464287 0 0 1 23.63315,48.06929 23.571428,49.464287 0 0 1 -22.30425,50.78859 23.571428,49.464287 0 0 1 -24.75651,-45.51129"
           id="path4202"
           style="fill:#030633;fill-opacity:1" />
        <g
           id="g4164">
          <path
             style="fill:#f91413;fill-opacity:1"
             id="path3376"
             d="m 410.37448,240.57524 a 16.730652,35.039665 0 0 1 -16.64763,35.03923 16.730652,35.039665 0 0 1 -16.81285,-34.69148 16.730652,35.039665 0 0 1 16.48077,-35.38353 16.730652,35.039665 0 0 1 16.97642,34.34032"
             transform="matrix(1.0943396,0,0,0.97117117,-35.557846,5.9253501)" />
          <path
             style="display:inline;fill:#ac1c19;fill-opacity:1"
             id="path3376-4"
             d="m 376.92062,239.53002 a 16.730652,35.039665 0 0 1 9.3156,-30.37281 16.730652,35.039665 0 0 1 17.17794,2.9739 16.730652,35.039665 0 0 1 6.80783,33.16414 l -16.57816,-4.72001 z"
             transform="matrix(1.0997019,0,0,0.97117117,-37.622614,5.7888284)" />
          <ellipse
             ry="30.557114"
             rx="11.301082"
             cy="238.99689"
             cx="393.77008"
             style="fill:#f75150;fill-opacity:1"
             id="path3368"
             transform="matrix(1.3072625,0,0,0.99130124,-119.91752,1.0820893)" />
          <ellipse
             ry="24.811872"
             rx="10.796005"
             cy="238.55493"
             cx="395.66412"
             style="fill:#030633;fill-opacity:1"
             id="path3366"
             transform="matrix(0.94736841,0,0,1,19.766906,0.12626907)" />
        </g>
      </g>
    </g>
    <path
       transform="matrix(0.96968572,0,0,0.78761051,129.86665,57.84665)"
       d="m 372.14866,234.22492 a 23.571428,49.464287 0 0 1 23.49454,-48.36756 23.571428,49.464287 0 0 1 23.63315,48.06929 23.571428,49.464287 0 0 1 -22.30425,50.78859 23.571428,49.464287 0 0 1 -24.75651,-45.51129"
       id="path4202-4"
       style="fill:#030633;fill-opacity:1" />
    <path
       transform="matrix(1.1870935,0,0,0.98496064,46.921385,6.5301729)"
       d="m 410.37448,240.57524 a 16.730652,35.039665 0 0 1 -16.64763,35.03923 16.730652,35.039665 0 0 1 -16.81285,-34.69148 16.730652,35.039665 0 0 1 16.48077,-35.38353 16.730652,35.039665 0 0 1 16.97642,34.34032"
       id="path3376-9"
       style="fill:#f91413;fill-opacity:1" />
    <path
       transform="matrix(1.1877632,0,0,0.98496064,46.636767,6.3917128)"
       d="m 377.15402,246.49929 a 16.730652,35.039665 0 0 1 13.64595,-40.45381 16.730652,35.039665 0 0 1 19.3284,28.5418 l -16.48454,5.98796 z"
       id="path3376-4-3"
       style="display:inline;fill:#ac1c19;fill-opacity:1" />
    <ellipse
       ry="30.557114"
       rx="11.301082"
       cy="238.99689"
       cx="393.77008"
       transform="matrix(1.4180633,0,0,1.0053765,-44.588438,1.6181436)"
       id="path3368-8"
       style="fill:#f75150;fill-opacity:1" />
    <ellipse
       ry="24.811872"
       rx="10.796005"
       cy="238.55493"
       cx="395.66412"
       transform="matrix(1.0276654,0,0,1.0141988,106.93535,0.64875189)"
       id="path3366-9"
       style="fill:#030633;fill-opacity:1" />
  </g>
  <g
     transform="translate(-308.76824,-0.09110256)"
     id="layer19">
    <path
       transform="matrix(0.98089674,-0.25529526,0.32228819,1.2382973,-67.884303,79.44201)"
       d="m 529.00356,242.0156 a 5.6435752,2.2408314 0 0 1 5.62517,-2.19114 5.6435752,2.2408314 0 0 1 5.65835,2.17763 5.6435752,2.2408314 0 0 1 -5.34018,2.30083 5.6435752,2.2408314 0 0 1 -5.92731,-2.06176"
       id="path3971"
       style="fill:#fefffc;fill-opacity:1;stroke:#030633;stroke-width:2;stroke-linecap:round;stroke-linejoin:round;stroke-miterlimit:4;stroke-dasharray:none;stroke-opacity:1" />
    <path
       transform="matrix(1.3286452,-0.37287502,0.26262865,0.93581031,-198.65503,166.58876)"
       d="m 401.19263,252.21096 a 3.3197501,2.8217876 0 0 1 3.30892,-2.75922 3.3197501,2.8217876 0 0 1 3.32845,2.74221 3.3197501,2.8217876 0 0 1 -3.14129,2.89733 3.3197501,2.8217876 0 0 1 -3.48665,-2.59628"
       id="path3973"
       style="fill:#fefffc;fill-opacity:1;stroke:#030633;stroke-width:1.72690737;stroke-linecap:round;stroke-linejoin:round;stroke-miterlimit:4;stroke-dasharray:none;stroke-opacity:1" />
  </g>
  <g
     transform="translate(-308.76824,-0.09110256)"
     style="display:inline"
     id="layer17">
    <path
       id="path3966"
       d="m 493.92857,265.85716 c 13.05385,-46.06583 28.5701,-42.88384 43.39286,-53.57143 L 493.75,195.67859 c -8.94192,22.51523 -10.37929,45.76214 0.17857,70.17857 z"
       style="fill:#fefffc;fill-opacity:1;stroke:none" />
    <path
       id="path3968"
       d="m 492.85714,275.85716 c 15.92827,5.18466 31.09875,3.25326 46.07143,-0.53572 l -27.5,25 z"
       style="fill:#fefffc;fill-opacity:1;stroke:none" />
    <path
       id="path3952"
       d="m 386.07125,198.00049 43.75,32.14286 -15.11973,35.71429 c -10.11484,-51.31482 -26.91427,-46.38239 -52.55885,-48.03571 z"
       style="display:inline;fill:#fefffc;fill-opacity:1;stroke:none" />
    <path
       id="path4940"
       d="m 361.05064,239.24226 c 3.90401,35.8405 27.76454,42.31058 33.06593,44.49313 L 378.06987,305.131 356.188,266.71616 Z"
       style="display:inline;fill:#fefffc;fill-opacity:1;stroke:#fefffc;stroke-width:1px;stroke-linecap:butt;stroke-linejoin:miter;stroke-opacity:1" />
  </g>
  <g
     transform="translate(-308.76824,-0.09110256)"
     id="layer14">
    <path
       id="path3920"
       d="m 349.52944,267.01673 c -1.85195,-4.23862 -2.54241,-6.80597 -4.39436,-16.86476 17.79399,-28.56542 45.54141,-50.55103 68.01731,-74.79468 l 3.78807,58.58885 c -11.34149,-9.57373 -17.51787,-13.98233 -26.26397,-20.96067 -10.72753,6.42684 -20.94942,8.97712 -33.58757,30.05204 -4.4552,6.56851 -6.21382,16.16689 -7.55948,23.97922 z"
       style="fill:#cacede;fill-opacity:1;stroke:none" />
    <path
       id="path3930"
       d="m 453.30595,243.79512 c 3.81568,-6.3755 8.14685,-6.0495 11.36422,-20.20305 5.45166,1.1018 11.87063,-10.37146 17.93021,-17.17259 10.33973,15.42394 39.50388,5.74865 60.60915,6.81853 l -46.46702,-47.72971 -33.49566,51.35933 z"
       style="fill:#cacede;fill-opacity:1;stroke:none" />
    <path
       id="path3932"
       d="m 561.90925,226.95607 20.44369,8.75783 c 21.43589,27.116 22.48751,47.95992 27.27412,69.95307 2.68568,-3.02969 1.45647,-15.9139 6.30346,-22.37163 4.84698,-6.45774 15.77017,-6.489 23.74857,-14.49894 -0.20633,5.54494 1.56785,8.75962 -1.01015,17.93021 -4.27321,11.12273 -10.18059,13.29161 -15.06176,18.94273 2.78765,-3.08784 7.23059,-5.22701 12.95093,-2.6969 3.63347,14.7478 -2.36309,23.70852 -5.71785,34.00926 l -15.24995,21.97795 c 2.36215,-17.35832 9.44532,-29.43207 11.46188,-46.97923 -3.05727,2.15416 -7.29818,1.54649 -12.37437,-1.01015 -5.64567,5.82533 -8.58798,3.54058 -12.37437,3.78807 -12.45598,-17.93394 3.19382,-1.65522 -13.19266,-45.9024 -8.50433,-14.61606 -16.00511,-30.39007 -27.20154,-41.89987 z"
       style="fill:#cacede;fill-opacity:1;stroke:none" />
    <path
       id="path3936"
       d="m 390.67649,335.46647 c 9.72662,6.15992 18.97093,15.69593 29.29443,17.67767 -0.13037,9.61312 5.01607,19.01639 8.08122,27.52665 l -3.78807,2.52539 c -2.94117,-9.19443 -8.86212,-18.91422 -15.15229,-26.76905 -10.95662,-7.5215 -12.9038,-14.04195 -18.43529,-20.96066 z"
       style="fill:#cacede;fill-opacity:1;stroke:none" />
    <path
       id="path3938"
       d="m 430.36821,380.38086 9.04814,3.57293 c -4.44927,-6.1933 -9.25244,-13.97742 -7.07106,-23.48605 13.55618,-5.84882 21.4754,-15.89147 28.59606,-22.98097 -12.71693,5.24248 -25.49722,15.55221 -36.92982,15.65737 -1.14795,10.87009 3.29197,18.17205 6.35668,27.23672 z"
       style="fill:#cacede;fill-opacity:1;stroke:none" />
    <path
       id="path3940"
       d="m 387.9181,386.76064 c 5.52231,0.11278 18.82289,3.30595 31.04267,2.74899 l 3.28299,4.54568 c -9.70715,0.49161 -25.48311,7.08112 -34.32566,-7.29467 z"
       style="fill:#cacede;fill-opacity:1;stroke:none" />
  </g>
  <g
     transform="translate(-308.76824,-0.09110256)"
     style="display:inline"
     id="layer18">
    <path
       id="path3964"
       d="m 493.57143,275.50001 c 1.8726,-22.70465 10.06754,-48.92464 45,-64.28571 62.16843,31.96899 14.70978,79.42936 -45,64.28571 z"
       style="fill:none;stroke:#030633;stroke-width:3;stroke-linecap:butt;stroke-linejoin:miter;stroke-miterlimit:4;stroke-dasharray:none;stroke-opacity:1" />
    <path
       id="path3950"
       d="m 362.14306,239.7856 c 22.27569,-44.98959 48.67283,-6.78139 53.5898,33.74971 -20.88693,21.82189 -55.5549,-0.34363 -53.5898,-33.74971 z"
       style="fill:none;stroke:#030633;stroke-width:3;stroke-linecap:round;stroke-linejoin:round;stroke-miterlimit:4;stroke-dasharray:none;stroke-opacity:1" />
  </g>
  <g
     transform="translate(-308.76824,-0.09110256)"
     style="display:inline"
     id="layer71">
    <path
       id="path4170"
       d="m 386.477,292.72243 c 9.44237,-12.32094 20.06265,-23.26653 35.07172,-34.89979 l 22.34962,37.99436 z"
       style="display:inline;fill:#fefffc;fill-opacity:1;stroke:#fefffc;stroke-width:1px;stroke-linecap:butt;stroke-linejoin:miter;stroke-opacity:1" />
  </g>
  <g
     transform="translate(-308.76824,-0.09110256)"
     id="layer22">
    <path
       id="path4014"
       d="m 640.0726,268.26526 c 0.39502,10.4952 2.39292,20.50258 -17.01079,37.02348 27.35902,-16.60613 13.82453,26.97732 -6.6709,54.03427"
       style="fill:none;stroke:#030633;stroke-width:2;stroke-linecap:round;stroke-linejoin:round;stroke-miterlimit:4;stroke-dasharray:none;stroke-opacity:1" />
    <path
       id="path4043"
       d="m 352.50326,321.78773 c -19.25845,49.95294 75.61497,105.42789 94.1715,105.77362 73.95778,6.91427 168.71876,-47.1775 172.53892,-70.99753"
       style="fill:none;stroke:#030633;stroke-width:5;stroke-linecap:round;stroke-linejoin:round;stroke-miterlimit:4;stroke-dasharray:none;stroke-opacity:1" />
    <path
       id="path4045"
       d="m 610.91522,361.81939 c 3.67536,-3.06368 7.35071,-7.18071 11.02607,-11.32089 -0.2804,3.18797 -0.2319,6.27701 -1.88681,9.0803 -0.96534,-0.71818 -5.57573,1.37098 -9.13926,2.24059 z"
       style="fill:#030633;fill-opacity:1;stroke:#030633;stroke-width:1px;stroke-linecap:round;stroke-linejoin:round;stroke-opacity:1" />
    <path
       id="path4066"
       d="m 398.94338,402.85762 c -3.04113,-5.97412 -13.78167,-19.9706 -21.34459,-28.89186 1.06417,5.96437 2.63199,11.80284 4.95289,17.45303 z"
       style="fill:#030633;fill-opacity:1;stroke:#030633;stroke-width:1px;stroke-linecap:round;stroke-linejoin:round;stroke-opacity:1" />
  </g>
  <g
     transform="translate(-308.76824,-0.09110256)"
     id="layer24">
    <path
       id="path4048"
       d="m 418.93236,260.59373 c -95.91386,71.49793 -32.26971,157.68057 8.67216,121.41033"
       style="fill:none;stroke:#030633;stroke-width:5;stroke-linecap:round;stroke-linejoin:round;stroke-miterlimit:4;stroke-dasharray:none;stroke-opacity:1" />
    <path
       id="path4050"
       d="m 428.62539,380.64964 c -2.31188,-9.39102 -6.12354,-16.68436 -6.47552,-27.15181"
       style="fill:none;stroke:#030633;stroke-width:5;stroke-linecap:round;stroke-linejoin:round;stroke-miterlimit:4;stroke-dasharray:none;stroke-opacity:1" />
    <path
       id="path4052"
       d="m 391.16027,335.87569 c 35.47318,25.33316 40.21343,12.80927 69.45837,1.29718 -10.43597,8.18009 -21.48272,14.81094 -37.7363,17.68889 -10.15325,-3.73369 -21.57745,-6.94945 -31.72207,-18.98607 z"
       style="fill:#030633;fill-opacity:1;stroke:#030633;stroke-width:1px;stroke-linecap:round;stroke-linejoin:round;stroke-opacity:1" />
    <path
       id="path4054"
       d="m 428.27161,380.66988 c 91.33166,31.13563 105.94521,-46.73513 115.07297,-63.03998"
       style="fill:none;stroke:#030633;stroke-width:4;stroke-linecap:round;stroke-linejoin:round;stroke-miterlimit:4;stroke-dasharray:none;stroke-opacity:1" />
    <path
       id="path4056"
       d="m 542.87197,316.24102 9.25718,-4.776 -8.31377,7.96001 z"
       style="fill:#030633;fill-opacity:1;stroke:#030633;stroke-width:1px;stroke-linecap:round;stroke-linejoin:round;stroke-opacity:1" />
    <path
       id="path4058"
       d="m 418.25602,388.68507 c 12.78007,14.73334 20.27099,18.44764 27.85099,22.34751"
       style="fill:none;stroke:#030633;stroke-width:3.5;stroke-linecap:round;stroke-linejoin:round;stroke-miterlimit:4;stroke-dasharray:none;stroke-opacity:1" />
    <path
       id="path4060"
       d="m 446.78335,410.52215 c 23.45863,1.87366 29.801,-8.51796 30.01904,-22.01397"
       style="fill:none;stroke:#030633;stroke-width:5;stroke-linecap:round;stroke-linejoin:round;stroke-miterlimit:4;stroke-dasharray:none;stroke-opacity:1" />
    <path
       id="path4062"
       d="m 447.08663,408.54754 c -1.85444,-0.0589 -3.31289,-0.24685 -4.89392,-0.56017 l 4.36326,3.30192 c 0.14741,-1.09081 1.45883,0.50019 0.53066,-2.74175 z"
       style="fill:#030633;fill-opacity:1;stroke:#030633;stroke-width:1px;stroke-linecap:round;stroke-linejoin:round;stroke-opacity:1" />
    <path
       id="path4064"
       d="m 432.43434,382.92813 c 6.35329,12.1859 14.42621,20.08975 21.99319,26.82815"
       style="fill:none;stroke:#030633;stroke-width:2;stroke-linecap:round;stroke-linejoin:round;stroke-miterlimit:4;stroke-dasharray:none;stroke-opacity:1" />
  </g>
  <g
     transform="translate(-308.76824,-0.09110256)"
     style="display:inline"
     id="layer5">
    <path
       id="path3884"
       d="m 337.89603,290.00961 c -6.59854,-16.52948 -43.99424,-45.04733 -13.63707,-136.87568 22.9142,-28.12796 49.31534,-71.20477 125.25892,-68.185291 22.00516,-8.844559 85.38053,-57.36771 97.9848,-10.606602 12.06516,-6.451025 22.10404,-2.770612 28.78934,17.677669 62.44814,8.452314 103.81753,146.558444 41.41626,208.596494 l -8.46901,4.45903 c -6.45288,-19.89088 -3.43265,-36.89791 -27.92712,-69.99902 -37.2496,-17.4895 -68.65562,-39.63113 -85.83233,-71.84075 -7.24667,27.19942 -18.10301,46.67375 -32.82996,54.04316 -11.90485,31.18198 -16.55106,37.71132 -24.74873,45.45687 -19.07783,-14.89398 -23.7653,-48.01576 -22.72844,-88.38835 -30.06593,39.69738 -53.44904,52.50891 -67.30141,70.83695 -5.30199,13.77798 -1.76468,24.69723 8.20749,37.24938 z"
       style="fill:#fefffc;fill-opacity:1;stroke:none" />
  </g>
  <g
     transform="translate(-308.76824,-0.09110256)"
     style="display:inline"
     id="layer11">
    <path
       id="path3887"
       d="m 440.42651,89.494322 10.6066,-4.671955 16.42395,3.178391 c 3.16878,8.439103 -18.31796,1.114855 -27.03055,1.493564 z"
       style="fill:#cacede;fill-opacity:1;stroke:#cacede;stroke-width:1px;stroke-linecap:round;stroke-linejoin:round;stroke-opacity:1" />
    <path
       id="path3889"
       d="m 536.78571,90.321443 c 0.18266,-3.738187 -1.81576,-5.840556 1.78572,-12.142857 1.3058,-1.255581 0.95424,-0.577566 4.82142,-4.821428 -0.12087,3.057982 0.6776,4.89019 -0.71428,9.642857 -2.27471,4.613425 -4.08273,5.960059 -5.89286,7.321428 z"
       style="fill:#cacede;fill-opacity:1;stroke:#cacede;stroke-width:1px;stroke-linecap:round;stroke-linejoin:round;stroke-opacity:1" />
    <path
       id="path3891"
       d="m 571.78571,100.50001 c -0.0226,-6.394165 0.44025,-10.740182 0.89286,-12.857138 l 4.28571,4.464286 c -1.42633,6.096082 -3.28417,7.445536 -5.17857,8.392852 z"
       style="fill:#cacede;fill-opacity:1;stroke:#cacede;stroke-width:1px;stroke-linecap:round;stroke-linejoin:round;stroke-opacity:1" />
    <path
       id="path3893"
       d="m 430.57752,256.42203 c 17.88049,-15.34509 32.62533,-51.66998 41.92133,-105.56094 1.01579,18.93566 2.83439,37.20232 0,59.34646 -4.99955,11.77984 -6.02234,3.45359 -7.49692,2.42296 -7.14216,15.02546 -16.15601,38.82074 -27.50128,51.86005 z"
       style="fill:#cacede;fill-opacity:1;stroke:#cacede;stroke-width:1px;stroke-linecap:round;stroke-linejoin:round;stroke-opacity:1" />
    <path
       id="path3895"
       d="m 314.66251,240.76467 c -0.50054,-10.19046 2.85186,-17.99877 5.55584,-27.52666 7.04901,-21.27667 24.59956,-39.05284 39.14342,-57.83123 -7.76795,16.74956 -19.38912,32.39122 -20.45559,49.75001 -3.09091,18.96454 -4.54569,50.25509 2.77792,67.17514 l 4.41941,-20.96066 c 1.63184,8.95058 6.32576,21.71705 11.03659,30.38913 -6.7069,0.22325 -11.66382,4.06192 -15.80144,9.42375 -10.02412,-14.13826 -21.29015,-33.63086 -26.67615,-50.41948 z"
       style="fill:#cacede;fill-opacity:1;stroke:#cacede;stroke-width:1px;stroke-linecap:butt;stroke-linejoin:miter;stroke-opacity:1" />
  </g>
  <g
     transform="translate(-308.76824,-0.09110256)"
     id="layer12">
    <path
       id="path3900"
       d="m 347.99755,297.58575 c -19.26801,-17.34793 -33.03542,-38.92709 -34.85026,-69.70053 -3.96092,-29.06004 0.77251,-52.58732 11.61675,-72.2259 22.04457,-41.16323 49.57476,-55.995522 78.28682,-65.154843 16.17702,-2.180162 28.66521,-10.046638 49.49748,-5.050762 90.31255,-57.643371 102.45952,-18.034722 89.3985,-4.04061 32.67886,-28.144197 31.37373,11.936805 34.85026,12.12183"
       style="fill:none;stroke:#030633;stroke-width:6;stroke-linecap:round;stroke-linejoin:round;stroke-miterlimit:4;stroke-dasharray:none;stroke-opacity:1" />
    <path
       id="path3902"
       d="M 576.29202,92.019706 C 683.87363,131.90088 647.56568,287.74472 615.68797,303.64666"
       style="fill:none;stroke:#030633;stroke-width:4;stroke-linecap:round;stroke-linejoin:round;stroke-miterlimit:4;stroke-dasharray:none;stroke-opacity:1" />
    <path
       id="path3904"
       d="m 449.0128,111.2126 c -12.88231,9.09555 -25.43607,20.92899 -34.34518,63.13454 -2.32744,71.65017 11.99335,72.59515 22.22335,90.91373 14.39814,-11.64211 23.06131,-37.04814 30.80965,-64.64977 -12.70528,58.2139 38.91588,-47.70064 36.87057,-69.70052"
       style="fill:none;stroke:#030633;stroke-width:3;stroke-linecap:round;stroke-linejoin:round;stroke-miterlimit:4;stroke-dasharray:none;stroke-opacity:1" />
    <path
       id="path3906"
       d="m 413.92857,172.28573 c -22.89447,47.96485 -76.59468,55.59789 -71.07143,100 -5.13545,-8.31459 -6.88832,-20.49497 -5.35714,-36.42857"
       style="fill:none;stroke:#030633;stroke-width:2;stroke-linecap:round;stroke-linejoin:round;stroke-miterlimit:4;stroke-dasharray:none;stroke-opacity:1" />
    <path
       id="path3908"
       d="m 496.48997,164.75069 c 19.20009,32.45382 48.98627,55.93368 88.38835,72.22591"
       style="fill:none;stroke:#030633;stroke-width:3;stroke-linecap:round;stroke-linejoin:round;stroke-miterlimit:4;stroke-dasharray:none;stroke-opacity:1" />
    <path
       id="path3910"
       d="m 581.07142,236.57144 c 20.58079,19.44926 23.95569,44.63382 27.85715,69.64286 13.08472,-12.17233 15.23637,-34.36665 17.14285,-56.78571"
       style="fill:none;stroke:#030633;stroke-width:2;stroke-linecap:round;stroke-linejoin:round;stroke-miterlimit:4;stroke-dasharray:none;stroke-opacity:1" />
    <path
       id="path3912"
       d="m 614.59952,303.75764 c 0.49476,-1.20951 2.20261,-4.96969 2.60646,-8.99543"
       style="fill:none;stroke:#030633;stroke-width:2;stroke-linecap:round;stroke-linejoin:round;stroke-miterlimit:4;stroke-dasharray:none;stroke-opacity:1" />
  </g>
  <g
     transform="translate(-308.76824,-0.09110256)"
     id="layer23">
    <path
       id="path4016"
       d="m 357.40806,282.33333 c -6.33407,-0.35876 -13.77477,5.27132 -14.53271,9.31451 -0.91801,4.89711 6.23842,-3.08456 10.80996,2.10694 -16.00919,23.23577 -13.99226,37.75585 -1.41511,27.38767"
       style="fill:none;stroke:#030633;stroke-width:3;stroke-linecap:round;stroke-linejoin:round;stroke-miterlimit:4;stroke-dasharray:none;stroke-opacity:1" />
    <path
       id="path4039"
       d="m 357.85195,282.10737 c -5.15818,-9.03412 -9.62952,-21.43439 -11.3156,-33.72359"
       style="fill:none;stroke:#030633;stroke-width:2;stroke-linecap:round;stroke-linejoin:round;stroke-miterlimit:4;stroke-dasharray:none;stroke-opacity:1" />
    <path
       id="path4041"
       d="m 343.0509,292.94758 9.08909,-0.58371 0.75048,2.58498 -3.46053,7.10867 c -3.31807,-0.57834 -5.39925,-4.72521 -6.37904,-9.10994 z"
       style="fill:#030633;fill-opacity:1;stroke:none" />
  </g>
  <g
     transform="translate(-308.76824,-0.09110256)"
     id="layer13">
    <path
       id="path3915"
       d="m 372.99882,202.88395 9.34392,-4.79823 c 11.64234,12.15618 19.41227,23.83902 35.60787,32.57742 l 1.76777,5.05076 c -13.76446,-4.86949 -26.08984,-15.42132 -36.87057,-32.07234 z"
       style="fill:#030633;stroke:#030633;stroke-width:1px;stroke-linecap:round;stroke-linejoin:round;stroke-opacity:1" />
    <path
       id="path3917"
       d="m 484.1156,234.19867 c 12.14669,-7.18011 46.25781,-36.32464 56.82108,-41.92133 11.18341,0.97773 22.86418,1.90572 27.52666,3.53554 -13.06596,0.64413 -19.83159,0.50073 -27.77919,0.50507 l -47.98225,38.89088 z"
       style="fill:#030633;stroke:#030633;stroke-width:1px;stroke-linecap:round;stroke-linejoin:round;stroke-opacity:1" />
  </g>
</svg>
