P3
# Created by GIMP version 2.10.8 PNM plug-in
44 44
255
242
244
241
242
244
241
242
244
241
242
244
241
242
244
241
242
244
241
36
38
36
82
84
81
82
84
81
82
84
81
36
38
36
242
244
241
242
244
241
242
244
241
242
244
241
242
244
241
242
244
241
242
244
241
242
244
241
242
244
241
36
38
36
242
244
241
36
38
36
242
244
241
242
244
241
242
244
241
242
244
241
242
244
241
242
244
241
242
244
241
242
244
241
242
244
241
242
244
241
242
244
241
242
244
241
242
244
241
82
84
81
147
149
146
82
84
81
82
84
81
242
244
241
242
244
241
242
244
241
242
244
241
242
244
241
242
244
241
242
244
241
242
244
241
242
244
241
242
244
241
82
84
81
82
84
81
147
149
146
147
149
146
147
149
146
82
84
81
242
244
241
242
244
241
242
244
241
242
244
241
242
244
241
242
244
241
242
244
241
82
84
81
82
84
81
242
244
241
82
84
81
82
84
81
242
244
241
242
244
241
242
244
241
242
244
241
242
244
241
242
244
241
242
244
241
242
244
241
242
244
241
242
244
241
242
244
241
82
84
81
242
244
241
147
149
146
147
149
146
82
84
81
242
244
241
242
244
241
242
244
241
242
244
241
242
244
241
242
244
241
242
244
241
242
244
241
242
244
241
242
244
241
36
38
36
82
84
81
147
149
146
242
244
241
82
84
81
82
84
81
242
244
241
242
244
241
242
244
241
242
244
241
242
244
241
242
244
241
242
244
241
82
84
81
147
149
146
242
244
241
147
149
146
82
84
81
82
84
81
242
244
241
242
244
241
242
244
241
242
244
241
242
244
241
242
244
241
242
244
241
242
244
241
242
244
241
36
38
36
82
84
81
242
244
241
242
244
241
147
149
146
147
149
146
82
84
81
242
244
241
242
244
241
242
244
241
242
244
241
242
244
241
242
244
241
242
244
241
242
244
241
242
244
241
82
84
81
82
84
81
242
244
241
242
244
241
242
244
241
147
149
146
147
149
146
82
84
81
242
244
241
242
244
241
242
244
241
242
244
241
82
84
81
82
84
81
242
244
241
242
244
241
242
244
241
147
149
146
82
84
81
242
244
241
242
244
241
242
244
241
242
244
241
242
244
241
242
244
241
242
244
241
242
244
241
82
84
81
82
84
81
242
244
241
242
244
241
242
244
241
147
149
146
147
149
146
82
84
81
242
244
241
242
244
241
242
244
241
242
244
241
242
244
241
242
244
241
242
244
241
242
244
241
82
84
81
82
84
81
147
149
146
147
149
146
242
244
241
242
244
241
242
244
241
147
149
146
82
84
81
242
244
241
242
244
241
242
244
241
242
244
241
82
84
81
242
244
241
242
244
241
242
244
241
242
244
241
242
244
241
36
38
36
82
84
81
242
244
241
242
244
241
242
244
241
242
244
241
242
244
241
242
244
241
36
38
36
82
84
81
147
149
146
242
244
241
242
244
241
242
244
241
147
149
146
147
149
146
36
38
36
242
244
241
242
244
241
242
244
241
242
244
241
242
244
241
242
244
241
242
244
241
242
244
241
82
84
81
147
149
146
147
149
146
242
244
241
242
244
241
242
244
241
147
149
146
82
84
81
82
84
81
82
84
81
242
244
241
242
244
241
242
244
241
82
84
81
242
244
241
242
244
241
242
244
241
242
244
241
242
244
241
242
244
241
82
84
81
82
84
81
82
84
81
147
149
146
82
84
81
82
84
81
82
84
81
147
149
146
242
244
241
242
244
241
242
244
241
242
244
241
242
244
241
147
149
146
147
149
146
82
84
81
242
244
241
242
244
241
242
244
241
242
244
241
242
244
241
242
244
241
242
244
241
242
244
241
82
84
81
82
84
81
147
149
146
147
149
146
242
244
241
82
84
81
82
84
81
82
84
81
147
149
146
36
38
36
82
84
81
82
84
81
242
244
241
147
149
146
242
244
241
242
244
241
242
244
241
242
244
241
242
244
241
242
244
241
242
244
241
147
149
146
147
149
146
147
149
146
147
149
146
147
149
146
82
84
81
147
149
146
242
244
241
242
244
241
242
244
241
242
244
241
242
244
241
147
149
146
147
149
146
82
84
81
242
244
241
242
244
241
242
244
241
242
244
241
242
244
241
242
244
241
242
244
241
82
84
81
82
84
81
147
149
146
147
149
146
242
244
241
82
84
81
82
84
81
147
149
146
242
244
241
242
244
241
147
149
146
82
84
81
147
149
146
147
149
146
242
244
241
242
244
241
242
244
241
242
244
241
242
244
241
242
244
241
242
244
241
242
244
241
242
244
241
242
244
241
242
244
241
242
244
241
242
244
241
82
84
81
147
149
146
242
244
241
242
244
241
242
244
241
242
244
241
242
244
241
147
149
146
147
149
146
82
84
81
242
244
241
242
244
241
242
244
241
242
244
241
242
244
241
242
244
241
242
244
241
36
38
36
147
149
146
147
149
146
147
149
146
36
38
36
82
84
81
147
149
146
242
244
241
242
244
241
242
244
241
242
244
241
147
149
146
82
84
81
147
149
146
147
149
146
242
244
241
242
244
241
242
244
241
242
244
241
242
244
241
242
244
241
242
244
241
242
244
241
242
244
241
242
244
241
242
244
241
242
244
241
242
244
241
82
84
81
147
149
146
147
149
146
242
244
241
242
244
241
242
244
241
147
149
146
147
149
146
36
38
36
242
244
241
242
244
241
242
244
241
242
244
241
242
244
241
242
244
241
242
244
241
82
84
81
147
149
146
147
149
146
82
84
81
82
84
81
147
149
146
242
244
241
242
244
241
242
244
241
242
244
241
242
244
241
82
84
81
147
149
146
82
84
81
242
244
241
242
244
241
242
244
241
242
244
241
242
244
241
242
244
241
242
244
241
242
244
241
242
244
241
242
244
241
242
244
241
242
244
241
242
244
241
242
244
241
242
244
241
36
38
36
82
84
81
147
149
146
242
244
241
242
244
241
147
149
146
147
149
146
82
84
81
242
244
241
242
244
241
242
244
241
242
244
241
242
244
241
242
244
241
242
244
241
82
84
81
147
149
146
36
38
36
82
84
81
147
149
146
242
244
241
242
244
241
242
244
241
242
244
241
242
244
241
82
84
81
82
84
81
147
149
146
147
149
146
242
244
241
242
244
241
147
149
146
242
244
241
242
244
241
242
244
241
242
244
241
242
244
241
242
244
241
242
244
241
242
244
241
242
244
241
147
149
146
242
244
241
242
244
241
242
244
241
82
84
81
82
84
81
147
149
146
242
244
241
147
149
146
82
84
81
82
84
81
242
244
241
242
244
241
242
244
241
242
244
241
242
244
241
242
244
241
242
244
241
82
84
81
82
84
81
82
84
81
242
244
241
242
244
241
242
244
241
242
244
241
242
244
241
242
244
241
147
149
146
82
84
81
147
149
146
242
244
241
147
149
146
242
244
241
242
244
241
242
244
241
147
149
146
242
244
241
242
244
241
242
244
241
242
244
241
242
244
241
242
244
241
242
244
241
242
244
241
242
244
241
242
244
241
242
244
241
242
244
241
242
244
241
82
84
81
82
84
81
82
84
81
147
149
146
82
84
81
82
84
81
242
244
241
242
244
241
242
244
241
242
244
241
242
244
241
242
244
241
242
244
241
36
38
36
82
84
81
147
149
146
242
244
241
242
244
241
242
244
241
242
244
241
242
244
241
242
244
241
147
149
146
82
84
81
242
244
241
82
84
81
147
149
146
242
244
241
242
244
241
147
149
146
147
149
146
242
244
241
242
244
241
147
149
146
147
149
146
242
244
241
242
244
241
147
149
146
242
244
241
242
244
241
242
244
241
242
244
241
242
244
241
242
244
241
242
244
241
147
149
146
82
84
81
36
38
36
82
84
81
242
244
241
242
244
241
242
244
241
242
244
241
242
244
241
242
244
241
242
244
241
242
244
241
82
84
81
147
149
146
242
244
241
242
244
241
242
244
241
242
244
241
242
244
241
242
244
241
242
244
241
147
149
146
147
149
146
147
149
146
147
149
146
147
149
146
242
244
241
147
149
146
147
149
146
242
244
241
242
244
241
242
244
241
147
149
146
147
149
146
242
244
241
242
244
241
242
244
241
242
244
241
242
244
241
242
244
241
242
244
241
242
244
241
242
244
241
242
244
241
242
244
241
242
244
241
82
84
81
82
84
81
242
244
241
242
244
241
242
244
241
242
244
241
242
244
241
242
244
241
242
244
241
82
84
81
82
84
81
242
244
241
242
244
241
242
244
241
242
244
241
242
244
241
242
244
241
242
244
241
242
244
241
242
244
241
82
84
81
147
149
146
82
84
81
242
244
241
242
244
241
147
149
146
82
84
81
242
244
241
242
244
241
147
149
146
82
84
81
242
244
241
242
244
241
242
244
241
242
244
241
242
244
241
242
244
241
242
244
241
242
244
241
242
244
241
242
244
241
242
244
241
242
244
241
242
244
241
242
244
241
82
84
81
82
84
81
242
244
241
242
244
241
242
244
241
242
244
241
242
244
241
82
84
81
82
84
81
242
244
241
242
244
241
242
244
241
242
244
241
242
244
241
242
244
241
242
244
241
242
244
241
242
244
241
147
149
146
147
149
146
147
149
146
147
149
146
242
244
241
242
244
241
82
84
81
242
244
241
242
244
241
242
244
241
147
149
146
242
244
241
242
244
241
242
244
241
242
244
241
242
244
241
242
244
241
242
244
241
242
244
241
242
244
241
242
244
241
242
244
241
242
244
241
242
244
241
242
244
241
242
244
241
242
244
241
82
84
81
82
84
81
242
244
241
242
244
241
242
244
241
82
84
81
36
38
36
147
149
146
147
149
146
242
244
241
242
244
241
242
244
241
242
244
241
242
244
241
242
244
241
242
244
241
242
244
241
147
149
146
82
84
81
147
149
146
82
84
81
242
244
241
147
149
146
147
149
146
242
244
241
242
244
241
242
244
241
147
149
146
242
244
241
242
244
241
242
244
241
82
84
81
147
149
146
242
244
241
242
244
241
242
244
241
242
244
241
242
244
241
242
244
241
242
244
241
147
149
146
147
149
146
147
149
146
242
244
241
147
149
146
82
84
81
242
244
241
242
244
241
82
84
81
82
84
81
147
149
146
147
149
146
242
244
241
242
244
241
242
244
241
147
149
146
242
244
241
242
244
241
242
244
241
242
244
241
242
244
241
147
149
146
147
149
146
147
149
146
147
149
146
147
149
146
242
244
241
147
149
146
242
244
241
242
244
241
242
244
241
147
149
146
242
244
241
242
244
241
242
244
241
82
84
81
242
244
241
242
244
241
242
244
241
242
244
241
242
244
241
242
244
241
242
244
241
242
244
241
242
244
241
242
244
241
147
149
146
147
149
146
242
244
241
36
38
36
82
84
81
242
244
241
36
38
36
147
149
146
82
84
81
147
149
146
242
244
241
242
244
241
147
149
146
242
244
241
242
244
241
242
244
241
242
244
241
242
244
241
242
244
241
242
244
241
82
84
81
147
149
146
82
84
81
147
149
146
147
149
146
147
149
146
242
244
241
242
244
241
147
149
146
147
149
146
242
244
241
242
244
241
82
84
81
82
84
81
82
84
81
242
244
241
242
244
241
242
244
241
242
244
241
242
244
241
242
244
241
242
244
241
242
244
241
242
244
241
147
149
146
147
149
146
147
149
146
242
244
241
36
38
36
242
244
241
82
84
81
82
84
81
242
244
241
242
244
241
242
244
241
147
149
146
242
244
241
242
244
241
242
244
241
242
244
241
242
244
241
242
244
241
242
244
241
242
244
241
82
84
81
82
84
81
82
84
81
147
149
146
242
244
241
147
149
146
242
244
241
242
244
241
242
244
241
147
149
146
242
244
241
242
244
241
82
84
81
147
149
146
147
149
146
242
244
241
242
244
241
242
244
241
242
244
241
242
244
241
242
244
241
242
244
241
242
244
241
242
244
241
242
244
241
147
149
146
242
244
241
242
244
241
82
84
81
82
84
81
82
84
81
147
149
146
147
149
146
242
244
241
242
244
241
147
149
146
147
149
146
242
244
241
242
244
241
242
244
241
242
244
241
242
244
241
82
84
81
147
149
146
147
149
146
147
149
146
36
38
36
147
149
146
147
149
146
147
149
146
82
84
81
242
244
241
147
149
146
147
149
146
242
244
241
82
84
81
36
38
36
147
149
146
82
84
81
147
149
146
147
149
146
242
244
241
242
244
241
242
244
241
242
244
241
242
244
241
242
244
241
242
244
241
242
244
241
242
244
241
82
84
81
147
149
146
242
244
241
82
84
81
147
149
146
147
149
146
242
244
241
242
244
241
147
149
146
147
149
146
242
244
241
242
244
241
242
244
241
242
244
241
147
149
146
147
149
146
147
149
146
147
149
146
242
244
241
147
149
146
82
84
81
82
84
81
147
149
146
147
149
146
147
149
146
242
244
241
242
244
241
147
149
146
242
244
241
82
84
81
242
244
241
147
149
146
242
244
241
147
149
146
147
149
146
147
149
146
242
244
241
242
244
241
242
244
241
242
244
241
242
244
241
242
244
241
242
244
241
242
244
241
242
244
241
147
149
146
242
244
241
82
84
81
82
84
81
242
244
241
82
84
81
242
244
241
147
149
146
242
244
241
242
244
241
242
244
241
147
149
146
147
149
146
147
149
146
147
149
146
147
149
146
242
244
241
147
149
146
147
149
146
147
149
146
82
84
81
82
84
81
147
149
146
82
84
81
242
244
241
147
149
146
147
149
146
82
84
81
82
84
81
147
149
146
147
149
146
147
149
146
242
244
241
147
149
146
147
149
146
147
149
146
242
244
241
242
244
241
242
244
241
147
149
146
147
149
146
147
149
146
242
244
241
242
244
241
147
149
146
147
149
146
242
244
241
147
149
146
147
149
146
242
244
241
147
149
146
147
149
146
242
244
241
242
244
241
147
149
146
147
149
146
147
149
146
242
244
241
147
149
146
82
84
81
82
84
81
82
84
81
147
149
146
242
244
241
36
38
36
82
84
81
147
149
146
147
149
146
242
244
241
242
244
241
147
149
146
82
84
81
147
149
146
242
244
241
147
149
146
242
244
241
147
149
146
82
84
81
82
84
81
147
149
146
147
149
146
242
244
241
242
244
241
242
244
241
242
244
241
147
149
146
147
149
146
242
244
241
242
244
241
147
149
146
147
149
146
82
84
81
82
84
81
82
84
81
147
149
146
82
84
81
147
149
146
242
244
241
147
149
146
147
149
146
147
149
146
147
149
146
36
38
36
36
38
36
36
38
36
36
38
36
36
38
36
82
84
81
147
149
146
36
38
36
147
149
146
82
84
81
147
149
146
147
149
146
147
149
146
36
38
36
147
149
146
242
244
241
242
244
241
82
84
81
36
38
36
36
38
36
36
38
36
82
84
81
147
149
146
82
84
81
147
149
146
242
244
241
242
244
241
147
149
146
147
149
146
147
149
146
242
244
241
82
84
81
147
149
146
147
149
146
82
84
81
147
149
146
147
149
146
147
149
146
147
149
146
147
149
146
147
149
146
147
149
146
147
149
146
242
244
241
147
149
146
82
84
81
147
149
146
242
244
241
82
84
81
36
38
36
82
84
81
82
84
81
82
84
81
147
149
146
82
84
81
242
244
241
147
149
146
82
84
81
147
149
146
242
244
241
82
84
81
36
38
36
82
84
81
242
244
241
147
149
146
82
84
81
147
149
146
242
244
241
82
84
81
242
244
241
242
244
241
242
244
241
147
149
146
242
244
241
82
84
81
82
84
81
147
149
146
82
84
81
82
84
81
82
84
81
147
149
146
147
149
146
147
149
146
82
84
81
147
149
146
147
149
146
242
244
241
242
244
241
147
149
146
36
38
36
82
84
81
82
84
81
36
38
36
36
38
36
147
149
146
82
84
81
82
84
81
82
84
81
147
149
146
82
84
81
147
149
146
36
38
36
147
149
146
242
244
241
147
149
146
36
38
36
36
38
36
82
84
81
82
84
81
36
38
36
147
149
146
242
244
241
147
149
146
82
84
81
242
244
241
242
244
241
242
244
241
147
149
146
147
149
146
82
84
81
82
84
81
82
84
81
82
84
81
147
149
146
147
149
146
147
149
146
147
149
146
147
149
146
147
149
146
242
244
241
242
244
241
242
244
241
82
84
81
82
84
81
36
38
36
36
38
36
36
38
36
82
84
81
82
84
81
242
244
241
147
149
146
82
84
81
82
84
81
147
149
146
147
149
146
82
84
81
147
149
146
242
244
241
82
84
81
82
84
81
36
38
36
36
38
36
36
38
36
82
84
81
82
84
81
242
244
241
242
244
241
242
244
241
147
149
146
242
244
241
147
149
146
82
84
81
147
149
146
147
149
146
82
84
81
242
244
241
82
84
81
82
84
81
147
149
146
82
84
81
147
149
146
147
149
146
147
149
146
147
149
146
242
244
241
147
149
146
242
244
241
82
84
81
36
38
36
36
38
36
36
38
36
36
38
36
147
149
146
242
244
241
242
244
241
82
84
81
82
84
81
82
84
81
147
149
146
82
84
81
147
149
146
242
244
241
242
244
241
36
38
36
36
38
36
36
38
36
36
38
36
82
84
81
242
244
241
147
149
146
242
244
241
147
149
146
147
149
146
82
84
81
147
149
146
82
84
81
82
84
81
82
84
81
82
84
81
242
244
241
82
84
81
147
149
146
147
149
146
147
149
146
147
149
146
147
149
146
147
149
146
242
244
241
242
244
241
242
244
241
242
244
241
242
244
241
147
149
146
82
84
81
82
84
81
242
244
241
242
244
241
242
244
241
242
244
241
242
244
241
147
149
146
82
84
81
82
84
81
147
149
146
147
149
146
242
244
241
242
244
241
242
244
241
82
84
81
82
84
81
147
149
146
242
244
241
242
244
241
242
244
241
242
244
241
242
244
241
147
149
146
147
149
146
82
84
81
147
149
146
82
84
81
147
149
146
82
84
81
242
244
241
82
84
81
82
84
81
147
149
146
147
149
146
147
149
146
82
84
81
147
149
146
242
244
241
242
244
241
242
244
241
242
244
241
147
149
146
147
149
146
82
84
81
242
244
241
242
244
241
242
244
241
242
244
241
242
244
241
242
244
241
242
244
241
82
84
81
82
84
81
82
84
81
242
244
241
242
244
241
242
244
241
242
244
241
242
244
241
82
84
81
147
149
146
147
149
146
242
244
241
242
244
241
242
244
241
242
244
241
242
244
241
147
149
146
82
84
81
36
38
36
82
84
81
82
84
81
82
84
81
242
244
241
242
244
241
82
84
81
147
149
146
147
149
146
147
149
146
147
149
146
147
149
146
242
244
241
242
244
241
242
244
241
242
244
241
242
244
241
242
244
241
242
244
241
242
244
241
242
244
241
242
244
241
242
244
241
242
244
241
242
244
241
242
244
241
242
244
241
147
149
146
82
84
81
242
244
241
242
244
241
242
244
241
242
244
241
242
244
241
242
244
241
242
244
241
242
244
241
242
244
241
242
244
241
242
244
241
242
244
241
242
244
241
242
244
241
147
149
146
82
84
81
82
84
81
147
149
146
82
84
81
242
244
241
242
244
241
242
244
241
82
84
81
82
84
81
147
149
146
147
149
146
147
149
146
147
149
146
242
244
241
242
244
241
242
244
241
242
244
241
242
244
241
242
244
241
242
244
241
242
244
241
242
244
241
242
244
241
242
244
241
242
244
241
242
244
241
242
244
241
242
244
241
147
149
146
242
244
241
242
244
241
242
244
241
242
244
241
242
244
241
242
244
241
242
244
241
242
244
241
242
244
241
242
244
241
242
244
241
242
244
241
242
244
241
147
149
146
242
244
241
242
244
241
82
84
81
82
84
81
82
84
81
242
244
241
242
244
241
242
244
241
36
38
36
147
149
146
147
149
146
147
149
146
147
149
146
147
149
146
242
244
241
242
244
241
242
244
241
242
244
241
242
244
241
242
244
241
242
244
241
242
244
241
242
244
241
242
244
241
242
244
241
242
244
241
242
244
241
242
244
241
242
244
241
242
244
241
242
244
241
242
244
241
242
244
241
242
244
241
242
244
241
242
244
241
242
244
241
242
244
241
242
244
241
242
244
241
242
244
241
242
244
241
147
149
146
147
149
146
242
244
241
242
244
241
82
84
81
82
84
81
82
84
81
242
244
241
242
244
241
242
244
241
242
244
241
82
84
81
147
149
146
82
84
81
147
149
146
147
149
146
242
244
241
242
244
241
242
244
241
242
244
241
242
244
241
242
244
241
242
244
241
242
244
241
242
244
241
147
149
146
242
244
241
242
244
241
242
244
241
242
244
241
242
244
241
242
244
241
242
244
241
147
149
146
242
244
241
242
244
241
242
244
241
242
244
241
242
244
241
242
244
241
242
244
241
242
244
241
242
244
241
242
244
241
242
244
241
82
84
81
242
244
241
242
244
241
242
244
241
36
38
36
242
244
241
242
244
241
242
244
241
242
244
241
242
244
241
242
244
241
82
84
81
147
149
146
147
149
146
147
149
146
242
244
241
242
244
241
242
244
241
242
244
241
242
244
241
242
244
241
242
244
241
242
244
241
242
244
241
242
244
241
147
149
146
242
244
241
242
244
241
242
244
241
242
244
241
242
244
241
147
149
146
147
149
146
147
149
146
242
244
241
242
244
241
242
244
241
242
244
241
242
244
241
242
244
241
242
244
241
242
244
241
242
244
241
147
149
146
147
149
146
242
244
241
242
244
241
242
244
241
242
244
241
242
244
241
242
244
241
242
244
241
242
244
241
242
244
241
242
244
241
242
244
241
82
84
81
242
244
241
242
244
241
147
149
146
147
149
146
242
244
241
242
244
241
242
244
241
147
149
146
147
149
146
147
149
146
242
244
241
242
244
241
242
244
241
147
149
146
147
149
146
147
149
146
242
244
241
147
149
146
242
244
241
242
244
241
242
244
241
242
244
241
242
244
241
147
149
146
242
244
241
242
244
241
242
244
241
242
244
241
242
244
241
82
84
81
147
149
146
242
244
241
242
244
241
242
244
241
242
244
241
242
244
241
242
244
241
242
244
241
242
244
241
242
244
241
242
244
241
242
244
241
242
244
241
147
149
146
242
244
241
242
244
241
242
244
241
147
149
146
242
244
241
242
244
241
242
244
241
242
244
241
147
149
146
147
149
146
147
149
146
242
244
241
242
244
241
242
244
241
242
244
241
242
244
241
147
149
146
242
244
241
242
244
241
242
244
241
242
244
241
242
244
241
82
84
81
147
149
146
242
244
241
242
244
241
242
244
241
242
244
241
147
149
146
147
149
146
242
244
241
242
244
241
242
244
241
242
244
241
242
244
241
242
244
241
242
244
241
242
244
241
242
244
241
242
244
241
242
244
241
242
244
241
242
244
241
242
244
241
242
244
241
242
244
241
242
244
241
82
84
81
147
149
146
242
244
241
242
244
241
242
244
241
242
244
241
147
149
146
147
149
146
147
149
146
242
244
241
147
149
146
242
244
241
147
149
146
242
244
241
147
149
146
242
244
241
147
149
146
242
244
241
147
149
146
147
149
146
147
149
146
242
244
241
242
244
241
242
244
241
82
84
81
82
84
81
242
244
241
242
244
241
242
244
241
242
244
241
242
244
241
242
244
241
242
244
241
242
244
241
242
244
241
242
244
241
242
244
241
242
244
241
242
244
241
242
244
241
242
244
241
242
244
241
242
244
241
82
84
81
82
84
81
82
84
81
147
149
146
242
244
241
242
244
241
242
244
241
242
244
241
242
244
241
242
244
241
82
84
81
147
149
146
147
149
146
147
149
146
147
149
146
147
149
146
147
149
146
147
149
146
147
149
146
242
244
241
242
244
241
242
244
241
242
244
241
242
244
241
147
149
146
147
149
146
82
84
81
82
84
81
242
244
241
242
244
241
242
244
241
242
244
241
242
244
241
242
244
241
242
244
241
242
244
241
242
244
241
242
244
241
242
244
241
242
244
241
242
244
241
242
244
241
82
84
81
36
38
36
82
84
81
147
149
146
242
244
241
147
149
146
147
149
146
147
149
146
242
244
241
242
244
241
242
244
241
242
244
241
242
244
241
147
149
146
242
244
241
147
149
146
242
244
241
242
244
241
242
244
241
147
149
146
242
244
241
242
244
241
242
244
241
242
244
241
242
244
241
82
84
81
147
149
146
242
244
241
242
244
241
82
84
81
82
84
81
36
38
36
242
244
241
242
244
241
242
244
241
242
244
241
242
244
241
242
244
241
242
244
241
242
244
241
242
244
241
242
244
241
242
244
241
242
244
241
82
84
81
82
84
81
147
149
146
242
244
241
242
244
241
242
244
241
242
244
241
147
149
146
147
149
146
242
244
241
242
244
241
242
244
241
242
244
241
242
244
241
242
244
241
242
244
241
242
244
241
242
244
241
147
149
146
242
244
241
242
244
241
242
244
241
242
244
241
147
149
146
147
149
146
242
244
241
242
244
241
242
244
241
242
244
241
147
149
146
82
84
81
82
84
81
242
244
241
242
244
241
242
244
241
242
244
241
242
244
241
242
244
241
242
244
241
242
244
241
242
244
241
242
244
241
242
244
241
242
244
241
242
244
241
82
84
81
82
84
81
82
84
81
242
244
241
242
244
241
242
244
241
242
244
241
242
244
241
82
84
81
147
149
146
242
244
241
242
244
241
242
244
241
242
244
241
147
149
146
147
149
146
147
149
146
242
244
241
242
244
241
242
244
241
82
84
81
147
149
146
147
149
146
242
244
241
242
244
241
242
244
241
147
149
146
147
149
146
82
84
81
82
84
81
242
244
241
242
244
241
242
244
241
242
244
241
242
244
241
242
244
241
242
244
241
242
244
241
242
244
241
242
244
241
242
244
241
242
244
241
242
244
241
242
244
241
242
244
241
242
244
241
242
244
241
82
84
81
147
149
146
242
244
241
242
244
241
242
244
241
242
244
241
147
149
146
147
149
146
242
244
241
242
244
241
242
244
241
242
244
241
242
244
241
242
244
241
242
244
241
242
244
241
147
149
146
147
149
146
242
244
241
242
244
241
242
244
241
242
244
241
147
149
146
82
84
81
82
84
81
242
244
241
242
244
241
242
244
241
242
244
241
242
244
241
242
244
241
242
244
241
242
244
241
