P3
# Created by GIMP version 2.10.8 PNM plug-in
15 8
255
255
0
255
255
0
255
255
0
255
214
158
152
163
146
111
255
252
238
255
252
238
255
252
238
255
252
238
163
146
111
214
158
152
255
0
255
255
0
255
255
0
255
255
0
255
255
0
255
255
0
255
255
0
255
163
146
111
163
146
111
255
252
238
163
146
111
255
252
238
255
252
238
163
146
111
163
146
111
255
0
255
255
0
255
255
0
255
255
0
255
255
0
255
255
0
255
255
0
255
163
146
111
255
252
238
163
146
111
255
252
238
163
146
111
255
252
238
163
146
111
255
252
238
255
0
255
255
0
255
255
0
255
255
0
255
255
0
255
255
0
255
255
0
255
255
252
238
170
30
29
255
255
255
163
146
111
255
252
238
163
146
111
255
255
255
163
146
111
255
0
255
255
0
255
255
0
255
255
0
255
255
0
255
255
0
255
255
0
255
255
252
238
249
20
19
170
30
29
255
252
238
163
146
111
249
20
19
170
30
29
255
252
238
255
0
255
255
0
255
255
0
255
255
0
255
255
0
255
255
0
255
255
0
255
255
252
238
255
252
238
255
252
238
255
252
238
255
252
238
255
252
238
255
252
238
255
252
238
255
0
255
255
0
255
255
0
255
255
0
255
255
0
255
255
0
255
255
0
255
163
146
111
249
243
215
255
252
238
163
146
111
163
146
111
255
252
238
249
243
215
163
146
111
255
0
255
255
0
255
255
0
255
255
0
255
255
0
255
255
0
255
255
0
255
232
225
190
163
146
111
255
252
238
255
255
255
255
255
255
255
252
238
163
146
111
232
225
190
255
0
255
255
0
255
255
0
255
255
0
255
