P3
# Created by GIMP version 2.10.8 PNM plug-in
30 16
255
255
0
255
255
0
255
255
0
255
255
0
255
255
0
255
255
0
255
255
0
255
255
0
255
255
0
255
255
0
255
255
0
255
255
0
255
255
0
255
255
0
255
255
0
255
255
0
255
255
0
255
255
0
255
255
0
255
255
0
255
255
0
255
255
0
255
255
0
255
255
0
255
255
0
255
255
0
255
255
0
255
255
0
255
255
0
255
255
0
255
255
0
255
255
0
255
255
0
255
255
0
255
255
0
255
255
0
255
255
0
255
255
0
255
255
0
255
151
121
87
255
0
255
255
0
255
255
0
255
255
0
255
151
121
87
151
121
87
255
0
255
255
0
255
255
0
255
255
0
255
151
121
87
255
0
255
255
0
255
255
0
255
255
0
255
255
0
255
255
0
255
255
0
255
255
0
255
255
0
255
255
0
255
255
0
255
255
0
255
255
0
255
255
0
255
255
0
255
255
0
255
255
0
255
151
121
87
222
168
163
151
121
87
255
0
255
255
0
255
151
121
87
212
199
159
212
199
159
151
121
87
255
0
255
255
0
255
151
121
87
222
168
163
151
121
87
255
0
255
255
0
255
255
0
255
255
0
255
255
0
255
255
0
255
255
0
255
255
0
255
255
0
255
255
0
255
255
0
255
255
0
255
255
0
255
255
0
255
255
0
255
255
0
255
151
121
87
214
158
152
255
252
238
151
121
87
151
121
87
151
121
87
236
228
187
255
252
238
212
199
159
151
121
87
151
121
87
255
252
238
214
158
152
151
121
87
255
0
255
255
0
255
255
0
255
255
0
255
255
0
255
255
0
255
255
0
255
255
0
255
255
0
255
255
0
255
255
0
255
255
0
255
255
0
255
255
0
255
255
0
255
255
0
255
151
121
87
222
168
163
151
121
87
238
231
201
151
121
87
212
199
159
255
252
238
255
252
238
255
252
238
255
252
238
212
199
159
151
121
87
222
168
163
151
121
87
255
0
255
255
0
255
255
0
255
255
0
255
255
0
255
255
0
255
255
0
255
255
0
255
255
0
255
255
0
255
255
0
255
255
0
255
255
0
255
255
0
255
255
0
255
255
0
255
151
121
87
151
121
87
238
231
201
255
252
238
151
121
87
212
199
159
249
243
215
151
121
87
212
199
159
151
121
87
255
252
238
212
199
159
151
121
87
151
121
87
255
0
255
255
0
255
255
0
255
255
0
255
255
0
255
255
0
255
255
0
255
255
0
255
255
0
255
255
0
255
255
0
255
255
0
255
255
0
255
255
0
255
255
0
255
255
0
255
151
121
87
238
231
201
212
199
159
238
231
201
151
121
87
212
199
159
151
121
87
249
243
215
212
199
159
151
121
87
238
231
201
151
121
87
255
252
238
151
121
87
255
0
255
255
0
255
255
0
255
255
0
255
255
0
255
255
0
255
255
0
255
255
0
255
255
0
255
255
0
255
255
0
255
255
0
255
255
0
255
255
0
255
255
0
255
255
0
255
151
121
87
212
199
159
238
231
201
151
121
87
151
121
87
212
199
159
151
121
87
238
231
201
212
199
159
151
121
87
151
121
87
255
252
238
151
121
87
151
121
87
255
0
255
255
0
255
255
0
255
255
0
255
255
0
255
255
0
255
255
0
255
255
0
255
255
0
255
255
0
255
255
0
255
255
0
255
255
0
255
255
0
255
255
0
255
255
0
255
151
121
87
238
231
201
151
121
87
243
237
212
251
245
216
151
121
87
151
121
87
238
231
201
151
121
87
212
199
159
255
252
238
151
121
87
255
252
238
151
121
87
255
0
255
255
0
255
255
0
255
255
0
255
255
0
255
255
0
255
255
0
255
255
0
255
255
0
255
255
0
255
255
0
255
255
0
255
255
0
255
255
0
255
255
0
255
255
0
255
151
121
87
151
121
87
248
255
250
170
30
29
249
194
199
255
255
255
151
121
87
151
121
87
170
30
29
249
194
199
255
255
255
255
252
238
151
121
87
151
121
87
255
0
255
255
0
255
255
0
255
255
0
255
255
0
255
255
0
255
255
0
255
255
0
255
255
0
255
255
0
255
255
0
255
255
0
255
255
0
255
255
0
255
255
0
255
255
0
255
151
121
87
212
199
159
255
255
255
170
30
29
243
1
2
255
163
157
251
255
236
212
199
159
170
30
29
249
9
15
255
163
157
255
255
255
238
231
201
151
121
87
255
0
255
255
0
255
255
0
255
255
0
255
255
0
255
255
0
255
255
0
255
255
0
255
255
0
255
255
0
255
255
0
255
255
0
255
255
0
255
255
0
255
255
0
255
255
0
255
255
0
255
151
121
87
212
199
159
255
251
231
255
253
241
255
252
238
255
252
238
255
252
238
255
252
238
255
253
241
255
251
231
238
231
201
151
121
87
255
0
255
255
0
255
255
0
255
255
0
255
255
0
255
255
0
255
255
0
255
255
0
255
255
0
255
255
0
255
255
0
255
255
0
255
255
0
255
255
0
255
255
0
255
255
0
255
255
0
255
255
0
255
255
0
255
151
121
87
212
199
159
151
121
87
238
231
201
212
199
159
212
199
159
238
231
201
151
121
87
238
231
201
151
121
87
255
0
255
255
0
255
255
0
255
255
0
255
255
0
255
255
0
255
255
0
255
255
0
255
255
0
255
255
0
255
255
0
255
255
0
255
255
0
255
255
0
255
255
0
255
255
0
255
255
0
255
255
0
255
255
0
255
255
0
255
151
121
87
151
121
87
212
199
159
151
121
87
151
121
87
151
121
87
151
121
87
238
231
201
151
121
87
151
121
87
255
0
255
255
0
255
255
0
255
255
0
255
255
0
255
255
0
255
255
0
255
255
0
255
255
0
255
255
0
255
255
0
255
255
0
255
255
0
255
255
0
255
255
0
255
255
0
255
255
0
255
255
0
255
255
0
255
238
231
201
212
199
159
151
121
87
151
121
87
212
199
159
255
255
255
255
255
255
212
199
159
151
121
87
151
121
87
212
199
159
238
231
201
255
0
255
255
0
255
255
0
255
255
0
255
255
0
255
255
0
255
255
0
255
255
0
255
255
0
255
255
0
255
255
0
255
255
0
255
255
0
255
255
0
255
255
0
255
255
0
255
255
0
255
255
0
255
255
0
255
255
0
255
255
0
255
255
0
255
255
0
255
255
0
255
255
0
255
255
0
255
255
0
255
255
0
255
255
0
255
255
0
255
255
0
255
255
0
255
255
0
255
255
0
255
255
0
255
255
0
255
255
0
255
255
0
255
255
0
255
