P3
# Created by GIMP version 2.10.8 PNM plug-in
15 8
255
252
254
251
252
254
251
252
254
251
148
150
147
148
150
147
252
254
251
252
254
251
252
254
251
252
254
251
148
150
147
148
150
147
252
254
251
252
254
251
252
254
251
252
254
251
252
254
251
252
254
251
252
254
251
148
150
147
148
150
147
252
254
251
148
150
147
252
254
251
252
254
251
148
150
147
148
150
147
252
254
251
252
254
251
252
254
251
252
254
251
252
254
251
252
254
251
252
254
251
148
150
147
252
254
251
148
150
147
252
254
251
148
150
147
252
254
251
148
150
147
252
254
251
252
254
251
252
254
251
252
254
251
252
254
251
252
254
251
252
254
251
252
254
251
252
254
251
64
66
63
252
254
251
148
150
147
252
254
251
148
150
147
252
254
251
148
150
147
252
254
251
252
254
251
252
254
251
252
254
251
252
254
251
252
254
251
252
254
251
252
254
251
64
66
63
64
66
63
252
254
251
148
150
147
64
66
63
64
66
63
252
254
251
252
254
251
252
254
251
252
254
251
252
254
251
252
254
251
252
254
251
252
254
251
252
254
251
252
254
251
252
254
251
252
254
251
252
254
251
252
254
251
252
254
251
252
254
251
252
254
251
252
254
251
252
254
251
252
254
251
252
254
251
252
254
251
252
254
251
148
150
147
222
224
221
252
254
251
148
150
147
148
150
147
252
254
251
252
254
251
148
150
147
252
254
251
252
254
251
252
254
251
252
254
251
252
254
251
252
254
251
252
254
251
222
224
221
148
150
147
252
254
251
252
254
251
252
254
251
252
254
251
148
150
147
222
224
221
252
254
251
252
254
251
252
254
251
252
254
251
