P3
# Created by GIMP version 2.10.8 PNM plug-in
30 16
255
252
254
251
252
254
251
252
254
251
252
254
251
252
254
251
252
254
251
252
254
251
252
254
251
252
254
251
252
254
251
252
254
251
252
254
251
252
254
251
252
254
251
252
254
251
252
254
251
252
254
251
252
254
251
252
254
251
252
254
251
252
254
251
252
254
251
252
254
251
252
254
251
252
254
251
252
254
251
252
254
251
252
254
251
252
254
251
252
254
251
252
254
251
252
254
251
252
254
251
252
254
251
252
254
251
252
254
251
252
254
251
252
254
251
252
254
251
125
127
124
252
254
251
252
254
251
252
254
251
252
254
251
125
127
124
125
127
124
252
254
251
252
254
251
252
254
251
252
254
251
125
127
124
252
254
251
252
254
251
252
254
251
252
254
251
252
254
251
252
254
251
252
254
251
252
254
251
252
254
251
252
254
251
252
254
251
252
254
251
252
254
251
252
254
251
252
254
251
252
254
251
252
254
251
125
127
124
194
196
193
125
127
124
252
254
251
252
254
251
125
127
124
194
196
193
194
196
193
125
127
124
252
254
251
252
254
251
125
127
124
194
196
193
125
127
124
252
254
251
252
254
251
252
254
251
252
254
251
252
254
251
252
254
251
252
254
251
252
254
251
252
254
251
252
254
251
252
254
251
252
254
251
252
254
251
252
254
251
252
254
251
252
254
251
125
127
124
194
196
193
252
254
251
125
127
124
125
127
124
125
127
124
252
254
251
252
254
251
252
254
251
125
127
124
125
127
124
252
254
251
194
196
193
125
127
124
252
254
251
252
254
251
252
254
251
252
254
251
252
254
251
252
254
251
252
254
251
252
254
251
252
254
251
252
254
251
252
254
251
252
254
251
252
254
251
252
254
251
252
254
251
252
254
251
125
127
124
194
196
193
125
127
124
252
254
251
125
127
124
194
196
193
252
254
251
252
254
251
252
254
251
252
254
251
194
196
193
125
127
124
125
127
124
125
127
124
252
254
251
252
254
251
252
254
251
252
254
251
252
254
251
252
254
251
252
254
251
252
254
251
252
254
251
252
254
251
252
254
251
252
254
251
252
254
251
252
254
251
252
254
251
252
254
251
125
127
124
125
127
124
252
254
251
252
254
251
125
127
124
194
196
193
252
254
251
125
127
124
194
196
193
125
127
124
252
254
251
194
196
193
125
127
124
125
127
124
252
254
251
252
254
251
252
254
251
252
254
251
252
254
251
252
254
251
252
254
251
252
254
251
252
254
251
252
254
251
252
254
251
252
254
251
252
254
251
252
254
251
252
254
251
252
254
251
125
127
124
252
254
251
194
196
193
252
254
251
125
127
124
194
196
193
125
127
124
252
254
251
194
196
193
125
127
124
194
196
193
125
127
124
252
254
251
125
127
124
252
254
251
252
254
251
252
254
251
252
254
251
252
254
251
252
254
251
252
254
251
252
254
251
252
254
251
252
254
251
252
254
251
252
254
251
252
254
251
252
254
251
252
254
251
252
254
251
125
127
124
194
196
193
252
254
251
125
127
124
125
127
124
194
196
193
125
127
124
194
196
193
252
254
251
125
127
124
125
127
124
252
254
251
125
127
124
125
127
124
252
254
251
252
254
251
252
254
251
252
254
251
252
254
251
252
254
251
252
254
251
252
254
251
252
254
251
252
254
251
252
254
251
252
254
251
252
254
251
252
254
251
252
254
251
252
254
251
125
127
124
252
254
251
125
127
124
252
254
251
194
196
193
125
127
124
125
127
124
252
254
251
125
127
124
194
196
193
252
254
251
125
127
124
252
254
251
125
127
124
252
254
251
252
254
251
252
254
251
252
254
251
252
254
251
252
254
251
252
254
251
252
254
251
252
254
251
252
254
251
252
254
251
252
254
251
252
254
251
252
254
251
252
254
251
252
254
251
125
127
124
125
127
124
252
254
251
59
61
58
194
196
193
252
254
251
125
127
124
125
127
124
59
61
58
194
196
193
252
254
251
252
254
251
125
127
124
125
127
124
252
254
251
252
254
251
252
254
251
252
254
251
252
254
251
252
254
251
252
254
251
252
254
251
252
254
251
252
254
251
252
254
251
252
254
251
252
254
251
252
254
251
252
254
251
252
254
251
125
127
124
194
196
193
252
254
251
59
61
58
59
61
58
194
196
193
252
254
251
194
196
193
59
61
58
59
61
58
125
127
124
252
254
251
194
196
193
125
127
124
252
254
251
252
254
251
252
254
251
252
254
251
252
254
251
252
254
251
252
254
251
252
254
251
252
254
251
252
254
251
252
254
251
252
254
251
252
254
251
252
254
251
252
254
251
252
254
251
252
254
251
125
127
124
194
196
193
252
254
251
252
254
251
252
254
251
252
254
251
252
254
251
252
254
251
252
254
251
252
254
251
194
196
193
125
127
124
252
254
251
252
254
251
252
254
251
252
254
251
252
254
251
252
254
251
252
254
251
252
254
251
252
254
251
252
254
251
252
254
251
252
254
251
252
254
251
252
254
251
252
254
251
252
254
251
252
254
251
252
254
251
252
254
251
125
127
124
194
196
193
125
127
124
252
254
251
194
196
193
194
196
193
194
196
193
125
127
124
194
196
193
125
127
124
252
254
251
252
254
251
252
254
251
252
254
251
252
254
251
252
254
251
252
254
251
252
254
251
252
254
251
252
254
251
252
254
251
252
254
251
252
254
251
252
254
251
252
254
251
252
254
251
252
254
251
252
254
251
252
254
251
252
254
251
125
127
124
125
127
124
194
196
193
125
127
124
125
127
124
125
127
124
125
127
124
194
196
193
125
127
124
125
127
124
252
254
251
252
254
251
252
254
251
252
254
251
252
254
251
252
254
251
252
254
251
252
254
251
252
254
251
252
254
251
252
254
251
252
254
251
252
254
251
252
254
251
252
254
251
252
254
251
252
254
251
252
254
251
252
254
251
252
254
251
194
196
193
125
127
124
125
127
124
194
196
193
252
254
251
252
254
251
194
196
193
125
127
124
125
127
124
194
196
193
194
196
193
252
254
251
252
254
251
252
254
251
252
254
251
252
254
251
252
254
251
252
254
251
252
254
251
252
254
251
252
254
251
252
254
251
252
254
251
252
254
251
252
254
251
252
254
251
252
254
251
252
254
251
252
254
251
252
254
251
252
254
251
252
254
251
252
254
251
252
254
251
252
254
251
252
254
251
252
254
251
252
254
251
252
254
251
252
254
251
252
254
251
252
254
251
252
254
251
252
254
251
252
254
251
252
254
251
252
254
251
252
254
251
252
254
251
252
254
251
