P3
# Created by GIMP version 2.10.8 PNM plug-in
22 22
255
255
0
255
255
0
255
255
0
255
212
199
159
255
252
238
212
199
159
255
0
255
255
0
255
255
0
255
255
0
255
255
0
255
212
199
159
255
0
255
255
0
255
255
0
255
255
0
255
255
0
255
212
199
159
255
252
238
212
199
159
255
0
255
255
0
255
255
0
255
255
0
255
212
199
159
214
158
152
255
252
238
255
252
238
212
199
159
255
0
255
255
0
255
255
0
255
212
199
159
255
252
238
212
199
159
255
0
255
255
0
255
255
0
255
212
199
159
255
252
238
255
252
238
214
158
152
212
199
159
255
0
255
255
0
255
255
0
255
212
199
159
214
158
152
255
252
238
255
252
238
212
199
159
212
199
159
255
0
255
212
199
159
255
252
238
255
252
238
212
199
159
212
199
159
255
0
255
212
199
159
212
199
159
255
252
238
255
252
238
214
158
152
212
199
159
255
0
255
255
0
255
255
0
255
212
199
159
214
158
152
214
158
152
255
252
238
212
199
159
212
199
159
212
199
159
249
243
215
255
252
238
255
252
238
255
252
238
212
199
159
212
199
159
212
199
159
255
252
238
255
252
238
214
158
152
214
158
152
212
199
159
255
0
255
255
0
255
255
0
255
212
199
159
214
158
152
214
158
152
212
199
159
212
199
159
255
252
238
212
199
159
249
243
215
255
252
238
255
252
238
255
252
238
255
252
238
212
199
159
212
199
159
212
199
159
212
199
159
214
158
152
214
158
152
212
199
159
255
0
255
255
0
255
255
0
255
212
199
159
214
158
152
212
199
159
212
199
159
255
252
238
255
252
238
212
199
159
249
243
215
255
252
238
255
252
238
255
252
238
255
252
238
212
199
159
255
252
238
255
252
238
212
199
159
212
199
159
214
158
152
212
199
159
255
0
255
255
0
255
255
0
255
212
199
159
212
199
159
212
199
159
255
252
238
255
252
238
255
252
238
151
121
87
249
243
215
255
252
238
255
252
238
212
199
159
249
243
215
212
199
159
255
252
238
255
252
238
255
252
238
212
199
159
212
199
159
212
199
159
255
0
255
255
0
255
255
0
255
212
199
159
212
199
159
255
252
238
249
243
215
255
252
238
255
252
238
151
121
87
249
243
215
255
252
238
212
199
159
249
243
215
255
252
238
212
199
159
255
252
238
255
252
238
255
252
238
255
252
238
212
199
159
212
199
159
255
0
255
255
0
255
212
199
159
212
199
159
255
252
238
249
243
215
212
199
159
255
252
238
255
252
238
151
121
87
249
243
215
255
252
238
212
199
159
249
243
215
255
252
238
212
199
159
255
252
238
255
252
238
212
199
159
255
252
238
255
252
238
212
199
159
212
199
159
212
199
159
255
252
238
255
252
238
249
243
215
212
199
159
255
252
238
255
252
238
151
121
87
151
121
87
249
243
215
255
252
238
212
199
159
249
243
215
255
252
238
212
199
159
255
252
238
255
252
238
249
243
215
212
199
159
249
243
215
255
252
238
212
199
159
212
199
159
255
252
238
249
243
215
212
199
159
255
252
238
255
252
238
151
121
87
151
121
87
151
121
87
249
243
215
255
252
238
212
199
159
249
243
215
255
252
238
212
199
159
151
121
87
151
121
87
255
252
238
249
243
215
212
199
159
249
243
215
212
199
159
212
199
159
249
243
215
212
199
159
255
252
238
151
121
87
151
121
87
212
199
159
212
199
159
151
121
87
151
121
87
255
252
238
212
199
159
249
243
215
212
199
159
212
199
159
212
199
159
151
121
87
151
121
87
255
252
238
212
199
159
249
243
215
212
199
159
212
199
159
212
199
159
255
252
238
151
121
87
151
121
87
212
199
159
72
69
76
243
1
2
255
255
255
151
121
87
255
252
238
212
199
159
249
243
215
212
199
159
170
30
29
243
1
2
255
255
255
151
121
87
151
121
87
255
252
238
212
199
159
151
121
87
212
199
159
212
199
159
151
121
87
151
121
87
212
199
159
72
69
76
170
30
29
255
255
255
255
163
157
212
199
159
151
121
87
212
199
159
249
243
215
212
199
159
170
30
29
255
255
255
255
163
157
72
69
76
151
121
87
255
252
238
151
121
87
212
199
159
255
0
255
151
121
87
212
199
159
212
199
159
255
252
238
255
252
238
170
30
29
238
99
101
255
163
157
212
199
159
151
121
87
212
199
159
212
199
159
212
199
159
170
30
29
238
99
101
255
163
157
255
252
238
151
121
87
151
121
87
151
121
87
212
199
159
255
0
255
151
121
87
212
199
159
212
199
159
255
252
238
255
252
238
255
252
238
255
252
238
255
252
238
255
252
238
212
199
159
151
121
87
151
121
87
255
252
238
255
252
238
255
252
238
255
252
238
255
252
238
255
252
238
249
243
215
212
199
159
212
199
159
255
0
255
255
0
255
255
0
255
212
199
159
255
252
238
255
252
238
255
252
238
249
243
215
255
252
238
255
252
238
255
252
238
255
252
238
255
252
238
255
252
238
255
252
238
249
243
215
255
252
238
255
252
238
255
252
238
212
199
159
212
199
159
255
0
255
255
0
255
255
0
255
255
0
255
212
199
159
212
199
159
249
243
215
151
121
87
151
121
87
255
252
238
255
252
238
151
121
87
151
121
87
151
121
87
255
252
238
255
252
238
151
121
87
151
121
87
249
243
215
212
199
159
255
0
255
255
0
255
255
0
255
255
0
255
255
0
255
255
0
255
255
0
255
255
0
255
212
199
159
249
243
215
151
121
87
249
243
215
249
243
215
249
243
215
151
121
87
249
243
215
249
243
215
249
243
215
151
121
87
249
243
215
212
199
159
255
0
255
255
0
255
255
0
255
255
0
255
255
0
255
255
0
255
255
0
255
255
0
255
255
0
255
212
199
159
212
199
159
249
243
215
151
121
87
151
121
87
151
121
87
255
255
255
151
121
87
151
121
87
151
121
87
212
199
159
212
199
159
255
0
255
255
0
255
255
0
255
255
0
255
255
0
255
255
0
255
255
0
255
255
0
255
255
0
255
249
243
215
212
199
159
151
121
87
212
199
159
212
199
159
212
199
159
255
255
255
255
255
255
255
255
255
212
199
159
212
199
159
212
199
159
151
121
87
249
243
215
255
0
255
255
0
255
255
0
255
255
0
255
255
0
255
255
0
255
255
0
255
249
243
215
249
243
215
212
199
159
151
121
87
151
121
87
151
121
87
212
199
159
212
199
159
255
255
255
212
199
159
212
199
159
151
121
87
151
121
87
151
121
87
249
243
215
249
243
215
255
0
255
255
0
255
255
0
255
