P3
# Created by GIMP version 2.10.8 PNM plug-in
44 44
255
255
0
255
255
0
255
255
0
255
255
0
255
255
0
255
255
0
255
91
71
58
91
71
58
145
97
86
128
105
92
91
71
58
255
0
255
255
0
255
255
0
255
255
0
255
255
0
255
255
0
255
255
0
255
255
0
255
255
0
255
91
71
58
234
229
215
91
71
58
255
0
255
255
0
255
255
0
255
255
0
255
255
0
255
255
0
255
255
0
255
255
0
255
255
0
255
255
0
255
255
0
255
255
0
255
255
0
255
99
79
66
185
115
108
154
107
96
91
71
58
255
0
255
255
0
255
255
0
255
255
0
255
255
0
255
255
0
255
255
0
255
255
0
255
255
0
255
255
0
255
91
71
58
130
93
82
193
113
106
217
182
170
126
110
98
91
71
58
255
0
255
255
0
255
255
0
255
255
0
255
255
0
255
255
0
255
255
0
255
91
71
58
91
71
58
255
252
238
90
71
58
90
71
58
255
0
255
255
0
255
255
0
255
255
0
255
255
0
255
255
0
255
255
0
255
255
0
255
255
0
255
255
0
255
255
0
255
114
97
85
216
189
177
195
112
105
162
114
104
91
71
58
255
0
255
255
0
255
255
0
255
255
0
255
255
0
255
255
0
255
255
0
255
255
0
255
255
0
255
255
0
255
91
71
58
145
97
87
228
189
177
251
244
235
133
118
105
91
71
58
255
0
255
255
0
255
255
0
255
255
0
255
255
0
255
255
0
255
255
0
255
91
71
58
218
211
197
255
252
238
216
209
195
90
71
58
90
71
58
255
0
255
255
0
255
255
0
255
255
0
255
255
0
255
255
0
255
255
0
255
255
0
255
255
0
255
91
71
58
114
97
84
251
246
236
231
196
184
196
127
120
154
117
108
91
71
58
255
0
255
255
0
255
255
0
255
255
0
255
255
0
255
255
0
255
255
0
255
255
0
255
255
0
255
91
71
58
138
94
84
236
207
195
255
255
249
232
227
213
202
193
179
136
121
107
91
71
58
255
0
255
255
0
255
255
0
255
255
0
255
91
71
58
91
71
58
255
252
238
255
252
238
255
252
238
208
200
186
90
71
58
255
0
255
255
0
255
255
0
255
255
0
255
255
0
255
255
0
255
255
0
255
255
0
255
91
71
58
100
81
68
228
222
208
255
255
247
241
219
206
202
127
121
182
137
130
91
71
58
255
0
255
255
0
255
255
0
255
255
0
255
255
0
255
255
0
255
255
0
255
255
0
255
91
71
58
133
102
91
188
122
115
234
203
191
255
255
247
255
252
238
255
252
238
182
172
158
91
71
58
255
0
255
255
0
255
255
0
255
255
0
255
92
72
59
202
193
179
255
252
238
255
252
238
255
252
238
255
252
238
90
71
58
90
71
58
255
0
255
255
0
255
255
0
255
255
0
255
255
0
255
255
0
255
90
71
58
120
103
90
223
217
203
255
252
238
255
255
245
239
215
202
202
128
121
178
133
126
91
71
58
255
0
255
255
0
255
255
0
255
255
0
255
255
0
255
255
0
255
255
0
255
255
0
255
91
71
58
164
124
115
203
130
124
234
203
191
255
255
247
255
252
238
208
200
186
96
76
63
91
71
58
91
71
58
255
0
255
255
0
255
255
0
255
79
60
47
255
252
238
255
252
238
255
252
238
255
252
238
255
252
238
192
182
169
90
71
58
90
71
58
90
71
58
113
96
83
98
80
66
91
71
58
91
71
58
115
97
84
225
219
206
255
252
238
255
252
238
255
255
245
239
215
202
202
128
121
178
133
126
91
71
58
255
0
255
255
0
255
255
0
255
255
0
255
255
0
255
255
0
255
255
0
255
255
0
255
91
71
58
152
115
106
203
130
124
234
203
191
195
188
178
114
97
83
92
72
59
99
80
66
133
117
104
91
71
58
87
67
54
118
97
83
206
182
165
210
200
185
255
252
238
255
252
238
255
252
238
255
252
238
255
252
238
255
252
238
185
175
162
161
149
136
159
147
134
179
169
155
169
158
144
160
147
134
96
77
64
155
142
129
255
252
238
255
252
238
255
252
238
255
255
245
239
215
202
202
128
121
178
133
126
91
71
58
255
0
255
255
0
255
255
0
255
255
0
255
255
0
255
255
0
255
255
0
255
91
71
58
124
94
83
193
145
138
203
130
124
180
153
141
92
72
59
96
76
63
151
137
124
220
213
199
248
244
230
165
153
139
131
116
102
117
96
82
204
178
161
182
162
146
255
252
238
255
252
238
255
252
238
255
252
238
255
252
238
255
252
238
255
252
238
255
252
238
255
252
238
255
252
238
255
252
238
255
252
238
100
82
68
139
124
110
255
252
238
255
252
238
255
252
238
255
255
245
239
215
202
202
128
121
178
133
126
91
71
58
255
0
255
255
0
255
255
0
255
255
0
255
255
0
255
255
0
255
255
0
255
91
71
58
176
131
123
216
162
156
157
102
93
92
72
59
99
80
68
218
211
197
255
252
238
255
252
238
255
252
238
242
238
224
124
108
94
100
80
66
175
149
131
182
164
148
255
252
238
255
252
238
255
252
238
255
252
238
255
252
238
255
252
238
255
252
238
255
252
238
255
252
238
255
252
238
255
252
238
255
252
238
191
181
167
119
103
90
131
115
102
205
197
184
255
252
238
255
255
245
239
215
202
202
129
122
178
135
128
91
71
58
255
0
255
255
0
255
255
0
255
255
0
255
255
0
255
255
0
255
255
0
255
91
71
58
190
142
134
170
122
115
92
71
58
99
79
66
220
215
204
255
252
238
255
252
238
255
252
238
255
252
238
197
188
174
104
83
70
146
122
107
145
120
103
255
252
238
255
252
238
255
252
238
255
252
238
255
252
238
255
252
238
255
252
238
255
252
238
255
252
238
255
252
238
255
252
238
255
252
238
255
252
238
255
252
238
200
191
177
87
68
55
95
75
62
205
197
184
255
255
245
239
215
202
200
123
116
183
131
123
91
71
58
255
0
255
255
0
255
255
0
255
255
0
255
255
0
255
255
0
255
255
0
255
91
71
58
127
94
83
92
72
59
99
80
67
223
219
210
255
252
237
255
252
238
255
252
238
255
252
238
226
219
206
110
93
80
117
96
83
210
183
166
150
127
111
255
252
238
253
249
235
229
216
201
209
197
181
254
251
237
255
252
238
255
252
238
255
252
238
255
252
238
255
252
238
255
252
238
236
226
211
217
200
184
245
236
221
255
252
238
205
197
184
96
76
63
92
72
59
150
137
125
195
174
162
203
130
123
133
93
82
91
71
58
255
0
255
255
0
255
255
0
255
255
0
255
255
0
255
255
0
255
255
0
255
91
71
58
91
71
58
99
80
67
228
225
215
255
252
237
255
252
238
255
252
238
255
252
238
255
252
238
177
167
153
101
81
67
149
126
111
175
149
132
161
139
123
255
252
238
253
249
235
198
173
156
146
120
103
252
249
235
255
252
238
255
252
238
235
224
209
251
246
232
255
252
238
236
225
210
217
200
184
205
183
167
237
225
210
255
252
238
255
252
238
213
205
191
116
99
86
94
74
61
92
72
59
134
96
86
91
71
58
91
71
58
255
0
255
255
0
255
255
0
255
255
0
255
255
0
255
255
0
255
255
0
255
91
71
58
103
84
71
231
228
215
255
252
237
255
252
238
255
252
238
255
252
238
255
252
238
255
252
238
194
186
172
131
109
94
203
177
159
135
109
92
164
141
124
254
251
237
232
220
205
179
154
137
185
167
151
254
251
237
255
252
238
239
229
214
182
157
140
238
230
215
255
252
238
199
173
156
234
224
209
255
252
238
255
252
238
255
252
238
255
252
238
255
252
238
255
252
238
222
217
205
93
73
60
92
72
59
91
71
58
255
0
255
255
0
255
255
0
255
255
0
255
255
0
255
255
0
255
255
0
255
255
0
255
91
71
58
212
205
191
255
252
238
255
252
238
255
252
238
255
252
238
255
252
238
255
252
238
255
252
238
195
186
172
126
105
90
195
169
152
140
114
97
199
184
168
251
247
233
194
167
150
145
121
104
255
252
238
255
252
238
239
230
215
185
160
143
173
153
137
242
236
221
255
252
238
218
201
185
242
233
218
255
252
238
255
252
238
255
252
238
255
252
238
255
252
238
255
252
238
255
252
237
232
228
214
92
74
61
92
72
59
255
0
255
255
0
255
255
0
255
255
0
255
255
0
255
255
0
255
255
0
255
87
68
55
94
75
62
217
210
196
255
252
238
255
252
238
255
252
238
255
252
238
255
252
238
255
252
238
255
252
238
195
186
172
126
105
90
195
169
152
141
114
96
255
252
238
250
244
230
180
154
137
146
121
104
255
252
238
255
252
238
200
175
158
146
121
104
251
247
233
255
252
238
255
252
238
255
252
238
255
252
238
255
252
238
255
252
238
255
252
238
255
252
238
255
252
238
255
252
238
255
252
238
255
252
238
241
236
222
90
72
59
91
71
58
255
0
255
255
0
255
255
0
255
255
0
255
255
0
255
88
68
55
108
88
74
232
226
212
255
252
238
255
252
238
255
252
238
255
252
238
255
252
238
255
252
238
255
252
238
255
252
238
195
186
172
126
105
90
195
169
152
140
113
95
255
252
238
236
227
212
141
116
99
174
154
137
255
252
238
255
252
238
191
167
150
169
148
132
245
239
225
255
252
238
225
219
205
244
240
226
255
252
238
255
252
238
255
252
238
255
252
238
255
252
238
255
252
238
255
252
238
250
245
231
244
236
221
247
241
227
243
238
224
91
71
59
91
71
58
255
0
255
255
0
255
255
0
255
89
69
57
91
70
56
188
163
147
243
234
219
255
252
238
248
242
228
244
237
222
251
246
232
255
252
238
255
252
238
255
252
238
255
252
238
195
186
172
126
105
90
195
169
152
145
119
101
232
224
209
194
169
152
154
130
114
255
252
238
255
252
238
246
239
225
144
119
102
254
250
236
255
252
238
255
252
238
94
75
62
206
197
183
255
252
238
255
252
238
255
252
238
255
252
238
255
252
238
255
252
238
255
252
238
236
225
210
193
169
152
203
180
164
248
243
228
241
236
222
90
70
57
255
0
255
255
0
255
91
71
58
94
74
60
141
115
98
190
164
146
240
231
216
255
252
238
198
174
157
196
171
154
232
221
206
255
252
238
255
252
238
255
252
238
255
252
238
194
186
172
127
106
91
196
170
153
141
114
97
157
131
114
194
169
152
153
129
112
255
252
238
254
250
236
197
172
155
149
123
106
246
240
226
255
252
238
237
233
219
100
83
70
208
197
182
251
247
233
255
252
238
255
252
238
255
252
238
255
252
238
255
252
238
255
252
238
255
252
238
233
224
209
148
123
106
204
179
161
242
235
221
84
64
51
91
71
58
255
0
255
89
69
56
145
119
102
148
122
105
189
163
146
241
233
218
251
246
232
200
176
160
228
215
200
255
252
238
255
252
238
255
252
238
255
252
238
255
252
238
194
186
172
122
101
86
186
160
144
137
111
94
157
131
114
194
169
152
153
129
112
255
252
238
254
250
236
198
174
157
149
123
106
246
240
226
255
252
238
109
91
78
93
73
60
135
111
94
221
210
195
255
252
238
255
252
238
255
252
238
255
252
238
255
252
238
255
252
238
255
252
238
255
252
238
225
216
201
158
132
115
187
163
147
255
252
238
90
70
58
255
0
255
92
71
58
139
113
97
193
167
150
246
240
225
255
252
238
196
171
154
229
216
200
255
252
238
255
252
238
255
252
238
255
252
238
253
249
235
250
246
231
207
196
182
89
69
57
88
69
56
100
78
64
162
135
118
194
169
152
153
129
112
250
246
232
254
250
236
198
174
157
149
123
106
246
241
227
248
244
230
108
91
78
182
158
141
165
139
122
217
206
191
253
250
236
255
252
238
255
252
238
255
252
238
255
252
238
255
252
238
255
252
238
255
252
238
222
212
198
157
131
114
204
180
163
249
244
229
84
64
52
91
71
58
145
120
103
145
119
102
190
165
148
244
237
222
254
251
236
183
158
141
228
215
200
255
252
238
255
252
238
255
252
238
253
249
235
204
191
175
143
117
100
165
140
123
209
184
167
167
144
128
91
70
56
161
134
117
193
168
151
143
117
100
153
128
111
255
252
238
198
174
157
152
126
108
251
248
234
111
93
80
83
64
51
178
154
138
165
139
122
144
118
101
215
204
189
254
251
237
255
252
238
255
252
238
255
252
238
255
252
238
255
252
238
255
252
238
255
252
238
227
219
204
157
131
114
188
162
146
252
249
235
91
71
58
142
116
100
191
166
149
202
177
160
246
241
227
150
126
109
183
158
141
235
223
208
255
252
238
255
252
238
255
252
238
170
148
132
142
116
99
166
140
123
200
176
159
202
176
159
168
144
129
77
58
45
102
81
67
153
126
109
147
121
104
154
130
113
255
252
238
198
174
157
152
126
108
254
251
237
107
90
77
176
152
136
199
174
157
200
175
158
161
135
118
145
120
103
213
201
186
255
252
238
255
252
238
255
252
238
255
252
238
255
252
238
255
252
238
255
252
238
255
252
238
226
217
202
156
130
113
254
251
237
85
65
52
142
116
100
197
172
155
153
127
110
252
248
233
156
130
114
225
212
197
254
250
236
255
252
238
196
180
164
147
122
105
172
146
130
198
173
156
195
170
153
196
171
154
196
171
154
198
174
157
166
143
127
92
71
58
154
127
110
147
121
104
154
130
113
255
252
238
198
174
157
152
126
108
103
83
70
79
60
48
177
153
138
199
174
157
196
171
154
199
175
158
163
138
121
144
119
102
211
199
184
255
252
238
255
252
238
255
252
238
218
207
192
165
139
122
220
203
187
255
252
238
230
223
208
153
127
110
203
179
162
254
250
236
144
119
102
154
128
111
248
243
229
197
174
158
154
128
111
238
229
214
255
252
238
189
172
156
144
118
101
170
145
128
199
174
157
189
170
156
80
65
61
81
66
62
83
66
62
151
132
123
172
148
132
75
55
43
103
82
68
151
124
107
153
128
111
255
252
238
197
173
156
152
126
109
90
70
57
174
150
133
196
171
155
196
171
154
196
171
154
161
142
132
80
63
60
119
97
85
146
120
103
158
140
128
255
252
238
255
252
238
252
248
234
212
200
185
165
139
122
219
201
185
255
252
238
228
219
204
156
130
113
194
170
152
147
121
104
99
78
65
139
114
98
194
168
151
154
128
111
188
162
145
242
236
221
189
173
157
172
147
130
197
172
155
202
186
172
78
26
25
135
0
36
130
0
28
99
0
23
51
47
43
150
131
122
165
141
125
91
70
57
155
128
111
148
122
105
161
137
121
196
171
154
152
126
109
89
69
56
183
159
142
239
230
215
248
242
227
141
124
117
54
50
46
96
0
23
131
8
32
143
80
81
152
126
108
122
101
87
181
169
155
255
252
238
252
248
234
216
205
190
166
141
124
198
175
158
255
252
238
156
130
112
197
172
155
152
126
108
92
72
60
135
110
94
194
168
151
154
128
111
187
161
144
174
149
132
143
118
101
175
150
133
226
212
199
236
235
232
217
159
161
218
56
61
237
146
152
246
209
214
162
61
58
41
42
42
137
117
110
74
54
42
106
85
70
154
127
110
148
122
105
201
176
159
152
126
109
89
69
56
182
158
141
246
240
225
126
109
104
40
41
41
153
58
56
245
204
208
238
156
162
212
61
64
205
147
146
180
165
154
141
115
99
200
186
170
255
252
238
225
216
201
159
134
117
198
172
155
138
114
98
98
78
64
160
134
116
102
81
67
88
69
56
136
111
94
194
168
151
154
128
111
187
161
144
160
135
118
168
142
125
196
171
154
226
213
202
255
250
251
237
124
124
173
14
13
144
47
45
159
62
61
164
18
18
136
6
6
111
113
109
161
137
122
74
55
42
106
84
70
154
127
110
157
131
114
150
124
107
89
69
56
182
158
141
245
238
224
111
119
115
129
6
6
165
16
16
160
60
59
145
49
48
170
14
12
234
114
114
246
239
238
190
174
162
148
122
105
199
184
169
255
252
238
218
207
192
162
135
118
145
119
102
130
106
90
99
78
64
89
69
56
87
68
55
136
111
94
194
168
151
154
128
111
187
161
144
159
134
117
178
152
135
222
207
192
251
248
239
255
250
252
221
84
84
181
0
0
144
0
0
79
0
0
123
0
0
197
0
0
174
48
48
233
222
213
155
129
114
75
56
44
106
85
71
150
124
106
149
123
106
83
64
51
181
157
140
245
240
233
178
58
57
195
0
0
129
0
0
78
0
0
139
0
0
181
0
0
217
73
73
255
248
249
250
248
240
190
174
159
152
126
109
181
161
144
155
134
118
97
76
62
158
132
113
144
117
101
87
67
54
255
0
255
87
68
55
136
111
94
194
168
151
154
128
111
187
161
144
159
134
117
177
151
134
230
217
203
203
189
175
225
218
213
252
219
220
215
64
64
176
0
0
157
0
0
167
0
0
202
9
10
245
169
169
255
255
255
249
243
227
152
125
111
76
56
44
106
84
70
152
126
108
128
103
88
200
175
158
243
237
233
247
176
176
204
15
15
167
0
0
157
0
0
175
0
0
213
57
57
250
215
216
229
224
219
198
184
170
230
219
204
152
128
113
100
78
63
166
139
122
163
140
125
107
86
71
145
119
102
89
69
56
255
0
255
87
68
55
136
111
94
194
168
151
154
128
111
187
161
144
159
134
117
171
144
128
244
237
221
238
231
212
208
196
177
223
225
219
255
228
231
235
106
108
226
45
45
222
78
77
237
164
165
255
255
255
255
253
243
252
248
226
248
243
225
158
134
119
78
59
46
106
85
71
154
128
110
193
182
168
252
250
239
255
255
254
238
168
169
222
81
80
225
44
44
235
102
104
255
223
227
229
233
228
201
188
170
228
217
199
237
227
212
189
164
148
140
117
102
111
89
75
126
104
90
92
72
59
146
120
103
89
69
56
255
0
255
87
68
55
141
116
98
200
174
157
155
129
112
187
161
144
159
134
117
173
146
130
237
227
211
250
246
229
245
240
217
212
201
181
192
184
174
184
146
135
201
116
107
249
202
193
255
245
237
254
252
240
249
245
223
248
244
217
255
252
238
234
222
206
158
135
120
82
63
51
113
90
76
238
233
219
255
252
238
255
253
243
255
246
238
250
204
195
204
119
111
183
144
133
192
184
174
206
194
175
247
243
220
247
241
225
249
244
230
225
207
192
177
155
139
109
90
75
85
65
52
100
79
65
146
120
103
89
69
56
255
0
255
255
0
255
107
85
71
167
141
124
150
123
106
188
162
145
158
133
116
185
163
146
245
237
223
255
252
238
254
251
234
247
243
221
231
223
201
234
228
205
238
226
207
255
252
238
255
252
238
253
250
233
247
242
216
254
251
232
255
252
238
255
252
238
232
219
203
158
135
120
92
71
58
241
237
223
244
241
223
254
251
235
255
252
238
255
252
238
239
226
207
233
228
205
233
225
202
244
239
217
254
251
233
255
252
238
255
252
238
235
224
209
189
165
149
147
121
104
84
64
52
100
79
65
152
125
108
89
69
56
255
0
255
255
0
255
255
0
255
105
83
69
135
109
93
194
169
151
164
138
121
175
154
138
225
216
201
255
252
238
255
253
240
248
244
225
251
246
226
251
247
226
253
250
231
255
252
238
255
252
238
255
252
238
253
249
231
255
252
238
255
252
238
255
252
238
255
252
238
235
223
207
174
162
148
254
251
237
239
231
214
255
252
237
255
252
238
255
252
238
254
251
233
252
249
228
251
246
225
253
250
233
255
253
237
255
252
232
255
252
238
226
215
200
193
172
156
255
0
255
255
0
255
95
74
61
117
94
79
90
70
57
255
0
255
255
0
255
255
0
255
81
61
50
135
110
94
173
147
130
157
131
114
151
126
109
186
168
153
255
252
238
255
254
234
255
252
229
255
252
238
255
252
238
255
252
238
255
252
238
255
252
237
254
250
231
254
250
231
253
249
235
255
252
238
255
252
238
255
252
238
255
252
238
255
252
238
255
252
238
255
252
238
251
247
228
254
251
231
255
252
236
255
252
238
255
252
238
255
252
238
255
252
238
253
250
229
255
251
227
255
252
238
203
189
174
151
126
109
255
0
255
255
0
255
90
70
57
86
66
54
91
71
58
255
0
255
255
0
255
255
0
255
255
0
255
114
91
76
141
115
99
148
122
104
147
121
104
188
171
156
255
252
238
248
244
227
255
252
230
254
250
232
255
252
238
255
252
238
255
252
238
255
252
238
250
246
224
231
219
195
221
204
188
249
244
234
255
253
245
255
253
245
255
253
245
255
253
245
252
248
238
223
208
192
226
212
188
252
249
227
255
252
237
255
252
238
255
252
238
255
252
238
254
251
235
248
243
220
255
254
231
255
252
238
206
193
178
147
121
104
255
0
255
255
0
255
255
0
255
91
71
58
255
0
255
255
0
255
255
0
255
255
0
255
255
0
255
255
0
255
112
90
75
143
117
100
148
122
105
168
146
130
228
220
205
255
252
238
249
245
227
255
253
230
252
249
231
248
243
229
236
226
210
254
250
232
254
251
237
223
208
192
185
155
139
200
183
174
217
206
199
251
248
247
253
251
250
220
209
202
202
186
176
185
157
142
218
201
185
254
251
236
255
252
234
238
228
212
245
237
223
253
250
234
248
243
219
254
250
225
251
247
229
244
239
224
166
145
129
147
121
104
255
0
255
255
0
255
255
0
255
255
0
255
255
0
255
255
0
255
255
0
255
255
0
255
255
0
255
255
0
255
255
0
255
127
104
88
255
0
255
255
0
255
163
140
123
228
219
205
255
252
238
250
246
230
255
253
232
231
221
207
181
157
139
218
206
182
253
249
230
255
252
238
239
230
213
208
194
175
185
161
141
217
201
191
220
204
195
186
161
142
205
190
171
236
227
210
253
249
234
251
246
227
222
212
189
183
159
141
218
203
189
254
251
233
255
253
230
251
247
230
248
243
229
155
131
116
148
122
105
255
0
255
255
0
255
255
0
255
255
0
255
255
0
255
255
0
255
255
0
255
255
0
255
255
0
255
255
0
255
255
0
255
255
0
255
134
109
93
255
0
255
255
0
255
255
0
255
161
138
121
229
220
206
255
252
238
255
252
238
236
229
214
166
145
129
140
112
95
209
197
174
255
253
234
255
253
238
255
253
237
244
236
216
195
172
153
193
167
148
240
231
211
255
253
236
255
253
238
255
254
235
215
204
180
144
118
101
155
131
115
224
215
200
255
252
238
255
252
238
248
243
229
153
129
114
148
122
105
255
0
255
255
0
255
255
0
255
255
0
255
255
0
255
255
0
255
255
0
255
255
0
255
255
0
255
255
0
255
255
0
255
255
0
255
255
0
255
255
0
255
255
0
255
255
0
255
255
0
255
122
99
83
144
121
105
231
223
208
255
252
238
255
252
238
248
244
230
177
157
141
160
137
122
206
192
169
227
217
194
218
207
183
223
215
189
208
190
169
207
189
168
222
213
187
219
208
184
227
218
193
210
198
174
161
138
122
167
146
130
236
229
215
255
252
238
255
252
238
235
228
214
147
125
109
125
101
86
255
0
255
255
0
255
255
0
255
255
0
255
255
0
255
255
0
255
255
0
255
255
0
255
255
0
255
255
0
255
255
0
255
255
0
255
255
0
255
255
0
255
255
0
255
255
0
255
255
0
255
97
77
64
91
71
58
116
96
82
160
137
120
238
231
216
255
252
238
255
252
238
255
252
238
255
252
238
182
163
148
147
119
102
157
133
120
155
132
120
174
148
133
176
150
134
156
133
121
157
133
120
144
116
100
158
134
117
243
237
223
255
252
238
255
252
238
255
252
238
238
231
217
165
143
127
123
101
87
91
71
58
96
76
63
255
0
255
255
0
255
255
0
255
255
0
255
255
0
255
255
0
255
255
0
255
255
0
255
255
0
255
255
0
255
255
0
255
255
0
255
255
0
255
255
0
255
91
71
58
91
71
58
98
79
66
195
186
172
255
252
238
210
198
182
160
136
120
233
225
210
241
235
220
255
252
238
255
252
238
255
252
238
211
194
178
242
232
226
255
255
255
202
190
183
198
184
177
255
255
255
246
238
233
198
175
158
246
241
227
255
252
238
255
252
238
241
236
221
232
224
209
160
137
120
183
165
149
255
252
238
210
202
189
101
82
69
91
71
58
91
71
58
255
0
255
255
0
255
255
0
255
255
0
255
255
0
255
255
0
255
255
0
255
255
0
255
255
0
255
255
0
255
255
0
255
255
0
255
91
71
58
95
75
62
171
160
146
251
248
234
255
252
238
255
252
238
225
216
201
147
122
105
160
136
120
238
231
217
243
237
223
255
252
238
255
252
238
220
203
186
226
214
205
253
250
249
253
251
250
230
218
210
206
183
165
251
246
232
255
252
238
244
239
225
238
231
217
162
139
123
147
122
105
202
188
173
255
252
238
255
252
238
252
249
235
167
155
141
91
71
58
91
71
58
255
0
255
255
0
255
255
0
255
255
0
255
255
0
255
255
0
255
255
0
255
255
0
255
255
0
255
255
0
255
255
0
255
255
0
255
255
0
255
91
71
58
91
71
58
135
120
107
239
234
220
246
242
228
255
252
238
255
252
238
229
221
206
147
121
104
148
123
106
246
241
227
255
252
238
255
252
238
224
210
194
198
174
156
197
173
155
213
194
177
254
250
236
255
252
238
247
242
228
152
127
110
147
121
104
213
202
187
255
252
238
255
252
238
248
244
230
239
234
220
155
142
129
91
71
58
91
71
58
255
0
255
255
0
255
255
0
255
255
0
255
255
0
255
255
0
255
255
0
255
255
0
255
255
0
255
255
0
255
255
0
255
255
0
255
255
0
255
255
0
255
255
0
255
255
0
255
255
0
255
91
71
58
124
108
95
247
243
229
247
243
229
247
243
229
223
214
200
144
118
101
146
121
104
255
251
237
249
245
231
249
245
231
249
245
231
249
245
231
249
245
231
249
245
231
254
251
237
151
126
109
144
118
102
210
198
183
247
243
229
247
243
229
247
243
229
142
128
114
91
71
58
91
71
58
255
0
255
255
0
255
255
0
255
255
0
255
255
0
255
255
0
255
255
0
255
255
0
255
