P3
# Created by GIMP version 2.10.8 PNM plug-in
22 22
255
250
252
249
250
252
249
250
252
249
195
197
194
250
252
249
195
197
194
250
252
249
250
252
249
250
252
249
250
252
249
250
252
249
195
197
194
250
252
249
250
252
249
250
252
249
250
252
249
250
252
249
195
197
194
250
252
249
195
197
194
250
252
249
250
252
249
250
252
249
250
252
249
195
197
194
195
197
194
250
252
249
250
252
249
195
197
194
250
252
249
250
252
249
250
252
249
195
197
194
250
252
249
195
197
194
250
252
249
250
252
249
250
252
249
195
197
194
250
252
249
250
252
249
195
197
194
195
197
194
250
252
249
250
252
249
250
252
249
195
197
194
195
197
194
250
252
249
250
252
249
195
197
194
195
197
194
250
252
249
195
197
194
250
252
249
250
252
249
195
197
194
195
197
194
250
252
249
195
197
194
195
197
194
250
252
249
250
252
249
195
197
194
195
197
194
250
252
249
250
252
249
250
252
249
195
197
194
125
127
124
195
197
194
250
252
249
195
197
194
195
197
194
195
197
194
250
252
249
250
252
249
250
252
249
250
252
249
195
197
194
195
197
194
195
197
194
250
252
249
250
252
249
125
127
124
195
197
194
195
197
194
250
252
249
250
252
249
250
252
249
195
197
194
195
197
194
125
127
124
195
197
194
195
197
194
250
252
249
195
197
194
250
252
249
250
252
249
250
252
249
250
252
249
250
252
249
195
197
194
195
197
194
195
197
194
195
197
194
195
197
194
125
127
124
195
197
194
250
252
249
250
252
249
250
252
249
195
197
194
195
197
194
195
197
194
195
197
194
250
252
249
250
252
249
195
197
194
250
252
249
250
252
249
250
252
249
250
252
249
250
252
249
195
197
194
250
252
249
250
252
249
195
197
194
195
197
194
195
197
194
195
197
194
250
252
249
250
252
249
250
252
249
195
197
194
195
197
194
195
197
194
250
252
249
250
252
249
250
252
249
125
127
124
250
252
249
250
252
249
250
252
249
195
197
194
250
252
249
195
197
194
250
252
249
250
252
249
250
252
249
195
197
194
195
197
194
195
197
194
250
252
249
250
252
249
250
252
249
195
197
194
195
197
194
250
252
249
250
252
249
250
252
249
250
252
249
125
127
124
250
252
249
250
252
249
195
197
194
250
252
249
250
252
249
195
197
194
250
252
249
250
252
249
250
252
249
250
252
249
195
197
194
195
197
194
250
252
249
250
252
249
195
197
194
195
197
194
250
252
249
250
252
249
195
197
194
250
252
249
250
252
249
125
127
124
250
252
249
250
252
249
195
197
194
250
252
249
250
252
249
195
197
194
250
252
249
250
252
249
195
197
194
250
252
249
250
252
249
195
197
194
195
197
194
195
197
194
250
252
249
250
252
249
250
252
249
195
197
194
250
252
249
250
252
249
125
127
124
125
127
124
250
252
249
250
252
249
195
197
194
250
252
249
250
252
249
195
197
194
250
252
249
250
252
249
250
252
249
195
197
194
250
252
249
250
252
249
195
197
194
195
197
194
250
252
249
250
252
249
195
197
194
250
252
249
250
252
249
125
127
124
125
127
124
125
127
124
250
252
249
250
252
249
195
197
194
250
252
249
250
252
249
195
197
194
125
127
124
125
127
124
250
252
249
250
252
249
195
197
194
250
252
249
195
197
194
195
197
194
250
252
249
195
197
194
250
252
249
125
127
124
125
127
124
195
197
194
195
197
194
125
127
124
125
127
124
250
252
249
195
197
194
250
252
249
195
197
194
195
197
194
195
197
194
125
127
124
125
127
124
250
252
249
195
197
194
250
252
249
195
197
194
195
197
194
195
197
194
250
252
249
125
127
124
125
127
124
195
197
194
61
63
61
61
63
61
250
252
249
125
127
124
250
252
249
195
197
194
250
252
249
195
197
194
61
63
61
61
63
61
250
252
249
125
127
124
125
127
124
250
252
249
195
197
194
125
127
124
195
197
194
195
197
194
125
127
124
125
127
124
195
197
194
61
63
61
61
63
61
250
252
249
195
197
194
195
197
194
125
127
124
195
197
194
250
252
249
195
197
194
61
63
61
250
252
249
195
197
194
61
63
61
125
127
124
250
252
249
125
127
124
195
197
194
250
252
249
125
127
124
195
197
194
195
197
194
250
252
249
250
252
249
61
63
61
125
127
124
195
197
194
195
197
194
125
127
124
195
197
194
195
197
194
195
197
194
61
63
61
125
127
124
195
197
194
250
252
249
125
127
124
125
127
124
125
127
124
195
197
194
250
252
249
125
127
124
195
197
194
195
197
194
250
252
249
250
252
249
250
252
249
250
252
249
250
252
249
250
252
249
195
197
194
125
127
124
125
127
124
250
252
249
250
252
249
250
252
249
250
252
249
250
252
249
250
252
249
250
252
249
195
197
194
195
197
194
250
252
249
250
252
249
250
252
249
195
197
194
250
252
249
250
252
249
250
252
249
250
252
249
250
252
249
250
252
249
250
252
249
250
252
249
250
252
249
250
252
249
250
252
249
250
252
249
250
252
249
250
252
249
250
252
249
195
197
194
195
197
194
250
252
249
250
252
249
250
252
249
250
252
249
195
197
194
195
197
194
250
252
249
125
127
124
125
127
124
250
252
249
250
252
249
125
127
124
125
127
124
125
127
124
250
252
249
250
252
249
125
127
124
125
127
124
250
252
249
195
197
194
250
252
249
250
252
249
250
252
249
250
252
249
250
252
249
250
252
249
250
252
249
250
252
249
195
197
194
250
252
249
125
127
124
250
252
249
250
252
249
250
252
249
125
127
124
250
252
249
250
252
249
250
252
249
125
127
124
250
252
249
195
197
194
250
252
249
250
252
249
250
252
249
250
252
249
250
252
249
250
252
249
250
252
249
250
252
249
250
252
249
195
197
194
195
197
194
195
197
194
125
127
124
125
127
124
125
127
124
250
252
249
125
127
124
125
127
124
125
127
124
195
197
194
195
197
194
250
252
249
250
252
249
250
252
249
250
252
249
250
252
249
250
252
249
250
252
249
250
252
249
250
252
249
250
252
249
195
197
194
125
127
124
195
197
194
195
197
194
195
197
194
250
252
249
250
252
249
250
252
249
195
197
194
195
197
194
195
197
194
125
127
124
250
252
249
250
252
249
250
252
249
250
252
249
250
252
249
250
252
249
250
252
249
250
252
249
250
252
249
250
252
249
195
197
194
125
127
124
125
127
124
125
127
124
195
197
194
195
197
194
250
252
249
195
197
194
195
197
194
125
127
124
125
127
124
125
127
124
250
252
249
250
252
249
250
252
249
250
252
249
250
252
249
