/* XPM */
static char *dummy[]={
"16 16 208 2",
"aW c #0019cf",
"a8 c #0019d0",
"aO c #001ad0",
".x c #001bcf",
"aF c #001dcf",
"aD c #001dd0",
".8 c #001ecf",
"bk c #001ed0",
".0 c #001fce",
"a. c #001fcf",
".3 c #001fd0",
"#3 c #0020cf",
"#k c #0020d0",
"#. c #0021ce",
"#r c #0021cf",
"#f c #0021d0",
".E c #0022cc",
"aY c #0022ce",
".O c #0022cf",
"#x c #0022d0",
".U c #0023ce",
"#m c #0023cf",
"#D c #0023d0",
"al c #0024ce",
"aj c #0024cf",
"ar c #0024d0",
".L c #0025cd",
".9 c #0025ce",
".i c #0026cc",
".w c #0026cd",
".Z c #0026cf",
"#P c #0026d0",
"ap c #0027cd",
".G c #0027ce",
"au c #0027cf",
"aX c #0028cc",
".F c #0029ce",
"#y c #0029d0",
".B c #002ace",
"#J c #002ad0",
".p c #002bc9",
"ay c #002bcd",
"#q c #002bcf",
"#2 c #002bd0",
"ah c #002ccf",
"#S c #002cd0",
"aT c #002dc4",
"#I c #002dce",
"#l c #002dcf",
"a5 c #002eb3",
"a# c #002ece",
"#c c #002ecf",
"ab c #002ed0",
".V c #002fc6",
".A c #002fcd",
".P c #002fcf",
".T c #0030cc",
"aL c #0030cd",
"a3 c #0030ce",
"#g c #0030d0",
"aA c #0031ca",
"#9 c #0031cf",
"aQ c #0032cc",
"#H c #0032ce",
"aB c #0032d0",
"#1 c #0033ce",
"#u c #0033cf",
"#C c #0033d0",
".Y c #0034c9",
"bb c #0034ca",
"#p c #0034cf",
"aI c #0035c7",
".K c #0035cb",
"#v c #0035cf",
"ad c #0035d0",
"az c #0036c3",
"a4 c #0036c7",
".j c #0036c8",
"aS c #0036c9",
"aw c #0036cc",
".7 c #0037cc",
"#b c #0037cf",
"aN c #0037d0",
"#e c #0038cd",
"#T c #0038cf",
".4 c #0038d0",
"#0 c #0039ce",
"#O c #0039d0",
"aU c #003ac3",
"b. c #003ac6",
"am c #003ace",
"#h c #003ad0",
".M c #003bc9",
"#t c #003bcd",
".r c #003bce",
"an c #003bcf",
"#Y c #003bd0",
"ax c #003cc9",
"as c #003cd0",
"be c #003dcd",
".c c #003dce",
"#K c #003dd0",
"a1 c #003ec2",
".H c #003ec5",
"#j c #003ecb",
".N c #003ecd",
"#4 c #003ed0",
".f c #003fc7",
"a2 c #003fc9",
".y c #003fcb",
"#Q c #003fcc",
".1 c #0040c7",
"aE c #0040cf",
"af c #0041cb",
"#Z c #0041cd",
"#R c #0041ce",
"aP c #0041cf",
"#o c #0042b9",
".l c #0042c2",
".v c #0042c4",
"aH c #0042c7",
".2 c #0042cb",
"aM c #0042cd",
"ae c #0042ce",
"#6 c #0042cf",
"#7 c #0043c8",
".S c #0043cc",
".5 c #0043cf",
"aR c #0044c2",
"ai c #0044cf",
".o c #0045c6",
"#8 c #0045ce",
"aK c #0046c9",
"#5 c #0046cf",
"aJ c #0047c2",
"aG c #0047c9",
"#w c #0047ce",
"#z c #0047cf",
"#V c #0047d0",
".g c #0048c1",
".h c #0048c4",
".q c #0048cc",
"#U c #0048d0",
"#a c #0049b3",
".m c #0049ca",
"aC c #004acc",
"aq c #004ace",
"aa c #004ad0",
".I c #004bb3",
".z c #004bca",
"#s c #004cc8",
"bg c #004cca",
"#G c #004cce",
"#F c #004ccf",
".X c #004db3",
"#N c #004ecd",
".J c #0050af",
".W c #0050b1",
"#A c #0050cb",
"#i c #0050cc",
".s c #0051cb",
"#W c #0051cf",
"#B c #0052b7",
"## c #0053b7",
"bf c #0053ce",
"bd c #0054c1",
"a9 c #0054c7",
"ak c #0054c9",
"#d c #0054ca",
".C c #0054cd",
"#X c #0055cd",
"av c #0056c6",
".# c #0057bd",
".6 c #0057ca",
"ac c #0057ce",
".k c #0058c5",
".e c #0058cb",
"ag c #0058cc",
".a c #0059a3",
"#n c #0059b2",
"bi c #0059bb",
"ba c #0059cc",
"b# c #0059ce",
"#L c #0059d0",
".b c #005ac0",
"aV c #005ac2",
".t c #005ac8",
"bj c #005acb",
"a7 c #005acd",
"aZ c #005ace",
"#M c #005bc0",
"bl c #005dbf",
"a6 c #005ec0",
".u c #005ec3",
"a0 c #005ec7",
"#E c #005ecb",
".d c #005ece",
"at c #005ecf",
"bn c #0060c1",
".R c #0061ce",
"Qt c #0062c9",
".Q c #0062cd",
".n c #0063cc",
".D c #0063ce",
"ao c #0063cf",
"bh c #0133bf",
"bm c #014ca1",
"bc c #0153b9",
"Qt.#.a.b.c.d.e.f.g.h.i.j.k.l.m.n",
".o.p.q.r.s.t.u.v.w.x.y.z.A.B.C.D",
".E.F.G.H.I.J.K.L.x.M.N.O.P.Q.R.S",
".T.U.V.W.X.Y.Z.0.1.2.3.4.5.6.7.8",
".9#.###a#b#c.G#d#e#f#g#h#i#j#k#l",
"#m#n#o#p#q#r#s#t#u.P#v#w.r#x#y#z",
"#A#B#e#C#D#E.r#F#G#H.c#I#J#K#L#y",
"#M#N#O#P#i#Q#R#b#S#T.9#y#J#U#V#W",
"#X#Y#x.N#Z#0#1#2#0#3#l#y#V#4#S#5",
"#6#f.N#7#8#9#q.5a.a#.B.4aa#Cabac",
"adaeafagah#uai.Oajakal#0amajanao",
"#capaqarasataua.avawaxayazaA.5aB",
"#3aCar#kaDaEaFaGaHaI.iaJaKahaFaL",
"aMaN#DaOaPaQaRaSaLaTaUaVaLaWaXaY",
"aZ#Sar#Ja0a1a2a3a4a5a6a7a8.Ga9b.",
"b#babbbcbdbebfbgbhbibj#Dbkblbmbn"};
