/* XPM */
static char *dummy[]={
"16 16 3 1",
". c #4e2e00",
"a c #885000",
"# c #e8dbbb",
"................",
".##############.",
".#aaaaaaaaaaaa#.",
".#a##########a#.",
".#a#aaaaaaaa#a#.",
".#a#a######a#a#.",
".#a#a#aaaa#a#a#.",
".#a#a#a##a#a#a#.",
".#a#a#a##a#a#a#.",
".#a#a#aaaa#a#a#.",
".#a#a######a#a#.",
".#a#aaaaaaaa#a#.",
".#a##########a#.",
".#aaaaaaaaaaaa#.",
".##############.",
"................"};
