/* XPM */
static char * head_16x16_xpm[] = {
"16 16 8 1",
" 	c None",
".	c #CACEDE",
"+	c #030633",
"@	c #FEFFFC",
"#	c #B82325",
"$	c #A51815",
"%	c #F90F0F",
"&	c #FF00FF",
".++@++@@@.+..+++",
".@@+.+@@.+@.++@@",
".@+@++@@+@@++@+@",
".+@#+++.+@+@+$@+",
"++@%+@@+@@@@+%@+",
".+@%%+@@@@@@%%++",
"+.+++@@@@@@+++@@",
"+.@+@@@@@@@@@@@@",
"+@+@@@@@@@@@@@@@",
"+@+@@@@@@@@@@+@@",
"++@@+@@@+@@@@+@@",
"&+@@@+++@@@@+@@@",
"&++@@@+@@@@+@@@@",
"&&+++++++++@@@@@",
"&&&++@+@+@@@@@@+",
"&&&&+++++@@@+++."};
