/* XPM */
static char * salt_xpm[] = {
"16 16 124 2",
"  	c #C8C8C8",
". 	c #C7C7C7",
"+ 	c #BFBFBF",
"@ 	c #C9C9C9",
"# 	c #C5C5C5",
"$ 	c #BEBEBE",
"% 	c #ADADAD",
"& 	c #CBCBCB",
"* 	c #D1D1D1",
"= 	c #CDCDCD",
"- 	c #CFCFCF",
"; 	c #D2D2D2",
"> 	c #D0D0D0",
", 	c #BBBBBB",
"' 	c #808080",
") 	c #858585",
"! 	c #8E8E8E",
"~ 	c #8B8B8B",
"{ 	c #878787",
"] 	c #888888",
"^ 	c #636363",
"/ 	c #747474",
"( 	c #898989",
"_ 	c #8A8A8A",
": 	c #959595",
"< 	c #979797",
"[ 	c #ACACAC",
"} 	c #6F6F6F",
"| 	c #3E3E3E",
"1 	c #434343",
"2 	c #424242",
"3 	c #454545",
"4 	c #F6F6F6",
"5 	c #FFFFFF",
"6 	c #404040",
"7 	c #3F3F3F",
"8 	c #444444",
"9 	c #797979",
"0 	c #B6B6B6",
"a 	c #9B9B9B",
"b 	c #666666",
"c 	c #3B3B3B",
"d 	c #363636",
"e 	c #E0E0E0",
"f 	c #EFEFEF",
"g 	c #F8F8F8",
"h 	c #373737",
"i 	c #3C3C3C",
"j 	c #FEFAFA",
"k 	c #A4A4A4",
"l 	c #7A7A7A",
"m 	c #505050",
"n 	c #565656",
"o 	c #F0F0F0",
"p 	c #F4F3F0",
"q 	c #F5F5F6",
"r 	c #D2D6D1",
"s 	c #C6C6C6",
"t 	c #4D4D4D",
"u 	c #5A5A5A",
"v 	c #FFFFF2",
"w 	c #EDEDED",
"x 	c #FFFFFC",
"y 	c #C1C1C1",
"z 	c #8F8F8F",
"A 	c #D5D5D5",
"B 	c #CACACA",
"C 	c #E6E6E6",
"D 	c #515151",
"E 	c #F8F6F9",
"F 	c #EFEDE9",
"G 	c #838383",
"H 	c #B5B5B5",
"I 	c #7B7B7B",
"J 	c #D9D9D9",
"K 	c #DBDBDB",
"L 	c #D7D7D7",
"M 	c #F5F5F5",
"N 	c #FCFCFC",
"O 	c #E7E8F1",
"P 	c #FBFBFB",
"Q 	c #FDFDFD",
"R 	c #909090",
"S 	c #A6A6A6",
"T 	c #F3F3F3",
"U 	c #E8E8E8",
"V 	c #E9E9E9",
"W 	c #DDDDDD",
"X 	c #FFFFFE",
"Y 	c #FAFAFA",
"Z 	c #575757",
"` 	c #CCCCCC",
" .	c #A9A9A9",
"..	c #7D7D7D",
"+.	c #E4E4E4",
"@.	c #E5E5E5",
"#.	c #EEEEEE",
"$.	c #ECECEC",
"%.	c #7E7E7E",
"&.	c #B9B9B9",
"*.	c #F7F7F7",
"=.	c #F2F2F2",
"-.	c #FAFAFB",
";.	c #4A4A4A",
">.	c #B3B3B3",
",.	c #4C4C4C",
"'.	c #DBEEEC",
").	c #D8D8D8",
"!.	c #8D8D8D",
"~.	c #B2B2B2",
"{.	c #414141",
"].	c #DCDDE7",
"^.	c #C3C3C3",
"/.	c #4E4E4E",
"(.	c #464646",
"_.	c #646464",
":.	c #5D5D5D",
"<.	c #6B6B6B",
"[.	c #949494",
"}.	c #8C8C8C",
"|.	c #989898",
"1.	c #939393",
"2.	c #969696",
"3.	c #CECECE",
"  . + . @ # $ % $ . & * = - ; > ",
", ' ) ! ~ { ] ^ / ) ( _ { : < . ",
"[ } | 1 2 3 4 5 5 6 7 8 3 8 9 0 ",
"a b c d c e f 5 g h i 7 6 j / . ",
"k l 2 i 7 5 5 5 5 m n o p q r s ",
"$ ) t ^ u 5 5 5 5 u 5 v 5 w x s ",
"y z A   B 5 g C 4 D E f g F G 0 ",
"H I J K - L M J N 5 O P Q g R - ",
"S T U V W C 5 L 5 5 X Y 5 Z _ ` ",
" ...T +.@.U w L #.5 5 5 $.m %.. ",
"&...1 o e T 5 *.=.5 -.*.;.m _ . ",
">...D ,.U *.5 5 5 5 '.).;.,.!.` ",
"~./ {.t #.e =.T 5 5 ].3 u b < - ",
"^.] /.(.m +.T T =.K n _.:.<.[.* ",
"& ' I ' ] G T T R }.|.1.2.~ ! 3.",
"s # y s # y . B   @ B 3.= = - > "};
