/* XPM */
static char * clock_xpm[] = {
"16 16 142 2",
"  	c #FD7FFD",
". 	c #FB7EFB",
"+ 	c #FF87FF",
"@ 	c #F57BF5",
"# 	c #E171E1",
"$ 	c #E573E5",
"% 	c #EF78EF",
"& 	c #F77CF7",
"* 	c #FF86FF",
"= 	c #FF80FF",
"- 	c #ED77ED",
"; 	c #DF70DF",
"> 	c #D56BD5",
", 	c #F37AF3",
"' 	c #FF92FF",
") 	c #FF13FF",
"! 	c #FF0DFF",
"~ 	c #FF03FF",
"{ 	c #FF07FF",
"] 	c #FB00FB",
"^ 	c #FF0BFF",
"/ 	c #FF00FF",
"( 	c #FF05FF",
"_ 	c #E700E7",
": 	c #EB00EB",
"< 	c #E900E9",
"[ 	c #EB76EB",
"} 	c #FF9BFF",
"| 	c #FF3FFF",
"1 	c #C925C9",
"2 	c #CF3DCF",
"3 	c #C927C9",
"4 	c #C821C8",
"5 	c #7F7F7F",
"6 	c #777777",
"7 	c #656666",
"8 	c #545455",
"9 	c #B400B4",
"0 	c #A400A4",
"a 	c #B300B3",
"b 	c #A800A8",
"c 	c #E975E9",
"d 	c #FFADFF",
"e 	c #FF39FF",
"f 	c #D043D0",
"g 	c #777776",
"h 	c #FFFFFF",
"i 	c #444444",
"j 	c #333233",
"k 	c #212221",
"l 	c #BF00BF",
"m 	c #C107C1",
"n 	c #FF84FF",
"o 	c #FFA4FF",
"p 	c #FF3DFF",
"q 	c #CB2FCB",
"r 	c #00FF00",
"s 	c #101110",
"t 	c #000000",
"u 	c #C71DC7",
"v 	c #FF1DFF",
"w 	c #FF95FF",
"x 	c #FFAEFF",
"y 	c #FF73FF",
"z 	c #D041D0",
"A 	c #00F500",
"B 	c #FEFEFF",
"C 	c #C823C8",
"D 	c #FF33FF",
"E 	c #FFABFF",
"F 	c #FF5DFF",
"G 	c #787778",
"H 	c #EEEEED",
"I 	c #FF35FF",
"J 	c #FF9DFF",
"K 	c #FFB3FF",
"L 	c #FF4DFF",
"M 	c #787878",
"N 	c #FB0000",
"O 	c #EB0000",
"P 	c #DDDDDD",
"Q 	c #CCCCCB",
"R 	c #FFA5FF",
"S 	c #FF55FF",
"T 	c #676667",
"U 	c #FF0000",
"V 	c #CCCCCC",
"W 	c #BBBBBB",
"X 	c #FF2DFF",
"Y 	c #FF8FFF",
"Z 	c #FF27FF",
"` 	c #565656",
" .	c #454545",
"..	c #EEEFEE",
"+.	c #DEDDDD",
"@.	c #CCCCCD",
"#.	c #BBBCBB",
"$.	c #FF15FF",
"%.	c #FF8AFF",
"&.	c #FF11FF",
"*.	c #C517C5",
"=.	c #343434",
"-.	c #EEEEEF",
";.	c #DDDDDE",
">.	c #BBBBBC",
",.	c #AAAAAA",
"'.	c #A200A2",
").	c #FF89FF",
"!.	c #F900F9",
"~.	c #232324",
"{.	c #121212",
"].	c #EEEFEF",
"^.	c #DEDEDD",
"/.	c #CDCDCD",
"(.	c #B100B1",
"_.	c #E500E5",
":.	c #C003C0",
"<.	c #010101",
"[.	c #CDCDCC",
"}.	c #BCBCBC",
"|.	c #B000B0",
"1.	c #F97DF9",
"2.	c #FF17FF",
"3.	c #BD00BD",
"4.	c #C515C5",
"5.	c #C105C1",
"6.	c #C71FC7",
"7.	c #C413C4",
"8.	c #C30DC3",
"9.	c #F179F1",
"0.	c #FF8BFF",
"a.	c #FF19FF",
"b.	c #FF29FF",
"c.	c #FF1FFF",
"d.	c #FF21FF",
"e.	c #FF1BFF",
"f.	c #FF8DFF",
"g.	c #FF8CFF",
"h.	c #FF8EFF",
"i.	c #FF90FF",
"j.	c #FF88FF",
"k.	c #FF83FF",
"  . + @ # $ % & * = & - ; # > , ",
"' ) ! ~ { ] ! ! ^ / ( / _ : < [ ",
"} | 1 2 3 4 5 6 7 8 9 0 a b _ c ",
"d e 2 f 5 5 g h h i j k l m / n ",
"o p q 5 5 h h r h h h s t u v w ",
"x y z 5 h h h r A h h B t C D } ",
"E F 5 G h h h r r h h H t t I J ",
"K L M h h h h t t N O P Q t e o ",
"R S T h h h h t t U P V W t X Y ",
"w Z `  .h h h h ..+.@.#.t t $.w ",
"%.&.*.=.h h h -.;.V >.,.t '.! ).",
"% !.a ~.{.h ].^./.W ,.t t (._.c ",
"& / :.a <.t t [.}.t t t |.9 : 1.",
"* 2.3.4.|.5.t t t t 4 6.7.8.!.9.",
"0./ { a.) ! a.&.( &.b.c.d.e.^ & ",
"f.g.h.Y Y i.j.%.f.g.Y Y k.).).* "};
