/* XPM */
static char * globe_xpm[] = {
"16 16 184 2",
"  	c #7BF5F5",
". 	c #86FFFF",
"+ 	c #82FFFF",
"@ 	c #78EFEF",
"# 	c #7FFDFD",
"$ 	c #7CF7F7",
"% 	c #74E7E7",
"& 	c #89FFFF",
"* 	c #83FFFF",
"= 	c #05FFFF",
"- 	c #03FFFF",
"; 	c #23FFFF",
"> 	c #3DFFFF",
", 	c #2DFFFF",
"' 	c #19FFFF",
") 	c #0FFFFF",
"! 	c #00F3F3",
"~ 	c #00FBFB",
"{ 	c #09FFFF",
"] 	c #98FFFF",
"^ 	c #A6FFFF",
"/ 	c #11C4C4",
"( 	c #09C2C2",
"_ 	c #21C8C8",
": 	c #2BCACA",
"< 	c #1201B0",
"[ 	c #2716C5",
"} 	c #2A19C8",
"| 	c #2817C6",
"1 	c #13C4C4",
"2 	c #03C0C0",
"3 	c #17C5C5",
"4 	c #23C8C8",
"5 	c #2BFFFF",
"6 	c #99FFFF",
"7 	c #AFFFFF",
"8 	c #5BFFFF",
"9 	c #3BCECE",
"0 	c #49D2D2",
"a 	c #52C247",
"b 	c #4FC143",
"c 	c #1E0DBC",
"d 	c #3827D6",
"e 	c #6FCC65",
"f 	c #1706B5",
"g 	c #37A52C",
"h 	c #3EB831",
"i 	c #55D5D5",
"j 	c #4DFFFF",
"k 	c #ABFFFF",
"l 	c #B2FFFF",
"m 	c #5FFFFF",
"n 	c #53D4D4",
"o 	c #39AA2D",
"p 	c #67CA5D",
"q 	c #3524D3",
"r 	c #402FDE",
"s 	c #4231E0",
"t 	c #0D00AB",
"u 	c #1100AF",
"v 	c #54C348",
"w 	c #4EC142",
"x 	c #65FFFF",
"y 	c #A3FFFF",
"z 	c #4FD3D3",
"A 	c #3CB330",
"B 	c #339728",
"C 	c #349C29",
"D 	c #3A29D8",
"E 	c #4C3BEA",
"F 	c #3F2EDD",
"G 	c #78CF6F",
"H 	c #5BC550",
"I 	c #604FFE",
"J 	c #5DD7D7",
"K 	c #B6FFFF",
"L 	c #AAFFFF",
"M 	c #61FFFF",
"N 	c #2B1AC9",
"O 	c #5C4BFA",
"P 	c #4332E1",
"Q 	c #5342F1",
"R 	c #3FBB32",
"S 	c #4635E4",
"T 	c #329628",
"U 	c #53FFFF",
"V 	c #B4FFFF",
"W 	c #A1FFFF",
"X 	c #41FFFF",
"Y 	c #2615C4",
"Z 	c #7160FF",
"` 	c #5F4EFD",
" .	c #2C1BCA",
"..	c #3423D2",
"+.	c #6655FF",
"@.	c #45BD38",
"#.	c #3CB22F",
"$.	c #329527",
"%.	c #59FFFF",
"&.	c #9AFFFF",
"*.	c #8BFFFF",
"=.	c #13FFFF",
"-.	c #0200A0",
";.	c #1605B4",
">.	c #73CE6A",
",.	c #5948F7",
"'.	c #5B4AF9",
").	c #46BE3A",
"!.	c #66C95B",
"~.	c #3BB02F",
"{.	c #63C858",
"].	c #3FFFFF",
"^.	c #9EFFFF",
"/.	c #85FFFF",
"(.	c #0DFFFF",
"_.	c #297A20",
":.	c #287720",
"<.	c #301FCE",
"[.	c #4D3CEB",
"}.	c #6C5BFF",
"|.	c #6251FF",
"1.	c #174412",
"2.	c #12360E",
"3.	c #22661B",
"4.	c #1E5A18",
"5.	c #1BFFFF",
"6.	c #8AFFFF",
"7.	c #77EDED",
"8.	c #00F9F9",
"9.	c #0DC3C3",
"0.	c #36A02A",
"a.	c #1908B7",
"b.	c #1B0AB9",
"c.	c #5E4DFC",
"d.	c #8574FF",
"e.	c #7261FF",
"f.	c #1A4D14",
"g.	c #319227",
"h.	c #11FFFF",
"i.	c #79F1F1",
"j.	c #00BFBF",
"k.	c #37A32B",
"l.	c #3AAD2E",
"m.	c #2110BF",
"n.	c #4E3DEC",
"o.	c #8271FF",
"p.	c #7463FF",
"q.	c #3D2CDB",
"r.	c #200FBE",
"s.	c #48BE3B",
"t.	c #3AAC2E",
"u.	c #00ADAD",
"v.	c #00E1E1",
"w.	c #5DC652",
"x.	c #4CC040",
"y.	c #5A49F8",
"z.	c #6E5DFF",
"A.	c #0900A7",
"B.	c #42BC35",
"C.	c #00B6B6",
"D.	c #00FDFD",
"E.	c #8EFFFF",
"F.	c #29FFFF",
"G.	c #1FC7C7",
"H.	c #00B7B7",
"I.	c #6A59FF",
"J.	c #0F00AD",
"K.	c #1BC6C6",
"L.	c #07C1C1",
"M.	c #0BFFFF",
"N.	c #9FFFFF",
"O.	c #1DFFFF",
"P.	c #17FFFF",
"Q.	c #27FFFF",
"R.	c #2FFFFF",
"S.	c #3BFFFF",
"T.	c #25FFFF",
"U.	c #91FFFF",
"V.	c #90FFFF",
"W.	c #87FFFF",
"X.	c #8DFFFF",
"Y.	c #93FFFF",
"Z.	c #94FFFF",
"`.	c #8CFFFF",
"  . + @ + . # . # $   % % # . & ",
"* = - ; ; > , ' ) = = ! ~ { ; ] ",
"^ ; / ( _ : < [ } | 1 2 3 4 5 6 ",
"7 8 9 0 a b c d e f g h 0 i j k ",
"l m n o p h q r s t u v w i x y ",
"k 8 z A B C D E F v G H I J m K ",
"L M N B O P Q I F R a d S T U V ",
"W X Y D R w Z `  ...+.@.#.$.%.&.",
"*.=.-.;.s >.,.'.s ).!.~.H {.].^.",
"/.(._.:.<.[ [.}.|.1.2.3.g 4.5.6.",
"7.8.9.0.a.b.c.d.e.f.g.0.h 2 h.. ",
"i.! j.k.l.m.n.o.p.q.r.s.t.u.v.i.",
"& - ( 3 w.x.y.z.s A.< B.C.u.D.+ ",
"E.F.G.H.j.j.I.I q J.4 : K.L.M./.",
"N.O.= ~ =.P.' ; Q.R.S.T.P.F.) 6.",
"E.E.U.V.W.E.X.V.Y.Z.Y.&.6 U.*.`."};
