/* XPM */
static char *dummy[]={
"16 16 3 1",
"# c None",
". c None",
"a c #000000",
"................",
"#aaaaa###aaaaa##",
"#a######a#####a#",
"#a######a#####a#",
"#a######a#####a#",
"#a######a#####a#",
"#aaaaa##a#####a#",
"#####a##a#####a#",
"#####a##a#####a#",
"#####a##a###a#a#",
"#####a##a####a##",
"#aaaaa###aaaa#a#",
"###.....#######a",
"###......#######",
"................",
"................"};
