/* XPM */
static char * type_library_xpm[] = {
"16 16 10 1",
" 	c None",
".	c #BF0000",
"+	c #FF0000",
"@	c #800000",
"#	c #00BF00",
"$	c #00FF00",
"%	c #008000",
"&	c #0000BF",
"*	c #0000FF",
"=	c #000080",
"                ",
"   . .          ",
"  .+++.         ",
" .+@@@+.        ",
"  +@ @+  # #    ",
" .+@@@+.#$$$#   ",
"  .+++.#$%%%$#  ",
"   . .  $% %$   ",
"       #$%%%$#  ",
"     & &#$$$#   ",
"    &***&# #    ",
"   &*===*&      ",
"    *= =*       ",
"   &*===*&      ",
"    &***&       ",
"     & &        "};
