/* XPM */
static char * type_console_xpm[] = {
"16 16 5 1",
" 	c None",
".	c #000000",
"+	c #5B5B5B",
"@	c #747474",
"#	c #E6E6E6",
"                ",
"                ",
"................",
".++++++++++++++.",
".+............@.",
".+.###.###.###@.",
".+.#.#.#.#.#..@.",
".+.###.##..#..@.",
".+.#.#.#.#.#..@.",
".+.#.#.###.###@.",
".+............@.",
".+............@.",
".+@@@@@@@@@@@@@.",
"................",
"                ",
"                "};
