/* XPM */
static char * type_multi_xpm[] = {
"16 16 39 1",
" 	c None",
".	c #C00000",
"+	c #FF0000",
"@	c #000000",
"#	c #1A0D00",
"$	c #160B00",
"%	c #170C00",
"&	c #0F0800",
"*	c #321A00",
"=	c #361C00",
"-	c #190D00",
";	c #140A00",
">	c #0D0700",
",	c #381D00",
"'	c #341B00",
")	c #442300",
"!	c #412200",
"~	c #3A1E00",
"{	c #150B00",
"]	c #201100",
"^	c #120900",
"/	c #211100",
"(	c #3D2000",
"_	c #301900",
":	c #422200",
"<	c #080400",
"[	c #1B0E00",
"}	c #251300",
"|	c #3B1E00",
"1	c #391D00",
"2	c #1D0F00",
"3	c #2B1600",
"4	c #351B00",
"5	c #3C1F00",
"6	c #2C1700",
"7	c #2A1600",
"8	c #231200",
"9	c #291500",
"0	c #2E1800",
"    ........    ",
"   ..........   ",
"  ............  ",
" .............. ",
" +............+ ",
"  +..........+  ",
"  @+........+@  ",
"  @ ++++++++ @  ",
"  @ #$%&$*== @  ",
"  @-;%>>,')!~@  ",
"  @{]^^/=(_:)@  ",
"  @><[;}|1~,,@  ",
"  @;];23'45!1@  ",
"   @6786901(@   ",
"    @@@@@@@@    ",
"                "};
