/* XPM */
static char * head_24x24_xpm[] = {
"24 24 12 1",
" 	c None",
".	c #D4C79F",
"+	c #FFFCEE",
"@	c #D69E98",
"#	c #F9F3D7",
"$	c #977957",
"%	c #48454C",
"&	c #F30102",
"*	c #FFFFFF",
"=	c #AA1E1D",
"-	c #FFA39D",
";	c #EE6365",
"     .             .    ",
"    .+.     .     .+.   ",
"   .@++.   .+.   .++@.  ",
"   .@++.. .++.. ..++@.  ",
"   .@@+...#+++...++@@.  ",
"   .@@..+.#++++....@@.  ",
"   .@..++.#++++.++..@.  ",
"   ...+++$#++.#.+++...  ",
"   ..+#++$#+.#+.++++..  ",
"  ..+#.++$#+.#+.++.++.. ",
" .++#.++$$#+.#+.++#.#+. ",
" .+#.++$$$#+.#+.$$+#.#. ",
" .#.+$$..$$+.#...$$+.#. ",
" ..+$$.%&*$+.#.=&*$$+.$ ",
" ..$$.%=*-.$.#.=*-%$+$. ",
"  $..++=;-.$...=;-+$$$. ",
"  $..++++++.$$++++++#.. ",
"    .+++#+++++++#+++..  ",
"    ..#$$++$$$++$$#.    ",
"      .#$###$###$#.     ",
"      ..#$$$*$$$..      ",
"     #.$...***...$#     ",
"    ##.$$$..*..$$$##    ",
"                        "};
