/* XPM */
static char * head_16x16_xpm[] = {
"16 16 7 1",
" 	c None",
".	c #030633",
"+	c #FA1010",
"#	c #EAAAA0",
"$	c #CACEDE",
"%	c #FFCFCC",
"&	c #FEFFFC",
"  ...        .. ",
"  .%&. ... ..%. ",
" .%%&...&..&%%. ",
" .%#.&&&&&.&#%. ",
" .#.&$&&&&&.##. ",
" ..&$&&&&&&&.#. ",
" .$$&&&.&&&&.#. ",
" .$$.&.$.&&&$.. ",
" .$.+.&&+.&&$.  ",
" ..&+&&&+&..$.  ",
"  .&&&&&&&&&..  ",
"  .&.&.&.&&.$.  ",
"  ..&.&&.&&.$.  ",
"   .....&&.$$.  ",
"    ...&&.$$..  ",
"     .......    "};
