/* XPM */
static char * head_32x32_xpm[] = {
"32 32 9 1",
" 	c None",
"+	c #030633",
"@	c #FDCDC9",
"#	c #FEFFFC",
"$	c #EAAAA0",
"%	c #CACEDE",
"&	c #B82325",
"*	c #A51815",
"=	c #F90F0F",
"    +++++                       ",
"    +@+#++                ++++  ",
"   ++@@+#++            ++++@@+  ",
"   +@@@@+#+    ++++   ++#+@@@+  ",
"   +@@$$+#++++++##+++++#+@@@@+  ",
"   +@$$$+#+#########+##+$@@@@+  ",
"  ++@$$+++###########+#+$$@@@+  ",
"  +@$$+###############+$$$@@@+  ",
"  +@$+#################+$$$@@+  ",
"  +$+#####+#############+$$@@+  ",
"  ++###%#+##############+$$@@+  ",
"  ++##%##+####%+#########+$@++  ",
"  +%#%##++###%+%+########+$@+   ",
"  +%%++#++###%+%%+++#####++@+   ",
"  +%%##+%+##%+#%++#######+#++   ",
"  +%%#+#++##+##++#+######+#+    ",
"  +%%+#&+++%+#+#+*#+#####+#+    ",
"  +%++#=+##+####+=#++###+##+    ",
"  ++%+#==+######==++#+##+##+    ",
"   ++%+++######+++####+#+##+    ",
"    +%#+##############%++##+    ",
"    +#+################%+#++    ",
"    +#+##########+#####%+#+     ",
"    ++##+###+####+#####%+#+     ",
"     +###+++####+#####%+#++     ",
"     ++###+####+#####%+##+      ",
"      +++++++++######+###+++    ",
"       ++#+#+######++%%###++    ",
"        +++++###+++%%%%%#++     ",
"          +%++++%%%%%%%+++      ",
"          ++%%%%%%%+++++        ",
"           +++++++++            "};
