/* XPM */
static char * pepper_xpm[] = {
"16 16 113 2",
"  	c #FFFF91",
". 	c #FFFF94",
"+ 	c #FFFF8B",
"@ 	c #FFFF88",
"# 	c #FFFF8A",
"$ 	c #FFFF8F",
"% 	c #FFFF92",
"& 	c #FFFF85",
"* 	c #F9F97D",
"= 	c #FFFF82",
"- 	c #FBFB7E",
"; 	c #FFFF86",
"> 	c #FFFF84",
", 	c #FFFF0F",
"' 	c #FFFF09",
") 	c #FFFF21",
"! 	c #FFFF19",
"~ 	c #FFFF1F",
"{ 	c #FFFF27",
"] 	c #FFFF0D",
"^ 	c #FFFF1D",
"/ 	c #FFFF07",
"( 	c #FFFF23",
"_ 	c #FFFF8E",
": 	c #F3F37A",
"< 	c #FFFF17",
"[ 	c #C7C71D",
"} 	c #C6C619",
"| 	c #C8C821",
"1 	c #CACA2B",
"2 	c #CBCB2D",
"3 	c #C5C517",
"4 	c #CACA29",
"5 	c #C6C61B",
"6 	c #C9C925",
"7 	c #FFFF29",
"8 	c #FFFF97",
"9 	c #FFFF2B",
"0 	c #CCCC31",
"a 	c #09DE09",
"b 	c #CFCF3F",
"c 	c #CECE3B",
"d 	c #CECE39",
"e 	c #D1D145",
"f 	c #D7D75D",
"g 	c #D3D34D",
"h 	c #D1D147",
"i 	c #FFFF57",
"j 	c #FFFFA5",
"k 	c #FFFF89",
"l 	c #CBCB2F",
"m 	c #D4D451",
"n 	c #D5D555",
"o 	c #DADA69",
"p 	c #D8D863",
"q 	c #D8D861",
"r 	c #FFFF65",
"s 	c #FFFFAB",
"t 	c #FFFF93",
"u 	c #36DF00",
"v 	c #17E017",
"w 	c #CFCF3D",
"x 	c #D6D65B",
"y 	c #D7D75F",
"z 	c #FFFF71",
"A 	c #FFFFB2",
"B 	c #FFFF2D",
"C 	c #C10000",
"D 	c #DF0000",
"E 	c #D2D249",
"F 	c #D9D967",
"G 	c #FFFF5F",
"H 	c #FFFF99",
"I 	c #FFFF9F",
"J 	c #D3D34F",
"K 	c #D0D043",
"L 	c #FFFF9C",
"M 	c #FFFF45",
"N 	c #D2D24B",
"O 	c #CCCC33",
"P 	c #FFFF2F",
"Q 	c #FFFFA3",
"R 	c #FFFF5D",
"S 	c #A20000",
"T 	c #D0D041",
"U 	c #FFFF3D",
"V 	c #FFFF3F",
"W 	c #C8C823",
"X 	c #FFFF31",
"Y 	c #FFFF90",
"Z 	c #FFFF33",
"` 	c #C4C413",
" .	c #CDCD35",
"..	c #C4C411",
"+.	c #FFFF83",
"@.	c #FFFF13",
"#.	c #BFBF00",
"$.	c #B1B100",
"%.	c #C3C30F",
"&.	c #C5C515",
"*.	c #C2C20B",
"=.	c #C3C30D",
"-.	c #C7C71F",
";.	c #FDFD7F",
">.	c #EFEF78",
",.	c #FFFF00",
"'.	c #FFFF15",
").	c #FFFF0B",
"!.	c #FFFF1B",
"~.	c #FFFF03",
"{.	c #FFFF80",
"].	c #FFFF8C",
"^.	c #FFFF8D",
"  . . + @ # $ % + . & * = - ; > ",
"$ , ' ) ! ~ { ] , ^ / / ^ ] ( _ ",
": < [ [ } | 1 2 | 3 [ 4 5 6 7 8 ",
"@ 9 0 a b b c 6 d 1 e f g h i j ",
"k , 6 a a c l h m n o p q q r s ",
"t ( 2 u u v 0 c w b x m q y z A ",
"8 B e C D D E 0 w w c w n F G H ",
"I B c C D C e w J K d w E f i L ",
"s M N C D D O x b g g w b O P L ",
"Q R J C D D S m e T h d 6 4 U t ",
"8 V O C D D D S W 0 l N J E X + ",
"Y ~ 0 E S S D D D D D D K 0 Z $ ",
"k ) ` 6 1  .| C C C S D C ..' = ",
"+.@.#.$.3 %.&.%.` *.=.| 6 -.^ ;.",
">.,./ '.).).!., @.~.^ !.] < )   ",
"{.> +.; ].$ > k $ $ ^._ %   Y % "};
