<?xml version="1.0" encoding="UTF-8" standalone="no"?>
<svg
   xmlns:dc="http://purl.org/dc/elements/1.1/"
   xmlns:cc="http://creativecommons.org/ns#"
   xmlns:rdf="http://www.w3.org/1999/02/22-rdf-syntax-ns#"
   xmlns:svg="http://www.w3.org/2000/svg"
   xmlns="http://www.w3.org/2000/svg"
   enable-background="new"
   version="1.1"
   id="svg3223"
   height="2478"
   width="1383">
  <defs
     id="defs3225" />
  <metadata
     id="metadata3228">
    <rdf:RDF>
      <cc:Work
         rdf:about="">
        <dc:format>image/svg+xml</dc:format>
        <dc:type
           rdf:resource="http://purl.org/dc/dcmitype/StillImage" />
        <dc:title></dc:title>
      </cc:Work>
    </rdf:RDF>
  </metadata>
  <g
     style="opacity:1"
     id="layer27">
    <path
       id="path4201"
       d="m 434.43908,424.2022 185.37955,-68.86873 -6.13215,85.85007 c -12.19129,-0.0444 -15.74876,13.50138 -37.26459,1.4151 -5.28694,2.79105 -11.70833,3.31321 -20.75496,-1.41511 24.0645,24.59192 -70.46793,28.39919 -96.69926,5.66045 2.15282,18.48367 -25.18477,-6.17745 -24.52859,-22.64178 z"
       style="fill:#cacede;fill-opacity:1;stroke:none" />
    <path
       id="path4209"
       d="m 555.90278,441.36042 c 5.12832,2.60141 11.02137,3.14324 15.68415,1.70992 1.70411,-1.97046 -3.68933,-6.42895 -6.95763,-11.14399 4.51875,3.68059 8.82272,8.0055 13.62044,10.84918 l -17.62992,5.8963 c -0.41025,-2.08851 -2.84511,-4.7844 -4.71704,-7.31141 z"
       style="fill:#030633;fill-opacity:1;stroke:#030633;stroke-width:1px;stroke-linecap:round;stroke-linejoin:round;stroke-opacity:1" />
    <path
       id="path4211"
       d="m 434.55701,425.26353 c 0.11462,17.37457 16.6925,27.61475 23.34933,28.30222"
       style="fill:none;stroke:#030633;stroke-width:2;stroke-linecap:round;stroke-linejoin:round;stroke-miterlimit:4;stroke-opacity:1;stroke-dasharray:none" />
    <path
       id="path4213"
       d="m 457.72945,453.56575 c 0.41756,-2.91532 0.93037,-5.72588 -0.17689,-10.31851 1.61643,2.90182 3.48961,5.36047 4.94993,5.92072 -1.54403,2.80159 -4.40373,6.18494 -4.77304,4.39779 z"
       style="fill:#030633;fill-opacity:1;stroke:#030633;stroke-width:1px;stroke-linecap:round;stroke-linejoin:round;stroke-opacity:1" />
  </g>
  <g
     id="layer26">
    <path
       id="path4203"
       d="m 613.82587,441.34908 c -11.7493,4.90045 -23.98955,9.81064 -38.81909,0.54201 -0.48008,5.80826 -7.6101,4.13533 -12.736,4.71704 -19.15877,28.28836 -84.42264,13.51644 -100.47288,3.30192"
       style="fill:none;stroke:#030633;stroke-width:3;stroke-linecap:round;stroke-linejoin:round;stroke-miterlimit:4;stroke-opacity:1;stroke-dasharray:none" />
    <path
       id="path4207"
       d="m 602.71558,444.6271 c 4.16793,-3.32375 7.13084,-5.09818 8.96402,-5.4201 l 0.20846,2.96021 z"
       style="fill:#030633;fill-opacity:1;stroke:#030633;stroke-width:1px;stroke-linecap:round;stroke-linejoin:round;stroke-opacity:1" />
  </g>
  <g
     id="layer2" />
  <g
     id="layer51">
    <path
       id="path4063"
       d="m 835.18829,1600.8632 c -9.51006,4.9633 -32.47458,14.1047 -30.94564,33.3525 l -1.7192,-52.9514 z"
       style="fill:#030633;fill-opacity:1;stroke:#030633;stroke-width:1px;stroke-linecap:round;stroke-linejoin:round;stroke-opacity:1" />
  </g>
  <g
     style="display:inline"
     id="layer36">
    <path
       id="path4198"
       d="m 927.30494,2430.8324 c -9.31889,16.4687 -22.28893,22.5925 -39.38737,17.0192 -7.88143,5.8477 -8.28072,16.2998 -31.60714,12.6429 -19.77712,10.2932 -32.53572,15.639 -56.20939,10.1089 -2.38448,-0.5571 -3.67527,-7.4209 -5.5461,-9.6226 -10.60885,7.3754 -30.19051,5.9212 -40.84616,-7.294 -14.9846,14.7004 -46.69279,-13.4557 -38.41483,-29.6621 5.30774,-27.15 19.00998,-50.9422 28.68956,-76.3434 l 12.64286,-77.3159 -0.48627,-72.9396 c 3.99547,-37.0543 -15.19857,-74.4996 -28.20329,-111.8406 l -40.84616,-115.2445 -39.38736,-111.3544 c -6.0689,-36.223 -27.88353,-63.4175 -42.30494,-94.8215 l -33.06594,-75.8571 225.62637,-28.2033 10.6978,58.3517 25.28572,79.2609 26.25824,107.4643 2.91758,78.7747 -2.91758,100.1704 11.67033,83.6373 1.94505,24.7995 17.5055,56.4066 9.23901,20.9093 -2.43132,36.9561 19.93681,53.0027 10.21154,39.3874 z"
       style="fill:#fefffc;fill-opacity:1;stroke:none" />
  </g>
  <g
     id="layer37">
    <path
       id="path4204"
       d="m 713.34889,2424.511 c 30.50713,26.4087 135.68409,39.296 212.01099,0 l -1.45879,12.1566 c -8.63674,9.16 -18.392,16.4025 -35.98352,10.2115 -3.50594,4.5655 -9.54435,19.0105 -31.60714,13.1291 -15.61047,12.8372 -51.45039,24.6711 -62.72802,0.4863 -6.71502,1.8484 -13.732,12.7746 -39.38737,-8.2665 -24.85416,20.4985 -35.47155,-11.5866 -40.84615,-27.717 z"
       style="fill:#cacede;fill-opacity:1;stroke:none" />
    <path
       id="path4206"
       d="m 896.67032,2308.7802 23.34066,62.2418 c -7.45417,-11.8249 -13.63491,-18.5561 -22.36813,-35.4972 -5.9396,-11.4149 -1.93365,-18.7108 -0.97253,-26.7446 z"
       style="fill:#cacede;fill-opacity:1;stroke:none" />
    <path
       id="path4208"
       d="m 539.26648,1573.5495 274.25274,-2.9176 -18.47802,109.4093 c -145.43772,16.1597 -136.84696,38.7372 -199.36813,58.3517 z"
       style="fill:#cacede;fill-opacity:1;stroke:none" />
  </g>
  <g
     id="layer39">
    <path
       id="path4212"
       d="m 713.22733,2421.9581 c 8.87271,47.7742 32.1891,33.2928 40.48145,32.7012 21.83791,16.5099 31.07905,8.3632 40.35989,5.8352 2.54811,20.2026 45.04886,16.6309 59.81044,0 8.69146,2.496 15.90691,7.1443 33.5522,-12.1566 19.45055,3.8901 33.30906,-2.4618 41.08928,-18.0222"
       style="fill:none;stroke:#030633;stroke-width:6;stroke-linecap:round;stroke-linejoin:round;stroke-miterlimit:4;stroke-opacity:1;stroke-dasharray:none" />
    <path
       id="path4220"
       d="m 713.34889,2421.1071 c 4.2681,-19.1742 18.1483,-45.7152 27.23077,-68.5631"
       style="fill:none;stroke:#030633;stroke-width:6;stroke-linecap:round;stroke-linejoin:round;stroke-miterlimit:4;stroke-opacity:1;stroke-dasharray:none" />
    <path
       id="path4222"
       d="m 720.64285,2401.6566 c 14.98072,-40.1578 40.29671,-107.3242 34.03846,-230.9753 8.07104,45.2682 3.02793,81.1691 2.91758,120.5934 -13.20108,102.632 -25.00449,94.7253 -36.95604,110.3819 z"
       style="fill:#030633;fill-opacity:1;stroke:#030633;stroke-width:1px;stroke-linecap:butt;stroke-linejoin:miter;stroke-opacity:1" />
    <path
       id="path4226"
       d="m 899.58791,2269.2713 -1.58037,38.1717"
       style="fill:none;stroke:#030633;stroke-width:5;stroke-linecap:round;stroke-linejoin:round;stroke-miterlimit:4;stroke-opacity:1;stroke-dasharray:none" />
    <path
       id="path4228"
       d="m 908.34065,2337.956 c 19.6719,51.5384 17.81388,42.4388 20.42308,59.3242 0.70387,12.2676 2.8703,27.8556 -0.0912,32.7925"
       style="fill:none;stroke:#030633;stroke-width:6;stroke-linecap:round;stroke-linejoin:round;stroke-miterlimit:4;stroke-opacity:1;stroke-dasharray:none" />
    <path
       id="path4230"
       d="m 899.97651,2307.4322 10.75985,29.9529 -4.56177,1.9082 -10.05437,-31.1491 z"
       style="fill:#030633;fill-opacity:1;stroke:#030633;stroke-width:1px;stroke-linecap:round;stroke-linejoin:round;stroke-opacity:1" />
    <path
       id="path4232"
       d="m 636.36259,1823.6717 73.32396,186.0177 c 33.51123,83.5738 41.80302,133.5217 54.32678,189.1122 -43.26431,-112.2889 -86.20537,-242.8327 -127.65074,-375.1299 z"
       style="fill:#030633;fill-opacity:1;stroke:#030633;stroke-width:1px;stroke-linecap:round;stroke-linejoin:round;stroke-opacity:1" />
    <path
       id="path4234"
       d="m 536.39099,1552.3817 c 17.07246,50.7086 39.06654,138.1612 57.76519,172.6079 21.70635,60.5405 50.93177,96.8962 86.94893,126.4101 6.28135,6.1298 20.17102,11.0556 28.11782,16.5059 -7.55597,-2.3664 -5.04823,-1.7981 -28.18751,-12.6956 -26.451,-14.0004 -62.24813,-29.8109 -86.87924,-113.7161 -25.26801,-34.1863 -53.01398,-149.589 -57.76519,-189.1122 z"
       style="fill:#030633;fill-opacity:1;stroke:#030633;stroke-width:1px;stroke-linecap:round;stroke-linejoin:round;stroke-opacity:1" />
    <path
       id="path4236"
       d="m 810.08794,1580.5766 -7.56449,83.8971 c -5.73282,22.687 -9.0228,52.7025 -13.06593,80.4586 0.0818,-21.6947 -2.65359,-46.2067 0.68768,-64.642 6.64758,-30.2468 13.29516,-57.3214 19.94274,-99.7137 z"
       style="fill:#030633;fill-opacity:1;stroke:#030633;stroke-width:1px;stroke-linecap:round;stroke-linejoin:round;stroke-opacity:1" />
    <path
       id="path3937"
       d="m 903.50498,2268.0201 c -8.90874,-17.6707 -19.73955,-48.0934 -28.23026,-77.1588 l -2.91759,0.4862 c 4.18887,37.4403 15.85017,53.8218 24.55632,78.5316 l 4.28915,6.9662 c 1.03073,-2.9556 1.59175,-4.0332 2.30238,-8.8252 z"
       style="fill:#030633;fill-opacity:1;stroke:#030633;stroke-width:1px;stroke-linecap:round;stroke-linejoin:round;stroke-opacity:1" />
    <path
       id="path3939"
       d="m 868.46702,1947.9725 c 2.03369,81.4466 2.25508,163.933 6.88368,244.5147 l -2.75043,-0.046 c -21.87302,-75.683 -13.54453,-162.3314 -18.72116,-244.3475 -1.55962,-69.8643 -15.65285,-126.0564 -34.03846,-189.7644 -10.25377,-24.1089 -18.69379,-50.7609 -21.88187,-81.9355 l 4.13324,-11.184 c 4.47173,59.7886 10.34138,59.6999 21.63874,94.092 23.33901,60.5554 41.28807,113.8174 44.73626,188.6703 z"
       style="fill:#030633;fill-opacity:1;stroke:#030633;stroke-width:1px;stroke-linecap:round;stroke-linejoin:round;stroke-opacity:1" />
  </g>
  <g
     id="layer40">
    <path
       id="path3965"
       d="m 732.38001,2378.974 10.48713,-1.3754 9.97138,3.0946 -13.23786,20.2866 -8.08025,-14.2694 z"
       style="fill:#777a76;fill-opacity:1;stroke:none" />
    <path
       id="path3967"
       d="m 765.73253,2387.57 c 15.0854,-9.6575 15.47607,-3.9524 21.49002,-4.1261 l -17.8797,18.3955 z"
       style="fill:#777a76;fill-opacity:1;stroke:none" />
    <path
       id="path3969"
       d="m 805.55665,2376.8571 10.21154,-9.6037 7.05083,-0.6686 7.59787,5.8352 -11.85268,13.9193 z"
       style="fill:#777a76;fill-opacity:1;stroke:none" />
    <path
       id="path3972"
       d="m 867.61606,2376.1885 8.14492,1.398 5.53125,4.1333 -7.53709,15.0742 -9.84684,-12.4606 z"
       style="fill:#777a76;fill-opacity:1;stroke:none" />
    <path
       id="path3974"
       d="m 892.71171,2379.6441 8.83761,-9.3996 5.54,2.827 0.52762,11.0957 -2.17643,5.0885 z"
       style="fill:#777a76;fill-opacity:1;stroke:none" />
  </g>
  <g
     id="layer38">
    <path
       id="path3941"
       d="m 732.03617,2380.0055 c 22.11709,-6.6988 23.31904,3.9884 31.28948,8.9398 18.0448,-13.9096 21.85968,-6.6505 29.91411,-2.4068 3.05077,-2.7862 6.8082,-5.9256 11.69057,-9.6276 18.57536,-20.9902 22.60263,-5.6636 26.47571,-4.4699 10.41483,5.1576 11.1452,10.3152 14.78514,15.4728 8.82524,-6.9516 24.52728,-20.182 36.79092,-4.8137 8.80833,-14.5964 25.74866,-23.3561 43.66773,5.1576"
       style="fill:none;stroke:#030633;stroke-width:4;stroke-linecap:round;stroke-linejoin:round;stroke-miterlimit:4;stroke-opacity:1;stroke-dasharray:none" />
    <path
       id="path3943"
       d="m 762.98181,2389.633 c -19.79777,32.3494 -18.20328,52.5479 -6.87681,65.6735"
       style="fill:none;stroke:#030633;stroke-width:4;stroke-linecap:round;stroke-linejoin:round;stroke-miterlimit:4;stroke-opacity:1;stroke-dasharray:none" />
    <path
       id="path3945"
       d="m 793.92744,2387.2261 c -3.6009,25.2229 -3.82017,50.3765 1.0745,73.4959"
       style="fill:none;stroke:#030633;stroke-width:4;stroke-linecap:round;stroke-linejoin:round;stroke-miterlimit:4;stroke-opacity:1;stroke-dasharray:none" />
    <path
       id="path3947"
       d="m 852.59521,2460.722 c 6.44138,-7.8836 5.34689,-30.3267 -6.18176,-72.9071"
       style="fill:none;stroke:#030633;stroke-width:4;stroke-linecap:round;stroke-linejoin:round;stroke-miterlimit:4;stroke-opacity:1;stroke-dasharray:none" />
    <path
       id="path3949"
       d="m 883.32594,2382.4124 c 16.34735,26.2096 8.90351,57.957 3.26649,66.2752"
       style="fill:none;stroke:#030633;stroke-width:4;stroke-linecap:round;stroke-linejoin:round;stroke-miterlimit:4;stroke-opacity:1;stroke-dasharray:none" />
    <path
       id="path3951"
       d="m 805.59894,2377.2357 c 4.86721,5.081 8.78757,8.1022 12.74117,8.6151 6.27329,-2.8475 8.2002,-8.5925 12.03441,-13.066"
       style="fill:none;stroke:#030633;stroke-width:4;stroke-linecap:round;stroke-linejoin:miter;stroke-miterlimit:4;stroke-opacity:1;stroke-dasharray:none" />
    <path
       id="path3953"
       d="m 753.01043,2380.6932 c 1.59246,1.2957 -3.85756,10.8292 -13.40977,19.9427 -6.0783,-4.6811 -7.16795,-13.0476 -6.87681,-20.4585"
       style="fill:none;stroke:#030633;stroke-width:4;stroke-linecap:butt;stroke-linejoin:miter;stroke-miterlimit:4;stroke-opacity:1;stroke-dasharray:none" />
    <path
       id="path3955"
       d="m 766.59213,2386.3665 c -2.00947,5.6707 0.81402,11.1163 2.23496,15.9886 9.71976,-5.8876 12.80639,-12.4386 18.39546,-18.7393"
       style="fill:none;stroke:#030633;stroke-width:4;stroke-linecap:butt;stroke-linejoin:miter;stroke-miterlimit:4;stroke-opacity:1;stroke-dasharray:none" />
    <path
       id="path3959"
       d="m 868.71272,2376.0514 c -3.77575,2.7949 -4.63002,6.1063 -5.1576,8.2521 4.61458,4.298 7.08828,8.596 9.45561,12.894 4.49027,-3.2081 6.79421,-9.1743 8.08025,-15.1289"
       style="fill:none;stroke:#030633;stroke-width:4;stroke-linecap:butt;stroke-linejoin:miter;stroke-miterlimit:4;stroke-opacity:1;stroke-dasharray:none" />
    <path
       id="path3961"
       d="m 892.65464,2379.8358 c 1.55619,-3.9281 3.79553,-7.5148 9.04726,-9.5949 2.28861,0.6863 5.02322,-0.3481 6.15587,4.7975 1.21997,5.2459 -0.26188,9.601 -2.23849,13.7928 -4.4524,-2.1572 -8.98827,-3.7775 -12.96464,-8.9954 z"
       style="fill:none;stroke:#030633;stroke-width:4.49285412;stroke-linecap:butt;stroke-linejoin:miter;stroke-miterlimit:4;stroke-opacity:1;stroke-dasharray:none" />
  </g>
  <g
     id="layer28">
    <path
       id="path7369"
       d="m 15.909903,2409.4106 c 2.283285,-5.6937 9.479058,-15.3835 13.523416,-16.8821 l 26.428116,0.4419 z"
       style="fill:#777976;fill-opacity:1;stroke:#030633;stroke-width:4;stroke-linecap:butt;stroke-linejoin:miter;stroke-miterlimit:4;stroke-opacity:1;stroke-dasharray:none" />
  </g>
  <g
     id="layer30">
    <path
       id="path7375"
       d="m 41.896077,2394.7382 c 4.909447,26.4189 22.196289,33.479 39.06765,32.3501 l 34.294673,-20.8596 -23.511295,-33.0573 z"
       style="fill:#fefffc;fill-opacity:1;stroke:none" />
  </g>
  <g
     id="layer31">
    <path
       id="path7397"
       d="m 44.90128,2403.2235 c 2.02896,-0.3153 4.116528,-0.5427 7.071068,0.5303 15.66938,6.7764 22.225202,13.5529 32.880465,20.3293 l -9.015611,3.5355 -22.804194,-8.662 z"
       style="fill:#cacede;fill-opacity:1;stroke:none" />
  </g>
  <g
     id="layer32">
    <path
       id="path7375-7"
       d="m 40.847117,2393.4864 c 4.909447,26.4189 23.080172,34.8932 39.951533,33.7643 l 34.29468,-20.8596 -23.511302,-33.0573 z"
       style="fill:none;stroke:#030633;stroke-width:4;stroke-linecap:butt;stroke-linejoin:miter;stroke-miterlimit:4;stroke-opacity:1;stroke-dasharray:none" />
  </g>
  <g
     id="layer33">
    <path
       id="path7400"
       d="m 65.25,2394 11.75,-16.5 12.5,-8.75 35.75,0 40.75,-11 36.75,-18.25 38.5,-35.5 18.75,-27.5 25,-46 2,-65.5 -1.25,-78.5 -1,-41.5 0,-67.5 -2.75,-55 -6,-60 -7.5,-67.25 -10,-61.75 -0.25,-55.75 5.25,-88 245,-10.25 -2,31.75 -18.5,58.5 -23.25,68.75 -16.25,40.5 9.25,38.25 4.25,47.25 -2,68.75 -15.25,49.75 -14,63.25 -23.5,125.75 -4.25,47.75 6.5,29.75 8,31.25 12.75,33.5 12.75,27.5 3.5,14 -2,11.25 -12,14.75 -17.5,12.5 -34.75,13.75 -31.75,2 -48,-6 -112.75,23.5 -34.5,7 -48,-0.75 -22.5,-7.75 -10.5,-9.5 -7,-13.25 z"
       style="fill:#fefffc;fill-opacity:1;stroke:none" />
  </g>
  <g
     id="layer34">
    <path
       id="path7403"
       d="m 258.80108,1662.7059 7.07107,-70.7107 237.58788,-0.7071 c -0.96459,50.2046 -27.91157,100.4091 -42.42641,150.6137 -49.78674,-20.9944 -66.1259,-76.2544 -202.23254,-79.1959 z"
       style="fill:#cacede;fill-opacity:1;stroke:none" />
    <path
       id="path7405"
       d="m 364.15999,2347.1852 c 16.55436,-9.6344 31.02548,-16.2208 33.60986,-48.0832 2.31632,26.1496 3.23395,27.7605 -1.4365,35.0018 -5.30947,12.7176 -18.43254,14.416 -32.17336,13.0814 z"
       style="fill:#cacede;fill-opacity:1;stroke:none" />
    <path
       id="path7407"
       d="m 443.0024,2362.7416 c -44.94597,36.3051 -95.31323,29.9144 -109.9551,44.9013 18.93653,0.2052 28.84952,8.3258 67.52869,-7.7782 39.49445,-14.43 35.64328,-25.3454 42.42641,-37.1231 z"
       style="fill:#cacede;fill-opacity:1;stroke:none" />
    <path
       id="path7409"
       d="m 67.528697,2401.986 c 41.957763,16.2723 92.888863,17.5857 142.235693,18.1562 -27.90948,5.2922 -37.00762,17.5703 -91.67756,13.6636 -20.999843,-3.1418 -43.231047,-4.0671 -50.558133,-31.8198 z"
       style="fill:#cacede;fill-opacity:1;stroke:none" />
  </g>
  <g
     id="layer35">
    <path
       id="path7412"
       d="m 94.045202,2369.4591 c 6.395298,-1.7252 18.184458,-1.9092 31.112698,-1.7678 62.01038,-9.6801 117.19699,-47.3051 159.45258,-137.8858"
       style="fill:none;stroke:#030633;stroke-width:5;stroke-linecap:round;stroke-linejoin:round;stroke-miterlimit:4;stroke-opacity:1;stroke-dasharray:none" />
    <path
       id="path7414"
       d="m 65.76093,2392.0865 c -0.323424,26.5017 9.152589,49.0396 91.57033,42.0729 46.94408,-10.9208 94.36996,-21.3599 143.18912,-30.4056 94.92941,24.1875 142.11189,-23.8559 144.95689,-42.4264"
       style="fill:none;stroke:#030633;stroke-width:5;stroke-linecap:round;stroke-linejoin:round;stroke-miterlimit:4;stroke-opacity:1;stroke-dasharray:none" />
    <path
       id="path7416"
       d="m 258.6243,2402.8699 c 15.40311,-1.1942 29.46876,-1.4968 43.48707,-1.7678 22.24754,1.6938 31.42332,4.6948 45.07806,7.2479 -29.51463,-1.8239 -56.7755,-2.7462 -88.56513,-5.4801 z"
       style="fill:#030633;fill-opacity:1;stroke:#030633;stroke-width:1px;stroke-linecap:round;stroke-linejoin:round;stroke-opacity:1" />
    <path
       id="path7418"
       d="m 445.48626,2360.6549 c -0.51081,-35.9156 -15.57934,-34.7396 -41.06362,-125.417"
       style="fill:none;stroke:#030633;stroke-width:5;stroke-linecap:round;stroke-linejoin:round;stroke-miterlimit:4;stroke-opacity:1;stroke-dasharray:none" />
    <path
       id="path7420"
       d="m 403.66861,2228.028 c -2.30477,112.7802 8.08766,77.6427 0,105.559 -3.6884,5.2797 -10.29992,9.3161 -20.39877,11.8485 6.49935,-6.0256 12.39426,-12.1304 15.24117,-19.0691 -0.76762,-35.6215 -0.42819,-69.9779 5.1576,-98.3384 z"
       style="fill:#030633;fill-opacity:1;stroke:#030633;stroke-width:1px;stroke-linecap:round;stroke-linejoin:round;stroke-opacity:1" />
    <path
       id="path3401"
       d="m 269.39011,1806.9561 c 13.8568,147.9649 9.38414,292.0095 13.4974,446.7929 17.87852,-86.4875 7.34685,-169.1166 6.92567,-252.2875 -4.77629,-65.4446 -7.01117,-131.6515 -20.42307,-194.5054 z"
       style="fill:#030633;fill-opacity:1;stroke:#030633;stroke-width:1px;stroke-linecap:round;stroke-linejoin:round;stroke-opacity:1" />
    <path
       id="path4171"
       d="m 266.13246,1582.6396 c -5.58263,12.7405 -19.09046,81.6334 -16.50434,125.1579 5.59902,61.6563 16.19927,134.1264 49.83957,164.3557 -23.73594,-54.4208 -35.67704,-91.9933 -36.08596,-164.3557 z"
       style="fill:#030633;fill-opacity:1;stroke:#030633;stroke-width:1px;stroke-linecap:round;stroke-linejoin:round;stroke-opacity:1" />
    <path
       id="path4181"
       d="m 448.65271,1778.7503 c 9.02782,16.6297 24.05481,69.9328 19.65789,131.2254 -8.87815,65.6497 -44.9116,205.438 -66.01735,312.2071 -0.54899,-121.5756 53.33301,-279.9079 53.6391,-320.4593 5.39419,-33.7376 -2.5488,-92.7435 -7.27964,-122.9732 z"
       style="fill:#030633;fill-opacity:1;stroke:#030633;stroke-width:1px;stroke-linecap:round;stroke-linejoin:round;stroke-opacity:1" />
    <path
       id="path4183"
       d="m 404.09841,2205.4206 c -1.41693,9.2497 -1.65629,19.1515 0.34384,29.3124"
       style="fill:none;stroke:#030633;stroke-width:4;stroke-linecap:round;stroke-linejoin:round;stroke-miterlimit:4;stroke-opacity:1;stroke-dasharray:none" />
    <path
       id="path4185"
       d="m 414.2967,1838.0769 c 36.41988,-37.4063 69.41442,-135.9347 104.5467,-251.8846 l -15.07417,10e-5 c -16.14401,89.9846 -52.03147,192.884 -89.47253,251.8845 z"
       style="fill:#030633;fill-opacity:1;stroke:#030633;stroke-width:1px;stroke-linecap:round;stroke-linejoin:round;stroke-opacity:1" />
  </g>
  <g
     id="layer29">
    <path
       id="path7372"
       d="m 5.6819804,2404.2235 c 20.1133216,-21.6409 50.9647026,-35.232 90.8380956,-35.4715 -10.636288,6.9384 -22.157002,15.2023 -27.930718,25.1023 -31.59596,-5.7866 -40.645395,6.8218 -62.9073776,10.3692 z"
       style="fill:#777976;fill-opacity:1;stroke:#030633;stroke-width:4;stroke-linecap:butt;stroke-linejoin:miter;stroke-miterlimit:4;stroke-opacity:1;stroke-dasharray:none" />
  </g>
  <g
     style="display:inline"
     id="layer41">
    <path
       id="path3977"
       d="M 1056.2777,1263.5558 898.11108,1126.0196 753.69812,502.98085 C 829.00972,427.8194 961.84014,384.4001 1085.1602,461.72 c 18.3185,-4.34413 32.096,-2.05148 38.5102,11.0029 218.0042,-6.40424 288.1803,234.21534 235.3393,388.71848 -46.7196,66.86507 -100.8805,123.45284 -183.0756,129.79281 -18.9022,-2.04491 -44.8895,-18.26026 -67.3927,-27.50723 -18.9515,18.2823 -31.3744,51.79814 -42.6362,88.02314 z"
       style="fill:#fefffc;fill-opacity:1;stroke:none" />
  </g>
  <g
     id="layer42">
    <path
       id="path3980"
       d="m 1177.7308,856.08207 c -99.791,132.82967 69.1523,101.25285 68.5631,110.12399 -15.1899,11.44936 -53.5344,36.48084 -82.6648,17.50549 -24.7551,6.90087 -45.5578,-12.46062 -56.4065,-22.85439 l 19.9367,0.97253 c -42.8155,-40.78008 32.2968,-108.0432 50.5715,-105.74762 z"
       style="fill:#cacede;fill-opacity:1;stroke:#cacede;stroke-linecap:round;stroke-linejoin:round;stroke-opacity:1" />
    <path
       id="path3982"
       d="m 1105.2775,967.30015 c -2.5502,27.40611 -20.5153,56.09425 -18.9643,93.72735 4.1388,73.7571 34.6341,126.1497 41.8187,199.3681 3.1627,28.2033 0.6998,56.4066 -11.6704,84.6099 l 21.3956,-1.945 c 2.5124,18.8382 -15.3173,28.6355 -23.3406,42.7912 14.0334,-5.5862 9.6845,9.7916 4.7764,13.4794 -47.0006,86.5715 -144.18158,172.1504 -285.83687,186.8612 l -8.75274,-116.7033 57.37912,-28.2033 20.42307,-67.1044 c -12.83951,-35.1631 -27.25675,-68.9457 -30.14835,-112.8132 0.11087,-56.9618 16.48097,-103.9178 33.06594,-150.7417 0,0 108.40163,129.6892 137.12633,117.6758 36.5081,-21.7046 -47.62912,-145.1113 62.7281,-261.00205 z"
       style="fill:#cacede;fill-opacity:1;stroke:none" />
    <path
       id="path3984"
       d="m 725.50549,860.68683 76.82967,110.86813 0.97252,285.92304 -40.84615,-1.945 -95.30769,-283.97804 z"
       style="fill:#cacede;fill-opacity:1;stroke:none" />
  </g>
  <g
     id="layer43">
    <path
       id="path3987"
       d="m 826.59228,1579.069 c 61.18425,-0.4427 147.18198,-26.0155 196.02032,-71.6514 51.0082,-35.9337 77.2496,-75.7077 100.1704,-121.0797 l 4.3763,2.9176 c -12.94,27.3809 -50.7913,87.8917 -99.1978,123.0247 -101.27153,76.2191 -144.908,70.5358 -199.3681,80.2335 z"
       style="fill:#030633;fill-opacity:1;stroke:#030633;stroke-width:1px;stroke-linecap:round;stroke-linejoin:round;stroke-opacity:1" />
    <path
       id="path3989"
       d="m 1127.6456,1389.1339 c 1.4542,-2.6284 2.3459,-5.3433 -2.0666,-8.8743 13.0649,-12.0024 16.5651,-27.6447 18.7218,-39.6836 -4.9711,-6.458 -12.0263,-1.8008 -18.2236,-1.7192 3.2335,-23.1661 9.8401,-45.4123 8.5961,-69.7996 -6.1709,-70.9897 -38.6175,-136.9522 -44.6993,-212.8372 -1.2649,-29.3508 10.6451,-59.27447 19.2551,-89.05464 l -3.1806,-3.52436 c -12.1752,29.06767 -23.5219,56.4751 -23.4671,96.877 5.4253,76.891 38.8029,138.7371 40.4013,209.5707 -0.9321,26.5494 -2.7024,53.9893 -15.129,78.3957 2.232,-1.2035 17.4693,-2.407 28.5388,-3.6104 -4.0953,13.1129 -13.5886,34.677 -36.2752,47.7938 19.5045,-2.8305 9.715,-3.052 21.8339,-6.361 z"
       style="fill:#030633;fill-opacity:1;stroke:#030633;stroke-width:1px;stroke-linecap:round;stroke-linejoin:round;stroke-opacity:1" />
    <path
       id="path3999"
       d="m 1176.1026,856.01086 c -27.8676,2.72251 -91.1976,60.88242 -52.3471,105.08943 l 9.239,1.21566 c -42.0684,-21.89861 4.4194,-99.71326 43.1081,-106.30509 z"
       style="fill:#030633;fill-opacity:1;stroke:#030633;stroke-width:1px;stroke-linecap:round;stroke-linejoin:round;stroke-opacity:1" />
    <path
       id="path4002"
       d="m 1098.9998,953.66963 c 12.5291,5.23744 23.8185,6.75614 35.2437,8.68197 -7.5428,0.003 -15.5241,-0.1695 -22.0058,0.25788 0.1262,1.96184 -1.1065,3.47071 -2.3209,4.98568 -3.6615,-4.17118 -8.4958,-6.44693 -10.917,-13.92553 z"
       style="fill:#030633;fill-opacity:1;stroke:#030633;stroke-width:1px;stroke-linecap:round;stroke-linejoin:round;stroke-opacity:1" />
    <path
       id="path4004"
       d="m 1112.3283,964.01787 c 12.2906,8.13168 18.4388,17.79896 52.7596,20.42308 5.1088,-0.29616 3.4612,-0.0744 15.8036,-0.7294 10.8154,-2.39837 15.6244,-4.70156 23.3406,-7.05082 -7.7614,3.63891 -11.2449,5.44444 -23.3406,10.94093 -2.924,2.44677 -8.9719,2.55062 -14.3448,3.16072 -36.5458,0.13194 -48.0309,-20.84041 -57.1078,-23.21172 z"
       style="fill:#030633;fill-opacity:1;stroke:#030633;stroke-width:1px;stroke-linecap:round;stroke-linejoin:round;stroke-opacity:1" />
    <path
       id="path4006"
       d="m 1096.5247,482.37365 c 46.7974,-17.29059 108.0469,-36.97722 209.5797,62.72802 34.5393,40.54662 66.3446,87.53105 73.9121,191.58791 -0.012,44.83213 3.8188,89.07424 -17.0193,127.4011 -24.5536,50.71097 -62.1695,79.65148 -103.0879,103.08791 -32.3697,18.44999 -68.3675,27.74252 -97.0096,28.44643 5.9543,-11.70953 41.9214,-5.17922 93.1195,-35.74039 38.2067,-24.08417 74.0441,-52.01825 97.739,-99.68406 18.5404,-36.71859 18.7911,-79.00363 16.533,-122.0522 -2.9067,-72.15694 -24.645,-136.24318 -72.4533,-189.15659 -91.3328,-96.65689 -156.1381,-68.87729 -201.3132,-66.61813 z"
       style="fill:#030633;fill-opacity:1;stroke:#030633;stroke-width:1px;stroke-linecap:round;stroke-linejoin:round;stroke-opacity:1" />
    <path
       id="path4008"
       d="m 1123.634,474.22873 c -4.2869,-6.75767 -14.8506,-11.11828 -22.0035,-6.92926 0.6928,-1.81433 0.5319,-3.41524 3.647,-5.83516 -7.6316,-0.07 -9.6321,1.39579 -14.1017,2.18818 2.6509,2.852 4.5613,5.78308 5.9567,8.63119 -12.7934,-10.2273 -55.566,-36.5579 -86.1902,-40.72459 -48.2396,-12.22498 -96.95544,-7.30495 -145.8399,3.6852 -41.66107,16.53474 -76.99654,37.08874 -101.18978,66.56262 l -10.2145,-7.07823 c 49.23243,-43.80991 82.43716,-58.14956 111.74812,-65.32967 49.24726,-12.3237 98.2206,-14.78636 146.81986,-3.78225 8.1891,1.84069 56.5243,15.5316 72.5503,33.00868 6.8457,-2.10579 15.5325,-3.18877 28.1949,-2.06304 1.3172,1.35654 2.3257,2.816 1.7192,4.81376 5.7156,-0.15631 9.5739,5.99744 15.8757,11.4683 z"
       style="fill:#030633;fill-opacity:1;stroke:#030633;stroke-width:1px;stroke-linecap:round;stroke-linejoin:round;stroke-opacity:1" />
  </g>
  <g
     style="display:inline"
     id="layer44">
    <path
       id="path4012"
       d="m 318.01648,934.11265 -15.07418,-39.87362 -8.26648,-72.4533 28.2033,14.10165 5.3489,84.12363 z"
       style="fill:#fefffc;fill-opacity:1;stroke:none" />
    <path
       id="path4015"
       d="m 184.78022,1350.8407 17.99176,43.7637 -42.79121,-11.6703 -13.12912,-22.8544 7.29395,-26.2583 10.21154,-22.3681 7.29396,-7.2939 0.48626,-19.9369 9.23901,-8.2664 10.21154,-17.0193 9.23901,-23.8269 19.45055,-20.9093 58.83791,-79.261 23.34066,-34.0385 5.83517,64.6731 -48.62638,100.1703 z"
       style="fill:#fefffc;fill-opacity:1;stroke:none" />
  </g>
  <g
     style="display:inline"
     id="layer45">
    <path
       id="path4018"
       d="m 300.99725,1155.3627 c -16.15001,29.555 -34.49787,55.5385 -43.76374,96.2802 -7.94231,11.2879 -15.88461,21.9302 -23.82692,28.6895 l -23.34066,15.5605 c -1.61545,9.6291 -0.15014,19.8743 -5.83516,28.6895 l -16.50853,23.3112 c -3.38069,5.2535 -11.10861,3.3315 -3.07996,9.8744 8.42324,12.0518 8.72512,21.6047 11.69058,31.9772 -12.26364,-1.4162 -24.52728,-5.6966 -36.79092,-11.6906 l 16.84818,22.6935 21.66194,11.3467 8.59601,0 3.09456,-6.1891 20.97427,7.5645 73.58184,-252.7227 z"
       style="fill:#cacede;fill-opacity:1;stroke:none" />
    <path
       id="path4025"
       d="m 295.35889,832.03609 c 8.93234,4.19889 17.30759,7.42289 24.41267,8.42409 l -4.64185,-39.71356 -22.00578,-4.81377 z"
       style="fill:#cacede;fill-opacity:1;stroke:none" />
  </g>
  <g
     id="layer46">
    <path
       id="path4021"
       d="m 228.31001,1426.5361 -21.49002,-4.9857 -15.12898,-10.8309 39.88549,-2.5788 z"
       style="fill:#777a76;fill-opacity:1;stroke:none" />
    <path
       id="path4023"
       d="m 177.76548,1358.2838 -4.29801,11.0889 -4.298,-4.7279 -1.7192,-11.3467 c 7.62174,6.5771 7.79398,4.3646 10.31521,4.9857 z"
       style="fill:#777a76;fill-opacity:1;stroke:none" />
    <path
       id="path4030"
       d="m 191.69101,1412.1808 c 8.0633,1.0589 16.47354,2.3742 19.42699,-0.3438 l 11.08885,15.043 c -11.25529,-3.0329 -21.74774,-7.2369 -30.51584,-14.6992 z"
       style="fill:none;stroke:#030633;stroke-width:4;stroke-linecap:butt;stroke-linejoin:miter;stroke-miterlimit:4;stroke-opacity:1;stroke-dasharray:none" />
    <path
       id="path4032"
       d="m 211.28991,1411.1493 c 6.53902,0.8649 14.63306,1.1287 18.99718,-3.0087 -2.23762,6.4251 -2.36178,13.1112 -3.50782,19.0997 -5.64044,-5.461 -11.91081,-10.1718 -15.48936,-16.091 z"
       style="fill:none;stroke:#030633;stroke-width:4;stroke-linecap:butt;stroke-linejoin:miter;stroke-miterlimit:4;stroke-opacity:1;stroke-dasharray:none" />
  </g>
  <g
     id="layer47">
    <path
       id="path4028"
       d="m 167.80776,1353.9754 c -1.58465,4.5435 1.90989,14.4318 5.8891,17.0782 1.59881,-5.5152 2.40997,-5.365 4.10122,-13.2064 -2.38924,1.0313 -5.42825,1.5939 -9.99032,-3.8718 z"
       style="fill:none;stroke:#030633;stroke-width:3;stroke-linecap:round;stroke-linejoin:miter;stroke-miterlimit:4;stroke-opacity:1;stroke-dasharray:none" />
    <path
       id="path4036"
       d="m 214.04064,1403.6707 c 4.01147,3.3753 8.02294,3.6953 12.03441,4.9857 1.26751,-10.6698 3.03063,-21.3112 3.09456,-31.9771 -2.84479,-9.2264 -6.04867,-18.4528 -12.72209,-27.6792 l 4.98569,4.4699 c 4.59813,-16.8463 10.29543,-15.0067 15.47281,-22.0058 -4.53846,7.9918 -12.09869,14.6101 -13.40977,24.0689 3.9444,5.3047 5.40629,10.1128 7.90833,15.129 l 6.0172,5.6733 -8.25217,35.5875 -11.80171,-0.069 -29.58933,-0.4169 c -8.53871,-5.8194 -17.80681,-12.506 -26.34551,-22.2072 -4.27002,-5.26 -10.51665,-16.7793 -16.67626,-28.023 0.11143,-12.1467 2.23992,-23.9776 6.87681,-35.4155 5.51033,-7.9754 11.28439,-19.643 16.50434,-23.5531 l 0.8596,-18.5674 c 19.45873,-15.3075 24.05012,-38.261 33.00867,-58.9686 27.64866,-24.8742 46.44999,-55.8309 69.45576,-83.897 10.39027,-14.0003 19.85108,-28.239 28.02299,-42.8082 l 0.34384,9.4556 c -22.57264,34.6031 -46.13905,69.0074 -71.00304,103.1522 -10.11486,8.0057 -15.47281,16.9627 -23.20922,25.4441 -9.3754,17.3261 -14.97734,36.193 -29.22643,49.8569 -2.5143,9.0557 -3.26328,18.8175 -4.21816,28.497 0.92207,13.2952 -0.45931,27.3197 0.95167,40.6149 4.60284,-2.0375 9.18082,-3.8762 14.09746,-8.4241 5.25211,-5.7739 10.32453,-12.4463 14.61321,-23.0373 3.14645,-6.4848 4.3279,-13.6449 6.01721,-20.6304 l 0.51576,-8.4241 c 12.85377,-8.1732 24.33481,-17.17 35.58748,-26.3038 -1.71157,7.4418 -16.05528,18.1089 -32.83676,29.3984 -3.81743,14.9459 -1.60613,34.0655 -12.89401,43.8396 -0.082,5.5355 -0.50409,10.1103 0,18.0516 4.9924,5.6464 8.26356,12.3256 11.69057,18.9113 2.88563,8.6176 5.29186,17.1953 4.33973,25.493 l -8.48667,-0.8632 c 0.88739,-5.8152 0.73447,-11.9772 -0.32298,-18.4407 -2.61813,-10.3423 -8.50978,-20.217 -15.64474,-29.9141 l 5.32953,1.8911 c -1.43812,-2.5204 -0.95765,-5.4245 -0.8596,-8.2522 l -15.2279,10.2423 c -4.53633,1.2635 -8.53537,-2.0399 -12.4304,-6.2273 l 1.01067,-3.6711 c -0.64713,-10.794 -2.80211,-20.834 -1.71921,-32.493 -7.4724,14.9441 -12.74442,29.216 -15.47281,44.1835 11.50496,23.4025 21.21063,27.0128 31.80523,40.4013 7.53796,4.5888 14.51369,8.0531 20.11466,8.7679 1.52096,-1.1105 2.56215,-3.6603 3.43841,-6.7049 z"
       style="fill:#030633;fill-opacity:1;stroke:none" />
    <path
       id="path4046"
       d="M 320.69093,932.89699 C 316.26947,921.03398 310.4634,909.72482 309.0206,896.67035 302.71082,866.37137 298.73148,831.87757 295.64835,795.77062 l -5.83517,-0.97253 c 1.48905,28.68956 1.81862,57.37913 6.32143,86.06869 4.65374,25.34091 12.34083,43.604 18.72116,64.9162 z"
       style="fill:#030633;fill-opacity:1;stroke:#030633;stroke-width:1px;stroke-linecap:round;stroke-linejoin:round;stroke-opacity:1" />
  </g>
  <g
     style="display:inline"
     id="layer48">
    <path
       id="path4049"
       d="m 301.48351,1163.1429 285.92308,5.8351 79.74725,44.7363 40.84615,-34.0385 7.78022,-46.6813 41.81868,-11.6703 9.85284,31.515 13.06594,79.7709 26.13186,266.1325 -0.68768,66.705 -385.10122,28.1949 c -31.23343,11.76 -69.16322,11.8014 -105.21516,15.129 -30.19078,-6.6776 -54.88682,-4.5637 -90.94578,-20.6304 -3.46855,-53.9765 0.67111,-107.953 3.358,-161.9295 l 17.50549,-88.9863 25.28572,-106.0055 z"
       style="fill:#51a85e;fill-opacity:1;stroke:none" />
  </g>
  <g
     style="display:inline"
     id="layer49">
    <path
       id="path4053"
       d="m 273.28022,1601.7528 c 39.88962,-1.5889 83.44739,4.1585 119.62087,-4.8627 50.643,-14.8784 101.72283,-27.5726 153.65934,-35.9835 40.96607,-3.3683 81.35681,-8.4626 123.51099,-8.2665 57.24573,-2.6659 93.12457,1.6726 131.83646,3.9491 1.10196,-17.8362 0.83692,-34.4507 -0.059,-58.4106 -10.41101,-0.2307 -19.62193,-3.4617 -28.20329,-8.2665 -13.61539,1.7977 -27.23077,9.8436 -40.84616,-0.4863 l 8.26649,-45.7088 c 3.62888,-12.5216 11.00545,-27.0732 4.37637,-34.0384 l -10.21154,-70.5083 48.14011,-3.8901 37.4423,134.6951 c 3.89012,42.3049 12.94324,76.8653 11.67034,126.9148 l -117.18956,-22.8544 -113.78572,5.349 -91.90384,13.1291 -114.75824,17.9917 -77.8022,-0.4863 z"
       style="fill:#357e52;fill-opacity:1;stroke:#357e52;stroke-width:1px;stroke-linecap:round;stroke-linejoin:round;stroke-opacity:1" />
    <path
       id="path4055"
       d="m 300.02472,1168.2486 c 14.57762,7.4889 30.28349,9.1761 57.62225,11.1841 38.32036,29.1569 126.06988,23.1865 154.63187,5.8352 22.70167,1.0783 48.35772,6.02 63.21429,-3.1607 34.46361,13.7806 61.97176,21.7649 92.87637,32.5796 l 7.05082,9.9684 c 19.15145,2.5706 24.13824,-13.4499 33.79533,-23.3406 7.54225,-9.3673 11.71055,-22.9338 15.31731,-37.1992 0.13099,-7.1319 2.10846,-14.2637 -1.94506,-21.3956 17.68088,-9.2106 24.67524,-11.6208 35.98352,-16.7761 l -4.37637,-15.0742 c -109.64542,81.7474 -285.0646,61.4762 -449.55082,47.897 z"
       style="fill:#357e52;fill-opacity:1;stroke:#357e52;stroke-width:1px;stroke-linecap:round;stroke-linejoin:round;stroke-opacity:1" />
  </g>
  <g
     style="display:inline"
     id="layer50">
    <path
       id="path4059"
       d="m 830.71836,1593.2987 c -80.60828,-24.5171 -79.69806,-16.1134 -117.59341,-23.3811 -79.31929,-5.0469 -129.39454,6.9651 -188.42453,13.7536 -48.67138,9.8012 -96.94635,20.1969 -150.94593,22.0058 -17.52403,0.7817 -42.69481,0.034 -64.29815,0 -26.89737,-2.837 -55.39638,-9.6649 -83.20937,-18.9113 -4.98134,-82.6394 9.498,-161.5442 22.69347,-238.2814 10.92024,-72.8984 30.88027,-128.8162 57.0775,-187.0491 l -4.12608,-3.0946 c -16.47446,27.6094 -31.29887,57.6938 -42.29237,93.5246 -8.05186,22.9656 -13.17242,47.3968 -19.5989,71.175 -7.36624,31.623 -9.90917,64.8537 -14.78514,97.3068 -2.51799,21.5614 -3.83144,47.9408 -5.50145,72.8941 -1.40574,32.4146 1.74942,63.6889 3.78225,95.2438 1.23707,3.1104 2.91876,5.9243 6.87681,7.2207 25.44419,10.0085 50.88837,15.7374 76.33256,20.2866 36.46922,1.5858 94.23766,6.1108 149.57057,-4.8138 55.12095,-9.8162 110.1386,-19.1158 164.3557,-24.4127 34.81807,-5.6147 74.78376,-0.6685 98.33835,-0.3438 36.97971,4.9655 71.45652,8.6795 113.46733,16.1605 1.27128,-0.4163 2.99955,0.9953 3.4384,-2.7507 0.5388,-14.407 1.04674,-28.7832 0.68768,-42.2924 -1.77182,-28.2031 -1.95096,-52.6899 -6.18913,-86.6478 l -44.35541,-233.4676 c -5.63685,-35.2072 -10.90191,-70.8606 -20.97426,-100.7452 -3.55302,-9.396 -6.41835,-19.0699 -9.62753,-32.321 l -3.78225,3.0945 c 8.74043,26.092 12.11941,51.1117 16.50434,76.3326 l 10.65905,73.5818 38.16629,220.0579 c 8.64537,41.5253 11.41141,78.8512 13.75361,115.8742 z"
       style="fill:#030633;fill-opacity:1;stroke:#030633;stroke-width:1px;stroke-linecap:round;stroke-linejoin:round;stroke-opacity:1" />
  </g>
  <g
     style="display:inline"
     id="layer52">
    <path
       id="path4067"
       d="m 309.89374,1068.3248 c 48.72589,19.423 160.80564,19.692 216.18204,-5.648 l 179.48468,-10.239 30.24365,11.2055 c 14.857,11.2766 15.69113,12.1984 24.42697,23.3504 l -0.34384,14.7852 -17.0201,15.6447 -40.70231,26.755 -2.18819,2.9176 4.37637,13.3722 -1.70192,26.0151 -8.26648,17.5055 -6.80769,9.239 -120.83654,-45.4656 -45.95192,-5.3489 -86.06868,8.2665 -84.85303,-9.4822 -47.65384,-15.0742 -1.21566,-37.1991 3.40385,-23.0976 z"
       style="fill:#5c3424;fill-opacity:1;stroke:none" />
    <path
       id="path4072"
       d="m 648.31112,1208.9732 26.98764,12.0351 -9.11745,2.5528 -13.00755,-6.9292 z"
       style="fill:#5c3424;fill-opacity:1;stroke:#5c3424;stroke-width:1px;stroke-linecap:butt;stroke-linejoin:miter;stroke-opacity:1" />
    <path
       id="path4076"
       d="m 746.71874,1107.3441 9.23901,-19.6937 4.61951,1.7019 1.58036,8.2665 -13.00756,14.1017 z"
       style="fill:#5c3424;fill-opacity:1;stroke:#5c3424;stroke-width:1px;stroke-linecap:butt;stroke-linejoin:miter;stroke-opacity:1" />
  </g>
  <g
     id="layer53">
    <path
       id="path4070"
       d="m 687.57692,1209.5811 c -102.52196,-53.9219 -91.23638,-37.0501 -118.64835,-44.25 -11.52128,-2.7527 -22.91669,-4.7502 -33.79533,-3.647 -16.10337,-5.8735 -53.36038,3.1334 -80.96292,5.3489 -47.50155,-0.3339 -84.37502,-6.6461 -121.80906,-12.6429 -10.11898,-2.9645 -20.59685,-9.518 -31.36401,-18.9643 l 4.13324,23.0976 61.26923,14.1016 114.51511,5.3489 55.43407,-5.3489 8.26648,1.7019 13.37225,-0.4862 9.72528,-4.1333 33.55219,15.3173 41.81868,22.3682 c 6.29397,4.7671 25.87141,9.9256 31.85027,15.0741 z"
       style="fill:#542d1e;fill-opacity:1;stroke:#542d1e;stroke-width:1px;stroke-linecap:round;stroke-linejoin:round;stroke-opacity:1" />
    <path
       id="path4074"
       d="m 694.62774,1135.7906 c 27.70412,-22.2159 52.15027,-32.0306 54.33997,-46.1951 -5.6669,-22.5197 -24.38044,-26.0019 -44.85783,-30.0268 l 38.17171,-20.6662 c 5.23897,6.4678 6.16857,12.32 9.23901,18.478 l 9.60371,33.4306 c -12.68991,8.4054 -10.14938,15.0338 -12.64286,20.9094 l -48.38324,33.4306 z"
       style="fill:#542d1e;fill-opacity:1;stroke:#542d1e;stroke-width:1px;stroke-linecap:round;stroke-linejoin:round;stroke-opacity:1" />
    <path
       id="path4096"
       d="m 536.83516,1065.1607 -1.94506,4.6195 c -6.57946,0.028 -12.67837,-0.3282 -22.36813,2.1882 -23.76176,3.2743 -42.00297,9.309 -62.24175,14.3448 -20.69329,3.6739 -41.22241,7.6761 -64.42995,6.3214 -20.9916,-5.4305 -39.86836,-9.8036 -55.6772,-12.6428 -4.78355,-3.0145 -6.89138,-6.564 -14.58791,-8.9959 -3.34579,0.7584 -5.72339,2.0009 -7.78022,3.4038 l 5.83517,-22.125 56.89285,21.8819 46.92445,4.6195 80.71978,-12.886 18.72116,-4.8626 z"
       style="fill:#542d1e;fill-opacity:1;stroke:#542d1e;stroke-width:1px;stroke-linecap:round;stroke-linejoin:round;stroke-opacity:1" />
  </g>
  <g
     id="layer54">
    <path
       id="path4099"
       d="m 383.38203,1138.054 2.75072,20.6305 12.72209,9.9713 15.12898,5.1576 65.67351,2.4069 -1.7192,6.533 -24.41267,5.8453 -26.81955,-1.0316 -32.66483,-4.8137 -23.72499,-10.6591 -7.56449,-6.8768 -3.78224,-33.0087 3.4384,-27.851 5.15761,-19.2551 5.1576,-12.7221 117.59341,-3.4384 10.31522,2.4069 2.40688,5.1576 -51.9199,0.3438 -52.95142,2.4069 -6.53297,9.9714 -4.81376,8.2522 -2.40688,11.6905 -1.37536,12.3783 22.3842,-0.4686 6.07829,1.945 2.67445,3.7686 0.97253,2.9175 -1.94505,3.5255 -6.32143,2.1881 -5.95673,1.2157 -14.10165,0.851 z"
       style="fill:#f4d049;fill-opacity:1;stroke:#f4d049;stroke-width:1px;stroke-linecap:butt;stroke-linejoin:miter;stroke-opacity:1" />
  </g>
  <g
     id="layer55">
    <path
       id="path4106"
       d="m 332.72596,1129.5906 c -9.84428,-2.9298 -8.01043,-6.6998 -5.04498,-11.4271 2.87685,-4.9898 6.2736,-4.1481 9.29979,-5.1058 9.91947,1.7595 7.82181,6.7963 3.64697,12.3997 -1.02392,2.5853 -4.3222,3.4647 -7.90178,4.1332 z"
       style="fill:#030633;fill-opacity:1;stroke:#030633;stroke-width:1px;stroke-linecap:round;stroke-linejoin:round;stroke-opacity:1" />
    <path
       id="path4108"
       d="m 360.34472,1171.4065 c -11.39995,-37.5631 -2.9669,-67.2315 9.79945,-100.5733 l 5.50145,2.4069 c -9.659,15.1022 -12.00573,39.7941 -13.51398,57.7963 -0.31486,20.6897 6.58988,38.6841 11.28766,39.4055 -23.54443,6.8213 -7.67615,-0.2585 -13.07458,0.9646 z"
       style="fill:#030633;fill-opacity:1;stroke:#030633;stroke-width:1px;stroke-linecap:round;stroke-linejoin:round;stroke-opacity:1" />
    <path
       id="path4110"
       d="m 360.1728,1167.1085 c -17.59074,-2.0275 -36.3287,-5.0769 -53.46718,-11.1748 -2.89529,-13.5996 -1.76126,-24.7817 -2.5788,-37.1347 7.42002,-7.7908 3.81751,-11.7477 1.03152,-15.9886 1.245,-17.7037 6.17884,-30.9809 9.45561,-46.2465 18.76223,12.4699 36.18545,17.9101 53.12334,20.8023 l 3.61032,-7.5645 -59.6563,-20.4585 c -5.09541,18.2931 -10.38929,36.09 -14.61322,56.5618 -0.28248,18.3779 -0.95597,36.8675 4.98569,53.4671 21.60889,9.8605 42.85266,12.9939 64.12623,16.6763 z"
       style="fill:#030633;fill-opacity:1;stroke:#030633;stroke-width:1px;stroke-linecap:butt;stroke-linejoin:miter;stroke-opacity:1" />
    <path
       id="path4112"
       d="m 371.56632,1169.334 c 40.3787,22.9669 96.60582,16.2205 104.82453,10.1528 l 6.87681,5.1576 c -2.49519,3.6787 -63.30715,19.9838 -117.42149,-8.7679 l -6.01721,-5.1576 z"
       style="fill:#030633;fill-opacity:1;stroke:#030633;stroke-width:1px;stroke-linecap:round;stroke-linejoin:round;stroke-opacity:1" />
    <path
       id="path4114"
       d="m 476.59924,1179.068 6.99004,5.592 2.18819,-4.2548 -1.33723,-7.5978 c -23.25335,-0.055 -44.66715,1.4665 -70.80026,-1.057 -3.30028,-1.1517 -6.11814,-2.0325 -13.23786,-5.3295 -1.75831,-0.4025 -5.83923,-4.289 -10.31521,-8.768 -2.84014,-5.4281 -4.20827,-11.5921 -4.298,-18.3954 5.01733,-0.225 10.48486,-0.525 18.22354,-1.2035 15.72246,-5.0861 14.54007,-13.1295 0.51576,-18.7393 -5.71552,0.4183 -10.85626,1.4135 -18.7393,-0.3438 0.23407,-6.4345 0.0177,-12.7001 3.78224,-20.4585 2.79919,-4.8711 5.91813,-10.3499 10.92304,-15.221 l -6.53296,-1.438 c -5.63203,8.8852 -14.42103,13.1844 -13.67377,37.8052 l -6.70489,1.8911 c -8.78722,3.538 -7.87339,12.4647 -0.17192,17.192 l 6.18913,0.3439 c 2.27654,7.7937 4.19556,15.5874 6.01721,23.3811 5.72122,4.6534 9.97659,7.5478 13.40977,9.4556 14.36242,4.1465 22.23662,4.5855 33.35252,6.8768 z"
       style="fill:#030633;fill-opacity:1;stroke:#030633;stroke-width:1px;stroke-linecap:round;stroke-linejoin:round;stroke-opacity:1" />
    <path
       id="path4116"
       d="m 374.09833,1135.4753 c -7.48004,-4.2746 -2.52325,-9.1813 1.20345,-12.5502 9.29088,0.5177 28.22856,-1.2258 29.74219,0 16.8046,8.0378 1.37884,10.8246 -4.12608,12.0344 -7.04054,0.9316 -17.74731,0.3968 -26.81956,0.5158 z"
       style="fill:#f4d049;fill-opacity:1;stroke:#f4d049;stroke-width:1px;stroke-linecap:square;stroke-linejoin:bevel;stroke-opacity:1" />
    <path
       id="path4118"
       d="m 746.41483,1038.1731 c 6.54893,18.8765 15.53728,38.7985 17.99175,55.9203 -0.52817,4.5357 -0.34105,10.502 -2.67444,11.4272 -18.04663,21.4542 -38.77219,28.6207 -58.59479,40.603 8.56751,34.7859 0.5363,37.2965 -1.45879,51.544 -8.97526,19.4801 -21.54515,31.3073 -40.84615,28.2033 -22.62198,-18.7099 -58.19371,-41.044 -93.8489,-53.0028 -9.23997,2.9155 -17.55895,7.8046 -31.12088,1.4588 -14.65948,3.4181 -30.60581,6.1214 -51.05769,6.3215 l -0.9837,-7.8444 c 16.37592,0.018 35.44342,1.9438 50.5826,-2.3672 -0.29751,-12.8361 -12.92146,-19.5236 1.48829,-108.5413 l 4.01905,0.5858 c -5.3791,31.318 -7.38094,70.2796 1.30035,108.9281 7.61186,0.7696 15.5027,3.3526 21.88187,-3.8902 -12.87766,-50.6001 -7.71219,-84.8058 -2.43132,-105.5192 l 3.89011,0 c -6.49195,22.7657 -7.5827,64.9414 5.83517,105.5192 30.62898,15.6948 62.08942,27.5095 90.93131,51.544 38.96512,6.9743 46.53313,-51.5608 33.5522,-79.7473 -29.91662,-34.5703 -48.58567,-42.1038 -78.28846,-57.8653 -16.57198,-7.7573 -33.30248,-15.0918 -51.78709,-17.7487 l 0.24314,-2.1881 17.74862,2.4313 c 13.53434,4.8913 27.06868,10.2678 40.60302,15.8035 28.67818,17.1049 57.09198,34.3046 73.18269,55.9204 l 4.13325,7.2939 c 19.12034,-15.4472 36.38336,-20.9887 57.37912,-46.4382 0.0811,-14.7256 -8.14879,-35.269 -14.10165,-54.2184 z"
       style="fill:#030633;fill-opacity:1;stroke:#030633;stroke-width:1px;stroke-linecap:round;stroke-linejoin:round;stroke-opacity:1" />
    <path
       id="path4128"
       d="m 399.46566,1079.7486 74.64148,-5.1057 24.31318,0.2431 c -0.82447,-1.361 -5.44305,-3.6705 -11.42719,-6.3214 l 8.75274,-2.4313 7.53709,3.6469 c 0.97376,2.8905 9.36626,5.2864 1.70192,8.7528 -14.83229,0.9519 -32.01217,1.317 -52.03021,0.9725 -16.51591,2.1114 -34.71857,3.8011 -56.4066,4.6195 z"
       style="fill:#030633;fill-opacity:1;stroke:#030633;stroke-width:1px;stroke-linecap:butt;stroke-linejoin:miter;stroke-opacity:1" />
  </g>
  <g
     id="layer58">
    <path
       id="path4141"
       d="m 713.12495,1471.923 c -3.0152,-2.0806 -6.73338,-9.082 -10.65905,-17.5358 5.94036,3.6481 11.29611,6.7115 14.95706,8.0802 -3.32569,3.9351 -4.31921,6.7671 -4.29801,9.4556 z"
       style="fill:#777a76;fill-opacity:1;stroke:#030633;stroke-width:4;stroke-linecap:butt;stroke-linejoin:miter;stroke-miterlimit:4;stroke-opacity:1;stroke-dasharray:none" />
    <path
       id="path4143"
       d="m 742.5233,1408.1407 c 6.32701,5.4609 11.82449,9.3035 15.86701,9.7386 -4.90373,1.8979 -7.17909,5.9354 -22.82977,-1.2716 0.70722,-6.6121 4.05907,-7.1264 6.96276,-8.467 z"
       style="fill:#777a76;fill-opacity:1;stroke:#030633;stroke-width:4;stroke-linecap:round;stroke-linejoin:miter;stroke-miterlimit:4;stroke-opacity:1;stroke-dasharray:none" />
  </g>
  <g
     id="layer56">
    <path
       id="path4131"
       d="m 721.72096,1479.1437 -8.25217,-7.5645 3.43841,-8.596 10.31521,-12.3783 11.34673,-4.8137 6.18913,-1.7192 2.06304,0.3438 30.25795,-50.5445 -9.28369,-26.1319 -4.81376,-29.5703 -23.72499,20.6305 6.18913,44.6992 -1.7192,3.7823 -5.84529,3.0945 -0.68768,4.4699 -0.60172,1.6332 -16.24646,-8.1661 -16.1605,-17.5359 -8.93985,-16.5043 -3.78224,-19.9428 3.78224,-27.5072 5.50145,-18.9112 18.91122,-13.4098 24.41267,-15.129 24.41266,-19.9427 10.31521,-11.3467 5.15761,-19.2551 3.09456,-48.1377 0.34384,-45.043 -5.50144,-114.1551 -3.09457,-39.5416 -2.75072,-18.56738 -26.81955,-35.7594 -11.69057,-24.7565 134.44159,-134.4416 10.31521,33.00868 15.47282,71.5188 2.75072,16.84818 7.90833,-5.15761 5.50144,-4.81376 4.12609,4.12608 1.37536,7.22065 0.68768,27.16339 3.09456,8.59601 7.90833,-7.56449 6.18913,10.65905 2.75072,25.78803 1.71921,13.06593 2.06304,3.43841 1.7192,11.34673 0.34384,17.192 -1.7192,12.0344 -5.84529,14.4413 -32.32099,78.0518 -18.22354,56.046 -11.0029,51.9199 -3.4384,38.8539 0.34384,26.4757 9.28369,43.3239 11.00289,29.9142 8.25217,22.6934 -13.40977,42.6362 -5.84529,16.8482 -50.2007,26.1319 -40.57316,11.0029 -23.03731,2.063 z"
       style="fill:#fefffc;fill-opacity:1;stroke:none" />
  </g>
  <g
     id="layer57">
    <path
       id="path4134"
       d="m 732.03617,890.14512 129.97167,-137.19231 9.28369,17.53585 c -10.8268,54.15849 -46.00743,126.98604 -126.18942,132.37855 0.27252,6.29948 -2.846,6.94724 -5.15761,8.93985 z"
       style="fill:#cacede;fill-opacity:1;stroke:#cacede;stroke-width:1px;stroke-linecap:round;stroke-linejoin:round;stroke-opacity:1" />
    <path
       id="path4136"
       d="m 741.91689,1372.1147 -2.79602,-15.682 c 23.91004,-23.8415 21.7759,-18.8766 25.52885,-20.4231 l 0.72939,10.09 c -8.82648,6.6602 -16.23316,16.16 -23.46222,26.0151 z"
       style="fill:#cacede;fill-opacity:1;stroke:#cacede;stroke-width:1px;stroke-linecap:round;stroke-linejoin:round;stroke-opacity:1" />
    <path
       id="path4138"
       d="m 720.15659,1476.5398 c 27.02181,0.8072 31.82821,-1.6862 55.67719,-6.1998 l 4.68389,-0.8238 25.44419,-30.6018 c -6.24644,9.5702 -13.52597,18.6239 -18.73931,28.7106 15.86932,0.8446 25.67342,-5.3868 38.51013,-8.0802 l 7.56449,-3.0946 8.93985,-13.7536 c -1.09646,3.8 -4.33001,10.5809 -4.12609,11.3467 9.63835,-2.1733 14.09745,-6.4183 21.14618,-9.6275 l 4.64185,-2.7507 7.56449,-13.7536 c -0.69269,3.73 -2.01182,8.0863 -1.89112,11.0029 6.07404,-2.2351 8.19279,-5.2612 12.20633,-7.9084 l -1.20344,8.9399 -52.43566,29.3983 -31.97716,10.831 -20.80234,-7.0487 -5.50145,5.3295 -5.1576,5.1576 -28.36683,5.3295 z"
       style="fill:#cacede;fill-opacity:1;stroke:#cacede;stroke-width:1px;stroke-linecap:round;stroke-linejoin:round;stroke-opacity:1" />
  </g>
  <g
     id="layer59">
    <path
       id="path4154"
       d="m 865.79008,748.13904 c 19.76804,38.54607 36.46999,80.27615 39.54164,136.16079 4.88025,-2.53962 9.60905,-12.34875 14.78514,-0.68768 l 2.40688,39.88548 c 4.69915,-0.11461 7.17409,-14.31595 14.09746,-0.34384 l 6.87681,44.35541 c 2.24483,13.82972 10.35199,19.31601 2.06304,48.1377 -53.68927,134.7461 -54.47301,153.4378 -70.48728,236.906 -1.9535,8.596 -0.65395,17.192 0,25.788 9.30184,34.3416 18.70895,68.3042 30.25795,94.5561 -7.19437,22.3685 -12.91365,41.7794 -23.0373,69.1119 -6.92482,6.3741 -15.92191,9.847 -25.10035,13.066 -8.54591,7.3336 -22.16976,14.2687 -33.46442,16.41 -7.99276,5.6569 -16.64366,8.9394 -27.39533,11.7849 l -20.63042,-8.596 -9.28369,9.9713 c -10.2026,2.9287 -20.33656,5.6514 -30.08603,7.2207 -8.34976,-6.9064 -15.48704,-7.7503 -25.10035,-20.9743 6.11272,-3.2653 0.26634,-8.6082 14.26938,-20.9742 7.26198,-4.1862 14.59927,-8.8995 20.97426,-6.8768 13.46708,-34.4987 17.12546,-25.2741 27.50723,-48.8254 -3.93434,-13.7904 -11.20457,-17.8765 -10.65905,-44.6992 -6.74478,7.0807 -13.25673,14.2612 -16.84818,22.6934 -0.81779,9.6473 1.04726,19.8313 2.40688,29.9141 -0.90076,2.817 -1.05764,3.4069 -2.75072,8.5961 -3.56853,-3.4901 -5.25377,-0.7026 -7.56449,0 -1.21306,1.9292 -1.98591,4.7387 -2.75072,7.5644 -4.74979,-1.9598 -9.89172,-4.1691 -19.59891,-9.2836 -14.3557,-12.1588 -25.58902,-29.1885 -28.53875,-59.1406 1.05253,-18.607 6.71633,-32.1835 12.7221,-45.3869 28.75933,-18.7925 60.62717,-37.6886 76.33256,-56.046 9.88527,-38.3705 6.26379,-81.806 6.53297,-123.7825 -2.48596,-51.9134 -4.59873,-102.956 -8.93985,-159.19814 -20.00595,-18.39451 -32.5002,-47.1176 -45.38693,-75.30104 l 3.78224,-2.06304 c 22.88281,50.68249 62.4648,97.13291 80.80249,112.77962 l -34.72788,-30.94561 c 12.40618,54.54741 9.70556,106.42901 12.03442,159.19811 l -3.78225,109.6851 c -3.40582,4.5237 -2.78684,9.6224 -4.12608,14.4413 l 0.17192,-8.7679 c -18.98882,22.7494 -8.91664,22.4965 -80.45865,64.6419 -8.3813,20.3558 -5.54098,38.8414 -6.36105,57.9371 8.70794,28.7855 23.69617,37.2808 38.16629,47.45 1.06964,-6.1894 4.23876,-6.0803 6.53296,-8.596 2.32928,-17.3602 -2.16092,-37.7956 -5.1576,-56.3898 2.60126,5.9759 7.00542,12.3123 7.56449,17.8797 6.76219,-7.5418 13.52439,-17.6794 20.28658,-22.3497 l 1.03152,-9.9713 c 2.50743,26.2384 9.1315,38.0685 14.09745,55.7021 l 5.15761,-3.0946 c -15.80363,20.9749 -28.80931,48.2453 -42.98005,72.8942 1.63059,-4.9284 3.58951,-9.8567 4.81377,-14.7851 -6.69972,2.2979 -9.94694,-0.4501 -27.85107,18.2235 -1.48865,2.7457 -3.59574,5.69 -2.92264,7.5645 19.0269,21.6193 31.92801,12.5394 48.65341,11.0029 22.12778,-23.5396 40.79232,-49.5529 59.82822,-75.301 -1.74255,10.4298 -23.98212,43.5531 -45.38693,65.3296 16.81137,7.545 23.27767,4.5238 38.51013,-1.7192 12.90977,-16.2543 23.64196,-32.341 30.60179,-48.1376 l 7.22065,-23.0373 c -1.71677,8.7114 -4.89356,16.9362 -4.12609,26.4757 -5.04498,12.7095 -13.39776,26.7727 -22.34962,40.7451 5.54435,-0.1023 16.93031,-8.5497 25.44419,-12.8941 6.4963,-10.6911 11.02726,-21.0547 14.78513,-31.2894 1.66489,-5.2301 1.89976,-16.8954 2.75073,-25.7881 l 2.06304,27.5073 c -3.61915,8.6202 -7.84446,16.9374 -12.37825,25.1003 6.53545,-2.1893 12.47778,-6.2809 18.22354,-11.0029 9.13419,-20.6171 14.32435,-41.8916 20.97426,-62.9228 -25.32687,-70.562 -21.52311,-30.9138 -29.22643,-113.4673 -0.73389,-45.4537 4.89321,-108.4237 70.83111,-246.1897 2.27831,-15.243 4.74599,-30.57572 1.03153,-42.98005 -1.35809,7.75681 -2.81475,15.07011 -4.81377,19.94274 1.9153,-24.63361 0.61095,-48.46231 -6.53297,-70.83112 -2.06304,2.56893 -4.12608,3.97208 -6.18912,8.59601 -1.44344,28.21469 -3.42589,23.01084 -5.15761,33.35252 2.30628,-11.99468 2.29635,-26.7688 1.37536,-42.63621 -1.83381,4.16751 -3.66763,11.98608 -5.50144,19.25506 0.71366,-7.15338 1.63766,-12.83443 2.06304,-22.00578 0.74293,-8.8846 0.17361,-19.08145 -0.34384,-29.22643 -1.94058,-15.20703 -7.36599,-2.09993 -11.69057,2.06304 1.97108,34.75053 -4.26024,61.29866 -7.22065,91.1177 3.76315,-82.38176 -12.81859,-157.66647 -36.79092,-230.37306 z"
       style="fill:#030633;fill-opacity:1;stroke:#030633;stroke-width:1px;stroke-linecap:round;stroke-linejoin:round;stroke-opacity:1" />
  </g>
  <g
     style="display:inline"
     id="layer3">
    <path
       id="path3790"
       d="M 324.51151,155.40676 C 320.14842,112.09659 318.28584,50.813148 358.85669,2.5580544 381.18078,12.158689 401.98586,21.825295 404.56609,89.999384 355.85171,108.89173 340.18444,128.22764 324.51151,155.40676 z"
       style="fill:#ffd0cd;fill-opacity:1;stroke:none" />
    <path
       id="path3818"
       d="m 333.60288,137.72909 c -2.07215,-13.63985 0.98507,-25.81416 17.67767,-34.09265 0.25432,-13.581284 7.54638,-20.62753 17.17259,-25.506348 4.17889,-15.272088 6.23727,-31.685995 27.27412,-37.880721 6.47904,17.236921 10.56732,34.106031 8.33376,50.002551 -33.6134,8.109646 -50.20019,29.191948 -70.45814,47.477168 z"
       style="fill:#eaaaa0;fill-opacity:1;stroke:none" />
    <path
       id="path3798"
       d="M 324.51151,154.39661 C 320.46213,105.655 319.34724,48.812968 358.35162,3.3788034"
       style="fill:none;stroke:#030633;stroke-width:6;stroke-linecap:round;stroke-linejoin:round;stroke-miterlimit:4;stroke-opacity:1;stroke-dasharray:none" />
    <path
       id="path3790-3"
       d="m 324.51195,155.407 c -4.36309,-43.31017 -5.97313,-105.288103 34.59772,-153.543197 22.32409,9.600635 42.87663,19.961721 45.45686,88.135817 -48.71438,18.89235 -64.38165,38.22826 -80.05458,65.40738 z"
       style="fill:none;stroke:none" />
  </g>
  <g
     style="display:inline"
     id="layer6">
    <path
       id="path3082"
       d="m 358.03594,2.1792637 c 31.4093,5.2863442 49.4334,12.1330433 82.39057,73.4254623 -9.27514,-19.056256 10.17367,-3.491435 15.15228,6.565992 l -5.3033,2.525381 -44.95178,5.303301 c -6.82605,-9.309756 -5.25226,-9.753019 0,-6.313453 C 400.7305,70.85237 398.39456,63.212471 403.80848,66.765892 394.94656,15.563514 373.48035,9.907021 358.03594,2.1792637 z"
       style="fill:#fefffc;fill-opacity:1;stroke:#030633;stroke-width:2;stroke-linecap:butt;stroke-linejoin:round;stroke-miterlimit:4;stroke-opacity:1;stroke-dasharray:none" />
    <path
       id="path3852"
       d="m 358.15488,2.0938078 c 25.30228,2.2499034 52.30716,13.0641902 82.27163,73.2583802 -7.56862,-20.154773 11.74071,-0.554278 15.40482,7.071068"
       style="fill:none;stroke:#030633;stroke-width:4;stroke-linecap:round;stroke-linejoin:round;stroke-miterlimit:4;stroke-opacity:1;stroke-dasharray:none" />
  </g>
  <g
     id="layer8">
    <path
       id="path3868"
       d="M 569.28571,80.857159 C 615.9237,41.040035 673.31748,24.739429 693.92857,27.642873 l -81.78572,86.428567 c -37.02043,5.55535 -40.06936,-30.356423 -42.85714,-33.214281 z"
       style="fill:#fefffc;fill-opacity:1;stroke:none" />
    <path
       id="path3866"
       d="M 694.79264,28.18942 C 693.09717,27.037961 644.98943,18.810809 569.64285,80.500016"
       style="fill:none;stroke:#030633;stroke-width:6;stroke-linecap:round;stroke-linejoin:round;stroke-miterlimit:4;stroke-opacity:1;stroke-dasharray:none" />
  </g>
  <g
     style="display:inline"
     id="layer7">
    <path
       id="path3855"
       d="M 612.14285,114.07144 C 615.24798,57.939468 654.61555,41.69617 695,26.571445 732.93114,101.91839 674.28157,239.48867 665.47485,229.75669 646.35835,188.42846 629.40781,151.6966 612.14285,114.07144 z"
       style="fill:#ffd0cd;fill-opacity:1;stroke:none" />
    <path
       id="path3857"
       d="m 613.57142,114.78573 c -0.47619,-16.904762 4.04762,-30.952381 12.14287,-45 44.58999,21.032315 37.55579,74.79893 30.35713,79.64286 6.8985,8.35213 10.97364,17.51093 4.64286,29.64285 28.95866,11.33668 19.50283,34.94798 6.42857,51.07143 z"
       style="fill:#eaaaa0;fill-opacity:1;stroke:none" />
    <path
       id="path3859"
       d="M 613.21428,113.35716 C 609.53982,94.194669 633.15973,53.387482 634.28571,61.571445 648.38154,42.791057 677.10084,30.303273 694.06249,28.089302"
       style="fill:none;stroke:#030633;stroke-width:2;stroke-linecap:round;stroke-linejoin:round;stroke-miterlimit:4;stroke-opacity:1;stroke-dasharray:none" />
  </g>
  <g
     id="layer9">
    <path
       id="path3871"
       d="m 695,27.642873 c 17.5381,19.994407 13.36514,60.656953 9.64286,98.214287 -2.9008,20.28144 -2.5546,40.06334 -17.14287,62.14286 -1.9387,29.73227 -18.86086,38.69132 -21.42857,40.71428"
       style="fill:none;stroke:#030633;stroke-width:5;stroke-linecap:round;stroke-linejoin:round;stroke-miterlimit:4;stroke-opacity:1;stroke-dasharray:none" />
  </g>
  <g
     id="layer10">
    <path
       id="path3880"
       d="m 705.71428,102.64287 c -2.37049,11.50379 -7.51846,23.12707 -11.78571,31.78572 4.92008,-7.51957 10.5075,-15.3728 11.78571,-21.07143 z"
       style="fill:#030633;fill-opacity:1;stroke:#030633;stroke-width:3;stroke-linecap:round;stroke-linejoin:round;stroke-miterlimit:4;stroke-opacity:1;stroke-dasharray:none" />
    <path
       id="path3882"
       d="m 671.42857,208.35716 c 4.58271,-5.84592 8.95821,-11.66481 16.38709,-22.98341 l -1.02995,7.62626 c -6.87297,7.03565 -10.18742,10.87637 -15.35714,15.35715 z"
       style="fill:#030633;fill-opacity:1;stroke:#030633;stroke-width:2.5;stroke-linecap:round;stroke-linejoin:round;stroke-miterlimit:4;stroke-opacity:1;stroke-dasharray:none" />
  </g>
  <g
     id="layer20">
    <path
       id="path3992"
       d="m 644.60094,169.07981 c 7.89949,11.37785 14.28374,23.05874 15.96244,35.68075 l 9.85916,69.01409 c -3.50736,23.81108 -4.69713,49.01271 -12.20658,70.42253 -7.22219,9.3359 -9.08056,22.02418 -13.14554,33.33334 1.89436,12.17443 15.41563,11.7404 26.65154,13.72405 -4.7493,11.30889 -15.43961,15.59659 -24.7736,21.48721 -6.13058,9.605 -17.30927,10.79649 -28.6385,11.73709 1.10564,11.31625 -5.1345,13.59153 -9.38967,18.30986 -1.37399,-27.23 0.48201,-53.28691 7.51173,-77.46479 l 5.16432,-92.95774 z"
       style="fill:#fefffc;fill-opacity:1;stroke:none" />
  </g>
  <g
     id="layer60">
    <path
       id="path4157"
       d="m 629.71154,339.65525 c -4.53483,20.1711 -16.89253,61.70724 2.43131,72.69642 4.96619,0.14279 14.17261,-3.3489 14.83104,0.48626 -2.63167,7.55991 -14.06627,10.42491 -26.25824,12.88599 0.2574,13.71546 -0.51333,13.31496 -12.52129,17.26237 3.36498,-25.78501 -10.78078,-43.60652 6.68613,-76.10028 4.51161,-13.55975 9.02457,-26.61968 14.83105,-27.23076 z"
       style="fill:#cacede;fill-opacity:1;stroke:#cacede;stroke-width:1px;stroke-linecap:round;stroke-linejoin:round;stroke-opacity:1" />
  </g>
  <g
     id="layer21">
    <path
       id="path3997"
       d="m 609.50613,442.16322 c 7.03731,-2.36357 11.24986,-7.30716 9.79326,-17.42869 9.47667,-3.36537 21.15552,1.44878 27.8859,-12.11709 8.45699,-7.10611 22.13918,-4.56568 25.23011,-21.57837 -12.06147,-0.20241 -25.694,-1.5716 -29.04782,-15.27085 14.81946,-33.69102 34.66529,-61.69822 21.93215,-148.37501"
       style="fill:none;stroke:#030633;stroke-width:5;stroke-linecap:round;stroke-linejoin:round;stroke-miterlimit:4;stroke-opacity:1;stroke-dasharray:none" />
    <path
       id="path4001"
       d="m 632.79048,412.40961 c 13.39943,-4.62598 26.83708,-9.19464 36.55703,-19.33985 -1.79757,4.40894 1.53966,7.67681 -10.61333,14.38696 -4.90512,5.49909 -17.2674,3.27738 -25.9437,4.95289 z"
       style="fill:#030633;fill-opacity:1;stroke:#030633;stroke-width:1px;stroke-linecap:round;stroke-linejoin:round;stroke-opacity:1" />
    <path
       id="path4003"
       d="m 631.90075,386.67368 c 8.47082,-14.28988 16.47495,-29.7465 24.51555,-45.11194 l -10.00635,28.18454 c -4.03799,3.24724 -9.4226,10.53433 -14.5092,16.9274 z"
       style="fill:#030633;fill-opacity:1;stroke:#030633;stroke-width:1px;stroke-linecap:round;stroke-linejoin:round;stroke-opacity:1" />
    <path
       id="path4005"
       d="m 665.45596,242.95006 c 2.50437,22.94763 -6.3737,41.31417 -11.91052,59.19882 4.90137,-12.22946 6.56606,-10.24461 15.09452,-44.81185 z"
       style="fill:#030633;fill-opacity:1;stroke:#030633;stroke-width:1px;stroke-linecap:round;stroke-linejoin:round;stroke-opacity:1" />
    <path
       id="path4011"
       d="m 643.52174,165.70858 c 8.40181,9.33381 20.92225,29.76972 23.11348,63.09037 l -3.17031,-0.0417 c -1.80062,-20.57921 -10.18744,-42.02029 -19.94317,-63.04869 z"
       style="fill:#030633;fill-opacity:1;stroke:#030633;stroke-width:1px;stroke-linecap:round;stroke-linejoin:round;stroke-opacity:1" />
  </g>
  <g
     id="layer61">
    <path
       id="path4160"
       d="m 616.82554,366.15662 -7.29395,29.66208 -2.18819,35.01099 1.94506,10.6978 13.37225,21.15248 -24.31319,47.65384 -60.53983,12.1566 -114.75824,-4.13325 -25.04259,-9.9684 3.40385,-31.36401 30.14835,-13.37226 3.64698,-15.07417 34.28159,-1.94506 58.83791,-18.96428 55.19094,-30.14835 26.01511,-20.66621 z"
       style="fill:#fefffc;fill-opacity:1;stroke:#fefffc;stroke-width:1px;stroke-linecap:round;stroke-linejoin:round;stroke-opacity:1" />
  </g>
  <g
     id="layer62">
    <path
       id="path4163"
       d="m 434.61424,452.43631 -1.03152,-29.57027 179.82852,-59.82823 -0.68768,12.7221 c -20.11188,14.43365 -83.22765,80.01654 -178.10932,76.6764 z"
       style="fill:#cacede;fill-opacity:1;stroke:#cacede;stroke-width:1px;stroke-linecap:butt;stroke-linejoin:round;stroke-opacity:1" />
    <path
       id="path4165"
       d="m 431.17584,456.21856 -3.43841,13.06593 -21.66194,12.37825 -4.81376,13.40978 2.06304,13.06593 -21.66195,-4.12608 9.97137,-29.57027 z"
       style="fill:#cacede;fill-opacity:1;stroke:#cacede;stroke-width:1px;stroke-linecap:round;stroke-linejoin:round;stroke-opacity:1" />
    <path
       id="path4175"
       d="m 610.07863,441.58828 30.3307,19.14663 -30.63461,46.43819 -13.61539,-0.97253 c 7.49795,-14.73953 13.51481,-29.84932 23.34066,-44.00687 -2.36605,-0.36361 -5.46911,-4.81873 -10.3331,-11.4272 z"
       style="fill:#cacede;fill-opacity:1;stroke:#cacede;stroke-width:1px;stroke-linecap:round;stroke-linejoin:round;stroke-opacity:1" />
  </g>
  <g
     id="layer67">
    <path
       id="path4218"
       d="m 614.61468,440.57382 c 12.41353,11.37794 24.29835,11.124 36.27516,12.89401 l -10.14329,9.28369 c -13.60978,-6.78408 -26.38991,-13.10685 -30.42987,-20.80234 z"
       style="fill:#030633;fill-opacity:1;stroke:#030633;stroke-width:1px;stroke-linecap:round;stroke-linejoin:round;stroke-opacity:1" />
  </g>
  <g
     style="display:inline"
     id="layer64">
    <path
       id="path4191"
       d="m 378.13846,498.76881 c 37.39442,14.39036 70.31404,19.11412 98.1608,22.22761 67.42362,7.53848 108.65478,-8.54951 137.36986,-22.57145 l -19.51294,48.56745 -109.68508,25.10034 -32.321,67.73656 -11.69057,-0.68768 -11.69057,-61.89127 -58.45287,-7.56449 z"
       style="fill:#5c3424;fill-opacity:1;stroke:#5c3424;stroke-width:1px;stroke-linecap:round;stroke-linejoin:round;stroke-opacity:1" />
  </g>
  <g
     id="layer68">
    <path
       id="path4221"
       d="m 384.75739,500.98037 c 136.74556,38.20364 210.63796,7.50047 227.21086,-5.99992 l -0.44813,4.90584 c -38.96028,23.24824 -114.37093,38.39848 -227.20549,3.02693 z"
       style="fill:#030633;fill-opacity:1;stroke:#030633;stroke-width:1px;stroke-linecap:round;stroke-linejoin:round;stroke-opacity:1" />
    <path
       id="path4223"
       d="m 500.28776,528.94079 c 64.86581,-1.20254 79.77293,-7.85948 105.73091,-18.56737 l -1.03152,5.1576 c -31.09311,9.51451 -68.9703,21.00184 -104.69939,13.40977 z"
       style="fill:#030633;fill-opacity:1;stroke:#030633;stroke-width:1px;stroke-linecap:round;stroke-linejoin:round;stroke-opacity:1" />
    <path
       id="path4225"
       d="m 384.06971,507.62269 c 21.8005,7.66824 43.34452,14.22506 63.78239,15.98858 -13.93082,-0.50894 -16.60889,4.53728 -64.47007,-12.72209 z"
       style="fill:#030633;fill-opacity:1;stroke:#030633;stroke-width:1px;stroke-linecap:round;stroke-linejoin:round;stroke-opacity:1" />
  </g>
  <g
     id="layer65">
    <path
       id="path4194"
       d="m 641.60615,454.84319 53.6391,11.34674 47.44997,18.91122 31.97716,22.34962 27.85107,45.04309 27.50723,69.45576 16.50434,43.66773 23.38115,58.7967 -4.12609,18.91122 -17.53586,32.66484 -24.75651,36.79092 -36.79092,35.7594 -33.35251,27.50723 -29.22644,11.34673 -4.46992,1.37537 -21.66195,38.16628 4.81377,-3.43841 2.06304,26.81955 24.90906,46.11931 -15.34891,23.97531 -49.83487,17.7616 -29.26099,5.8555 -214.23843,19.4261 c -42.04701,-19.1504 -88.46822,-29.95 -117.14374,-74.62769 l 20.63042,-62.57895 -2.40688,-79.42713 -8.25217,-42.29237 -24.75651,-11.69057 -16.1605,-16.84818 0,-38.51012 6.87681,-40.91701 9.28369,-59.14054 14.78514,-67.04888 14.78513,-46.07461 17.8797,-19.5989 31.63332,-22.34963 35.7594,-17.87969 22.68397,-8.59846 3.64698,-0.12156 -0.72939,2.43132 -12.03503,8.87431 -21.88187,10.81937 -10.3331,22.48969 -4.74107,17.26237 -3.40385,12.15659 0.3647,18.84272 1.82349,9.96841 6.19986,5.83516 10.81937,3.40385 14.22321,3.03915 14.22322,-0.24314 10.94093,-0.85096 0.24313,15.80357 1.45879,14.46635 4.37638,13.61538 3.28228,15.19575 3.52541,0.12156 3.89011,-7.65865 11.54876,-27.10921 8.63118,-16.4114 10.33311,-11.18406 22.61126,-1.94506 51.66552,-8.87431 13.85852,-4.37637 24.92101,-12.1566 5.10577,-7.41552 6.56456,-20.30151 5.47047,-14.95261 6.68613,-10.81937 5.59203,-13.37225 8.87431,-8.63118 z"
       style="fill:#51a85e;fill-opacity:1;stroke:none" />
  </g>
  <g
     id="layer66">
    <path
       id="path4197"
       d="m 309.26373,986.14287 c 27.86514,54.80483 98.79409,77.27693 153.17308,69.53573 73.66413,-10.4865 150.92479,-29.8046 166.37301,-27.7947 -154.49661,45.9536 106.22808,3.6961 97.18193,-37.36465 l 10.6978,18.96425 4.37638,27.7171 -20.90934,11.6703 -40.84616,7.294 -134.69505,3.4038 -35.49726,3.4039 -83.15109,13.1291 -51.54396,-2.4314 -62.24175,-26.2582 -20.42308,-37.4423 z"
       style="fill:#357e52;fill-opacity:1;stroke:#357e52;stroke-width:1px;stroke-linecap:round;stroke-linejoin:round;stroke-opacity:1" />
    <path
       id="path4199"
       d="m 683.20054,787.74727 c 11.70486,34.8637 16.74972,78.11859 37.68544,97.98214 l -11.91346,23.34066 c -20.50391,-35.96885 -26.58357,-77.60285 -25.77198,-121.3228 z"
       style="fill:#357e52;fill-opacity:1;stroke:#357e52;stroke-width:1px;stroke-linecap:butt;stroke-linejoin:miter;stroke-opacity:1" />
    <path
       id="path4205"
       d="m 416.97115,914.17585 c 49.86912,34.0523 96.49275,54.31122 143.93406,78.04532 -32.09408,-13.31402 -55.35329,-17.39158 -100.17032,-44.00687 -26.83519,-16.20253 -31.4629,-23.06828 -43.76374,-34.03845 z"
       style="fill:#357e52;fill-opacity:1;stroke:#357e52;stroke-width:1px;stroke-linecap:round;stroke-linejoin:round;stroke-opacity:1" />
    <path
       id="path4215"
       d="m 427.66895,955.99452 c 62.8291,30.33663 84.48271,33.41475 121.80907,40.60302 -23.39148,-3.93037 -35.32096,0.51535 -73.66896,-14.34478 -20.05299,-6.99999 -38.35346,-14.76672 -48.14011,-26.25824 z"
       style="fill:#357e52;fill-opacity:1;stroke:#357e52;stroke-width:1px;stroke-linecap:round;stroke-linejoin:round;stroke-opacity:1" />
  </g>
  <g
     id="layer69">
    <path
       id="path4229"
       d="m 414.32766,913.52626 c 62.19731,49.24629 98.33728,52.89225 147.16368,78.73945"
       style="fill:none;stroke:#030633;stroke-width:1px;stroke-linecap:round;stroke-linejoin:round;stroke-opacity:1" />
    <path
       id="path4231"
       d="m 437.02113,959.94471 c 50.67735,29.83118 84.26588,31.7597 110.7166,36.79093"
       style="fill:none;stroke:#030633;stroke-width:1px;stroke-linecap:round;stroke-linejoin:round;stroke-opacity:1" />
    <path
       id="path4233"
       d="m 312.18132,803.06458 c -10.22068,-4.80903 -21.47557,-12.23442 -35.01099,-27.4739 -0.65166,-58.62082 2.38038,-64.60012 7.05082,-69.53571 C 310.79481,827.59118 386.33648,892.6995 390.46978,902.01925 354.65136,853.59929 299.53655,783.07944 292.2445,693.41211 l -15.07417,-1.94506 c -17.80248,69.08971 -12.66939,95.26644 12.15659,108.92308 9.09525,3.72802 18.40435,7.45604 26.25824,11.18406 z"
       style="fill:#030633;fill-opacity:1;stroke:#030633;stroke-width:1px;stroke-linecap:round;stroke-linejoin:round;stroke-opacity:1" />
    <path
       id="path4235"
       d="m 280.08791,700.46293 8.75275,0.24313 c 13.29901,47.74659 24.34072,92.10723 36.46978,138.0989 12.88116,118.89883 6.24039,89.31045 -27.4739,171.89424 l -9.60308,-0.1209 c 2.04283,-44.51286 28.5805,-32.56344 31.72808,-125.57828 -1.12549,-33.55676 -6.85851,-64.80976 -11.67033,-96.52335 -10.48239,-28.88737 -24.79191,-56.18011 -28.2033,-88.01374 z"
       style="fill:#030633;fill-opacity:1;stroke:#030633;stroke-width:1px;stroke-linecap:round;stroke-linejoin:round;stroke-opacity:1" />
    <path
       id="path4237"
       d="m 297.83654,1011.1855 c 17.57201,47.2617 56.5981,46.4487 88.98626,60.5398 111.79894,1.1724 178.11318,-30.9021 255.77472,-47.6539 -20.49689,8.2273 1.27624,4.4328 -82.4217,30.6347 72.29422,-1.7207 148.45266,-2.1881 174.32555,-18.9643 l 10.94093,2.9176 c -9.11193,22.3905 -69.05621,25.1104 -119.12663,22.495 -42.91664,0.9255 -86.19925,2.7539 -111.11925,4.2495 -12.22621,-1.9712 -96.3505,28.5346 -134.66695,15.7097 -18.4383,-3.6186 -90.02396,-19.2221 -92.29475,-70.6078 z"
       style="fill:#030633;fill-opacity:1;stroke:#030633;stroke-width:1px;stroke-linecap:round;stroke-linejoin:round;stroke-opacity:1" />
    <path
       id="path4239"
       d="m 303.3201,993.02532 c -6.53918,5.57461 -8.95481,24.53488 2.86976,35.68748"
       style="fill:none;stroke:#030633;stroke-width:1px;stroke-linecap:butt;stroke-linejoin:miter;stroke-opacity:1" />
    <path
       id="path4241"
       d="m 679.42859,988.99923 c 7.16788,-36.94458 15.00984,-62.65432 23.55307,-76.67641 l 3.95417,4.12609 c 0.11461,9.62753 0.22923,19.25506 0.34384,28.88259 14.27067,38.63122 47.90247,67.0599 38.63906,93.6965 l -11.56163,-3.3524 c 9.0284,-22.5352 -21.51868,-55.78814 -32.23504,-83.63921 -0.63037,-7.83165 -1.26075,-16.23559 -1.89112,-22.34963 -9.59124,17.49329 -14.05554,39.3811 -20.80235,59.31247 z"
       style="fill:#030633;fill-opacity:1;stroke:#030633;stroke-width:1px;stroke-linecap:round;stroke-linejoin:round;stroke-opacity:1" />
    <path
       id="path4243"
       d="m 653.29673,690.7177 c 5.39609,42.66941 16.04107,60.84397 26.81954,78.3956 0.44088,-10.05251 -2.44148,-18.11109 2.06305,-30.60179 4.68346,105.47773 42.34502,135.40563 47.10613,144.7568 80.49314,-38.92212 142.58792,-145.42924 136.63357,-158.29552 l 6.31807,-0.90258 c 3.20918,48.36688 -113.33656,180.32658 -151.28977,165.73107 -3.86619,6.12146 -7.89076,12.45332 -13.96978,26.39586 l -4.14515,-3.45927 c 5.67946,-9.72862 11.87631,-17.71856 16.13785,-27.40652 -16.20499,-15.62399 -36.54823,-59.81652 -38.51012,-107.2782 -31.27823,-39.70695 -23.74253,-63.54426 -27.16339,-87.33545 z"
       style="fill:#030633;fill-opacity:1;stroke:#030633;stroke-width:1px;stroke-linecap:round;stroke-linejoin:round;stroke-opacity:1" />
    <path
       id="path4245"
       d="m 642.09651,452.41323 c 163.5824,14.09676 166.46882,107.28097 203.02985,208.90547 10.91771,19.12976 25.26555,34.33937 27.23077,63.70055 l -6.32143,0.48626 C 861.29361,703.95244 851.86499,682.92009 843.18131,661.80497 790.99626,548.4527 797.49436,474.8304 639.43933,457.64162 Z"
       style="fill:#030633;fill-opacity:1;stroke:#030633;stroke-width:1px;stroke-linecap:round;stroke-linejoin:round;stroke-opacity:1" />
    <path
       id="path4247"
       d="m 636.76236,458.06046 c -32.95571,24.16344 -25.76806,72.29609 -53.24588,85.58242 l 18.23489,-6.0783 c 13.58176,-45.96773 31.93132,-79.8283 49.35577,-80.71978 z"
       style="fill:#030633;fill-opacity:1;stroke:#030633;stroke-width:1px;stroke-linecap:round;stroke-linejoin:round;stroke-opacity:1" />
    <path
       id="path4249"
       d="m 583.60244,543.65763 c -21.45042,14.52261 -65.09158,16.39974 -100.98569,21.38085 -18.86936,16.36758 -24.5554,40.22556 -35.25412,61.26923 -0.7294,-4.53846 -10.32743,-14.80478 -10.21154,-58.10851 -18.80429,1.11337 -34.24146,0.67983 -55.43406,-8.75275 -5.86059,-12.15745 -6.39569,-31.58873 14.10165,-79.74725 16.48822,-7.53709 26.84046,-15.07418 37.68544,-22.61127 -11.64308,5.68914 -22.91823,11.15754 -37.68544,18.72116 -8.51849,19.50557 -28.53317,46.93327 -17.74863,85.58241 9.21203,4.40423 25.30457,15.61624 55.19093,10.21154 -0.71578,11.1614 0.54294,39.29673 14.34478,61.7555 11.57825,-22.20389 17.98196,-46.56384 36.46978,-65.88874 66.53235,-5.88284 97.69983,-9.55096 117.60462,-29.79229 z"
       style="fill:#030633;fill-opacity:1;stroke:#030633;stroke-width:1px;stroke-linecap:round;stroke-linejoin:round;stroke-opacity:1" />
    <path
       id="path4251"
       d="m 429.45664,458.79736 c -53.95764,12.78405 -109.38792,61.03964 -111.92005,75.8168 -18.0173,51.86458 -23.88897,114.1411 -25.10035,159.37002 l -15.33039,-2.25403 c 5.94905,-45.10007 14.48141,-118.26061 44.72875,-177.74641 46.83737,-40.37777 83.21058,-54.17549 108.48164,-63.26663 z"
       style="fill:#030633;fill-opacity:1;stroke:#030633;stroke-width:1px;stroke-linecap:round;stroke-linejoin:round;stroke-opacity:1" />
  </g>
  <g
     id="layer63">
    <path
       id="path4178"
       d="m 619.04323,363.02034 c -5.9426,26.26326 -10.79971,43.66893 -9.02538,88.96182 -8.89381,-11.43497 -8.04296,-37.94687 3.16071,-80.47664 z"
       style="fill:#030633;fill-opacity:1;stroke:#030633;stroke-width:1px;stroke-linecap:round;stroke-linejoin:round;stroke-opacity:1" />
    <path
       id="path4188"
       d="m 428.64148,421.71225 9.36058,4.37637 c 2.9954,21.35462 -2.63721,35.09629 -10.57624,46.80288 2.75737,-16.14503 4.24953,-32.78208 1.21566,-51.17925 z"
       style="fill:#030633;fill-opacity:1;stroke:#030633;stroke-width:1px;stroke-linecap:round;stroke-linejoin:round;stroke-opacity:1" />
  </g>
  <g
     id="layer16">
    <path
       id="path3946"
       d="m 432.85714,423.00001 c -19.98739,-6.01541 -37.49207,-24.44443 -55.71429,-39.28571 -12.76509,-10.11976 -35.47325,-36.28649 -24.28571,-62.14285 -17.38121,14.52413 -8.93895,-18.74516 1.96429,-28.21429 -28.15929,-4.86188 -16.02412,-8.20912 -0.89286,-13.39285 -23.46907,-9.78679 -6.2171,-32.28769 -11.07143,-50.53572 L 400,150.85716 l 174.28571,9.28571 49.28571,145.71429 c 19.04505,13.05383 5.28139,33.82735 -7.14285,54.28571 -27.55218,41.18177 -70.78622,50.17825 -91.42857,55.71429 -78.35416,25.39557 -63.49555,8.27318 -92.14286,7.14285 z"
       style="fill:#fefffc;fill-opacity:1;stroke:none" />
  </g>
  <g
     id="layer15">
    <path
       id="path8564"
       d="m 418.9695,387.79432 c 14.55915,-16.72921 16.68425,2.56241 57.76519,0 -1.67787,29.29855 -19.14574,20.94403 -32.66484,22.00579 -14.51124,-7.33526 -20.51628,-14.67053 -25.10035,-22.00579 z"
       style="fill:#fefffc;fill-opacity:1;fill-rule:evenodd;stroke:none;stroke-width:1px;stroke-linecap:butt;stroke-linejoin:miter;stroke-opacity:1" />
  </g>
  <g
     id="layer25">
    <path
       id="path3964-7"
       d="m 492.07143,276.95401 c 1.8726,-22.70465 10.06754,-48.92464 45,-64.28571 62.16843,31.96899 14.70978,79.42936 -45,64.28571 z"
       style="display:inline;fill:#fefffc;fill-opacity:1;stroke:none;stroke-width:3;stroke-linecap:butt;stroke-linejoin:miter;stroke-miterlimit:4;stroke-dasharray:none;stroke-opacity:1" />
    <path
       id="path3950-7"
       d="m 360.64306,241.2396 c 22.27569,-44.98959 48.67283,-6.78139 53.5898,33.74971 -20.88693,21.82189 -55.5549,-0.34363 -53.5898,-33.74971 z"
       style="display:inline;fill:#fefffc;fill-opacity:1;stroke:none;stroke-width:3;stroke-linecap:round;stroke-linejoin:round;stroke-miterlimit:4;stroke-dasharray:none;stroke-opacity:1" />
  </g>
  <g
     style="display:inline"
     id="layer4">
    <g
       transform="translate(1.2508045,-8.4000637)"
       id="g3975">
      <g
         id="g4204"
         transform="translate(-0.66395003,7.9674003)">
        <path
           transform="matrix(0.89391902,0,0,0.77658395,40.906465,56.523396)"
           d="m 372.14866,234.22492 a 23.571428,49.464287 0 0 1 23.49454,-48.36756 23.571428,49.464287 0 0 1 23.63315,48.06929 23.571428,49.464287 0 0 1 -22.30425,50.78859 23.571428,49.464287 0 0 1 -24.75651,-45.51129"
           id="path4202"
           style="fill:#030633;fill-opacity:1" />
        <g
           id="g4164">
          <path
             style="fill:#f91413;fill-opacity:1"
             id="path3376"
             d="m 410.37448,240.57524 a 16.730652,35.039665 0 0 1 -16.64763,35.03923 16.730652,35.039665 0 0 1 -16.81285,-34.69148 16.730652,35.039665 0 0 1 16.48077,-35.38353 16.730652,35.039665 0 0 1 16.97642,34.34032"
             transform="matrix(1.0943396,0,0,0.97117117,-35.557846,5.9253501)" />
          <path
             style="fill:#ac1c19;fill-opacity:1;display:inline"
             id="path3376-4"
             d="m 376.92062,239.53002 a 16.730652,35.039665 0 0 1 9.3156,-30.37281 16.730652,35.039665 0 0 1 17.17794,2.9739 16.730652,35.039665 0 0 1 6.80783,33.16414 l -16.57816,-4.72001 z"
             transform="matrix(1.0997019,0,0,0.97117117,-37.622614,5.7888284)" />
          <path
             style="fill:#f75150;fill-opacity:1"
             id="path3368"
             d="M 405.07116,238.99689 A 11.301082,30.557114 0 0 1 393.77008,269.554 11.301082,30.557114 0 0 1 382.469,238.99689 a 11.301082,30.557114 0 0 1 11.30108,-30.55712 11.301082,30.557114 0 0 1 11.30108,30.55712 z"
             transform="matrix(1.3072625,0,0,0.99130124,-119.91752,1.0820893)" />
          <path
             style="fill:#030633;fill-opacity:1"
             id="path3366"
             d="m 406.46013,238.55493 a 10.796005,24.811872 0 0 1 -10.79601,24.81187 10.796005,24.811872 0 0 1 -10.796,-24.81187 10.796005,24.811872 0 0 1 10.796,-24.81187 10.796005,24.811872 0 0 1 10.79601,24.81187 z"
             transform="matrix(0.94736841,0,0,1,19.766906,0.12626907)" />
        </g>
      </g>
    </g>
    <path
       transform="matrix(0.96968572,0,0,0.78761051,129.86665,57.84665)"
       d="m 372.14866,234.22492 a 23.571428,49.464287 0 1 1 0.0669,4.97903"
       id="path4202-4"
       style="fill:#030633;fill-opacity:1" />
    <path
       transform="matrix(1.1870935,0,0,0.98496064,46.921385,6.5301729)"
       d="m 410.37448,240.57524 a 16.730652,35.039665 0 1 1 -0.003,-0.69546"
       id="path3376-9"
       style="fill:#f91413;fill-opacity:1" />
    <path
       transform="matrix(1.1877632,0,0,0.98496064,46.636767,6.3917128)"
       d="m 377.15402,246.49929 a 16.730652,35.039665 0 0 1 32.97435,-11.91201 l -16.48454,5.98796 z"
       id="path3376-4-3"
       style="fill:#ac1c19;fill-opacity:1;display:inline" />
    <path
       transform="matrix(1.4180633,0,0,1.0053765,-44.588438,1.6181436)"
       d="m 405.07116,238.99689 a 11.301082,30.557114 0 1 1 -22.60216,0 11.301082,30.557114 0 1 1 22.60216,0 z"
       id="path3368-8"
       style="fill:#f75150;fill-opacity:1" />
    <path
       transform="matrix(1.0276654,0,0,1.0141988,106.93535,0.64875189)"
       d="m 406.46013,238.55493 a 10.796005,24.811872 0 1 1 -21.59201,0 10.796005,24.811872 0 1 1 21.59201,0 z"
       id="path3366-9"
       style="fill:#030633;fill-opacity:1" />
  </g>
  <g
     id="layer19">
    <path
       transform="matrix(0.98089674,-0.25529526,0.32228819,1.2382973,-67.884303,79.44201)"
       d="m 529.00356,242.0156 a 5.6435752,2.2408314 0 1 1 0.016,0.22556"
       id="path3971"
       style="fill:#fefffc;fill-opacity:1;stroke:#030633;stroke-width:2;stroke-linecap:round;stroke-linejoin:round;stroke-miterlimit:4;stroke-opacity:1;stroke-dasharray:none" />
    <path
       transform="matrix(1.3286452,-0.37287502,0.26262865,0.93581031,-198.65503,166.58876)"
       d="m 401.19263,252.21096 a 3.3197501,2.8217876 0 1 1 0.009,0.28404"
       id="path3973"
       style="fill:#fefffc;fill-opacity:1;stroke:#030633;stroke-width:1.72690737;stroke-linecap:round;stroke-linejoin:round;stroke-miterlimit:4;stroke-opacity:1;stroke-dasharray:none" />
  </g>
  <g
     style="display:inline"
     id="layer17">
    <path
       id="path3966"
       d="m 493.92857,265.85716 c 13.05385,-46.06583 28.5701,-42.88384 43.39286,-53.57143 L 493.75,195.67859 c -8.94192,22.51523 -10.37929,45.76214 0.17857,70.17857 z"
       style="fill:#fefffc;fill-opacity:1;stroke:none" />
    <path
       id="path3968"
       d="m 492.85714,275.85716 c 15.92827,5.18466 31.09875,3.25326 46.07143,-0.53572 l -27.5,25 z"
       style="fill:#fefffc;fill-opacity:1;stroke:none" />
    <path
       id="path3952"
       d="m 386.07125,198.00049 43.75,32.14286 -15.11973,35.71429 c -10.11484,-51.31482 -26.91427,-46.38239 -52.55885,-48.03571 z"
       style="fill:#fefffc;fill-opacity:1;stroke:none;display:inline" />
    <path
       id="path4940"
       d="m 361.05064,239.24226 c 3.90401,35.8405 27.76454,42.31058 33.06593,44.49313 L 378.06987,305.131 356.188,266.71616 z"
       style="fill:#fefffc;fill-opacity:1;stroke:#fefffc;stroke-width:1px;stroke-linecap:butt;stroke-linejoin:miter;stroke-opacity:1;display:inline" />
  </g>
  <g
     id="layer14">
    <path
       id="path3920"
       d="m 349.52944,267.01673 c -1.85195,-4.23862 -2.54241,-6.80597 -4.39436,-16.86476 17.79399,-28.56542 45.54141,-50.55103 68.01731,-74.79468 l 3.78807,58.58885 c -11.34149,-9.57373 -17.51787,-13.98233 -26.26397,-20.96067 -10.72753,6.42684 -20.94942,8.97712 -33.58757,30.05204 -4.4552,6.56851 -6.21382,16.16689 -7.55948,23.97922 z"
       style="fill:#cacede;fill-opacity:1;stroke:none" />
    <path
       id="path3930"
       d="m 453.30595,243.79512 c 3.81568,-6.3755 8.14685,-6.0495 11.36422,-20.20305 5.45166,1.1018 11.87063,-10.37146 17.93021,-17.17259 10.33973,15.42394 39.50388,5.74865 60.60915,6.81853 l -46.46702,-47.72971 -33.49566,51.35933 z"
       style="fill:#cacede;fill-opacity:1;stroke:none" />
    <path
       id="path3932"
       d="m 561.90925,226.95607 20.44369,8.75783 c 21.43589,27.116 22.48751,47.95992 27.27412,69.95307 2.68568,-3.02969 1.45647,-15.9139 6.30346,-22.37163 4.84698,-6.45774 15.77017,-6.489 23.74857,-14.49894 -0.20633,5.54494 1.56785,8.75962 -1.01015,17.93021 -4.27321,11.12273 -10.18059,13.29161 -15.06176,18.94273 2.78765,-3.08784 7.23059,-5.22701 12.95093,-2.6969 3.63347,14.7478 -2.36309,23.70852 -5.71785,34.00926 l -15.24995,21.97795 c 2.36215,-17.35832 9.44532,-29.43207 11.46188,-46.97923 -3.05727,2.15416 -7.29818,1.54649 -12.37437,-1.01015 -5.64567,5.82533 -8.58798,3.54058 -12.37437,3.78807 -12.45598,-17.93394 3.19382,-1.65522 -13.19266,-45.9024 -8.50433,-14.61606 -16.00511,-30.39007 -27.20154,-41.89987 z"
       style="fill:#cacede;fill-opacity:1;stroke:none" />
    <path
       id="path3936"
       d="m 390.67649,335.46647 c 9.72662,6.15992 18.97093,15.69593 29.29443,17.67767 -0.13037,9.61312 5.01607,19.01639 8.08122,27.52665 l -3.78807,2.52539 c -2.94117,-9.19443 -8.86212,-18.91422 -15.15229,-26.76905 -10.95662,-7.5215 -12.9038,-14.04195 -18.43529,-20.96066 z"
       style="fill:#cacede;fill-opacity:1;stroke:none" />
    <path
       id="path3938"
       d="m 430.36821,380.38086 9.04814,3.57293 c -4.44927,-6.1933 -9.25244,-13.97742 -7.07106,-23.48605 13.55618,-5.84882 21.4754,-15.89147 28.59606,-22.98097 -12.71693,5.24248 -25.49722,15.55221 -36.92982,15.65737 -1.14795,10.87009 3.29197,18.17205 6.35668,27.23672 z"
       style="fill:#cacede;fill-opacity:1;stroke:none" />
    <path
       id="path3940"
       d="m 387.9181,386.76064 c 5.52231,0.11278 18.82289,3.30595 31.04267,2.74899 l 3.28299,4.54568 c -9.70715,0.49161 -25.48311,7.08112 -34.32566,-7.29467 z"
       style="fill:#cacede;fill-opacity:1;stroke:none" />
  </g>
  <g
     style="display:inline"
     id="layer18">
    <path
       id="path3964"
       d="m 493.57143,275.50001 c 1.8726,-22.70465 10.06754,-48.92464 45,-64.28571 62.16843,31.96899 14.70978,79.42936 -45,64.28571 z"
       style="fill:none;stroke:#030633;stroke-width:3;stroke-linecap:butt;stroke-linejoin:miter;stroke-miterlimit:4;stroke-dasharray:none;stroke-opacity:1" />
    <path
       id="path3950"
       d="m 362.14306,239.7856 c 22.27569,-44.98959 48.67283,-6.78139 53.5898,33.74971 -20.88693,21.82189 -55.5549,-0.34363 -53.5898,-33.74971 z"
       style="fill:none;stroke:#030633;stroke-width:3;stroke-linecap:round;stroke-linejoin:round;stroke-miterlimit:4;stroke-dasharray:none;stroke-opacity:1" />
  </g>
  <g
     style="display:inline"
     id="layer71">
    <path
       id="path4170"
       d="m 386.477,292.72243 c 9.44237,-12.32094 20.06265,-23.26653 35.07172,-34.89979 l 22.34962,37.99436 z"
       style="fill:#fefffc;fill-opacity:1;stroke:#fefffc;stroke-width:1px;stroke-linecap:butt;stroke-linejoin:miter;stroke-opacity:1;display:inline" />
  </g>
  <g
     id="layer22">
    <path
       id="path4014"
       d="m 640.0726,268.26526 c 0.39502,10.4952 2.39292,20.50258 -17.01079,37.02348 27.35902,-16.60613 13.82453,26.97732 -6.6709,54.03427"
       style="fill:none;stroke:#030633;stroke-width:2;stroke-linecap:round;stroke-linejoin:round;stroke-miterlimit:4;stroke-opacity:1;stroke-dasharray:none" />
    <path
       id="path4043"
       d="m 352.50326,321.78773 c -19.25845,49.95294 75.61497,105.42789 94.1715,105.77362 73.95778,6.91427 168.71876,-47.1775 172.53892,-70.99753"
       style="fill:none;stroke:#030633;stroke-width:5;stroke-linecap:round;stroke-linejoin:round;stroke-miterlimit:4;stroke-opacity:1;stroke-dasharray:none" />
    <path
       id="path4045"
       d="m 610.91522,361.81939 c 3.67536,-3.06368 7.35071,-7.18071 11.02607,-11.32089 -0.2804,3.18797 -0.2319,6.27701 -1.88681,9.0803 -0.96534,-0.71818 -5.57573,1.37098 -9.13926,2.24059 z"
       style="fill:#030633;fill-opacity:1;stroke:#030633;stroke-width:1px;stroke-linecap:round;stroke-linejoin:round;stroke-opacity:1" />
    <path
       id="path4066"
       d="m 398.94338,402.85762 c -3.04113,-5.97412 -13.78167,-19.9706 -21.34459,-28.89186 1.06417,5.96437 2.63199,11.80284 4.95289,17.45303 z"
       style="fill:#030633;fill-opacity:1;stroke:#030633;stroke-width:1px;stroke-linecap:round;stroke-linejoin:round;stroke-opacity:1" />
  </g>
  <g
     id="layer24">
    <path
       id="path4048"
       d="m 418.93236,260.59373 c -95.91386,71.49793 -32.26971,157.68057 8.67216,121.41033"
       style="fill:none;stroke:#030633;stroke-width:5;stroke-linecap:round;stroke-linejoin:round;stroke-miterlimit:4;stroke-opacity:1;stroke-dasharray:none" />
    <path
       id="path4050"
       d="m 428.62539,380.64964 c -2.31188,-9.39102 -6.12354,-16.68436 -6.47552,-27.15181"
       style="fill:none;stroke:#030633;stroke-width:5;stroke-linecap:round;stroke-linejoin:round;stroke-miterlimit:4;stroke-opacity:1;stroke-dasharray:none" />
    <path
       id="path4052"
       d="m 391.16027,335.87569 c 35.47318,25.33316 40.21343,12.80927 69.45837,1.29718 -10.43597,8.18009 -21.48272,14.81094 -37.7363,17.68889 -10.15325,-3.73369 -21.57745,-6.94945 -31.72207,-18.98607 z"
       style="fill:#030633;fill-opacity:1;stroke:#030633;stroke-width:1px;stroke-linecap:round;stroke-linejoin:round;stroke-opacity:1" />
    <path
       id="path4054"
       d="m 428.27161,380.66988 c 91.33166,31.13563 105.94521,-46.73513 115.07297,-63.03998"
       style="fill:none;stroke:#030633;stroke-width:4;stroke-linecap:round;stroke-linejoin:round;stroke-miterlimit:4;stroke-opacity:1;stroke-dasharray:none" />
    <path
       id="path4056"
       d="m 542.87197,316.24102 9.25718,-4.776 -8.31377,7.96001 z"
       style="fill:#030633;fill-opacity:1;stroke:#030633;stroke-width:1px;stroke-linecap:round;stroke-linejoin:round;stroke-opacity:1" />
    <path
       id="path4058"
       d="m 418.25602,388.68507 c 12.78007,14.73334 20.27099,18.44764 27.85099,22.34751"
       style="fill:none;stroke:#030633;stroke-width:3.5;stroke-linecap:round;stroke-linejoin:round;stroke-miterlimit:4;stroke-opacity:1;stroke-dasharray:none" />
    <path
       id="path4060"
       d="m 446.78335,410.52215 c 23.45863,1.87366 29.801,-8.51796 30.01904,-22.01397"
       style="fill:none;stroke:#030633;stroke-width:5;stroke-linecap:round;stroke-linejoin:round;stroke-miterlimit:4;stroke-opacity:1;stroke-dasharray:none" />
    <path
       id="path4062"
       d="m 447.08663,408.54754 c -1.85444,-0.0589 -3.31289,-0.24685 -4.89392,-0.56017 l 4.36326,3.30192 c 0.14741,-1.09081 1.45883,0.50019 0.53066,-2.74175 z"
       style="fill:#030633;fill-opacity:1;stroke:#030633;stroke-width:1px;stroke-linecap:round;stroke-linejoin:round;stroke-opacity:1" />
    <path
       id="path4064"
       d="m 432.43434,382.92813 c 6.35329,12.1859 14.42621,20.08975 21.99319,26.82815"
       style="fill:none;stroke:#030633;stroke-width:2;stroke-linecap:round;stroke-linejoin:round;stroke-miterlimit:4;stroke-opacity:1;stroke-dasharray:none" />
  </g>
  <g
     style="display:inline"
     id="layer5">
    <path
       id="path3884"
       d="m 337.89603,290.00961 c -6.59854,-16.52948 -43.99424,-45.04733 -13.63707,-136.87568 22.9142,-28.12796 49.31534,-71.20477 125.25892,-68.185291 22.00516,-8.844559 85.38053,-57.36771 97.9848,-10.606602 12.06516,-6.451025 22.10404,-2.770612 28.78934,17.677669 62.44814,8.452314 103.81753,146.558444 41.41626,208.596494 l -8.46901,4.45903 c -6.45288,-19.89088 -3.43265,-36.89791 -27.92712,-69.99902 -37.2496,-17.4895 -68.65562,-39.63113 -85.83233,-71.84075 -7.24667,27.19942 -18.10301,46.67375 -32.82996,54.04316 -11.90485,31.18198 -16.55106,37.71132 -24.74873,45.45687 -19.07783,-14.89398 -23.7653,-48.01576 -22.72844,-88.38835 -30.06593,39.69738 -53.44904,52.50891 -67.30141,70.83695 -5.30199,13.77798 -1.76468,24.69723 8.20749,37.24938 z"
       style="fill:#fefffc;fill-opacity:1;stroke:none" />
  </g>
  <g
     style="display:inline"
     id="layer11">
    <path
       id="path3887"
       d="m 440.42651,89.494322 10.6066,-4.671955 16.42395,3.178391 c 3.16878,8.439103 -18.31796,1.114855 -27.03055,1.493564 z"
       style="fill:#cacede;fill-opacity:1;stroke:#cacede;stroke-width:1px;stroke-linecap:round;stroke-linejoin:round;stroke-opacity:1" />
    <path
       id="path3889"
       d="m 536.78571,90.321443 c 0.18266,-3.738187 -1.81576,-5.840556 1.78572,-12.142857 1.3058,-1.255581 0.95424,-0.577566 4.82142,-4.821428 -0.12087,3.057982 0.6776,4.89019 -0.71428,9.642857 -2.27471,4.613425 -4.08273,5.960059 -5.89286,7.321428 z"
       style="fill:#cacede;fill-opacity:1;stroke:#cacede;stroke-width:1px;stroke-linecap:round;stroke-linejoin:round;stroke-opacity:1" />
    <path
       id="path3891"
       d="m 571.78571,100.50001 c -0.0226,-6.394165 0.44025,-10.740182 0.89286,-12.857138 l 4.28571,4.464286 c -1.42633,6.096082 -3.28417,7.445536 -5.17857,8.392852 z"
       style="fill:#cacede;fill-opacity:1;stroke:#cacede;stroke-width:1px;stroke-linecap:round;stroke-linejoin:round;stroke-opacity:1" />
    <path
       id="path3893"
       d="m 430.57752,256.42203 c 17.88049,-15.34509 32.62533,-51.66998 41.92133,-105.56094 1.01579,18.93566 2.83439,37.20232 0,59.34646 -4.99955,11.77984 -6.02234,3.45359 -7.49692,2.42296 -7.14216,15.02546 -16.15601,38.82074 -27.50128,51.86005 z"
       style="fill:#cacede;fill-opacity:1;stroke:#cacede;stroke-width:1px;stroke-linecap:round;stroke-linejoin:round;stroke-opacity:1" />
    <path
       id="path3895"
       d="m 314.66251,240.76467 c -0.50054,-10.19046 2.85186,-17.99877 5.55584,-27.52666 7.04901,-21.27667 24.59956,-39.05284 39.14342,-57.83123 -7.76795,16.74956 -19.38912,32.39122 -20.45559,49.75001 -3.09091,18.96454 -4.54569,50.25509 2.77792,67.17514 l 4.41941,-20.96066 c 1.63184,8.95058 6.32576,21.71705 11.03659,30.38913 -6.7069,0.22325 -11.66382,4.06192 -15.80144,9.42375 -10.02412,-14.13826 -21.29015,-33.63086 -26.67615,-50.41948 z"
       style="fill:#cacede;fill-opacity:1;stroke:#cacede;stroke-width:1px;stroke-linecap:butt;stroke-linejoin:miter;stroke-opacity:1" />
  </g>
  <g
     id="layer12">
    <path
       id="path3900"
       d="m 347.99755,297.58575 c -19.26801,-17.34793 -33.03542,-38.92709 -34.85026,-69.70053 -3.96092,-29.06004 0.77251,-52.58732 11.61675,-72.2259 22.04457,-41.16323 49.57476,-55.995522 78.28682,-65.154843 16.17702,-2.180162 28.66521,-10.046638 49.49748,-5.050762 90.31255,-57.643371 102.45952,-18.034722 89.3985,-4.04061 32.67886,-28.144197 31.37373,11.936805 34.85026,12.12183"
       style="fill:none;stroke:#030633;stroke-width:6;stroke-linecap:round;stroke-linejoin:round;stroke-miterlimit:4;stroke-opacity:1;stroke-dasharray:none" />
    <path
       id="path3902"
       d="M 576.29202,92.019706 C 683.87363,131.90088 647.56568,287.74472 615.68797,303.64666"
       style="fill:none;stroke:#030633;stroke-width:4;stroke-linecap:round;stroke-linejoin:round;stroke-miterlimit:4;stroke-opacity:1;stroke-dasharray:none" />
    <path
       id="path3904"
       d="m 449.0128,111.2126 c -12.88231,9.09555 -25.43607,20.92899 -34.34518,63.13454 -2.32744,71.65017 11.99335,72.59515 22.22335,90.91373 14.39814,-11.64211 23.06131,-37.04814 30.80965,-64.64977 -12.70528,58.2139 38.91588,-47.70064 36.87057,-69.70052"
       style="fill:none;stroke:#030633;stroke-width:3;stroke-linecap:round;stroke-linejoin:round;stroke-miterlimit:4;stroke-opacity:1;stroke-dasharray:none" />
    <path
       id="path3906"
       d="m 413.92857,172.28573 c -22.89447,47.96485 -76.59468,55.59789 -71.07143,100 -5.13545,-8.31459 -6.88832,-20.49497 -5.35714,-36.42857"
       style="fill:none;stroke:#030633;stroke-width:2;stroke-linecap:round;stroke-linejoin:round;stroke-miterlimit:4;stroke-opacity:1;stroke-dasharray:none" />
    <path
       id="path3908"
       d="m 496.48997,164.75069 c 19.20009,32.45382 48.98627,55.93368 88.38835,72.22591"
       style="fill:none;stroke:#030633;stroke-width:3;stroke-linecap:round;stroke-linejoin:round;stroke-miterlimit:4;stroke-opacity:1;stroke-dasharray:none" />
    <path
       id="path3910"
       d="m 581.07142,236.57144 c 20.58079,19.44926 23.95569,44.63382 27.85715,69.64286 13.08472,-12.17233 15.23637,-34.36665 17.14285,-56.78571"
       style="fill:none;stroke:#030633;stroke-width:2;stroke-linecap:round;stroke-linejoin:round;stroke-miterlimit:4;stroke-opacity:1;stroke-dasharray:none" />
    <path
       id="path3912"
       d="m 614.59952,303.75764 c 0.49476,-1.20951 2.20261,-4.96969 2.60646,-8.99543"
       style="fill:none;stroke:#030633;stroke-width:2;stroke-linecap:round;stroke-linejoin:round;stroke-miterlimit:4;stroke-opacity:1;stroke-dasharray:none" />
  </g>
  <g
     id="layer23">
    <path
       id="path4016"
       d="m 357.40806,282.33333 c -6.33407,-0.35876 -13.77477,5.27132 -14.53271,9.31451 -0.91801,4.89711 6.23842,-3.08456 10.80996,2.10694 -16.00919,23.23577 -13.99226,37.75585 -1.41511,27.38767"
       style="fill:none;stroke:#030633;stroke-width:3;stroke-linecap:round;stroke-linejoin:round;stroke-miterlimit:4;stroke-opacity:1;stroke-dasharray:none" />
    <path
       id="path4039"
       d="m 357.85195,282.10737 c -5.15818,-9.03412 -9.62952,-21.43439 -11.3156,-33.72359"
       style="fill:none;stroke:#030633;stroke-width:2;stroke-linecap:round;stroke-linejoin:round;stroke-miterlimit:4;stroke-opacity:1;stroke-dasharray:none" />
    <path
       id="path4041"
       d="m 343.0509,292.94758 9.08909,-0.58371 0.75048,2.58498 -3.46053,7.10867 c -3.31807,-0.57834 -5.39925,-4.72521 -6.37904,-9.10994 z"
       style="fill:#030633;fill-opacity:1;stroke:none" />
  </g>
  <g
     id="layer13">
    <path
       id="path3915"
       d="m 372.99882,202.88395 9.34392,-4.79823 c 11.64234,12.15618 19.41227,23.83902 35.60787,32.57742 l 1.76777,5.05076 c -13.76446,-4.86949 -26.08984,-15.42132 -36.87057,-32.07234 z"
       style="fill:#030633;stroke:#030633;stroke-width:1px;stroke-linecap:round;stroke-linejoin:round;stroke-opacity:1" />
    <path
       id="path3917"
       d="m 484.1156,234.19867 c 12.14669,-7.18011 46.25781,-36.32464 56.82108,-41.92133 11.18341,0.97773 22.86418,1.90572 27.52666,3.53554 -13.06596,0.64413 -19.83159,0.50073 -27.77919,0.50507 l -47.98225,38.89088 z"
       style="fill:#030633;stroke:#030633;stroke-width:1px;stroke-linecap:round;stroke-linejoin:round;stroke-opacity:1" />
  </g>
</svg>
