/* XPM */
static char * head_48x48_xpm[] = {
"48 48 10 1",
" 	c None",
".	c #FF00FF",
"+	c #030633",
"@	c #FFD0CD",
"#	c #FEFFFC",
"$	c #EAAAA0",
"%	c #CACEDD",
"&	c #A51815",
"*	c #FA100F",
"=	c #F85150",
".......+++++....................................",
"......++@@++++..................................",
"......+@@@+##++.........................++++....",
"......+@@@++##+......................++++@@++...",
".....++@@@@++#++..................+++++@@@@@+...",
".....+@@@@$$+##+.......+++++.....++##+@@@@@@+...",
".....+@@@@$$++#++...++++###++..+++##++@@@@@@+...",
"....++@@@$$$$+##+++++#######++++###++@@@@@@@+...",
"....+@@@@$$$$++++############++###++$$@@@@@@+...",
"....+@@@$$$+++###%%%##########+++#+$$$$@@@@@+...",
"....+@@@$+++####################+++$$$$@@@@@+...",
"....+@$$++########################+$$$$$@@@@+...",
"....+@$++#########################++$$$$@@@@+...",
"....+@++#######+###################++$$$@@@@+...",
"....+++########+#######+############+$$$@@@@+...",
"....++########+#######+#############++$@@@@@+...",
"....+#########+#######+##############+$$@@@++...",
"...++##%######+######++%#############+$$@@@+....",
"...+##%######++####%#+%+#############++$@@++....",
"...+##%#####+%+####%#+%%+############+++$@+.....",
"...+#%%#++##+%+####%%+%%%+#+++#######+#+$@+.....",
"...+#%####+#+%+####%%+%%%%+##########+#+$++.....",
"...+%%#####+%%+###%%+%%%%+++#########+#+++......",
"...+%%###++#+%+###%+####+##++########+##+.......",
"...+%%#++##&++++##%+###+++&##+++#####+##+.......",
"...+%%#++##&++#++#%+#++#++&##+#%+####+##+.......",
"...++%+++##*++###++#####++*##+#%++###+##+.......",
"....+%+%+##*=*##########*=*##+##%+###+##+.......",
"....++%%#+#***+#########***++###%+###+##+.......",
".....+++##++++#########++++#####%++#++##+.......",
"......+####+#####################%+#+###+.......",
"......++##+######################%++++##+.......",
".......+#++################+########%+##+.......",
".......+#+#################+########%+#++.......",
".......+#+################+########%+##++.......",
".......+#+##++###++#######+########++##+........",
".......+++###++#++#######++########+##++........",
"........++####+++#######++########++##+.........",
"........+++###%+#######++########++%##+.........",
".........+++###+####++++########++%%##++........",
"..........+++++++++++#########++%%%%###++.......",
"...........+++#+#+##########+++%%%%%####+.......",
"............+++#+#+######++++%%%%%%%%#+++.......",
"..............+++++###++++%%%%%%%%%%+++.........",
"................++++++%%%%%%%%%%%%%++...........",
"................+%%%%%%%%%%%%+++%%++............",
".................+++%%%%%%%%++.++++.............",
"...................++++++++++..................."};
