P3
30 18
255
0 255 0 0 255 0 0 255 0 0 255 0 0 255 0 0 255 0 0 255 0 0 255 0 0 255 0 0 102 204 0 102 204 0 102 204 0 102 204 0 102 204 0 102 204 0 255 0 0 255 0 0 255 0 0 255 0 0 255 0 0 255 0 0 255 0 0 255 0 0 255 0 0 255 0 0 255 0 0 255 0 0 255 0 0 255 0 0 255 0 
0 255 0 0 255 0 0 255 0 0 255 0 0 255 0 0 255 0 0 255 0 0 102 204 0 102 204 0 102 204 0 102 204 0 102 204 0 102 204 0 102 204 0 102 204 0 102 204 0 102 204 0 255 0 0 255 0 0 255 0 0 255 0 0 255 0 0 255 0 0 255 0 0 255 0 0 255 0 68 68 68 0 255 0 0 255 0 0 255 0 
0 255 0 0 255 0 0 255 0 0 255 0 0 255 0 0 255 0 0 102 204 0 102 204 0 102 204 0 102 204 0 102 204 0 102 204 0 102 204 0 102 204 0 102 204 0 102 204 0 102 204 0 102 204 0 255 0 0 255 0 0 255 0 0 255 0 0 255 0 0 255 0 0 255 0 68 68 68 51 51 51 34 34 34 0 255 0 0 255 0 
0 255 0 0 255 0 0 255 0 0 255 0 0 255 0 0 102 204 0 102 204 0 102 204 0 102 204 0 102 204 0 102 204 0 102 204 0 102 204 0 102 204 0 102 204 0 102 204 0 102 204 0 102 204 0 102 204 0 255 0 0 255 0 0 255 0 0 255 0 0 255 0 68 68 68 51 51 51 17 17 17 17 17 17 17 17 17 0 255 0 
0 255 0 0 255 0 0 255 0 0 255 0 0 102 204 0 102 204 0 102 204 0 102 204 0 102 204 0 102 204 0 102 204 0 102 204 0 102 204 0 102 204 0 102 204 0 102 204 0 102 204 0 102 204 0 102 204 0 102 204 0 255 0 0 255 0 0 255 0 192 192 192 51 51 51 34 34 34 17 17 17 34 34 34 0 255 0 0 255 0 
0 255 0 0 255 0 0 255 0 0 255 0 0 102 204 0 102 204 0 102 204 0 102 204 0 102 204 0 102 204 0 102 204 0 102 204 0 102 204 0 102 204 0 102 204 0 102 204 0 102 204 0 102 204 0 102 204 0 102 204 0 255 0 0 255 0 192 192 192 153 153 153 136 136 136 17 17 17 34 34 34 0 255 0 0 255 0 0 255 0 
0 255 0 0 255 0 0 255 0 0 102 204 0 102 204 0 102 204 0 102 204 0 102 204 0 102 204 0 102 204 0 102 204 0 102 204 0 102 204 0 102 204 0 102 204 0 102 204 0 102 204 0 102 204 0 102 204 0 102 204 0 102 204 192 192 192 153 153 153 136 136 136 119 119 119 102 102 102 0 255 0 0 255 0 0 255 0 0 255 0 
0 255 0 0 255 0 0 255 0 0 102 204 0 102 204 0 102 204 0 102 204 0 102 204 0 102 204 0 102 204 0 102 204 0 102 204 0 102 204 0 102 204 0 102 204 0 102 204 0 102 204 0 102 204 0 102 204 0 102 204 192 192 192 153 153 153 136 136 136 119 119 119 102 102 102 0 255 0 0 255 0 0 255 0 0 255 0 0 255 0 
0 255 0 0 255 0 0 255 0 0 102 204 0 102 204 0 102 204 0 102 204 0 102 204 0 102 204 0 102 204 0 102 204 0 102 204 0 102 204 0 102 204 0 102 204 0 102 204 0 102 204 0 102 204 0 102 204 192 192 192 153 153 153 136 136 136 119 119 119 102 102 102 0 255 0 0 255 0 0 255 0 0 255 0 0 255 0 0 255 0 
0 255 0 0 255 0 0 255 0 0 102 204 0 102 204 0 102 204 0 102 204 0 102 204 0 102 204 0 102 204 0 102 204 0 102 204 0 102 204 0 102 204 0 102 204 0 102 204 0 102 204 0 102 204 192 192 192 153 153 153 136 136 136 119 119 119 102 102 102 0 255 0 0 255 0 0 255 0 0 255 0 0 255 0 0 255 0 0 255 0 
0 255 0 0 255 0 0 255 0 0 102 204 0 102 204 0 102 204 0 102 204 0 102 204 0 102 204 0 102 204 0 102 204 0 102 204 0 102 204 0 102 204 0 102 204 0 102 204 0 102 204 192 192 192 153 153 153 136 136 136 119 119 119 102 102 102 0 255 0 0 255 0 0 255 0 0 255 0 0 255 0 0 255 0 0 255 0 0 255 0 
0 255 0 0 255 0 0 255 0 0 102 204 0 102 204 0 102 204 0 102 204 0 102 204 0 102 204 0 102 204 0 102 204 0 102 204 0 102 204 0 102 204 0 102 204 0 102 204 192 192 192 153 153 153 136 136 136 119 119 119 102 102 102 0 255 0 0 255 0 0 255 0 0 255 0 0 255 0 0 255 0 0 255 0 0 255 0 0 255 0 
0 255 0 0 255 0 0 255 0 0 255 0 0 102 204 0 102 204 0 102 204 0 102 204 0 102 204 0 102 204 0 102 204 0 102 204 0 102 204 0 102 204 0 102 204 192 192 192 153 153 153 136 136 136 119 119 119 102 102 102 0 255 0 0 255 0 0 255 0 0 255 0 0 255 0 0 255 0 0 255 0 0 255 0 0 255 0 0 255 0 
0 255 0 0 255 0 0 255 0 0 255 0 0 102 204 0 102 204 0 102 204 0 102 204 0 102 204 0 102 204 0 102 204 0 102 204 0 102 204 0 102 204 0 0 0 153 153 153 136 136 136 119 119 119 102 102 102 0 102 204 0 255 0 0 255 0 0 255 0 0 255 0 0 255 0 0 255 0 0 255 0 0 255 0 0 255 0 0 255 0 
0 255 0 0 255 0 0 255 0 0 255 0 0 255 0 0 102 204 0 102 204 0 102 204 0 102 204 0 102 204 0 102 204 0 102 204 0 102 204 0 102 204 0 0 0 0 0 0 119 119 119 102 102 102 0 102 204 0 255 0 0 255 0 0 255 0 0 255 0 0 255 0 0 255 0 0 255 0 0 255 0 0 255 0 0 255 0 0 255 0 
0 255 0 0 255 0 0 255 0 0 255 0 0 255 0 0 255 0 0 102 204 0 102 204 0 102 204 0 102 204 0 102 204 0 102 204 0 102 204 0 102 204 0 0 0 0 0 0 0 0 0 0 102 204 0 255 0 0 255 0 0 255 0 0 255 0 0 255 0 0 255 0 0 255 0 0 255 0 0 255 0 0 255 0 0 255 0 0 255 0 
0 255 0 0 255 0 0 255 0 0 255 0 0 255 0 0 255 0 0 255 0 0 102 204 0 102 204 0 102 204 0 102 204 0 102 204 0 102 204 0 102 204 0 102 204 0 102 204 0 102 204 0 255 0 0 255 0 0 255 0 0 255 0 0 255 0 0 255 0 0 255 0 0 255 0 0 255 0 0 255 0 0 255 0 0 255 0 0 255 0 
0 255 0 0 255 0 0 255 0 0 255 0 0 255 0 0 255 0 0 255 0 0 255 0 0 255 0 0 102 204 0 102 204 0 102 204 0 102 204 0 102 204 0 102 204 0 255 0 0 255 0 0 255 0 0 255 0 0 255 0 0 255 0 0 255 0 0 255 0 0 255 0 0 255 0 0 255 0 0 255 0 0 255 0 0 255 0 0 255 0 
