P3
15 9
255
255 255 255 255 255 255 255 255 255 85 85 85 85 85 85 85 85 85 85 85 85 85 85 85 255 255 255 255 255 255 255 255 255 255 255 255 255 255 255 255 255 255 255 255 255 
255 255 255 255 255 255 85 85 85 85 85 85 85 85 85 85 85 85 85 85 85 85 85 85 85 85 85 255 255 255 255 255 255 255 255 255 255 255 255 0 0 0 255 255 255 
255 255 255 85 85 85 85 85 85 85 85 85 85 85 85 85 85 85 85 85 85 85 85 85 85 85 85 85 85 85 255 255 255 255 255 255 0 0 0 0 0 0 255 255 255 
255 255 255 85 85 85 85 85 85 85 85 85 85 85 85 85 85 85 85 85 85 85 85 85 85 85 85 255 255 255 255 255 255 0 0 0 0 0 0 255 255 255 255 255 255 
255 255 255 85 85 85 85 85 85 85 85 85 85 85 85 85 85 85 85 85 85 85 85 85 255 255 255 255 255 255 0 0 0 0 0 0 255 255 255 255 255 255 255 255 255 
255 255 255 85 85 85 85 85 85 85 85 85 85 85 85 85 85 85 85 85 85 255 255 255 255 255 255 0 0 0 0 0 0 255 255 255 255 255 255 255 255 255 255 255 255 
255 255 255 85 85 85 85 85 85 85 85 85 85 85 85 85 85 85 255 255 255 255 255 255 0 0 0 0 0 0 255 255 255 255 255 255 255 255 255 255 255 255 255 255 255 
255 255 255 255 255 255 85 85 85 85 85 85 85 85 85 85 85 85 255 255 255 0 0 0 0 0 0 255 255 255 255 255 255 255 255 255 255 255 255 255 255 255 255 255 255 
255 255 255 255 255 255 255 255 255 85 85 85 85 85 85 85 85 85 255 255 255 255 255 255 255 255 255 255 255 255 255 255 255 255 255 255 255 255 255 255 255 255 255 255 255 
