P3
15 9
255
0 255 0 0 255 0 0 255 0 0 102 204 0 102 204 0 102 204 0 102 204 0 102 204 0 255 0 0 255 0 0 255 0 0 255 0 0 255 0 0 255 0 0 255 0 
0 255 0 0 255 0 0 102 204 0 102 204 0 102 204 0 102 204 0 102 204 0 102 204 0 102 204 0 255 0 0 255 0 0 255 0 0 255 0 51 51 51 0 255 0 
0 255 0 0 102 204 0 102 204 0 102 204 0 102 204 0 102 204 0 102 204 0 102 204 0 102 204 0 102 204 0 255 0 0 255 0 51 51 51 17 17 17 0 255 0 
0 255 0 0 102 204 0 102 204 0 102 204 0 102 204 0 102 204 0 102 204 0 102 204 0 102 204 0 102 204 0 255 0 153 153 153 119 119 119 0 255 0 0 255 0 
0 255 0 0 102 204 0 102 204 0 102 204 0 102 204 0 102 204 0 102 204 0 102 204 0 102 204 0 102 204 153 153 153 119 119 119 0 255 0 0 255 0 0 255 0 
0 255 0 0 102 204 0 102 204 0 102 204 0 102 204 0 102 204 0 102 204 0 102 204 0 102 204 153 153 153 119 119 119 0 255 0 0 255 0 0 255 0 0 255 0 
0 255 0 0 102 204 0 102 204 0 102 204 0 102 204 0 102 204 0 102 204 0 102 204 153 153 153 119 119 119 0 255 0 0 255 0 0 255 0 0 255 0 0 255 0 
0 255 0 0 255 0 0 102 204 0 102 204 0 102 204 0 102 204 0 102 204 0 0 0 119 119 119 0 255 0 0 255 0 0 255 0 0 255 0 0 255 0 0 255 0 
0 255 0 0 255 0 0 255 0 0 102 204 0 102 204 0 102 204 0 102 204 0 102 204 0 255 0 0 255 0 0 255 0 0 255 0 0 255 0 0 255 0 0 255 0 
