/* XPM */
static char * apple_xpm[] = {
"16 16 5 1",
" 	c None",
".	c #84674A",
"+	c #1A674A",
"@	c #00EF00",
"#	c #1AEF9B",
"       .  ++    ",
"       .++++    ",
"       .+++@@   ",
"   @@@ .+ @##@@ ",
"  @###@@@@####@ ",
"  @####@@#####@ ",
"  @###########@ ",
" @############@ ",
" @###########@@ ",
" @###########@  ",
" @###########@  ",
" @###########@  ",
" @@@#######@@@  ",
"   @@@@@@@@@    ",
"                ",
"                "};
