/* XPM */
static char * logo_xpm[] = {
"240 65 3 1",
" 	c None",
".	c #FF8C00",
"+	c #000000",
"                                                                                                                                                                                                                                                ",
"                                                                                                                                                                                                                                                ",
"                                                                                                                                                                                                                                                ",
"                                                                                                                                                                                                                                                ",
"                                                                                                                                                                                                                                                ",
"                                                                                    .....                                                                                                                                                       ",
"                                                                                   .......                                                                                                                                                      ",
"        ++++++++++++++++++                                                         .......                                                      +++++++                    +      +                            ++    ++++++++++++++++++++++     ",
"       +++++++++++++++++++                                                         .......                                                      +++++++                    +      ++                          +++    +                          ",
"      ++++++++++++++++++++                                                         .......                                                      +++++++                    +      ++                          +++    +                          ",
"     +++++++++++++++++++++                                                         .......                                                      +++++++                    +      +++                        ++++    +                          ",
"     +++++++++++++++++++++                                                          .....                                                       +++++++                    +      + +                        + ++    +                          ",
"    ++++++++++++++++++++++                                                            .                                                         +++++++                    +      + +                        + ++    +                          ",
"    ++++++++++++++++++++++             ++  +++                                                                                                  +++++++                    +      +  +                      +  ++    +                          ",
"    ++++++++                           ++ + ++++                                                                                                +++++++                    +      +  +                      +  ++    +                          ",
"    ++++++++                       ++  ++++ ++++  +        ++++++        ++++++    +++++++         ++++++       +++++       ++++++++++++        +++++++                    +      +   +                    +   ++    +                          ",
"    +++++++                        ++++++++++++++ +        ++++++        ++++++    +++++++      +++++++++    ++++++++     ++++++++++++++++      +++++++                    +      +   +                    +   ++    +                          ",
"    +++++++                    +   ++++++++++++++ ++       ++++++        ++++++    +++++++     ++++++++++   +++++++++    ++++++++++++++++++     +++++++                    +      +    +                  ++   ++    +                          ",
"    +++++++                    + +++++++++++++++++++       ++++++        ++++++    +++++++    +++++++++++  ++++++++++   ++++++++++++++++++++    +++++++                    +      +    +                  +    ++    +                          ",
"    ++++++++                  ++ ++++++++++++++++++++      ++++++        ++++++    +++++++    +++++++++++  ++++++++++   ++++++++++++++++++++    +++++++                    +      +    ++                 +    ++    +                          ",
"    ++++++++++++++++++        +++++++++++++++++++++++      ++++++        ++++++    +++++++    +++++++++++  ++++++++++   ++++++++++++++++++++    +++++++                    +      +     +                +     ++    +                          ",
"    +++++++++++++++++++       ++++++++++++++++++++++++     ++++++        ++++++    +++++++    +++++++++++  ++++++++++   ++++++++++++++++++++    +++++++                    +      +     +                +     ++    +                          ",
"     +++++++++++++++++++      ++++++++++++++++++++++++     ++++++        ++++++    +++++++    ++++++       ++++++       +++++++       ++++++    +++++++                    +      +      +              +      ++    +++++++++++++++++++++      ",
"     ++++++++++++++++++++     ++++++++       +++++++++     ++++++        ++++++    +++++++    ++++++       ++++++       ++++++       +++++++    +++++++                    +      +      +              +      ++    +++++++++++++++++++++      ",
"      +++++++++++++++++++     ++++++++        +++++++      ++++++        ++++++    +++++++    ++++++       ++++++       ++++++    ++++++++++    +++++++                    +      +       +            +       ++    +                          ",
"      +++++++++++++++++++     ++++++++        +++++++      ++++++        ++++++    +++++++    ++++++       ++++++       ++++++  ++++++++++++    +++++++                    +      +       +            +       ++    +                          ",
"        ++++++++++++++++++    ++++++++        +++++++      ++++++        ++++++    +++++++    ++++++       ++++++       ++++++++++++++++++++    +++++++                    +      +       ++          ++       ++    +                          ",
"                  ++++++++    ++++++++        ++++++  +    ++++++        ++++++    +++++++    ++++++       ++++++       +++++++++++++++++       +++++++                    +      +        +          +        ++    +                          ",
"                  ++++++++    ++++++++        ++++++  +    ++++++        ++++++    +++++++    ++++++       ++++++       +++++++++++++++         +++++++                    +      +        +          +        ++    +                          ",
"                  ++++++++     +++++++        ++++++ ++    ++++++        ++++++    +++++++    ++++++       ++++++       ++++++++++++            +++++++                    +      +         +        +         ++    +                          ",
"                  ++++++++     +++++++        +++++++++    ++++++        ++++++    +++++++    ++++++       ++++++       ++++++++++              +++++++    +               +      +         +        +         ++    +                          ",
"                  ++++++++     +++++++         ++++++++    ++++++        ++++++    +++++++    ++++++       ++++++       +++++++                 +++++++    +               +      +          +      +          ++    +                          ",
"                  ++++++++    + ++++++    +++    ++++++    ++++++        ++++++    +++++++    ++++++       ++++++       ++++++                  +++++++    +               +      +          +      +          ++    +                          ",
"    +++++++++++++++++++++     ++++++++    ++++++  +++++    +++++++      +++++++    +++++++    ++++++       ++++++       +++++++                 +++++++    +               +      +           +    +           ++    +                          ",
"    +++++++++++++++++++++     +++++++++    ++++++  ++++    ++++++++++++++++++++    +++++++    ++++++       ++++++       ++++++++++++++++++++    +++++++    +               +      +           +    +           ++    +                          ",
"    +++++++++++++++++++++      +++++++++++  ++++++ +++     ++++++++++++++++++++    +++++++    ++++++       ++++++       ++++++++++++++++++++    +++++++    +               +      +           ++  ++           ++    +                          ",
"    +++++++++++++++++++++      +++++++++++  ++++++  ++     ++++++++++++++++++++    +++++++    ++++++       ++++++       ++++++++++++++++++++    +++++++    ++             ++      +            +  +            ++    +                          ",
"    ++++++++++++++++++++        +++++++++++ ++++++  ++     +++++++++++++++++++     +++++++    ++++++       ++++++        +++++++++++++++++++    +++++++     +             +       +            +  +            ++    +                          ",
"    +++++++++++++++++++         +++++++++++  +++++  ++      ++++++++++++++++++     +++++++    ++++++       ++++++        +++++++++++++++++++    +++++++      +           +        +             ++             ++    +                          ",
"    ++++++++++++++++++           ++++++++++  +++++  +++      +++++++++++++++       +++++++    ++++++       ++++++          +++++++++++++++++    +++++++       ++       ++         +             ++             ++    ++++++++++++++++++++++     ",
"                                  +++++++++  +++++  ++                                                                                                          +++++++                                                                         ",
"                                   +    + + +++++++ ++                                                                                                                                                                                          ",
"                                         +  +++++++ +      +                                                                                                                                                                                    ",
"                                            +++++++ +      +                                                                                                                                                                                    ",
"                                           ++++++++        ++                                                                                                                                                                                   ",
"                                           ++++++++     +  ++                                                                                                                                                                                   ",
"                                          +++++++++     + +++                                                                                                                                                                                   ",
"                                          ++++++++++    + ++++                                                                                                                                                                                  ",
"                                          ++++++++++   ++ ++++                                                                                                                                                                                  ",
"                                         +++++++++++++++++++++                                                                                                                                                                                  ",
"                                         +++++++++++++++++++++                                                                                                                                                                                  ",
"                                         +++++++++++++++++++++                                                                                                                                                                                  ",
"                                         +++++++++++++++++++++                                                                                                                                                                                  ",
"                                          ++++++++++++++++++++                                                                                                                                                                                  ",
"                                          ++++++++++++++++++++                                                                                                                                                                                  ",
"                                          +++++++++++++++++++                                                                                                                                                                                   ",
"                                           ++++++++++++++++++                                                                                                                                                                                   ",
"                                            ++++++++++++++++                                                                                                                                                                                    ",
"                                             ++++++++++++++                                                                                                                                                                                     ",
"                                              ++++++++++++                                                                                                                                                                                      ",
"                                                ++++++++                                                                                                                                                                                        ",
"                                                                                                                                                                                                                                                ",
"                                                                                                                                                                                                                                                ",
"                                                                                                                                                                                                                                                ",
"                                                                                                                                                                                                                                                "};
