/* XPM */
static char *dummy[]={
"16 16 101 2",
"#d c #00ff35",
".X c #01fc35",
".i c #01ff36",
"#H c #02fe37",
".O c #04f636",
"#I c #04ff38",
"#t c #05f938",
".E c #05ff39",
".N c #07fe3b",
".x c #07ff3b",
".c c #08a72a",
"#j c #08d733",
".Y c #08ff3b",
"#. c #09d534",
".9 c #09fa3b",
".t c #0ad033",
".# c #0bc733",
"#g c #0bcd33",
".F c #0bd936",
".l c #0cc433",
".R c #0cd536",
"#r c #0dbf33",
".y c #0dca34",
"#z c #0dcb34",
"#f c #0df73d",
"#E c #0fc235",
".S c #0fd438",
".Q c #10af32",
".5 c #10b432",
".d c #10b934",
"#c c #10c135",
"#B c #10dd3c",
".Z c #10e63c",
".D c #10ff41",
"#n c #11ad32",
"Qt c #11c137",
"#h c #11e03b",
".3 c #12a632",
"#C c #12a932",
"#a c #12b133",
"#w c #12c137",
".L c #12d23a",
".0 c #12d43b",
".P c #12ef40",
"#D c #12f241",
".W c #13a231",
"#u c #13a632",
".1 c #13c137",
".M c #13dd3d",
"#i c #13fe44",
"#x c #13ff44",
".e c #149d31",
".o c #149e31",
".H c #149f31",
"#y c #14a232",
".p c #14a833",
".h c #14ff45",
".u c #159e32",
"#s c #15a033",
"#m c #15a333",
".I c #15aa34",
".A c #15c43a",
".B c #169f33",
".n c #16a935",
".f c #179f34",
".4 c #17a435",
".w c #17cc3d",
".z c #18d13e",
".j c #1aa036",
"#v c #1ba839",
"#F c #1ca138",
"#q c #1ca238",
".8 c #1dee48",
".q c #1dff4c",
"#p c #21a23c",
"#l c #21e349",
"## c #21f64d",
"#b c #24a43f",
".b c #24aa40",
".v c #26f851",
".k c #28b045",
"#o c #2bd84f",
".K c #31d954",
".U c #32b64e",
".C c #38f05e",
".g c #3dae55",
".s c #41c85d",
".m c #44b15b",
".r c #46ff6c",
"#e c #4ad066",
"#G c #4ccf68",
".T c #4dcf68",
".J c #4ed069",
".7 c #51d46c",
".2 c #53bd6a",
".G c #54ff78",
".a c #59eb78",
".V c #5dca74",
"#A c #5efd7f",
".6 c #6ce485",
"#k c #7cfc97",
"Qt.#.a.a.b.a.a.c.d.e.f.g.a.h.i.j",
".k.l.j.a.a.m.c.a.n.o.p.a.a.q.j.r",
".s.j.t.a.u.a.c.c.c.c.v.j.w.c.x.c",
".j.y.z.A.j.c.j.B.j.C.D.E.j.F.G.c",
".H.I.J.j.K.c.c.L.M.N.O.j.P.j.a.j",
".Q.R.j.c.S.c.a.a.j.T.j.U.j.V.j.W",
".X.c.c.Y.Z.0.1.j.a.j.a.c.2.j.3.c",
".j.c.j.a.j.a.j.4.j.a.j.a.j.c.j.5",
".H.j.6.j.a.j.7.j.a.c.8.j.9.a.a.j",
".j#..j##.j#a.j#b.j#c.j#d.j.a.j#e",
"#f.j#g.j#h.a.a.j#i.j#j.j#k.j.a.j",
".j#l#m.a.a.a.j.a.j#n.j#o.j#p.j.a",
".a.a#q.a.a.j.a.j.i.j#r.a.e.j.a.j",
".j#b#s.a.j.a.j.a.j#t.j.e.o#u.a.a",
".c.j#v.j#w.j#x.j.a.j.a.a#y#z#A.j",
".j#B.a.a#C#D.j#E.j.a.a#F#G#H.j#I"};
